<svg width="48" height="47" viewBox="0 0 48 47" fill="none" xmlns="http://www.w3.org/2000/svg">
<ellipse cx="23.7418" cy="23.3322" rx="17.9235" ry="17.4124" stroke="#907EFF" stroke-width="9" stroke-linejoin="round"/>
<path d="M41.6653 23.3322C41.6653 13.7156 33.6407 5.9198 23.7419 5.9198C13.843 5.9198 5.81836 13.7156 5.81836 23.3322" stroke="#3CCBE9" stroke-width="9" stroke-linejoin="round"/>
<path d="M41.6653 23.3322C41.6653 13.7156 33.6407 5.9198 23.7418 5.9198C16.0117 5.9198 9.42447 10.6739 6.90918 17.3367" stroke="#66788B" stroke-width="9" stroke-linejoin="round"/>
<path d="M41.6658 23.3322C41.6658 13.7156 33.6412 5.9198 23.7423 5.9198C21.5437 5.9198 19.4375 6.30439 17.4912 7.00809" stroke="#F8C33D" stroke-width="9" stroke-linejoin="round"/>
<path d="M41.6657 23.3323C41.6657 32.9489 33.6411 40.7447 23.7422 40.7447" stroke="#3FE4A9" stroke-width="9" stroke-linejoin="round"/>
<path d="M41.5589 25.2269C41.8685 22.4794 41.5004 19.6998 40.485 17.1179C39.4696 14.536 37.8362 12.226 35.7197 10.3789" stroke="#2CC08C" stroke-width="9" stroke-linejoin="round"/>
<path d="M35.9401 10.5745C32.4572 7.43154 27.8318 5.76146 23.0814 5.93162" stroke="#F8954D" stroke-width="9" stroke-linejoin="round"/>
</svg>
