<svg width="56" height="57" viewBox="0 0 56 57" fill="none" xmlns="http://www.w3.org/2000/svg">
<path fill-rule="evenodd" clip-rule="evenodd" d="M53.6666 28.7878V26.6878C53.6666 25.2878 52.7333 24.3544 51.3333 24.3544C49.9333 24.3544 48.9999 25.2878 48.9999 26.6878V28.7878C48.9999 40.4544 39.6666 49.7878 27.9999 49.7878C16.3333 49.7878 6.99992 40.4544 6.99992 28.7878C6.99992 17.1211 16.3333 7.78776 27.9999 7.78776C31.0333 7.78776 33.8333 8.48776 36.6333 9.65443C37.7999 10.1211 39.1999 9.65443 39.6666 8.48776C40.1333 7.32109 39.6666 5.92109 38.4999 5.45443C35.2333 3.82109 31.4999 3.12109 27.9999 3.12109C13.7666 3.12109 2.33325 14.5544 2.33325 28.7878C2.33325 43.0211 13.7666 54.4544 27.9999 54.4544C42.2333 54.4544 53.6666 43.0211 53.6666 28.7878ZM52.0333 6.15443C52.9666 5.22109 54.3666 5.22109 55.2999 6.15443C56.2333 7.08776 56.2333 8.48776 55.2999 9.42109L29.6333 35.0878C29.1666 35.5544 28.4666 35.7878 27.9999 35.7878C27.5333 35.7878 26.8333 35.5544 26.3666 35.0878L19.3666 28.0878C18.4333 27.1544 18.4333 25.7544 19.3666 24.8211C20.2999 23.8878 21.6999 23.8878 22.6333 24.8211L27.9999 30.1878L52.0333 6.15443Z" fill="#3FE4A9"/>
</svg>
