<svg width="76" height="76" viewBox="0 0 76 76" fill="none" xmlns="http://www.w3.org/2000/svg">
<path d="M44.8733 37.3647C46.3107 34.298 49.6122 32.4573 53.081 32.7885L55.0812 32.9794C56.466 33.1117 57.307 34.5182 56.7331 35.7425L55.9043 37.5109C54.4669 40.5775 51.1654 42.4183 47.6966 42.0871L45.6964 41.8961C44.3116 41.7639 43.4706 40.3573 44.0445 39.133L44.8733 37.3647Z" stroke="#C9794A" stroke-width="2" stroke-linecap="round" stroke-linejoin="round"/>
<path d="M29.4782 37.3647C28.0409 34.298 24.7394 32.4573 21.2706 32.7885L19.2703 32.9794C17.8855 33.1117 17.0446 34.5182 17.6184 35.7425L18.4473 37.5109C19.8847 40.5775 23.1862 42.4183 26.6549 42.0871L28.6552 41.8961C30.04 41.7639 30.8809 40.3573 30.3071 39.133L29.4782 37.3647Z" stroke="#C9794A" stroke-width="2" stroke-linecap="round" stroke-linejoin="round"/>
<path d="M37.1636 27.6968V51.4592" stroke="#C9794A" stroke-width="2"/>
<circle cx="37.159" cy="15.0181" r="13.6067" fill="#C9794A" stroke="#C9794A" stroke-width="2" stroke-linecap="round" stroke-linejoin="round"/>
<path d="M39.8319 11.4158C40.2001 11.8274 40.8323 11.8625 41.2439 11.4942C41.6555 11.126 41.6906 10.4938 41.3224 10.0822L39.8319 11.4158ZM37.5216 15.0178L37.135 15.94L37.5216 15.0178ZM34.3445 18.0933C33.9213 17.7385 33.2906 17.794 32.9358 18.2173C32.581 18.6405 32.6365 19.2713 33.0597 19.626L34.3445 18.0933ZM37.1396 20.2791L37.1661 19.2795L37.1396 20.2791ZM36.1396 22.2747C36.1396 22.827 36.5874 23.2747 37.1396 23.2747C37.6919 23.2747 38.1396 22.827 38.1396 22.2747H36.1396ZM38.5216 7.76086C38.5216 7.20857 38.0739 6.76086 37.5216 6.76086C36.9693 6.76086 36.5216 7.20857 36.5216 7.76086H38.5216ZM39.5639 19.4463L38.867 18.7292L39.5639 19.4463ZM38.8633 15.7143L39.4226 14.8853L38.8633 15.7143ZM41.3224 10.0822C40.8017 9.50026 39.4022 8.46837 37.5216 8.46837V10.4684C38.6965 10.4684 39.5887 11.144 39.8319 11.4158L41.3224 10.0822ZM37.5216 8.46837C35.1456 8.46837 33.466 10.1144 33.466 12.0296H35.466C35.466 11.3836 36.0781 10.4684 37.5216 10.4684V8.46837ZM33.466 12.0296C33.466 13.0137 33.922 13.8105 34.5978 14.4371C35.2498 15.0416 36.1394 15.5228 37.135 15.94L37.9081 14.0955C36.994 13.7124 36.3559 13.3398 35.9576 12.9705C35.583 12.6232 35.466 12.3262 35.466 12.0296H33.466ZM37.1661 19.2795C36.35 19.2579 35.3476 18.9341 34.3445 18.0933L33.0597 19.626C34.3777 20.7308 35.8064 21.2442 37.1132 21.2788L37.1661 19.2795ZM36.1396 20.2791V22.2747H38.1396V20.2791H36.1396ZM38.5216 9.46837V7.76086H36.5216V9.46837H38.5216ZM38.867 18.7292C38.5435 19.0436 37.9544 19.3004 37.1661 19.2795L37.1132 21.2788C38.3367 21.3112 39.4825 20.9199 40.2609 20.1634L38.867 18.7292ZM37.135 15.94C37.5998 16.1348 37.9899 16.3313 38.304 16.5433L39.4226 14.8853C38.9577 14.5717 38.4359 14.3167 37.9081 14.0955L37.135 15.94ZM38.304 16.5433C39.4522 17.318 39.2967 18.3116 38.867 18.7292L40.2609 20.1634C41.765 18.7016 41.4243 16.2359 39.4226 14.8853L38.304 16.5433Z" fill="white"/>
<path d="M5.78931 52.9387C12.7062 48.9626 13.4217 48.9626 18.0635 48.9626C26.1333 48.9626 26.2622 51.6702 30.904 51.6702C35.5459 51.6702 35.5764 51.6702 41.3787 51.6702C48.3072 51.6702 48.3072 60.8907 41.3787 60.8907C38.8135 60.8907 33.2555 60.8907 32.095 60.8907" stroke="#242A32" stroke-width="2" stroke-linecap="round" stroke-linejoin="round"/>
<path d="M1.92407 74.5886L14.8083 68.5738L33.1176 74.3175C33.6811 74.4943 34.2843 74.5008 34.8516 74.3362L53.9428 68.7964C54.4454 68.6506 54.901 68.3758 55.2646 67.9995L74.0757 48.5246C72.9564 46.8539 69.1509 44.7153 62.883 49.5271C56.615 54.3389 49.0882 57.9729 45.7304 59.3095" stroke="#242A32" stroke-width="2" stroke-linecap="round" stroke-linejoin="round"/>
</svg>
