<svg width="153" height="32" viewBox="0 0 153 32" fill="none" xmlns="http://www.w3.org/2000/svg">
<g id="Group 20">
<g id="Group 16">
<g id="CREDIT">
<path d="M33.7412 16.0776C33.7412 14.6942 33.9394 13.4715 34.3357 12.4096C34.7395 11.3402 35.2892 10.4429 35.9846 9.7175C36.6876 8.98466 37.4989 8.43128 38.4187 8.05738C39.346 7.67599 40.3294 7.4853 41.3688 7.4853C42.2138 7.4853 42.9168 7.53017 43.4776 7.61991C44.0385 7.70217 44.4947 7.79564 44.8461 7.90034C45.2051 7.99755 45.4967 8.06859 45.7211 8.11346L45.4518 9.77359C45.2873 9.71377 45.0518 9.62029 44.7452 9.49316C44.446 9.36604 44.031 9.25013 43.5001 9.14543C42.9766 9.04074 42.2961 8.98839 41.4586 8.98839C40.3069 8.98839 39.2899 9.26134 38.4075 9.80724C37.5251 10.3457 36.8334 11.1346 36.3324 12.174C35.8313 13.206 35.5808 14.4623 35.5808 15.943C35.5808 17.2965 35.8089 18.508 36.2651 19.5773C36.7212 20.6467 37.3793 21.4917 38.2393 22.1124C39.1067 22.7256 40.1499 23.0322 41.3688 23.0322C42.0568 23.0322 42.6887 22.9798 43.2645 22.8752C43.8478 22.763 44.3451 22.6321 44.7564 22.4826C45.1752 22.3255 45.4818 22.1797 45.6762 22.0451L45.6986 23.6379C45.3696 23.7426 45.0144 23.866 44.633 24.0081C44.2591 24.1427 43.8029 24.2586 43.2645 24.3558C42.7336 24.4605 42.0718 24.5128 41.2791 24.5128C39.7536 24.5128 38.4262 24.1614 37.297 23.4584C36.1678 22.748 35.2929 21.7609 34.6722 20.4971C34.0516 19.2333 33.7412 17.7602 33.7412 16.0776Z" fill="#667687"/>
<path d="M51.0702 24.3334H49.2306V7.66478C49.2306 7.66478 49.3129 7.66478 49.4774 7.66478C49.6419 7.6573 49.8102 7.65356 49.9821 7.65356C50.1616 7.64608 50.2701 7.64234 50.3074 7.64234C50.8384 7.64234 51.4478 7.61991 52.1358 7.57504C52.8313 7.53017 53.538 7.50774 54.2559 7.50774C55.1009 7.50774 55.8711 7.59 56.5666 7.75452C57.2695 7.91903 57.8752 8.18076 58.3837 8.53971C58.8923 8.89866 59.2849 9.37352 59.5615 9.96428C59.8382 10.5476 59.9766 11.2617 59.9766 12.1067C59.9766 13.0639 59.7934 13.8828 59.4269 14.5633C59.068 15.2438 58.567 15.7859 57.9238 16.1898C57.2807 16.5861 56.5367 16.8404 55.6916 16.9525C55.3327 17.0049 54.9364 17.0423 54.5026 17.0647C54.0689 17.0797 53.5716 17.0871 53.0108 17.0871C52.4499 17.0797 51.8031 17.0722 51.0702 17.0647V24.3334ZM51.0702 15.7635C51.2497 15.7785 51.5451 15.7934 51.9564 15.8084C52.3751 15.8159 52.7976 15.8233 53.2239 15.8308C53.6501 15.8308 53.9717 15.8308 54.1886 15.8308C55.3551 15.8159 56.2936 15.5093 57.004 14.911C57.7219 14.3128 58.0846 13.4079 58.0921 12.1965C58.0921 11.4038 57.9463 10.7644 57.6546 10.2784C57.363 9.79229 56.9106 9.43708 56.2974 9.21274C55.6916 8.98839 54.9139 8.87622 53.9642 8.87622C53.4707 8.87622 52.9472 8.89118 52.3938 8.92109C51.8479 8.94353 51.4067 8.98839 51.0702 9.0557V15.7635ZM59.0343 24.3334C58.9446 24.2212 58.8623 24.0866 58.7876 23.9296C58.7128 23.7725 58.6006 23.5332 58.451 23.2117C58.2043 22.7032 57.9388 22.1124 57.6546 21.4394C57.3779 20.7663 57.0713 20.1083 56.7348 19.4652C56.4058 18.8146 56.0394 18.2612 55.6356 17.805C55.2317 17.3489 54.7868 17.0871 54.3007 17.0198L55.0635 16.459L56.1852 16.5936C56.6488 16.7357 57.0788 17.0572 57.4752 17.5582C57.879 18.0593 58.2529 18.65 58.5969 19.3305C58.9483 20.0036 59.2811 20.6878 59.5952 21.3833C59.9093 22.0713 60.2159 22.6807 60.515 23.2117C60.6272 23.421 60.7356 23.623 60.8403 23.8174C60.945 24.0043 61.0459 24.1763 61.1431 24.3334H59.0343Z" fill="#667687"/>
<path d="M63.9749 24.3334V7.66478H73.3749V9.10057H65.8145V15.0008H71.3333V16.4365H65.8145V22.8752H74.16V24.3334H63.9749Z" fill="#667687"/>
<path d="M76.9885 24.3334V7.66478C77.0259 7.66478 77.1418 7.66478 77.3362 7.66478C77.5307 7.66478 77.7251 7.66478 77.9195 7.66478C78.1214 7.6573 78.2448 7.64982 78.2897 7.64234C78.6412 7.64234 79.0188 7.63113 79.4226 7.60869C79.8339 7.58626 80.2564 7.56382 80.6901 7.54139C81.1239 7.51896 81.5576 7.50774 81.9913 7.50774C84.6386 7.50774 86.6165 8.21068 87.9252 9.61655C89.2338 11.0224 89.8882 12.9892 89.8882 15.5167C89.8882 17.3414 89.5703 18.9342 88.9347 20.2952C88.2991 21.6487 87.3718 22.6957 86.1529 23.436C84.9414 24.1763 83.472 24.5353 81.7446 24.5128C81.2734 24.4979 80.7051 24.468 80.0396 24.4231C79.374 24.3782 78.7608 24.3558 78.2 24.3558C78.1252 24.3483 77.9943 24.3408 77.8074 24.3334C77.6204 24.3334 77.4409 24.3334 77.2689 24.3334C77.1044 24.3334 77.0109 24.3334 76.9885 24.3334ZM78.8281 22.92C79.2544 22.9873 79.7703 23.0397 80.3761 23.0771C80.9893 23.1144 81.5352 23.1294 82.0138 23.1219C83.1803 23.107 84.2086 22.8415 85.0985 22.3255C85.9883 21.802 86.6838 21.0019 87.1848 19.9251C87.6933 18.8482 87.9513 17.4685 87.9588 15.7859C87.9663 14.1557 87.7307 12.8321 87.2521 11.8151C86.7735 10.7906 86.0594 10.0428 85.1097 9.57168C84.16 9.09309 82.9784 8.85379 81.5651 8.85379C81.0416 8.85379 80.5481 8.86874 80.0844 8.89866C79.6283 8.92857 79.2095 8.96596 78.8281 9.01083V22.92Z" fill="#667687"/>
<path d="M93.3395 24.3334V7.66478H95.2015V24.3334H93.3395Z" fill="#667687"/>
<path d="M103.678 24.3334V9.10057H98.2936V7.66478H111.014V9.10057H105.562V24.3334H103.678Z" fill="#667687"/>
</g>
<g id="SEC">
<path d="M118.497 24.5128C117.705 24.5128 116.946 24.453 116.22 24.3333C115.503 24.2212 114.878 24.0865 114.347 23.9295C113.816 23.765 113.442 23.6154 113.225 23.4808L113.741 20.2279C114.018 20.3849 114.392 20.5457 114.863 20.7102C115.334 20.8747 115.854 21.0168 116.422 21.1365C116.998 21.2486 117.578 21.3047 118.161 21.3047C118.946 21.3047 119.514 21.1925 119.866 20.9682C120.225 20.7439 120.404 20.3849 120.404 19.8914C120.404 19.5324 120.296 19.2296 120.079 18.9828C119.862 18.7285 119.503 18.4705 119.002 18.2088C118.509 17.9471 117.847 17.618 117.017 17.2217C116.314 16.8852 115.667 16.4888 115.076 16.0327C114.486 15.569 114.011 15.0157 113.652 14.3726C113.293 13.722 113.113 12.9517 113.113 12.0618C113.113 11.2991 113.255 10.6335 113.54 10.0652C113.831 9.48938 114.239 9.01079 114.762 8.62941C115.293 8.24802 115.921 7.96386 116.647 7.77691C117.372 7.58248 118.176 7.48526 119.058 7.48526C120.315 7.48526 121.339 7.60117 122.132 7.83299C122.924 8.06481 123.47 8.27046 123.77 8.44993L123.119 11.5683C122.782 11.3065 122.263 11.0673 121.56 10.8504C120.864 10.626 120.15 10.5139 119.417 10.5139C118.894 10.5139 118.464 10.5737 118.127 10.6933C117.791 10.8055 117.54 10.9663 117.376 11.1757C117.211 11.3851 117.129 11.6281 117.129 11.9048C117.129 12.2413 117.226 12.5404 117.421 12.8022C117.623 13.0564 117.933 13.3107 118.352 13.5649C118.778 13.8117 119.328 14.0884 120.001 14.395C120.718 14.7165 121.358 15.0456 121.919 15.3821C122.487 15.7186 122.969 16.085 123.366 16.4814C123.762 16.8777 124.061 17.3301 124.263 17.8386C124.472 18.3397 124.577 18.9192 124.577 19.5773C124.577 20.5719 124.342 21.4393 123.87 22.1796C123.407 22.92 122.723 23.4958 121.818 23.9071C120.913 24.3109 119.806 24.5128 118.497 24.5128Z" fill="#333D4A"/>
<path d="M127.216 24.3333V7.66474H137.76V10.7831H131.366V14.3052H136.302V17.3339H131.366V21.1477H138.411V24.3333H127.216Z" fill="#333D4A"/>
<path d="M139.728 16.0327C139.728 14.6193 139.945 13.3817 140.378 12.3198C140.812 11.2505 141.418 10.3568 142.195 9.63894C142.973 8.92105 143.878 8.38263 144.91 8.02368C145.942 7.66474 147.056 7.48526 148.253 7.48526C149.023 7.48526 149.666 7.53013 150.182 7.61987C150.706 7.70213 151.154 7.7956 151.528 7.9003C151.909 8.00499 152.268 8.09099 152.605 8.15829L152.067 11.7478C151.909 11.6431 151.685 11.5159 151.394 11.3664C151.109 11.2093 150.735 11.0747 150.272 10.9626C149.816 10.8429 149.255 10.7831 148.589 10.7831C147.737 10.7831 146.966 10.9775 146.279 11.3664C145.591 11.7478 145.045 12.3123 144.641 13.0602C144.237 13.8005 144.035 14.7091 144.035 15.7859C144.035 16.8852 144.211 17.8461 144.562 18.6687C144.921 19.4913 145.452 20.1344 146.155 20.598C146.858 21.0542 147.729 21.2823 148.769 21.2823C149.24 21.2823 149.718 21.2262 150.204 21.114C150.691 20.9944 151.128 20.8523 151.517 20.6878C151.906 20.5233 152.194 20.3625 152.381 20.2054V23.6379C152.096 23.7575 151.76 23.8846 151.371 24.0192C150.99 24.1538 150.545 24.2698 150.036 24.367C149.528 24.4642 148.948 24.5128 148.298 24.5128C146.458 24.5128 144.899 24.1651 143.62 23.4696C142.349 22.7741 141.38 21.7908 140.715 20.5195C140.057 19.2482 139.728 17.7526 139.728 16.0327Z" fill="#333D4A"/>
</g>
</g>
<g id="Group 14">
<g id="Group 12">
<path id="Rectangle 8 (Stroke)" fill-rule="evenodd" clip-rule="evenodd" d="M22.7444 5.21824C22.1644 4.86224 21.433 4.86487 20.8557 5.22502L9.34081 12.4075C8.49981 12.9321 8.2433 14.0392 8.76789 14.8802C9.29247 15.7212 10.3995 15.9777 11.2405 15.4531L21.8131 8.85833L23.6791 10.0037V21.9006L13.5074 28.1005L12.412 27.4264C11.5678 26.9069 10.4624 27.1701 9.94288 28.0143C9.4234 28.8585 9.6866 29.9639 10.5308 30.4834L12.5623 31.7336C13.1368 32.0871 13.861 32.0887 14.437 31.7376L26.4079 24.441C26.9424 24.1153 27.2686 23.5345 27.2686 22.9086V8.99954C27.2686 8.37558 26.9445 7.7964 26.4127 7.46998L22.7444 5.21824Z" fill="#06C2A1"/>
</g>
<g id="Group 13">
<path id="Rectangle 8 (Stroke)_2" fill-rule="evenodd" clip-rule="evenodd" d="M5.14649 27.1656C5.72651 27.522 6.4582 27.5195 7.03577 27.1592L18.5506 19.9767C19.3916 19.4521 19.6481 18.3451 19.1235 17.504C18.599 16.663 17.4919 16.4065 16.6509 16.9311L6.07871 23.5257L3.58947 21.9965L3.58947 10.0992L13.7611 3.89931L14.8566 4.57342C15.7007 5.09291 16.8062 4.8297 17.3257 3.98554C17.8452 3.14137 17.5819 2.03591 16.7378 1.51642L14.7062 0.266234C14.1317 -0.0873006 13.4075 -0.0888436 12.8315 0.26224L0.860638 7.55879C0.326138 7.88458 -1.65805e-06 8.46532 -1.60332e-06 9.09128L-3.87361e-07 23.0003C-3.32832e-07 23.624 0.323839 24.203 0.855301 24.5295L5.14649 27.1656Z" fill="#333D4A"/>
</g>
</g>
</g>
</svg>
