<svg width="77" height="76" viewBox="0 0 77 76" fill="none" xmlns="http://www.w3.org/2000/svg">
<circle cx="41.0642" cy="30.1594" r="13.0808" fill="#C9794A" stroke="#C9794A" stroke-width="2" stroke-linecap="round" stroke-linejoin="round"/>
<path d="M43.605 26.7221C43.9732 27.1337 44.6054 27.1688 45.017 26.8005C45.4286 26.4323 45.4637 25.8001 45.0955 25.3885L43.605 26.7221ZM41.4128 30.1591L41.0262 31.0813L41.4128 30.1591ZM38.3834 33.0861C37.9601 32.7313 37.3294 32.7868 36.9746 33.2101C36.6198 33.6333 36.6753 34.2641 37.0986 34.6189L38.3834 33.0861ZM41.0456 35.2171L41.0721 34.2174L41.0456 35.2171ZM40.0456 37.1355C40.0456 37.6878 40.4933 38.1355 41.0456 38.1355C41.5979 38.1355 42.0456 37.6878 42.0456 37.1355H40.0456ZM42.4128 23.1826C42.4128 22.6304 41.9651 22.1826 41.4128 22.1826C40.8605 22.1826 40.4128 22.6304 40.4128 23.1826H42.4128ZM43.3762 34.4164L42.6793 33.6993L43.3762 34.4164ZM42.7026 30.8287L43.2619 29.9997L42.7026 30.8287ZM45.0955 25.3885C44.5895 24.823 43.2344 23.8242 41.4128 23.8242V25.8242C42.5286 25.8242 43.3765 26.4668 43.605 26.7221L45.0955 25.3885ZM41.4128 23.8242C39.1107 23.8242 37.4753 25.4207 37.4753 27.2864H39.4753C39.4753 26.6899 40.0431 25.8242 41.4128 25.8242V23.8242ZM37.4753 27.2864C37.4753 28.2457 37.9202 29.0215 38.5757 29.6292C39.2074 30.2149 40.0675 30.6795 41.0262 31.0813L41.7993 29.2368C40.9221 28.8691 40.3135 28.5131 39.9355 28.1626C39.5812 27.8341 39.4753 27.5583 39.4753 27.2864H37.4753ZM41.0721 34.2174C40.297 34.1969 39.3415 33.8893 38.3834 33.0861L37.0986 34.6189C38.3716 35.686 39.7534 36.1832 41.0191 36.2167L41.0721 34.2174ZM40.0456 35.2171V37.1355H42.0456V35.2171H40.0456ZM42.4128 24.8242V23.1826H40.4128V24.8242H42.4128ZM42.6793 33.6993C42.377 33.993 41.8215 34.2373 41.0721 34.2174L41.0191 36.2167C42.2038 36.2481 43.3161 35.8693 44.0731 35.1336L42.6793 33.6993ZM41.0262 31.0813C41.4718 31.2681 41.8443 31.4559 42.1433 31.6576L43.2619 29.9997C42.8121 29.6962 42.3079 29.45 41.7993 29.2368L41.0262 31.0813ZM42.1433 31.6576C43.2307 32.3913 43.0716 33.318 42.6793 33.6993L44.0731 35.1336C45.5399 33.7081 45.2028 31.3092 43.2619 29.9997L42.1433 31.6576Z" fill="white"/>
<path d="M60.326 51.547V23.8575C60.326 23.3052 60.7737 22.8575 61.326 22.8575H68.521C69.5143 22.8575 69.9 21.5661 69.0694 21.0213L61.6807 16.1751C60.8352 15.6206 60.326 14.6775 60.326 13.6665V2.68739C60.326 2.13511 59.8783 1.68739 59.326 1.68739H53.4788C52.9265 1.68739 52.4788 2.13511 52.4788 2.68739V8.08548C52.4788 8.89213 51.5728 9.36682 50.9096 8.90767L42.2473 2.91079C41.1908 2.17936 39.7858 2.20203 38.7534 2.96717L12.1633 22.6741C11.3889 23.2481 11.7948 24.4776 12.7587 24.4776H20.8805C21.4328 24.4776 21.8805 24.9253 21.8805 25.4776V50.1104" stroke="#C9794A" stroke-width="2"/>
<path d="M7.70117 53.4995C14.3508 49.6771 15.0386 49.6771 19.501 49.6771C27.2588 49.6771 27.3828 52.28 31.8452 52.28C36.3076 52.28 36.337 52.28 41.915 52.28C48.5758 52.28 48.5758 61.1442 41.915 61.1442C39.4489 61.1442 34.1058 61.1442 32.9902 61.1442" stroke="#242A32" stroke-width="2" stroke-linecap="round" stroke-linejoin="round"/>
<path d="M3.98535 74.3126L16.3716 68.5303L33.9398 74.0415C34.5034 74.2183 35.1066 74.2248 35.6738 74.0602L53.9639 68.7529C54.4665 68.607 54.9221 68.3323 55.2857 67.956L73.3483 49.256C72.2723 47.6498 68.6138 45.5939 62.5882 50.2197C56.5625 54.8456 49.3266 58.3391 46.0986 59.624" stroke="#242A32" stroke-width="2" stroke-linecap="round" stroke-linejoin="round"/>
</svg>
