<svg width="28" height="32" viewBox="0 0 28 32" fill="none" xmlns="http://www.w3.org/2000/svg">
<g id="Group 14">
<g id="Group 12">
<path id="Rectangle 8 (Stroke)" fill-rule="evenodd" clip-rule="evenodd" d="M23.1106 5.21824C22.5307 4.86224 21.7993 4.86487 21.2219 5.22502L9.70702 12.4075C8.86602 12.9321 8.60951 14.0392 9.1341 14.8802C9.65869 15.7212 10.7657 15.9777 11.6067 15.4531L22.1793 8.85833L24.0453 10.0037V21.9006L13.8736 28.1005L12.7782 27.4264C11.934 26.9069 10.8286 27.1701 10.3091 28.0143C9.78961 28.8585 10.0528 29.9639 10.897 30.4834L12.9285 31.7336C13.503 32.0871 14.2273 32.0887 14.8032 31.7376L26.7741 24.441C27.3086 24.1153 27.6348 23.5345 27.6348 22.9086V8.99954C27.6348 8.37558 27.3107 7.7964 26.7789 7.46998L23.1106 5.21824Z" fill="#06C2A1"/>
</g>
<g id="Group 13">
<path id="Rectangle 8 (Stroke)_2" fill-rule="evenodd" clip-rule="evenodd" d="M5.5127 27.1656C6.09272 27.522 6.82441 27.5195 7.40198 27.1592L18.9168 19.9767C19.7578 19.4521 20.0143 18.3451 19.4897 17.504C18.9652 16.663 17.8581 16.4065 17.0171 16.9311L6.44493 23.5257L3.95568 21.9965L3.95568 10.0992L14.1273 3.89931L15.2228 4.57342C16.0669 5.09291 17.1724 4.8297 17.6919 3.98554C18.2114 3.14137 17.9482 2.03591 17.104 1.51642L15.0724 0.266234C14.4979 -0.0873006 13.7737 -0.0888436 13.1977 0.26224L1.22685 7.55879C0.692349 7.88458 0.366209 8.46532 0.366209 9.09128L0.366211 23.0003C0.366211 23.624 0.69005 24.203 1.22151 24.5295L5.5127 27.1656Z" fill="#333D4A"/>
</g>
</g>
</svg>
