<svg width="334" height="165" viewBox="0 0 334 165" fill="none" xmlns="http://www.w3.org/2000/svg">
<path d="M26.3377 163.569C26.3377 163.569 -11.9657 125.582 19.86 84.455C48.0975 47.9649 81.0193 50.4595 105.174 65.2674C115.461 71.5746 153.892 66.4061 187.497 35.4417C223.275 2.47669 318.974 18.6692 302.372 86.8935C293.127 124.88 334.417 125.963 312.724 163.648L26.3366 163.569H26.3377Z" fill="#EFF4F6"/>
<path d="M1.06299 162.525V165.227H333.114V162.525H1.06299Z" stroke="#DAE1E8" stroke-linecap="square"/>
<path d="M233.805 156.537V161.404C233.805 161.792 233.686 162.151 233.481 162.451C233.266 162.766 232.957 163.014 232.594 163.153C232.483 163.196 232.367 163.229 232.248 163.25C232.14 163.27 232.028 163.28 231.915 163.28H153.752C152.744 163.28 151.914 162.488 151.863 161.501C151.863 161.468 151.861 161.437 151.861 161.404V156.537C151.861 156.506 151.861 156.473 151.863 156.441C151.915 155.454 152.744 154.662 153.752 154.662H231.915C232.029 154.662 232.14 154.673 232.248 154.692C232.367 154.713 232.483 154.745 232.594 154.789C232.957 154.928 233.266 155.176 233.481 155.491C233.686 155.791 233.805 156.15 233.805 156.539V156.537Z" fill="url(#paint0_linear_457_11199)"/>
<path d="M225.447 147.922V152.789C225.447 153.177 225.328 153.536 225.122 153.836C224.907 154.151 224.598 154.399 224.234 154.538C224.124 154.581 224.007 154.614 223.889 154.635C223.781 154.655 223.669 154.665 223.556 154.665H145.393C144.385 154.665 143.555 153.873 143.503 152.885C143.503 152.853 143.5 152.821 143.5 152.789V147.922C143.5 147.891 143.502 147.858 143.503 147.825C143.555 146.839 144.384 146.047 145.393 146.047H223.556C223.606 146.047 223.656 146.049 223.705 146.053C223.726 146.053 223.749 146.056 223.769 146.06C223.792 146.062 223.816 146.064 223.838 146.069C223.855 146.071 223.872 146.075 223.889 146.077C224.007 146.098 224.124 146.13 224.234 146.174C224.251 146.18 224.266 146.187 224.284 146.194C224.299 146.2 224.317 146.208 224.332 146.215C224.364 146.229 224.396 146.245 224.427 146.26C224.445 146.27 224.464 146.28 224.481 146.291C224.498 146.3 224.513 146.308 224.53 146.319C224.56 146.336 224.59 146.355 224.619 146.375C224.652 146.398 224.685 146.421 224.717 146.446C224.741 146.464 224.766 146.484 224.789 146.505C224.789 146.505 224.793 146.508 224.794 146.509C224.809 146.523 224.827 146.537 224.842 146.552C224.891 146.595 224.936 146.643 224.979 146.692C224.993 146.706 225.005 146.721 225.016 146.735C225.028 146.749 225.04 146.765 225.053 146.78C225.076 146.812 225.101 146.843 225.122 146.876C225.327 147.176 225.447 147.535 225.447 147.923V147.922Z" fill="url(#paint1_linear_457_11199)"/>
<path d="M180.6 146.045H179.712V154.663H180.6V146.045Z" fill="#EDAC2E"/>
<path d="M229.486 139.514V144.38C229.486 144.769 229.367 145.128 229.161 145.428C228.946 145.743 228.637 145.991 228.273 146.13C228.163 146.174 228.046 146.205 227.928 146.226C227.82 146.246 227.708 146.257 227.594 146.257H149.43C149.116 146.257 148.82 146.18 148.559 146.045C148.006 145.758 147.611 145.206 147.548 144.562C147.544 144.534 147.543 144.506 147.542 144.478C147.542 144.446 147.54 144.414 147.54 144.382V139.515C147.54 139.482 147.54 139.451 147.542 139.418C147.594 138.432 148.423 137.639 149.43 137.639H227.594C227.708 137.639 227.818 137.649 227.928 137.669C228.046 137.69 228.163 137.721 228.273 137.766C228.636 137.905 228.945 138.153 229.161 138.468C229.366 138.768 229.486 139.127 229.486 139.515V139.514Z" fill="url(#paint2_linear_457_11199)"/>
<path d="M231.358 130.899V135.765C231.358 136.154 231.239 136.513 231.033 136.812C230.818 137.127 230.509 137.376 230.146 137.514C230.035 137.558 229.919 137.59 229.8 137.611C229.692 137.631 229.58 137.642 229.466 137.642H151.302C150.295 137.642 149.465 136.85 149.414 135.863C149.414 135.83 149.412 135.799 149.412 135.766V130.9C149.412 130.867 149.412 130.836 149.414 130.803C149.461 129.89 150.175 129.145 151.079 129.037C151.152 129.028 151.226 129.023 151.302 129.023H229.466C229.58 129.023 229.69 129.034 229.8 129.054C229.919 129.075 230.035 129.106 230.146 129.151C230.508 129.289 230.818 129.538 231.033 129.853C231.238 130.152 231.358 130.513 231.358 130.9V130.899Z" fill="url(#paint3_linear_457_11199)"/>
<path d="M225.612 122.293V127.16C225.612 127.547 225.493 127.907 225.289 128.207C225.074 128.522 224.764 128.77 224.401 128.909C224.29 128.953 224.174 128.985 224.055 129.006C224.019 129.012 223.982 129.019 223.946 129.022C223.926 129.024 223.905 129.027 223.885 129.028C223.865 129.03 223.844 129.031 223.824 129.033C223.789 129.035 223.757 129.036 223.724 129.036H145.56C144.553 129.036 143.722 128.244 143.672 127.256C143.672 127.224 143.669 127.192 143.669 127.16V122.293C143.669 122.261 143.669 122.229 143.672 122.196C143.672 122.17 143.675 122.144 143.676 122.118C143.752 121.324 144.333 120.669 145.093 120.476C145.112 120.472 145.132 120.467 145.151 120.462C145.283 120.433 145.419 120.418 145.56 120.418H223.724C223.781 120.418 223.838 120.421 223.893 120.425C223.918 120.428 223.943 120.43 223.968 120.433C223.998 120.438 224.027 120.442 224.056 120.447C224.175 120.468 224.292 120.5 224.402 120.544C224.765 120.683 225.075 120.93 225.29 121.246C225.495 121.546 225.613 121.905 225.613 122.293H225.612Z" fill="url(#paint4_linear_457_11199)"/>
<path d="M225.448 113.738V118.604C225.448 118.991 225.329 119.352 225.123 119.651C224.908 119.966 224.599 120.215 224.235 120.354C224.148 120.387 224.058 120.414 223.966 120.434H223.964C223.939 120.44 223.914 120.446 223.889 120.449C223.781 120.469 223.67 120.479 223.557 120.479H145.393C145.311 120.479 145.228 120.474 145.149 120.463C145.117 120.46 145.086 120.455 145.056 120.449C144.206 120.296 143.549 119.574 143.505 118.701C143.505 118.67 143.502 118.637 143.502 118.604V113.738C143.502 113.705 143.504 113.674 143.505 113.641C143.557 112.654 144.386 111.861 145.394 111.861H223.558C223.608 111.861 223.658 111.864 223.707 111.867L223.771 111.873C223.794 111.875 223.818 111.878 223.84 111.882C223.857 111.885 223.874 111.887 223.891 111.89C224.009 111.911 224.126 111.943 224.236 111.987C224.253 111.993 224.268 112 224.286 112.007C224.301 112.013 224.319 112.02 224.334 112.028C224.367 112.042 224.397 112.058 224.429 112.074C224.463 112.092 224.499 112.111 224.532 112.132C224.562 112.149 224.591 112.168 224.621 112.188C224.654 112.211 224.687 112.235 224.718 112.259C224.743 112.278 224.768 112.297 224.791 112.318C224.791 112.318 224.795 112.321 224.796 112.323C224.811 112.337 224.829 112.351 224.844 112.365C224.893 112.408 224.938 112.456 224.981 112.505C224.995 112.519 225.007 112.534 225.018 112.548C225.03 112.563 225.042 112.579 225.055 112.594C225.078 112.625 225.103 112.657 225.124 112.689C225.329 112.989 225.449 113.348 225.449 113.737L225.448 113.738Z" fill="url(#paint5_linear_457_11199)"/>
<path d="M229.486 105.332V110.199C229.486 110.587 229.367 110.946 229.161 111.246C228.946 111.561 228.637 111.809 228.273 111.948C228.163 111.991 228.046 112.024 227.928 112.045C227.82 112.065 227.708 112.075 227.594 112.075H149.43C149.116 112.075 148.82 111.998 148.559 111.863C148.006 111.576 147.611 111.024 147.548 110.381C147.544 110.353 147.543 110.325 147.542 110.297C147.542 110.264 147.54 110.233 147.54 110.2V105.333C147.54 105.302 147.54 105.269 147.542 105.237C147.594 104.25 148.423 103.457 149.43 103.457H227.594C227.708 103.457 227.818 103.468 227.928 103.487C228.046 103.508 228.163 103.54 228.273 103.584C228.636 103.723 228.945 103.971 229.161 104.286C229.366 104.586 229.486 104.945 229.486 105.333V105.332Z" fill="url(#paint6_linear_457_11199)"/>
<path d="M235.875 96.7151V101.582C235.875 101.97 235.756 102.329 235.551 102.629C235.336 102.944 235.027 103.192 234.663 103.331C234.553 103.374 234.436 103.407 234.318 103.428C234.209 103.447 234.098 103.458 233.985 103.458H155.822C154.814 103.458 153.984 102.666 153.933 101.68C153.933 101.647 153.931 101.615 153.931 101.583V96.7162C153.931 96.6836 153.931 96.6521 153.933 96.6194C153.98 95.7075 154.694 94.9611 155.598 94.8538C155.671 94.8445 155.746 94.8398 155.822 94.8398H233.985C234.099 94.8398 234.209 94.8503 234.318 94.8702C234.436 94.8912 234.553 94.9226 234.663 94.967C235.027 95.1057 235.336 95.3541 235.551 95.669C235.756 95.9687 235.875 96.3279 235.875 96.7162V96.7151Z" fill="url(#paint7_linear_457_11199)"/>
<path d="M225.612 88.1108V92.9773C225.612 93.3656 225.493 93.7248 225.288 94.0245C225.073 94.3394 224.764 94.5878 224.401 94.7266C224.29 94.7697 224.174 94.8024 224.055 94.8234C224.018 94.8292 223.982 94.8362 223.946 94.8397C223.916 94.8443 223.887 94.8455 223.857 94.8478C223.843 94.8478 223.828 94.8502 223.814 94.8513C223.783 94.8513 223.753 94.8537 223.722 94.8537H145.559C144.551 94.8537 143.721 94.0618 143.67 93.0741C143.67 93.0414 143.668 93.0099 143.668 92.9773V88.1108C143.668 88.0793 143.668 88.0466 143.67 88.014C143.722 87.0274 144.551 86.2344 145.559 86.2344H223.722C223.755 86.2344 223.789 86.2344 223.822 86.2379C223.901 86.2425 223.978 86.2519 224.055 86.2647C224.174 86.2857 224.29 86.3172 224.401 86.3615C224.457 86.3837 224.512 86.407 224.564 86.4338C224.598 86.4501 224.63 86.4664 224.662 86.4851C224.665 86.4851 224.669 86.4886 224.672 86.4909C224.705 86.5096 224.736 86.5294 224.768 86.5504C224.773 86.5539 224.779 86.5574 224.783 86.5609C224.812 86.5796 224.84 86.6006 224.867 86.6216C224.934 86.6717 224.997 86.7253 225.056 86.7837C225.074 86.8011 225.092 86.8198 225.109 86.8385C225.112 86.842 225.114 86.8443 225.118 86.849C225.13 86.8606 225.14 86.8723 225.151 86.8839C225.153 86.8863 225.156 86.8898 225.157 86.8909C225.176 86.9131 225.194 86.9353 225.212 86.9597C225.238 86.9924 225.264 87.0262 225.287 87.0612C225.492 87.3609 225.611 87.7201 225.611 88.1084L225.612 88.1108Z" fill="url(#paint8_linear_457_11199)"/>
<path d="M231.358 79.6909V84.5574C231.358 84.9457 231.239 85.3049 231.033 85.6046C230.818 85.9195 230.509 86.1679 230.146 86.3066C230.035 86.3498 229.919 86.3824 229.8 86.4034C229.692 86.4233 229.58 86.4338 229.466 86.4338H151.302C150.999 86.4338 150.712 86.3626 150.458 86.2343C149.888 85.951 149.481 85.3888 149.419 84.7311C149.416 84.7066 149.415 84.6798 149.414 84.6542C149.414 84.6215 149.412 84.59 149.412 84.5574V79.6909C149.412 79.6582 149.412 79.6267 149.414 79.5941C149.461 78.6809 150.175 77.9357 151.079 77.8285C151.152 77.8191 151.226 77.8145 151.302 77.8145H229.466C229.58 77.8145 229.69 77.8249 229.8 77.8448C229.919 77.8658 230.035 77.8973 230.146 77.9416C230.508 78.0803 230.818 78.3287 231.033 78.6436C231.238 78.9433 231.358 79.3037 231.358 79.6909Z" fill="url(#paint9_linear_457_11199)"/>
<path d="M225.612 71.0873V75.9538C225.612 76.3422 225.493 76.7014 225.289 77.0011C225.074 77.3159 224.764 77.5643 224.401 77.7031C224.29 77.7463 224.174 77.7789 224.055 77.7999C224.019 77.8057 223.982 77.8127 223.946 77.8162C223.926 77.8186 223.905 77.8209 223.885 77.8221C223.865 77.8244 223.844 77.8256 223.824 77.8267C223.789 77.8291 223.757 77.8302 223.724 77.8302H145.56C144.553 77.8302 143.722 77.0384 143.672 76.0506C143.672 76.018 143.669 75.9865 143.669 75.9538V71.0873C143.669 71.0547 143.669 71.0232 143.672 70.9905C143.724 70.0039 144.553 69.2109 145.56 69.2109H223.724C223.838 69.2109 223.948 69.2214 224.058 69.2413C224.176 69.2623 224.293 69.2937 224.403 69.338C224.767 69.4768 225.076 69.7252 225.291 70.0401C225.496 70.3398 225.615 70.699 225.615 71.0873H225.612Z" fill="url(#paint10_linear_457_11199)"/>
<path d="M223.545 154.619H176.041L172.874 156.584L223.545 154.619Z" fill="#E59C2E"/>
<path d="M223.545 145.975H176.041L172.874 147.939L223.545 145.975Z" fill="#E59C2E"/>
<path d="M227.503 137.33H179.999L176.833 139.295L227.503 137.33Z" fill="#E59C2E"/>
<path d="M226.712 129.078H179.208L176.041 131.043L226.712 129.078Z" fill="#E59C2E"/>
<path d="M223.545 120.434H176.041L172.874 122.398L223.545 120.434Z" fill="#E59C2E"/>
<path d="M223.545 112.184H176.041L172.874 114.148L223.545 112.184Z" fill="#E59C2E"/>
<path d="M223.545 103.539H176.041L172.874 105.504L223.545 103.539Z" fill="#E59C2E"/>
<path d="M223.545 94.8945H176.041L172.874 96.8591L223.545 94.8945Z" fill="#E59C2E"/>
<path d="M223.545 86.25H176.041L172.874 88.2146L223.545 86.25Z" fill="#E59C2E"/>
<path d="M223.545 77.6055H158.969L154.664 79.963L223.545 77.6055Z" fill="#E59C2E"/>
<path d="M151.002 163.49C175.329 163.49 194.88 143.764 194.67 119.43C194.461 95.0971 174.57 75.3711 150.243 75.3711C125.917 75.3711 106.366 95.0971 106.575 119.43C106.784 143.764 126.675 163.49 151.002 163.49Z" fill="#E59C2E"/>
<path d="M147.14 163.49C171.466 163.49 191.017 143.764 190.808 119.43C190.599 95.0971 170.708 75.3711 146.381 75.3711C122.054 75.3711 102.503 95.0971 102.713 119.43C102.922 143.764 122.813 163.49 147.14 163.49Z" fill="#FACF39"/>
<path d="M146.763 159.921C135.997 159.921 125.876 155.763 118.263 148.213C110.65 140.663 106.458 130.626 106.458 119.95C106.458 109.273 110.65 99.2358 118.263 91.6859C125.876 84.136 135.997 79.9785 146.763 79.9785C157.528 79.9785 167.649 84.136 175.262 91.6859C182.875 99.2358 187.067 109.273 187.067 119.95C187.067 130.626 182.875 140.663 175.262 148.213C167.649 155.763 157.528 159.921 146.763 159.921ZM146.763 82.3634C136.639 82.3634 127.121 86.2736 119.963 93.3722C112.804 100.472 108.863 109.91 108.863 119.95C108.863 129.989 112.804 139.428 119.963 146.527C127.122 153.627 136.639 157.536 146.763 157.536C156.886 157.536 166.404 153.626 173.562 146.527C180.721 139.428 184.663 129.989 184.663 119.95C184.663 109.91 180.72 100.471 173.562 93.3722C166.404 86.2736 156.886 82.3634 146.763 82.3634Z" fill="#EDAC2E"/>
<path d="M152.31 131.551C152.414 130.69 152.381 129.916 152.215 129.231C152.048 128.545 151.719 127.902 151.226 127.303C150.732 126.704 150.073 126.126 149.247 125.571C148.42 125.016 147.398 124.448 146.18 123.869C144.087 122.852 142.2 121.823 140.517 120.783C138.833 119.741 137.423 118.602 136.282 117.366C135.143 116.129 134.309 114.741 133.781 113.2C133.253 111.661 133.11 109.885 133.351 107.873C133.56 106.129 134.062 104.575 134.857 103.211C135.652 101.849 136.694 100.701 137.98 99.7693C139.267 98.8387 140.757 98.1343 142.452 97.6573C144.148 97.1804 146.008 96.967 148.036 97.0194L148.823 90.4316L154.17 91.0602L153.371 97.7413C155.257 98.2136 156.934 98.9215 158.404 99.8638C159.872 100.806 161.08 101.948 162.027 103.288C162.973 104.628 163.642 106.158 164.036 107.879C164.428 109.601 164.502 111.488 164.257 113.54L154.6 112.403C154.895 109.94 154.563 108.033 153.607 106.681C152.65 105.331 151.247 104.546 149.398 104.328C148.395 104.21 147.516 104.247 146.759 104.439C146.001 104.63 145.36 104.94 144.835 105.367C144.309 105.795 143.895 106.323 143.594 106.954C143.293 107.585 143.097 108.28 143.006 109.039C142.916 109.799 142.944 110.499 143.093 111.141C143.241 111.783 143.558 112.398 144.042 112.986C144.525 113.573 145.19 114.151 146.038 114.719C146.884 115.287 147.947 115.895 149.226 116.546C151.291 117.6 153.159 118.653 154.829 119.703C156.499 120.754 157.904 121.902 159.042 123.149C160.18 124.397 161.013 125.79 161.541 127.33C162.068 128.87 162.212 130.636 161.975 132.627C161.759 134.432 161.247 136.017 160.44 137.379C159.634 138.741 158.588 139.877 157.304 140.788C156.02 141.698 154.522 142.376 152.807 142.819C151.094 143.262 149.223 143.458 147.196 143.407L146.463 149.533L141.149 148.908L141.878 142.812C140.051 142.41 138.311 141.8 136.659 140.981C135.005 140.163 133.58 139.094 132.382 137.778C131.184 136.461 130.29 134.873 129.698 133.013C129.107 131.154 128.959 128.992 129.254 126.53L138.912 127.667C138.738 129.125 138.798 130.364 139.093 131.388C139.388 132.411 139.846 133.256 140.467 133.922C141.088 134.588 141.824 135.092 142.676 135.431C143.527 135.771 144.41 135.995 145.324 136.102C146.37 136.226 147.305 136.2 148.128 136.026C148.952 135.852 149.658 135.561 150.25 135.151C150.841 134.742 151.309 134.23 151.654 133.616C151.998 133.001 152.216 132.314 152.308 131.554L152.31 131.551Z" fill="#EDAC2E"/>
<path d="M270.109 139.372C270.109 139.372 266.208 134.86 269.868 131.994C269.868 131.994 272.542 130.389 274.723 130.519C274.723 130.519 271.633 135.655 272.633 136.166C273.632 136.677 275.66 130.197 275.66 130.197C275.66 130.197 281.744 129.612 283.702 130.544C283.702 130.544 278.5 134.765 279.595 135.016C280.691 135.267 286.31 131.124 286.31 131.124C286.31 131.124 291.974 132.08 291.672 135.505C291.37 138.93 289.419 139.988 288.561 139.897C287.704 139.806 282.686 137.907 282.577 138.603C282.468 139.3 285.488 141.577 287.603 141.684C287.603 141.684 283.609 146.049 280.956 144.789C278.302 143.53 278.075 141.532 276.422 140.783C274.768 140.035 273.355 140.036 274.038 140.8C274.721 141.564 277.715 142.306 278.661 143.966C279.607 145.624 280.456 146.744 277.71 146.334C274.965 145.925 270.501 143.933 270.306 141.652L270.11 139.371L270.109 139.372Z" fill="#27D781"/>
<path d="M288.889 135.599C288.889 135.599 273.506 135.011 270.109 139.373C270.109 139.373 269.357 141.604 267.046 143.635L266.686 144.608C266.686 144.608 269.351 141.822 270.305 141.653C270.305 141.653 268.814 136.25 288.889 135.599Z" fill="#27D781"/>
<path d="M267.046 143.634C267.046 143.634 263.744 146.055 263.515 150.381L264.114 150.434C264.114 150.434 265.168 145.961 267.075 144.212C268.981 142.463 267.046 143.634 267.046 143.634V143.634Z" fill="#27D781"/>
<path d="M256.468 133.697C256.468 133.697 262.675 130.252 259.778 125.575C259.778 125.575 257.461 122.704 254.978 121.965C254.978 121.965 256.302 128.939 254.978 129.103C253.654 129.267 254.068 121.227 254.068 121.227C254.068 121.227 247.531 118.11 244.966 118.356C244.966 118.356 249.021 125.165 247.697 125.001C246.373 124.837 241.822 117.946 241.822 117.946C241.822 117.946 235.12 116.715 234.043 120.653C232.968 124.591 234.705 126.559 235.698 126.806C236.691 127.052 243.063 126.97 242.898 127.79C242.732 128.611 238.429 129.924 236.029 129.185C236.029 129.185 238.677 135.665 242.153 135.337C245.629 135.01 246.704 132.876 248.855 132.712C251.007 132.548 252.579 133.123 251.503 133.697C250.428 134.271 246.786 133.886 245.049 135.35C243.311 136.814 241.904 137.717 245.131 138.373C248.358 139.029 254.15 138.62 255.309 136.158L256.468 133.697H256.468Z" fill="#69F0AE"/>
<path d="M237.105 121.883C237.105 121.883 254.483 127.461 256.469 133.697C256.469 133.697 256.385 136.486 258.123 139.686V140.916C258.123 140.916 256.303 136.732 255.31 136.157C255.31 136.157 259.199 130.743 237.105 121.883Z" fill="#27D781"/>
<path d="M258.125 139.686C258.125 139.686 260.804 143.721 259.277 148.632L258.587 148.448C258.587 148.448 259.256 143.038 257.854 140.318C256.452 137.597 258.125 139.686 258.125 139.686Z" fill="#27D781"/>
<path d="M266.342 128.945C266.342 128.945 258.161 124.404 261.979 118.239C261.979 118.239 265.033 114.454 268.306 113.481C268.306 113.481 266.56 122.674 268.306 122.89C270.051 123.106 269.505 112.508 269.505 112.508C269.505 112.508 278.123 108.399 281.504 108.723C281.504 108.723 276.159 117.699 277.905 117.482C279.65 117.266 285.649 108.182 285.649 108.182C285.649 108.182 294.484 106.559 295.903 111.75C297.32 116.941 295.03 119.536 293.721 119.861C292.412 120.185 284.013 120.077 284.231 121.158C284.449 122.24 290.122 123.97 293.284 122.997C293.284 122.997 289.794 131.54 285.213 131.108C280.632 130.676 279.213 127.864 276.378 127.648C273.542 127.432 271.469 128.188 272.888 128.945C274.305 129.703 279.105 129.194 281.396 131.124C283.686 133.055 285.541 134.244 281.287 135.11C277.033 135.975 269.397 135.434 267.87 132.19L266.343 128.945H266.342Z" fill="#69F0AE"/>
<path d="M291.866 113.373C291.866 113.373 268.959 120.727 266.342 128.946C266.342 128.946 266.451 132.622 264.16 136.84V138.462C264.16 138.462 266.56 132.947 267.869 132.19C267.869 132.19 262.742 125.052 291.867 113.373H291.866Z" fill="#27D781"/>
<path d="M264.159 136.841C264.159 136.841 260.627 142.16 262.641 148.633L263.55 148.391C263.55 148.391 262.668 141.26 264.517 137.675C266.365 134.088 264.16 136.842 264.16 136.842L264.159 136.841Z" fill="#27D781"/>
<path d="M266.066 162.671C274.916 162.671 282.091 155.558 282.091 146.783H250.041C250.041 155.558 257.216 162.671 266.066 162.671Z" fill="#00B2D8"/>
<path d="M270.009 162.549C269.357 162.63 268.693 162.671 268.018 162.671C259.168 162.671 251.994 155.558 251.994 146.783H255.975C255.975 154.889 262.098 161.577 270.008 162.549H270.009Z" fill="#76DCF1"/>
<path d="M282.313 163.48H249.82C249.82 162.397 250.706 161.52 251.797 161.52H280.336C281.427 161.52 282.313 162.397 282.313 163.48Z" fill="#00B2D8"/>
<path d="M282.456 146.783H249.515V147.27H282.456V146.783Z" fill="#00B2D8"/>
<g clip-path="url(#clip0_457_11199)">
<path d="M119.949 108.444C124.413 103.978 124.413 96.737 119.949 92.271C115.485 87.805 108.248 87.805 103.784 92.271C99.3199 96.737 99.3199 103.978 103.784 108.444C108.248 112.91 115.485 112.91 119.949 108.444Z" fill="white"/>
<path d="M118.562 107.056C122.259 103.356 122.259 97.3584 118.562 93.6589C114.864 89.9594 108.869 89.9594 105.171 93.6589C101.473 97.3584 101.473 103.356 105.171 107.056C108.869 110.755 114.864 110.755 118.562 107.056Z" fill="#ADDFFB"/>
<path d="M91.8708 68.2544C92.8487 61.3545 88.0505 54.9679 81.1538 53.9896C74.2571 53.0113 67.8734 57.8117 66.8956 64.7116C65.9177 71.6116 70.7159 77.9982 77.6126 78.9765C84.5093 79.9548 90.8929 75.1544 91.8708 68.2544Z" fill="#ADDFFB"/>
<path d="M152.131 54.5245C159.229 47.4229 159.229 35.9091 152.131 28.8076C145.032 21.706 133.524 21.706 126.426 28.8076C119.327 35.9091 119.327 47.4229 126.426 54.5245C133.524 61.626 145.032 61.626 152.131 54.5245Z" fill="#ADDFFB"/>
<path d="M135.873 82.5406H142.683C145.215 82.5406 147.289 80.4662 147.289 77.9322V74.0196C150.57 73.2093 153.661 71.9136 156.478 70.21L159.245 72.9773C161.036 74.7697 163.967 74.7697 165.758 72.9773L170.573 68.1599C172.365 66.3675 172.365 63.4355 170.573 61.6431L167.807 58.8758C169.51 56.0569 170.805 52.9645 171.615 49.6818H175.526C178.059 49.6818 180.132 47.6074 180.132 45.0734V38.2602C180.132 35.7262 178.059 33.6518 175.526 33.6518H171.615C170.805 30.3691 169.51 27.2768 167.807 24.4579L170.573 21.6905C172.365 19.8981 172.365 16.9661 170.573 15.1737L165.758 10.3563C163.967 8.56387 161.036 8.56387 159.245 10.3563L156.478 13.1236C153.661 11.42 150.57 10.1244 147.289 9.31405V5.4014C147.289 2.86741 145.215 0.792969 142.683 0.792969H135.873C133.34 0.792969 131.266 2.86741 131.266 5.4014V9.31405C127.985 10.1244 124.894 11.42 122.077 13.1236L119.311 10.3563C117.519 8.56387 114.588 8.56387 112.797 10.3563L107.982 15.1737C106.19 16.9661 106.19 19.8981 107.982 21.6905L110.748 24.4579C109.045 27.2768 107.75 30.3691 106.94 33.6518H103.029C100.496 33.6518 98.4229 35.7262 98.4229 38.2602V45.0734C98.4229 47.6074 100.496 49.6818 103.029 49.6818H106.94C107.75 52.9645 109.045 56.0569 110.748 58.8758L107.982 61.6431C106.19 63.4355 106.19 66.3675 107.982 68.1599L112.797 72.9773C114.588 74.7697 117.519 74.7697 119.311 72.9773L122.077 70.21C124.894 71.9136 127.985 73.2093 131.266 74.0196V77.9322C131.266 80.4662 133.34 82.5406 135.873 82.5406ZM139.277 63.603C127.167 63.603 117.349 53.7806 117.349 41.6647C117.349 29.5487 127.167 19.7263 139.277 19.7263C151.387 19.7263 161.205 29.5487 161.205 41.6647C161.205 53.7806 151.387 63.603 139.277 63.603Z" fill="#093272"/>
<path d="M54.0759 53.5921L52.2929 57.9615C51.629 59.5864 52.416 61.4604 54.0401 62.1232L56.5486 63.1483C56.2081 65.4661 56.2295 67.7882 56.5844 70.0416L54.0859 71.091C52.4675 71.771 51.7005 73.6522 52.3802 75.2699L54.2076 79.6207C54.8873 81.2398 56.7676 82.0072 58.3846 81.3272L60.883 80.2778C62.2439 82.1088 63.8866 83.7495 65.7798 85.1281L64.7552 87.6378C64.0912 89.2627 64.8783 91.1367 66.5024 91.7996L70.8697 93.5834C72.4939 94.2476 74.367 93.4603 75.0295 91.8354L76.0541 89.3257C78.3708 89.665 80.6918 89.6449 82.9442 89.2899L83.9945 91.7895C84.6742 93.4087 86.5545 94.1761 88.1715 93.496L92.5202 91.6679C94.1386 90.9878 94.9056 89.1067 94.2259 87.4889L93.1756 84.9893C95.0058 83.6278 96.6456 81.9843 98.0237 80.0902L100.532 81.1153C102.156 81.7796 104.029 80.9922 104.692 79.3673L106.475 74.9979C107.139 73.373 106.352 71.499 104.728 70.8362L102.219 69.8111C102.558 67.4933 102.538 65.1712 102.183 62.9178L104.682 61.867C106.3 61.187 107.067 59.3058 106.388 57.688L104.56 53.3373C103.881 51.7181 102 50.9508 100.383 51.6308L97.8849 52.6816C96.524 50.8506 94.8813 49.2099 92.9881 47.8298L94.0127 45.3202C94.6766 43.6953 93.8896 41.8213 92.2655 41.1584L87.8982 39.3746C86.274 38.7103 84.4009 39.4977 83.7384 41.1226L82.7138 43.6323C80.3971 43.2915 78.076 43.313 75.8237 43.6681L74.7734 41.1684C74.0937 39.5493 72.2134 38.7819 70.5964 39.4619L66.2477 41.2901C64.6293 41.9701 63.8623 43.8513 64.542 45.4691L65.5923 47.9687C63.7621 49.3302 62.1222 50.9737 60.7442 52.8677L58.2357 51.8427C56.6116 51.1784 54.7385 51.9658 54.0759 53.5907V53.5921ZM65.3233 60.736C68.4943 52.9665 77.362 49.24 85.1278 52.4125C92.8937 55.585 96.6185 64.4568 93.4474 72.2263C90.2764 79.9957 81.4088 83.7223 73.6429 80.5498C65.8771 77.3773 62.1523 68.5055 65.3233 60.736Z" fill="#093272"/>
<path d="M98.9323 83.3113L96.2908 85.6878C95.3077 86.5726 95.2275 88.1001 96.1104 89.0836L97.4756 90.6012C96.4854 92.0614 95.7384 93.6434 95.239 95.2869L93.1999 95.1795C91.8805 95.1094 90.7429 96.133 90.6728 97.453L90.4853 101.002C90.4152 102.322 91.4384 103.46 92.7577 103.53L94.7968 103.639C95.1188 105.327 95.6955 106.979 96.5254 108.535L95.0086 109.901C94.0255 110.786 93.9454 112.313 94.8283 113.297L97.2037 115.94C98.088 116.923 99.6149 117.003 100.598 116.12L102.115 114.754C103.574 115.745 105.156 116.492 106.798 116.992L106.69 119.032C106.619 120.352 107.643 121.49 108.962 121.56L112.509 121.748C113.829 121.818 114.966 120.794 115.036 119.474L115.145 117.434C116.832 117.112 118.484 116.535 120.039 115.705L121.404 117.222C122.288 118.206 123.815 118.286 124.798 117.403L127.44 115.026C128.423 114.142 128.503 112.614 127.62 111.63L126.255 110.113C127.245 108.653 127.992 107.071 128.492 105.427L130.531 105.535C131.85 105.605 132.988 104.581 133.058 103.261L133.245 99.7121C133.315 98.3921 132.292 97.254 130.973 97.1838L128.934 97.075C128.612 95.3871 128.035 93.735 127.205 92.1788L128.722 90.8131C129.705 89.9283 129.785 88.4008 128.902 87.4172L126.527 84.7744C125.643 83.7909 124.116 83.7107 123.133 84.594L121.616 85.9598C120.156 84.9691 118.575 84.2218 116.932 83.7222L117.04 81.6821C117.11 80.3621 116.087 79.224 114.767 79.1538L111.22 78.9663C109.901 78.8961 108.763 79.9198 108.693 81.2397L108.586 83.2798C106.898 83.6019 105.247 84.1789 103.692 85.0092L102.327 83.4917C101.442 82.5081 99.9154 82.428 98.9323 83.3113ZM104.215 91.8467C108.913 87.6191 116.147 88.0028 120.372 92.7028C124.598 97.4029 124.215 104.64 119.517 108.867C114.819 113.095 107.585 112.711 103.36 108.011C99.1341 103.311 99.5176 96.0743 104.215 91.8467Z" fill="#093272"/>
<path d="M131.702 36.591C132.131 35.9616 132.637 35.3888 133.206 34.8863C134.809 33.4716 136.915 32.6133 139.22 32.6133C144.242 32.6133 148.312 36.6839 148.312 41.7052C148.312 46.7265 144.242 50.797 139.22 50.797C138.015 50.797 136.864 50.5623 135.811 50.1361C135.136 49.863 134.502 49.5113 133.919 49.0923" stroke="#4D4D4D" stroke-linecap="round"/>
<path d="M131.132 41.6369C131.316 41.8427 131.632 41.8602 131.838 41.6761C132.044 41.492 132.061 41.1759 131.877 40.9701L131.132 41.6369ZM129.59 43.9776L129.397 44.4387L129.59 43.9776ZM127.519 46.0011C127.307 45.8237 126.992 45.8514 126.815 46.0631C126.637 46.2747 126.665 46.59 126.877 46.7674L127.519 46.0011ZM129.351 47.2734L129.364 46.7736L129.351 47.2734ZM128.851 48.5235C128.851 48.7997 129.075 49.0235 129.351 49.0235C129.627 49.0235 129.851 48.7997 129.851 48.5235H128.851ZM130.09 39.4316C130.09 39.1555 129.866 38.9316 129.59 38.9316C129.314 38.9316 129.09 39.1555 129.09 39.4316H130.09ZM130.87 46.7517L130.521 46.3932L130.87 46.7517ZM130.431 44.4139L130.71 43.9994L130.431 44.4139ZM131.877 40.9701C131.568 40.6252 130.724 40.0013 129.59 40.0013V41.0013C130.371 41.0013 130.962 41.447 131.132 41.6369L131.877 40.9701ZM129.59 40.0013C128.161 40.0013 127.176 40.9862 127.176 42.1057H128.176C128.176 41.6208 128.627 41.0013 129.59 41.0013V40.0013ZM127.176 42.1057C127.176 42.6787 127.44 43.1463 127.845 43.5211C128.237 43.8849 128.779 44.1795 129.397 44.4387L129.784 43.5164C129.206 43.2743 128.79 43.034 128.525 42.7878C128.271 42.5526 128.176 42.335 128.176 42.1057H127.176ZM129.364 46.7736C128.822 46.7593 128.167 46.5444 127.519 46.0011L126.877 46.7674C127.682 47.4428 128.55 47.7524 129.338 47.7733L129.364 46.7736ZM128.851 47.2734V48.5235H129.851V47.2734H128.851ZM130.09 40.5013V39.4316H129.09V40.5013H130.09ZM130.521 46.3932C130.29 46.6181 129.886 46.7874 129.364 46.7736L129.338 47.7733C130.077 47.7928 130.759 47.5562 131.218 47.1103L130.521 46.3932ZM129.397 44.4387C129.692 44.5624 129.945 44.6892 130.151 44.8284L130.71 43.9994C130.429 43.8094 130.11 43.6533 129.784 43.5164L129.397 44.4387ZM130.151 44.8284C130.924 45.3501 130.858 46.0656 130.521 46.3932L131.218 47.1103C132.093 46.2606 131.91 44.8091 130.71 43.9994L130.151 44.8284Z" fill="#4D4D4D"/>
<path d="M139.22 37.1582V41.7041L142.63 43.9771" stroke="#4D4D4D" stroke-linecap="round" stroke-linejoin="round"/>
<path d="M113.346 98.0963C113.162 97.8906 112.611 97.4791 111.876 97.4791M111.876 97.4791C110.958 97.4791 110.407 98.0963 110.407 98.7134C110.407 99.3306 110.958 99.7677 111.876 100.153C112.115 100.254 112.334 100.362 112.522 100.489C113.279 101.001 113.323 101.835 112.859 102.288C112.594 102.546 112.177 102.702 111.693 102.689M111.876 97.4791V96.6562M110.04 102.005C110.598 102.474 111.182 102.675 111.693 102.689M111.693 102.689V103.651" stroke="#4D4D4D" stroke-linecap="round" stroke-linejoin="round"/>
<ellipse cx="111.785" cy="100.153" rx="6.97855" ry="6.99437" stroke="#4D4D4D" stroke-linecap="round" stroke-linejoin="round"/>
<path d="M85.5581 62.1607C82.8898 62.1607 80.2216 60.4806 79.3321 59.6406C78.4427 60.4806 75.9523 62.1607 73.1062 62.1607C73.1062 65.5207 72.2168 71.8208 79.3321 73.9208C85.5581 71.8208 85.5581 68.0407 85.5581 62.1607Z" stroke="#4D4D4D" stroke-linecap="round" stroke-linejoin="round"/>
<path d="M76.6641 67.4415L78.265 68.8815L82.0006 65.5215" stroke="#4D4D4D" stroke-linecap="round" stroke-linejoin="round"/>
</g>
<defs>
<linearGradient id="paint0_linear_457_11199" x1="217.607" y1="154.618" x2="176.859" y2="163.384" gradientUnits="userSpaceOnUse">
<stop stop-color="#FACF39"/>
<stop offset="1" stop-color="#E59C2E"/>
</linearGradient>
<linearGradient id="paint1_linear_457_11199" x1="207.314" y1="152.261" x2="167.731" y2="149.468" gradientUnits="userSpaceOnUse">
<stop stop-color="#FACF39"/>
<stop offset="1" stop-color="#E59C2E"/>
</linearGradient>
<linearGradient id="paint2_linear_457_11199" x1="205.73" y1="133.003" x2="188.788" y2="144.515" gradientUnits="userSpaceOnUse">
<stop stop-color="#FACF39"/>
<stop offset="1" stop-color="#E59C2E"/>
</linearGradient>
<linearGradient id="paint3_linear_457_11199" x1="216.023" y1="128.685" x2="200.342" y2="150.407" gradientUnits="userSpaceOnUse">
<stop stop-color="#FACF39"/>
<stop offset="1" stop-color="#E59C2E"/>
</linearGradient>
<linearGradient id="paint4_linear_457_11199" x1="205.335" y1="117.29" x2="191.59" y2="132.322" gradientUnits="userSpaceOnUse">
<stop stop-color="#FACF39"/>
<stop offset="1" stop-color="#E59C2E"/>
</linearGradient>
<linearGradient id="paint5_linear_457_11199" x1="207.316" y1="118.076" x2="167.732" y2="115.283" gradientUnits="userSpaceOnUse">
<stop stop-color="#FACF39"/>
<stop offset="1" stop-color="#E59C2E"/>
</linearGradient>
<linearGradient id="paint6_linear_457_11199" x1="205.73" y1="98.8218" x2="188.788" y2="110.333" gradientUnits="userSpaceOnUse">
<stop stop-color="#FACF39"/>
<stop offset="1" stop-color="#E59C2E"/>
</linearGradient>
<linearGradient id="paint7_linear_457_11199" x1="185.542" y1="90.1787" x2="177.331" y2="108.691" gradientUnits="userSpaceOnUse">
<stop stop-color="#FACF39"/>
<stop offset="1" stop-color="#E59C2E"/>
</linearGradient>
<linearGradient id="paint8_linear_457_11199" x1="191.875" y1="77.6048" x2="176.517" y2="88.7173" gradientUnits="userSpaceOnUse">
<stop stop-color="#FACF39"/>
<stop offset="1" stop-color="#E59C2E"/>
</linearGradient>
<linearGradient id="paint9_linear_457_11199" x1="175.249" y1="71.3174" x2="166.269" y2="103.179" gradientUnits="userSpaceOnUse">
<stop stop-color="#FACF39"/>
<stop offset="1" stop-color="#E59C2E"/>
</linearGradient>
<linearGradient id="paint10_linear_457_11199" x1="157.831" y1="57.5657" x2="150.018" y2="77.6453" gradientUnits="userSpaceOnUse">
<stop stop-color="#FACF39"/>
<stop offset="1" stop-color="#E59C2E"/>
</linearGradient>
<clipPath id="clip0_457_11199">
<rect width="128.077" height="120.962" fill="white" transform="translate(52.0566 0.791016)"/>
</clipPath>
</defs>
</svg>
