<svg width="15" height="16" viewBox="0 0 15 16" fill="none" xmlns="http://www.w3.org/2000/svg">
<path d="M6.625 13.75C7.03921 13.75 7.375 13.4142 7.375 13C7.375 12.5858 7.03921 12.25 6.625 12.25V13.75ZM12.25 8.125C12.25 8.53921 12.5858 8.875 13 8.875C13.4142 8.875 13.75 8.53921 13.75 8.125H12.25ZM1 4.75C0.585786 4.75 0.25 5.08579 0.25 5.5C0.25 5.91421 0.585786 6.25 1 6.25V4.75ZM13 6.25C13.4142 6.25 13.75 5.91421 13.75 5.5C13.75 5.08579 13.4142 4.75 13 4.75V6.25ZM6.25 1C6.25 0.585786 5.91421 0.25 5.5 0.25C5.08579 0.25 4.75 0.585786 4.75 1H6.25ZM4.75 13C4.75 13.4142 5.08579 13.75 5.5 13.75C5.91421 13.75 6.25 13.4142 6.25 13H4.75ZM8.5 11.5C8.08579 11.5 7.75 11.8358 7.75 12.25C7.75 12.6642 8.08579 13 8.5 13V11.5ZM13.75 13C14.1642 13 14.5 12.6642 14.5 12.25C14.5 11.8358 14.1642 11.5 13.75 11.5V13ZM12.0303 9.46967C11.7374 9.17678 11.2626 9.17678 10.9697 9.46967C10.6768 9.76256 10.6768 10.2374 10.9697 10.5303L12.0303 9.46967ZM13.75 12.25L14.2803 12.7803C14.5732 12.4874 14.5732 12.0126 14.2803 11.7197L13.75 12.25ZM10.9697 13.9697C10.6768 14.2626 10.6768 14.7374 10.9697 15.0303C11.2626 15.3232 11.7374 15.3232 12.0303 15.0303L10.9697 13.9697ZM6.625 12.25H2.5V13.75H6.625V12.25ZM2.5 12.25C2.08579 12.25 1.75 11.9142 1.75 11.5H0.25C0.25 12.7426 1.25736 13.75 2.5 13.75V12.25ZM1.75 11.5V2.5H0.25V11.5H1.75ZM1.75 2.5C1.75 2.08579 2.08579 1.75 2.5 1.75V0.25C1.25736 0.25 0.25 1.25736 0.25 2.5H1.75ZM2.5 1.75H11.5V0.25H2.5V1.75ZM11.5 1.75C11.9142 1.75 12.25 2.08579 12.25 2.5H13.75C13.75 1.25736 12.7426 0.25 11.5 0.25V1.75ZM12.25 2.5V8.125H13.75V2.5H12.25ZM1 6.25H13V4.75H1V6.25ZM4.75 1V13H6.25V1H4.75ZM8.5 13H13.75V11.5H8.5V13ZM10.9697 10.5303L13.2197 12.7803L14.2803 11.7197L12.0303 9.46967L10.9697 10.5303ZM13.2197 11.7197L10.9697 13.9697L12.0303 15.0303L14.2803 12.7803L13.2197 11.7197Z" fill="#093272"/>
</svg>
