<svg width="334" height="165" viewBox="0 0 334 165" fill="none" xmlns="http://www.w3.org/2000/svg">
<path d="M26.3377 163.733C26.3377 163.733 -11.9657 125.746 19.86 84.6191C48.0975 48.1289 81.0193 50.6236 105.174 65.4315C115.461 71.7387 153.892 66.5702 187.497 35.6058C223.275 2.64075 318.974 18.8333 302.372 87.0576C293.127 125.044 334.417 126.127 312.724 163.812L26.3366 163.733H26.3377Z" fill="#EFF4F6"/>
<path d="M1.06274 162.689V165.391H333.114V162.689H1.06274Z" stroke="#DAE1E8" stroke-linecap="square"/>
<path d="M233.804 156.701V161.568C233.804 161.956 233.686 162.315 233.481 162.615C233.266 162.93 232.957 163.178 232.593 163.317C232.483 163.36 232.366 163.393 232.248 163.414C232.139 163.434 232.028 163.444 231.915 163.444H153.751C152.744 163.444 151.914 162.652 151.863 161.665C151.863 161.632 151.861 161.601 151.861 161.568V156.701C151.861 156.67 151.861 156.637 151.863 156.605C151.915 155.618 152.744 154.826 153.751 154.826H231.915C232.029 154.826 232.139 154.837 232.248 154.856C232.366 154.877 232.483 154.909 232.593 154.953C232.957 155.092 233.266 155.34 233.481 155.655C233.686 155.955 233.804 156.314 233.804 156.703V156.701Z" fill="url(#paint0_linear_447_10960)"/>
<path d="M225.447 148.086V152.953C225.447 153.341 225.328 153.7 225.122 154C224.907 154.315 224.598 154.563 224.234 154.702C224.124 154.745 224.007 154.778 223.888 154.799C223.78 154.819 223.669 154.829 223.556 154.829H145.392C144.385 154.829 143.554 154.037 143.503 153.049C143.503 153.017 143.5 152.985 143.5 152.953V148.086C143.5 148.055 143.501 148.022 143.503 147.989C143.554 147.003 144.383 146.211 145.392 146.211H223.556C223.606 146.211 223.656 146.213 223.705 146.217C223.726 146.217 223.749 146.22 223.769 146.224C223.792 146.226 223.816 146.228 223.838 146.233C223.854 146.235 223.872 146.239 223.888 146.241C224.007 146.262 224.124 146.294 224.234 146.338C224.251 146.344 224.266 146.351 224.284 146.358C224.299 146.364 224.316 146.372 224.332 146.379C224.364 146.393 224.395 146.409 224.427 146.424C224.445 146.434 224.463 146.444 224.481 146.455C224.498 146.464 224.513 146.472 224.529 146.483C224.56 146.5 224.589 146.519 224.619 146.539C224.652 146.562 224.685 146.585 224.716 146.61C224.741 146.628 224.766 146.648 224.789 146.669C224.789 146.669 224.793 146.672 224.794 146.673C224.809 146.687 224.827 146.701 224.842 146.716C224.89 146.759 224.936 146.807 224.979 146.856C224.993 146.87 225.004 146.885 225.016 146.899C225.028 146.913 225.04 146.929 225.053 146.944C225.076 146.976 225.101 147.007 225.122 147.04C225.327 147.34 225.447 147.699 225.447 148.087V148.086Z" fill="url(#paint1_linear_447_10960)"/>
<path d="M180.599 146.209H179.711V154.827H180.599V146.209Z" fill="#EDAC2E"/>
<path d="M229.486 139.678V144.544C229.486 144.933 229.367 145.292 229.161 145.592C228.946 145.907 228.637 146.155 228.273 146.294C228.163 146.338 228.046 146.37 227.928 146.391C227.82 146.41 227.708 146.421 227.594 146.421H149.43C149.116 146.421 148.82 146.344 148.559 146.209C148.006 145.922 147.611 145.37 147.548 144.726C147.544 144.698 147.543 144.67 147.542 144.642C147.542 144.61 147.54 144.578 147.54 144.546V139.679C147.54 139.646 147.54 139.615 147.542 139.582C147.594 138.596 148.423 137.803 149.43 137.803H227.594C227.708 137.803 227.818 137.813 227.928 137.833C228.046 137.854 228.163 137.886 228.273 137.93C228.636 138.069 228.945 138.317 229.161 138.632C229.366 138.932 229.486 139.291 229.486 139.679V139.678Z" fill="url(#paint2_linear_447_10960)"/>
<path d="M231.358 131.063V135.929C231.358 136.318 231.239 136.677 231.033 136.976C230.818 137.291 230.509 137.54 230.146 137.679C230.035 137.722 229.919 137.754 229.8 137.775C229.692 137.795 229.58 137.806 229.466 137.806H151.302C150.295 137.806 149.465 137.014 149.414 136.027C149.414 135.995 149.412 135.963 149.412 135.93V131.064C149.412 131.031 149.412 131 149.414 130.967C149.461 130.054 150.175 129.309 151.079 129.201C151.152 129.192 151.226 129.188 151.302 129.188H229.466C229.58 129.188 229.69 129.198 229.8 129.218C229.919 129.239 230.035 129.27 230.146 129.315C230.508 129.453 230.818 129.702 231.033 130.017C231.238 130.316 231.358 130.677 231.358 131.064V131.063Z" fill="url(#paint3_linear_447_10960)"/>
<path d="M225.612 122.457V127.324C225.612 127.711 225.493 128.071 225.288 128.371C225.073 128.686 224.764 128.934 224.401 129.073C224.29 129.117 224.174 129.149 224.055 129.17C224.018 129.176 223.982 129.183 223.946 129.186C223.926 129.188 223.904 129.191 223.884 129.192C223.864 129.194 223.843 129.195 223.823 129.197C223.789 129.199 223.756 129.2 223.723 129.2H145.56C144.552 129.2 143.722 128.408 143.672 127.421C143.672 127.388 143.669 127.356 143.669 127.324V122.457C143.669 122.425 143.669 122.393 143.672 122.36C143.672 122.334 143.675 122.308 143.676 122.282C143.751 121.488 144.332 120.833 145.093 120.64C145.112 120.636 145.132 120.631 145.151 120.626C145.283 120.597 145.419 120.582 145.56 120.582H223.723C223.781 120.582 223.837 120.586 223.893 120.589C223.917 120.593 223.943 120.594 223.968 120.597C223.997 120.602 224.027 120.607 224.056 120.611C224.175 120.632 224.291 120.664 224.402 120.708C224.765 120.847 225.074 121.094 225.29 121.41C225.494 121.71 225.613 122.069 225.613 122.457H225.612Z" fill="url(#paint4_linear_447_10960)"/>
<path d="M225.447 113.902V118.768C225.447 119.155 225.328 119.516 225.123 119.816C224.907 120.13 224.598 120.379 224.235 120.518C224.148 120.551 224.057 120.578 223.965 120.598H223.963C223.938 120.604 223.914 120.61 223.889 120.613C223.781 120.633 223.669 120.644 223.556 120.644H145.393C145.311 120.644 145.227 120.638 145.148 120.627C145.116 120.624 145.086 120.619 145.055 120.613C144.205 120.46 143.549 119.739 143.504 118.865C143.504 118.834 143.502 118.801 143.502 118.768V113.902C143.502 113.869 143.503 113.838 143.504 113.805C143.556 112.818 144.385 112.025 145.394 112.025H223.557C223.608 112.025 223.657 112.028 223.707 112.031L223.77 112.037C223.794 112.039 223.817 112.042 223.84 112.046C223.856 112.049 223.874 112.051 223.89 112.055C224.009 112.076 224.125 112.107 224.236 112.151C224.252 112.157 224.268 112.164 224.285 112.171C224.301 112.177 224.318 112.184 224.333 112.192C224.366 112.206 224.397 112.222 224.429 112.238C224.463 112.256 224.498 112.275 224.531 112.296C224.562 112.313 224.591 112.332 224.62 112.352C224.653 112.375 224.686 112.399 224.718 112.423C224.743 112.442 224.767 112.462 224.791 112.483C224.791 112.483 224.794 112.485 224.796 112.487C224.811 112.501 224.829 112.515 224.844 112.529C224.892 112.572 224.938 112.62 224.98 112.669C224.994 112.683 225.006 112.698 225.018 112.712C225.03 112.727 225.041 112.743 225.054 112.758C225.078 112.789 225.103 112.821 225.124 112.853C225.328 113.153 225.448 113.512 225.448 113.901L225.447 113.902Z" fill="url(#paint5_linear_447_10960)"/>
<path d="M229.486 105.496V110.363C229.486 110.751 229.367 111.11 229.161 111.41C228.946 111.725 228.637 111.973 228.273 112.112C228.163 112.155 228.046 112.188 227.928 112.209C227.82 112.229 227.708 112.239 227.594 112.239H149.43C149.116 112.239 148.82 112.162 148.559 112.027C148.006 111.74 147.611 111.188 147.548 110.545C147.544 110.517 147.543 110.489 147.542 110.461C147.542 110.428 147.54 110.397 147.54 110.364V105.497C147.54 105.466 147.54 105.433 147.542 105.401C147.594 104.414 148.423 103.621 149.43 103.621H227.594C227.708 103.621 227.818 103.632 227.928 103.651C228.046 103.672 228.163 103.704 228.273 103.748C228.636 103.887 228.945 104.135 229.161 104.45C229.366 104.75 229.486 105.109 229.486 105.497V105.496Z" fill="url(#paint6_linear_447_10960)"/>
<path d="M235.874 96.8791V101.746C235.874 102.134 235.755 102.493 235.551 102.793C235.335 103.108 235.026 103.356 234.663 103.495C234.552 103.538 234.436 103.571 234.317 103.592C234.209 103.612 234.097 103.622 233.984 103.622H155.821C154.813 103.622 153.983 102.83 153.933 101.844C153.933 101.811 153.93 101.779 153.93 101.747V96.8803C153.93 96.8476 153.93 96.8162 153.933 96.7835C153.98 95.8716 154.693 95.1252 155.598 95.0179C155.671 95.0086 155.746 95.0039 155.821 95.0039H233.984C234.098 95.0039 234.209 95.0144 234.317 95.0342C234.436 95.0552 234.552 95.0867 234.663 95.131C235.026 95.2698 235.335 95.5182 235.551 95.8331C235.755 96.1328 235.874 96.492 235.874 96.8803V96.8791Z" fill="url(#paint7_linear_447_10960)"/>
<path d="M225.612 88.2748V93.1413C225.612 93.5297 225.493 93.8889 225.288 94.1886C225.073 94.5035 224.764 94.7518 224.4 94.8906C224.29 94.9338 224.173 94.9664 224.055 94.9874C224.018 94.9932 223.982 95.0002 223.945 95.0037C223.916 95.0084 223.887 95.0096 223.857 95.0119C223.843 95.0119 223.828 95.0142 223.814 95.0154C223.783 95.0154 223.752 95.0177 223.722 95.0177H145.559C144.551 95.0177 143.721 94.2259 143.67 93.2381C143.67 93.2055 143.668 93.174 143.668 93.1413V88.2748C143.668 88.2434 143.668 88.2107 143.67 88.178C143.722 87.1914 144.551 86.3984 145.559 86.3984H223.722C223.755 86.3984 223.789 86.3984 223.822 86.4019C223.901 86.4066 223.978 86.4159 224.055 86.4288C224.173 86.4498 224.29 86.4812 224.4 86.5256C224.457 86.5477 224.512 86.571 224.564 86.5979C224.598 86.6142 224.63 86.6305 224.661 86.6492C224.665 86.6492 224.668 86.6527 224.672 86.655C224.705 86.6737 224.736 86.6935 224.767 86.7145C224.773 86.718 224.779 86.7215 224.783 86.725C224.812 86.7436 224.84 86.7646 224.867 86.7856C224.934 86.8358 224.997 86.8894 225.055 86.9477C225.074 86.9652 225.092 86.9839 225.108 87.0025C225.112 87.006 225.114 87.0084 225.118 87.013C225.129 87.0247 225.14 87.0363 225.151 87.048C225.153 87.0503 225.155 87.0538 225.156 87.055C225.175 87.0772 225.194 87.0993 225.212 87.1238C225.238 87.1565 225.263 87.1903 225.287 87.2253C225.492 87.525 225.61 87.8842 225.61 88.2725L225.612 88.2748Z" fill="url(#paint8_linear_447_10960)"/>
<path d="M231.358 79.8549V84.7214C231.358 85.1098 231.239 85.469 231.033 85.7687C230.818 86.0835 230.509 86.3319 230.146 86.4707C230.035 86.5139 229.919 86.5465 229.8 86.5675C229.692 86.5873 229.58 86.5978 229.466 86.5978H151.302C150.999 86.5978 150.712 86.5267 150.458 86.3984C149.888 86.115 149.481 85.5529 149.419 84.8952C149.416 84.8707 149.415 84.8439 149.414 84.8182C149.414 84.7856 149.412 84.7541 149.412 84.7214V79.8549C149.412 79.8223 149.412 79.7908 149.414 79.7581C149.461 78.845 150.175 78.0998 151.079 77.9925C151.152 77.9832 151.226 77.9785 151.302 77.9785H229.466C229.58 77.9785 229.69 77.989 229.8 78.0088C229.919 78.0298 230.035 78.0613 230.146 78.1056C230.508 78.2444 230.818 78.4928 231.033 78.8077C231.238 79.1074 231.358 79.4677 231.358 79.8549Z" fill="url(#paint9_linear_447_10960)"/>
<path d="M225.612 71.2514V76.1179C225.612 76.5062 225.493 76.8654 225.289 77.1651C225.073 77.48 224.764 77.7284 224.401 77.8672C224.29 77.9103 224.174 77.943 224.055 77.964C224.019 77.9698 223.982 77.9768 223.946 77.9803C223.926 77.9826 223.904 77.985 223.884 77.9861C223.865 77.9885 223.843 77.9896 223.823 77.9908C223.789 77.9931 223.756 77.9943 223.723 77.9943H145.56C144.552 77.9943 143.722 77.2025 143.672 76.2147C143.672 76.182 143.669 76.1506 143.669 76.1179V71.2514C143.669 71.2187 143.669 71.1873 143.672 71.1546C143.723 70.168 144.552 69.375 145.56 69.375H223.723C223.837 69.375 223.948 69.3855 224.057 69.4053C224.176 69.4263 224.293 69.4578 224.403 69.5021C224.766 69.6409 225.076 69.8893 225.291 70.2042C225.495 70.5039 225.614 70.8631 225.614 71.2514H225.612Z" fill="url(#paint10_linear_447_10960)"/>
<path d="M223.544 154.783H176.04L172.873 156.748L223.544 154.783Z" fill="#E59C2E"/>
<path d="M223.544 146.139H176.04L172.873 148.103L223.544 146.139Z" fill="#E59C2E"/>
<path d="M227.503 137.494H179.999L176.832 139.459L227.503 137.494Z" fill="#E59C2E"/>
<path d="M226.711 129.242H179.207L176.04 131.207L226.711 129.242Z" fill="#E59C2E"/>
<path d="M223.544 120.598H176.04L172.873 122.562L223.544 120.598Z" fill="#E59C2E"/>
<path d="M223.544 112.348H176.04L172.873 114.312L223.544 112.348Z" fill="#E59C2E"/>
<path d="M223.544 103.703H176.04L172.873 105.668L223.544 103.703Z" fill="#E59C2E"/>
<path d="M223.544 95.0586H176.04L172.873 97.0232L223.544 95.0586Z" fill="#E59C2E"/>
<path d="M223.544 86.4141H176.04L172.873 88.3787L223.544 86.4141Z" fill="#E59C2E"/>
<path d="M223.544 77.7695H158.969L154.664 80.1271L223.544 77.7695Z" fill="#E59C2E"/>
<path d="M151.002 163.654C175.328 163.654 194.88 143.928 194.67 119.594C194.461 95.2612 174.57 75.5352 150.243 75.5352C125.916 75.5352 106.365 95.2612 106.575 119.594C106.784 143.928 126.675 163.654 151.002 163.654Z" fill="#E59C2E"/>
<path d="M147.139 163.654C171.466 163.654 191.017 143.928 190.808 119.594C190.598 95.2612 170.708 75.5352 146.381 75.5352C122.054 75.5352 102.503 95.2612 102.712 119.594C102.922 143.928 122.812 163.654 147.139 163.654Z" fill="#FACF39"/>
<path d="M146.762 160.085C135.997 160.085 125.875 155.927 118.263 148.377C110.65 140.828 106.458 130.79 106.458 120.114C106.458 109.437 110.65 99.3998 118.263 91.8499C125.875 84.3 135.997 80.1426 146.762 80.1426C157.528 80.1426 167.649 84.3 175.262 91.8499C182.875 99.3998 187.067 109.437 187.067 120.114C187.067 130.79 182.875 140.828 175.262 148.377C167.649 155.927 157.528 160.085 146.762 160.085ZM146.762 82.5274C136.639 82.5274 127.121 86.4377 119.963 93.5362C112.804 100.636 108.862 110.074 108.862 120.114C108.862 130.153 112.804 139.593 119.963 146.691C127.122 153.791 136.639 157.7 146.762 157.7C156.886 157.7 166.404 153.79 173.561 146.691C180.72 139.593 184.662 130.153 184.662 120.114C184.662 110.074 180.719 100.635 173.561 93.5362C166.404 86.4377 156.886 82.5274 146.762 82.5274Z" fill="#EDAC2E"/>
<path d="M152.31 131.716C152.414 130.854 152.381 130.081 152.215 129.395C152.048 128.709 151.719 128.067 151.226 127.467C150.732 126.868 150.073 126.29 149.247 125.735C148.42 125.18 147.398 124.612 146.18 124.033C144.087 123.016 142.2 121.987 140.517 120.947C138.833 119.906 137.423 118.766 136.282 117.53C135.143 116.293 134.309 114.905 133.781 113.364C133.253 111.825 133.11 110.049 133.351 108.037C133.56 106.293 134.062 104.739 134.857 103.375C135.652 102.013 136.694 100.865 137.98 99.9334C139.267 99.0028 140.757 98.2984 142.452 97.8214C144.148 97.3444 146.008 97.131 148.036 97.1835L148.823 90.5957L154.17 91.2243L153.371 97.9054C155.257 98.3777 156.934 99.0856 158.404 100.028C159.872 100.97 161.08 102.112 162.027 103.452C162.973 104.792 163.642 106.322 164.036 108.043C164.428 109.766 164.502 111.652 164.257 113.704L154.6 112.567C154.895 110.104 154.563 108.197 153.607 106.845C152.65 105.495 151.247 104.71 149.398 104.492C148.395 104.374 147.516 104.412 146.759 104.603C146.001 104.794 145.36 105.104 144.835 105.531C144.309 105.959 143.895 106.487 143.594 107.118C143.293 107.749 143.097 108.444 143.006 109.203C142.916 109.963 142.944 110.663 143.093 111.305C143.241 111.947 143.558 112.562 144.042 113.15C144.525 113.738 145.19 114.315 146.038 114.883C146.884 115.451 147.947 116.059 149.226 116.71C151.291 117.764 153.159 118.817 154.829 119.867C156.499 120.918 157.904 122.066 159.042 123.313C160.18 124.561 161.013 125.955 161.541 127.494C162.068 129.034 162.212 130.8 161.975 132.791C161.759 134.596 161.247 136.181 160.44 137.543C159.634 138.905 158.588 140.041 157.304 140.952C156.02 141.863 154.522 142.54 152.807 142.983C151.094 143.426 149.223 143.622 147.196 143.571L146.463 149.697L141.149 149.072L141.878 142.976C140.051 142.574 138.311 141.964 136.659 141.145C135.005 140.327 133.58 139.258 132.382 137.942C131.184 136.625 130.29 135.037 129.698 133.177C129.107 131.318 128.959 129.156 129.254 126.694L138.912 127.831C138.738 129.289 138.798 130.528 139.093 131.552C139.388 132.575 139.846 133.42 140.467 134.086C141.088 134.752 141.824 135.256 142.676 135.595C143.527 135.935 144.41 136.159 145.324 136.266C146.37 136.39 147.305 136.364 148.128 136.19C148.952 136.016 149.658 135.725 150.25 135.316C150.841 134.906 151.309 134.394 151.654 133.78C151.998 133.165 152.216 132.478 152.308 131.718L152.31 131.716Z" fill="#EDAC2E"/>
<path d="M270.109 139.536C270.109 139.536 266.208 135.024 269.868 132.158C269.868 132.158 272.542 130.553 274.723 130.683C274.723 130.683 271.633 135.819 272.633 136.33C273.632 136.841 275.66 130.361 275.66 130.361C275.66 130.361 281.744 129.776 283.702 130.709C283.702 130.709 278.5 134.929 279.595 135.18C280.691 135.431 286.31 131.289 286.31 131.289C286.31 131.289 291.974 132.244 291.672 135.669C291.37 139.094 289.419 140.152 288.561 140.061C287.704 139.97 282.686 138.071 282.577 138.767C282.468 139.464 285.488 141.742 287.603 141.848C287.603 141.848 283.609 146.213 280.956 144.954C278.302 143.694 278.075 141.696 276.422 140.947C274.768 140.199 273.355 140.2 274.038 140.964C274.721 141.728 277.715 142.47 278.661 144.13C279.607 145.789 280.456 146.908 277.71 146.498C274.965 146.089 270.501 144.097 270.306 141.816L270.11 139.535L270.109 139.536Z" fill="#27D781"/>
<path d="M288.889 135.763C288.889 135.763 273.507 135.175 270.109 139.537C270.109 139.537 269.358 141.768 267.046 143.799L266.686 144.772C266.686 144.772 269.351 141.986 270.305 141.817C270.305 141.817 268.814 136.414 288.889 135.763Z" fill="#27D781"/>
<path d="M267.046 143.799C267.046 143.799 263.745 146.219 263.515 150.545L264.115 150.598C264.115 150.598 265.169 146.125 267.075 144.376C268.981 142.627 267.046 143.798 267.046 143.798V143.799Z" fill="#27D781"/>
<path d="M256.468 133.861C256.468 133.861 262.675 130.416 259.778 125.74C259.778 125.74 257.461 122.868 254.978 122.129C254.978 122.129 256.302 129.103 254.978 129.267C253.654 129.431 254.068 121.391 254.068 121.391C254.068 121.391 247.531 118.274 244.966 118.52C244.966 118.52 249.021 125.329 247.697 125.165C246.373 125.001 241.822 118.11 241.822 118.11C241.822 118.11 235.12 116.879 234.043 120.817C232.968 124.755 234.705 126.723 235.698 126.97C236.691 127.216 243.063 127.134 242.898 127.954C242.732 128.775 238.429 130.088 236.029 129.349C236.029 129.349 238.677 135.829 242.153 135.502C245.629 135.174 246.704 133.04 248.855 132.876C251.007 132.712 252.579 133.287 251.503 133.861C250.428 134.435 246.786 134.05 245.049 135.514C243.311 136.978 241.904 137.881 245.131 138.537C248.358 139.193 254.15 138.784 255.309 136.322L256.468 133.861H256.468Z" fill="#69F0AE"/>
<path d="M237.105 122.047C237.105 122.047 254.483 127.625 256.469 133.861C256.469 133.861 256.385 136.65 258.123 139.85V141.08C258.123 141.08 256.303 136.896 255.31 136.321C255.31 136.321 259.199 130.907 237.105 122.047Z" fill="#27D781"/>
<path d="M258.124 139.85C258.124 139.85 260.804 143.885 259.276 148.796L258.587 148.612C258.587 148.612 259.256 143.202 257.854 140.482C256.451 137.761 258.124 139.85 258.124 139.85Z" fill="#27D781"/>
<path d="M266.343 129.109C266.343 129.109 258.162 124.568 261.98 118.403C261.98 118.403 265.034 114.618 268.306 113.646C268.306 113.646 266.561 122.838 268.306 123.054C270.052 123.27 269.506 112.672 269.506 112.672C269.506 112.672 278.123 108.563 281.504 108.887C281.504 108.887 276.16 117.863 277.905 117.646C279.651 117.43 285.65 108.346 285.65 108.346C285.65 108.346 294.485 106.723 295.903 111.914C297.321 117.105 295.03 119.7 293.722 120.025C292.413 120.349 284.014 120.241 284.232 121.322C284.45 122.404 290.123 124.135 293.285 123.161C293.285 123.161 289.795 131.704 285.214 131.272C280.633 130.84 279.214 128.028 276.379 127.812C273.542 127.596 271.47 128.352 272.888 129.109C274.306 129.867 279.106 129.358 281.396 131.288C283.687 133.219 285.542 134.408 281.287 135.274C277.033 136.139 269.398 135.598 267.87 132.354L266.344 129.109H266.343Z" fill="#69F0AE"/>
<path d="M291.867 113.537C291.867 113.537 268.96 120.891 266.343 129.11C266.343 129.11 266.452 132.786 264.161 137.004V138.627C264.161 138.627 266.561 133.111 267.87 132.354C267.87 132.354 262.743 125.216 291.868 113.537H291.867Z" fill="#27D781"/>
<path d="M264.16 137.005C264.16 137.005 260.628 142.324 262.642 148.797L263.551 148.555C263.551 148.555 262.669 141.424 264.518 137.839C266.366 134.253 264.161 137.006 264.161 137.006L264.16 137.005Z" fill="#27D781"/>
<path d="M266.067 162.835C274.917 162.835 282.091 155.722 282.091 146.947H250.042C250.042 155.722 257.216 162.835 266.067 162.835Z" fill="#00B2D8"/>
<path d="M270.01 162.713C269.358 162.794 268.693 162.835 268.019 162.835C259.168 162.835 251.995 155.722 251.995 146.947H255.975C255.975 155.054 262.098 161.741 270.009 162.713H270.01Z" fill="#76DCF1"/>
<path d="M282.313 163.644H249.821C249.821 162.561 250.706 161.684 251.798 161.684H280.336C281.428 161.684 282.313 162.561 282.313 163.644Z" fill="#00B2D8"/>
<path d="M282.457 146.947H249.515V147.434H282.457V146.947Z" fill="#00B2D8"/>
<g clip-path="url(#clip0_447_10960)">
<path d="M119.949 108.608C124.413 104.142 124.413 96.9011 119.949 92.4351C115.485 87.9691 108.247 87.9691 103.784 92.4351C99.3196 96.9011 99.3196 104.142 103.784 108.608C108.247 113.074 115.485 113.074 119.949 108.608Z" fill="white"/>
<path d="M118.561 107.22C122.259 103.521 122.259 97.5225 118.561 93.823C114.864 90.1235 108.868 90.1235 105.171 93.823C101.473 97.5225 101.473 103.521 105.171 107.22C108.868 110.919 114.864 110.919 118.561 107.22Z" fill="#ADDFFB"/>
<path d="M91.8703 68.4185C92.8482 61.5186 88.05 55.132 81.1533 54.1536C74.2566 53.1753 67.873 57.9757 66.8951 64.8757C65.9172 71.7756 70.7154 78.1622 77.6121 79.1405C84.5088 80.1189 90.8925 75.3185 91.8703 68.4185Z" fill="#ADDFFB"/>
<path d="M152.13 54.6885C159.228 47.587 159.228 36.0732 152.13 28.9716C145.032 21.8701 133.523 21.8701 126.425 28.9716C119.327 36.0732 119.327 47.587 126.425 54.6885C133.523 61.7901 145.032 61.7901 152.13 54.6885Z" fill="#ADDFFB"/>
<path d="M135.872 82.7047H142.682C145.215 82.7047 147.288 80.6303 147.288 78.0963V74.1836C150.57 73.3733 153.66 72.0777 156.478 70.3741L159.244 73.1414C161.036 74.9338 163.966 74.9338 165.758 73.1414L170.573 68.324C172.365 66.5316 172.365 63.5996 170.573 61.8072L167.807 59.0398C169.51 56.2209 170.805 53.1286 171.615 49.8459H175.526C178.058 49.8459 180.132 47.7714 180.132 45.2374V38.4243C180.132 35.8903 178.058 33.8159 175.526 33.8159H171.615C170.805 30.5331 169.51 27.4408 167.807 24.6219L170.573 21.8546C172.365 20.0622 172.365 17.1302 170.573 15.3378L165.758 10.5203C163.966 8.72793 161.036 8.72793 159.244 10.5203L156.478 13.2877C153.66 11.584 150.57 10.2884 147.288 9.47811V5.56546C147.288 3.03147 145.215 0.957031 142.682 0.957031H135.872C133.339 0.957031 131.266 3.03147 131.266 5.56546V9.47811C127.985 10.2884 124.894 11.584 122.076 13.2877L119.31 10.5203C117.519 8.72793 114.588 8.72793 112.796 10.5203L107.981 15.3378C106.19 17.1302 106.19 20.0622 107.981 21.8546L110.747 24.6219C109.044 27.4408 107.749 30.5331 106.939 33.8159H103.029C100.496 33.8159 98.4224 35.8903 98.4224 38.4243V45.2374C98.4224 47.7714 100.496 49.8459 103.029 49.8459H106.939C107.749 53.1286 109.044 56.2209 110.747 59.0398L107.981 61.8072C106.19 63.5996 106.19 66.5316 107.981 68.324L112.796 73.1414C114.588 74.9338 117.519 74.9338 119.31 73.1414L122.076 70.3741C124.894 72.0777 127.985 73.3733 131.266 74.1836V78.0963C131.266 80.6303 133.339 82.7047 135.872 82.7047ZM139.276 63.7671C127.166 63.7671 117.348 53.9446 117.348 41.8287C117.348 29.7128 127.166 19.8904 139.276 19.8904C151.387 19.8904 161.204 29.7128 161.204 41.8287C161.204 53.9446 151.387 63.7671 139.276 63.7671Z" fill="#093272"/>
<path d="M54.0754 53.7562L52.2925 58.1255C51.6285 59.7505 52.4155 61.6245 54.0397 62.2873L56.5481 63.3124C56.2076 65.6302 56.229 67.9523 56.5839 70.2057L54.0855 71.2551C52.467 71.9351 51.7 73.8162 52.3797 75.434L54.2071 79.7847C54.8868 81.4039 56.7671 82.1712 58.3841 81.4912L60.8825 80.4418C62.2434 82.2729 63.8861 83.9135 65.7793 85.2922L64.7547 87.8019C64.0907 89.4268 64.8778 91.3008 66.5019 91.9636L70.8692 93.7474C72.4934 94.4117 74.3665 93.6243 75.029 91.9994L76.0536 89.4898C78.3703 89.8291 80.6913 89.809 82.9437 89.454L83.994 91.9536C84.6737 93.5728 86.554 94.3401 88.171 93.6601L92.5197 91.8319C94.1381 91.1519 94.9051 89.2707 94.2254 87.653L93.1751 85.1533C95.0053 83.7919 96.6452 82.1483 98.0232 80.2543L100.532 81.2793C102.156 81.9436 104.029 81.1562 104.691 79.5313L106.474 75.162C107.138 73.5371 106.351 71.6631 104.727 71.0002L102.219 69.9752C102.558 67.6574 102.538 65.3352 102.183 63.0819L104.681 62.031C106.3 61.351 107.067 59.4698 106.387 57.8521L104.56 53.5014C103.88 51.8822 102 51.1148 100.383 51.7949L97.8844 52.8457C96.5235 51.0146 94.8808 49.374 92.9876 47.9939L94.0122 45.4842C94.6762 43.8593 93.8891 41.9853 92.265 41.3225L87.8977 39.5387C86.2735 38.8744 84.4004 39.6618 83.7379 41.2867L82.7133 43.7963C80.3966 43.4556 78.0755 43.4771 75.8232 43.8321L74.7729 41.3325C74.0932 39.7133 72.2129 38.946 70.5959 39.626L66.2472 41.4542C64.6288 42.1342 63.8618 44.0154 64.5415 45.6331L65.5918 48.1328C63.7616 49.4942 62.1217 51.1377 60.7437 53.0318L58.2352 52.0067C56.6111 51.3425 54.738 52.1299 54.0754 53.7548V53.7562ZM65.3228 60.9001C68.4938 53.1306 77.3615 49.404 85.1273 52.5765C92.8932 55.749 96.618 64.6209 93.447 72.3903C90.2759 80.1598 81.4083 83.8863 73.6424 80.7138C65.8766 77.5414 62.1518 68.6695 65.3228 60.9001Z" fill="#093272"/>
<path d="M98.9318 83.4754L96.2903 85.8519C95.3072 86.7366 95.2271 88.2642 96.11 89.2477L97.4751 90.7652C96.4849 92.2255 95.7379 93.8075 95.2385 95.451L93.1994 95.3436C91.88 95.2734 90.7424 96.2971 90.6723 97.617L90.4848 101.166C90.4147 102.486 91.4379 103.624 92.7572 103.694L94.7963 103.803C95.1183 105.491 95.695 107.143 96.5249 108.699L95.0081 110.065C94.0251 110.95 93.9449 112.477 94.8278 113.461L97.2032 116.104C98.0876 117.087 99.6144 117.167 100.597 116.284L102.114 114.918C103.574 115.909 105.155 116.656 106.798 117.156L106.689 119.196C106.619 120.516 107.642 121.654 108.961 121.724L112.509 121.912C113.828 121.982 114.966 120.958 115.036 119.638L115.145 117.598C116.832 117.276 118.483 116.699 120.039 115.869L121.404 117.386C122.288 118.37 123.815 118.45 124.798 117.567L127.439 115.19C128.423 114.306 128.503 112.778 127.62 111.794L126.255 110.277C127.245 108.817 127.992 107.235 128.491 105.591L130.53 105.699C131.85 105.769 132.987 104.745 133.057 103.425L133.245 99.8761C133.315 98.5562 132.292 97.418 130.973 97.3479L128.933 97.2391C128.611 95.5512 128.035 93.8991 127.205 92.3429L128.722 90.9771C129.705 90.0924 129.785 88.5648 128.902 87.5813L126.527 84.9385C125.642 83.955 124.115 83.8748 123.132 84.7581L121.615 86.1239C120.156 85.1332 118.575 84.3859 116.932 83.8862L117.039 81.8462C117.109 80.5262 116.086 79.388 114.767 79.3179L111.22 79.1304C109.9 79.0602 108.763 80.0838 108.692 81.4038L108.585 83.4439C106.898 83.766 105.247 84.3429 103.691 85.1733L102.326 83.6557C101.442 82.6722 99.9149 82.592 98.9318 83.4754ZM104.215 92.0108C108.913 87.7831 116.146 88.1668 120.372 92.8669C124.598 97.5669 124.214 104.804 119.516 109.031C114.818 113.259 107.585 112.875 103.359 108.175C99.1336 103.475 99.5171 96.2384 104.215 92.0108Z" fill="#093272"/>
<path d="M131.702 36.755C132.131 36.1256 132.637 35.5529 133.206 35.0503C134.809 33.6357 136.914 32.7773 139.22 32.7773C144.241 32.7773 148.312 36.8479 148.312 41.8692C148.312 46.8905 144.241 50.9611 139.22 50.9611C138.014 50.9611 136.863 50.7264 135.81 50.3002C135.136 50.0271 134.501 49.6754 133.918 49.2564" stroke="#4D4D4D" stroke-linecap="round"/>
<path d="M131.131 41.801C131.315 42.0068 131.631 42.0243 131.837 41.8402C132.043 41.6561 132.06 41.34 131.876 41.1342L131.131 41.801ZM129.59 44.1416L129.396 44.6028L129.59 44.1416ZM127.518 46.1651C127.307 45.9877 126.991 46.0155 126.814 46.2271C126.636 46.4387 126.664 46.7541 126.876 46.9315L127.518 46.1651ZM129.35 47.4375L129.364 46.9377L129.35 47.4375ZM128.85 48.6876C128.85 48.9637 129.074 49.1876 129.35 49.1876C129.627 49.1876 129.85 48.9637 129.85 48.6876H128.85ZM130.09 39.5957C130.09 39.3196 129.866 39.0957 129.59 39.0957C129.313 39.0957 129.09 39.3196 129.09 39.5957H130.09ZM130.869 46.9158L130.521 46.5572L130.869 46.9158ZM130.43 44.578L130.71 44.1635L130.43 44.578ZM131.876 41.1342C131.568 40.7892 130.723 40.1653 129.59 40.1653V41.1653C130.37 41.1653 130.961 41.6111 131.131 41.801L131.876 41.1342ZM129.59 40.1653C128.16 40.1653 127.176 41.1503 127.176 42.2698H128.176C128.176 41.7849 128.626 41.1653 129.59 41.1653V40.1653ZM127.176 42.2698C127.176 42.8428 127.44 43.3103 127.844 43.6852C128.236 44.049 128.778 44.3435 129.396 44.6028L129.783 43.6805C129.205 43.4383 128.789 43.1981 128.524 42.9519C128.27 42.7167 128.176 42.499 128.176 42.2698H127.176ZM129.364 46.9377C128.821 46.9233 128.166 46.7085 127.518 46.1651L126.876 46.9315C127.682 47.6069 128.55 47.9165 129.337 47.9373L129.364 46.9377ZM128.85 47.4375V48.6876H129.85V47.4375H128.85ZM130.09 40.6653V39.5957H129.09V40.6653H130.09ZM130.521 46.5572C130.289 46.7821 129.885 46.9515 129.364 46.9377L129.337 47.9373C130.076 47.9569 130.759 47.7203 131.217 47.2744L130.521 46.5572ZM129.396 44.6028C129.691 44.7265 129.944 44.8533 130.15 44.9924L130.71 44.1635C130.428 43.9734 130.11 43.8174 129.783 43.6805L129.396 44.6028ZM130.15 44.9924C130.924 45.5142 130.858 46.2296 130.521 46.5572L131.217 47.2744C132.092 46.4246 131.91 44.9731 130.71 44.1635L130.15 44.9924Z" fill="#4D4D4D"/>
<path d="M139.22 37.3223V41.8682L142.629 44.1412" stroke="#4D4D4D" stroke-linecap="round" stroke-linejoin="round"/>
<path d="M113.345 98.2603C113.162 98.0546 112.611 97.6432 111.876 97.6432M111.876 97.6432C110.958 97.6432 110.407 98.2603 110.407 98.8775C110.407 99.4946 110.958 99.9318 111.876 100.317C112.115 100.418 112.334 100.527 112.521 100.653C113.279 101.165 113.323 101.999 112.858 102.452C112.593 102.71 112.176 102.866 111.693 102.853M111.876 97.6432V96.8203M110.04 102.169C110.598 102.638 111.182 102.839 111.693 102.853M111.693 102.853V103.815" stroke="#4D4D4D" stroke-linecap="round" stroke-linejoin="round"/>
<ellipse cx="111.784" cy="100.317" rx="6.97855" ry="6.99437" stroke="#4D4D4D" stroke-linecap="round" stroke-linejoin="round"/>
<path d="M85.5579 62.3247C82.8896 62.3247 80.2213 60.6447 79.3319 59.8047C78.4425 60.6447 75.9521 62.3247 73.1059 62.3247C73.1059 65.6848 72.2165 71.9848 79.3319 74.0849C85.5579 71.9848 85.5579 68.2048 85.5579 62.3247Z" stroke="#4D4D4D" stroke-linecap="round" stroke-linejoin="round"/>
<path d="M76.6638 67.6056L78.2648 69.0456L82.0004 65.6855" stroke="#4D4D4D" stroke-linecap="round" stroke-linejoin="round"/>
</g>
<defs>
<linearGradient id="paint0_linear_447_10960" x1="217.606" y1="154.782" x2="176.858" y2="163.548" gradientUnits="userSpaceOnUse">
<stop stop-color="#FACF39"/>
<stop offset="1" stop-color="#E59C2E"/>
</linearGradient>
<linearGradient id="paint1_linear_447_10960" x1="207.314" y1="152.425" x2="167.73" y2="149.632" gradientUnits="userSpaceOnUse">
<stop stop-color="#FACF39"/>
<stop offset="1" stop-color="#E59C2E"/>
</linearGradient>
<linearGradient id="paint2_linear_447_10960" x1="205.73" y1="133.168" x2="188.788" y2="144.679" gradientUnits="userSpaceOnUse">
<stop stop-color="#FACF39"/>
<stop offset="1" stop-color="#E59C2E"/>
</linearGradient>
<linearGradient id="paint3_linear_447_10960" x1="216.023" y1="128.849" x2="200.342" y2="150.571" gradientUnits="userSpaceOnUse">
<stop stop-color="#FACF39"/>
<stop offset="1" stop-color="#E59C2E"/>
</linearGradient>
<linearGradient id="paint4_linear_447_10960" x1="205.335" y1="117.454" x2="191.59" y2="132.486" gradientUnits="userSpaceOnUse">
<stop stop-color="#FACF39"/>
<stop offset="1" stop-color="#E59C2E"/>
</linearGradient>
<linearGradient id="paint5_linear_447_10960" x1="207.316" y1="118.24" x2="167.732" y2="115.447" gradientUnits="userSpaceOnUse">
<stop stop-color="#FACF39"/>
<stop offset="1" stop-color="#E59C2E"/>
</linearGradient>
<linearGradient id="paint6_linear_447_10960" x1="205.73" y1="98.9859" x2="188.788" y2="110.497" gradientUnits="userSpaceOnUse">
<stop stop-color="#FACF39"/>
<stop offset="1" stop-color="#E59C2E"/>
</linearGradient>
<linearGradient id="paint7_linear_447_10960" x1="185.541" y1="90.3427" x2="177.331" y2="108.856" gradientUnits="userSpaceOnUse">
<stop stop-color="#FACF39"/>
<stop offset="1" stop-color="#E59C2E"/>
</linearGradient>
<linearGradient id="paint8_linear_447_10960" x1="191.875" y1="77.7688" x2="176.516" y2="88.8813" gradientUnits="userSpaceOnUse">
<stop stop-color="#FACF39"/>
<stop offset="1" stop-color="#E59C2E"/>
</linearGradient>
<linearGradient id="paint9_linear_447_10960" x1="175.249" y1="71.4815" x2="166.269" y2="103.343" gradientUnits="userSpaceOnUse">
<stop stop-color="#FACF39"/>
<stop offset="1" stop-color="#E59C2E"/>
</linearGradient>
<linearGradient id="paint10_linear_447_10960" x1="157.831" y1="57.7298" x2="150.018" y2="77.8094" gradientUnits="userSpaceOnUse">
<stop stop-color="#FACF39"/>
<stop offset="1" stop-color="#E59C2E"/>
</linearGradient>
<clipPath id="clip0_447_10960">
<rect width="128.077" height="120.962" fill="white" transform="translate(52.0564 0.955078)"/>
</clipPath>
</defs>
</svg>
