<svg width="280" height="157" viewBox="0 0 280 157" fill="none" xmlns="http://www.w3.org/2000/svg">
<path d="M25.1215 155.077C25.1215 155.077 -7.17753 123.045 19.6592 88.3654C43.4703 57.5953 71.2314 59.6989 91.5995 72.1856C100.274 77.5041 132.68 73.1457 161.018 47.0352C191.188 19.2377 271.885 32.892 257.885 90.4216C250.09 122.453 284.908 123.367 266.614 155.145L25.1206 155.077H25.1215Z" fill="#EFF4F6"/>
<path d="M120.275 119.484H151.233V138.747C151.233 145.375 156.606 150.747 163.233 150.747H168.725C169.83 150.747 170.725 151.643 170.725 152.747V155.049H100.783V152.747C100.783 151.643 101.678 150.747 102.783 150.747H108.275C114.902 150.747 120.275 145.375 120.275 138.747V119.484Z" fill="#ADDFFB"/>
<path d="M151.233 134.972V118.91H120.275V134.972H151.233Z" fill="#80C3E9"/>
<rect x="60.6526" y="21.9668" width="150.204" height="103.253" rx="4" fill="#ADDFFB"/>
<rect x="66.3855" y="26.5557" width="139.884" height="82.6025" rx="2" fill="#F5F9FB"/>
<rect x="74.4115" y="33.4395" width="123.832" height="27.5342" rx="2" fill="#E8EFF1"/>
<rect x="74.4116" y="67.8574" width="36.6909" height="33.2704" rx="2" fill="#E8EFF1"/>
<rect x="117.982" y="67.8574" width="36.6909" height="33.2704" rx="2" fill="#E8EFF1"/>
<rect x="161.553" y="67.8574" width="36.6909" height="33.2704" rx="2" fill="#E8EFF1"/>
<path d="M267.227 150.587L266.143 147.5C265.952 146.956 265.343 146.686 264.812 146.91L262.326 147.957C262.011 148.089 261.786 148.374 261.729 148.711L261.296 151.258C261.233 151.627 260.97 151.93 260.614 152.044L258.128 152.837C257.714 152.97 257.432 153.355 257.432 153.79V153.861C257.432 154.413 257.88 154.861 258.432 154.861H261.538C262.443 154.861 263.321 154.554 264.029 153.991L266.907 151.701C267.24 151.436 267.368 150.989 267.227 150.587Z" fill="#495565"/>
<path d="M225.111 153.861V151.181C225.111 150.722 224.799 150.322 224.354 150.211L221.614 149.526C221.009 149.374 220.367 149.514 219.879 149.904L215.363 153.52C215.184 153.663 215.08 153.879 215.08 154.108C215.08 154.524 215.418 154.861 215.834 154.861H224.111C224.663 154.861 225.111 154.413 225.111 153.861Z" fill="#495565"/>
<path d="M253.316 38.8307L249.127 40.0129L249.844 54.3745C249.855 54.5954 249.792 54.8136 249.666 54.9952L246.959 58.8923L251.895 57.6851C253.296 57.3421 254.255 56.049 254.176 54.6072L253.316 38.8307Z" fill="#FAD0C2"/>
<path d="M248.914 47.9869C249.019 47.6867 249.323 47.5037 249.637 47.551C251.547 47.8383 253.111 46.0476 252.571 44.1921L250.972 38.6993C250.829 38.2052 250.975 37.6722 251.352 37.3215C252.159 36.5692 253.479 37.0397 253.628 38.1333L255.121 49.0293C255.334 50.5852 253.754 51.7689 252.322 51.1265L249.265 49.7554C248.791 49.5428 248.559 49.0026 248.73 48.5121L248.914 47.9869Z" fill="#33D199"/>
<ellipse cx="153.075" cy="44.7513" rx="44.5809" ry="44.6067" fill="white"/>
<path d="M146.763 39.2517C146.763 37.3606 148.168 34.8291 151.814 34.8291C155.066 34.8291 156.865 36.9704 156.865 39.2517C156.865 41.5329 155.422 42.8421 153.979 44.1306C152.536 45.4192 151.814 46.1111 151.814 48.0968" stroke="#F2B133" stroke-width="3" stroke-linecap="round"/>
<ellipse cx="151.813" cy="53.1512" rx="1.89428" ry="1.89538" fill="#F2B133"/>
<ellipse cx="152.518" cy="44.7508" rx="20.6187" ry="20.073" stroke="#F2B133" stroke-width="2" stroke-linecap="round" stroke-linejoin="round" stroke-dasharray="3 5"/>
<ellipse cx="153.075" cy="44.7508" rx="35.6647" ry="35.6854" stroke="#093272" stroke-width="4" stroke-linecap="round" stroke-linejoin="round"/>
<path d="M160.309 18.4099C154.815 16.7411 148.88 16.6779 143.268 18.4014" stroke="#E8EFF1" stroke-width="3" stroke-linecap="round" stroke-linejoin="round"/>
<path d="M166.393 21.1523C167.161 21.3284 168.522 22.4492 169.114 23.3938" stroke="#E8EFF1" stroke-width="3" stroke-linecap="round" stroke-linejoin="round"/>
<path d="M188.447 50.5283L207.854 54.9731" stroke="#093272" stroke-width="4" stroke-linecap="round" stroke-linejoin="round"/>
<path d="M205.681 54.4756L259.457 66.8002" stroke="#093272" stroke-width="12" stroke-linecap="round" stroke-linejoin="round"/>
<path d="M240.394 31.128L245.442 29.2339C246.956 28.6658 247.959 27.2182 247.959 25.601V24.0117C247.959 21.1392 245.63 18.8105 242.758 18.8105C240.706 18.8105 239.043 20.4738 239.043 22.5256V30.1917C239.043 30.89 239.74 31.3733 240.394 31.128Z" fill="#FAD0C2"/>
<path d="M243.096 35.512L244.677 34.5235C245.322 34.1202 245.682 33.3859 245.606 32.6289L245.172 28.2891L242.386 28.8466L241.829 32.7497L241.576 34.5228C241.455 35.3649 242.375 35.963 243.096 35.512Z" fill="#FAD0C2"/>
<path d="M241.095 17.5587L245.201 17.0174C247.203 16.7532 249.165 17.7345 250.155 19.4955L250.478 20.0697C250.831 20.6975 250.955 21.4284 250.828 22.1374L250.258 25.3334C249.871 27.499 250.7 29.7026 252.417 31.0773L248.463 33.1718C246.24 34.3496 243.641 32.4316 244.112 29.9597L244.735 26.6884C244.992 25.3356 244.295 23.9811 243.045 23.4038L240.251 22.1135C238.835 21.4595 237.928 20.0419 237.928 18.482V17.9422C237.928 17.3225 238.586 16.9242 239.135 17.2114C239.737 17.5263 240.422 17.6476 241.095 17.5587Z" fill="#242A32"/>
<path d="M230.486 113.99L242.944 79.5871L244.058 66.7627L230.126 67.8779L222.585 105.105C222.041 107.788 221.749 110.517 221.712 113.255L221.224 149.945C221.216 150.502 221.666 150.958 222.224 150.958H223.138C223.632 150.958 224.052 150.597 224.126 150.109L228.36 122.34C228.793 119.494 229.506 116.697 230.486 113.99Z" fill="#FAD0C2"/>
<path d="M253.273 108.293C252.179 95.7221 250.001 75.4098 249.64 69.1776C249.593 68.3785 248.562 67.4582 247.769 67.5607L233.486 69.4047C232.887 69.482 232.493 70.0687 232.647 70.6525L243.769 112.635C244.331 114.757 245.15 116.803 246.207 118.727L262.541 148.442C262.8 148.913 263.385 149.095 263.865 148.855L264.469 148.553C264.909 148.332 265.124 147.824 264.975 147.355L254.469 114.317C253.846 112.358 253.452 110.341 253.273 108.293Z" fill="#FAD0C2"/>
<path d="M248.006 31.7623L243.998 32.7649C241.27 33.4473 239.1 35.5121 238.284 38.2031L230.507 63.8362C230.315 64.4674 230.776 65.1078 231.436 65.1261L249.294 65.6225C249.803 65.6366 250.241 65.2662 250.312 64.762L254.171 37.3087C254.664 33.7968 251.446 30.9017 248.006 31.7623Z" fill="#25B07F"/>
<path d="M210.17 59.2508L213.054 61.2787L233.934 58.6149C234.329 58.5645 234.656 58.2845 234.767 57.9021L238.697 44.3981L243.042 44.652L238.592 60.2105C238.245 61.4262 237.173 62.2935 235.912 62.3793L214.261 63.852L211.686 65.0024C211.467 65.1001 211.22 65.1159 210.99 65.0469L207.6 64.0273C206.567 63.7169 206.689 62.2169 207.758 62.0775L210.598 61.7073L210.17 59.2508Z" fill="#FAD0C2"/>
<path d="M238.488 49.0909C237.564 48.7572 237.019 47.8021 237.202 46.837L238.925 37.7377C239.311 35.7025 241.302 34.3885 243.325 34.834C245.433 35.2983 246.689 37.4715 246.038 39.5299L243.182 48.5738C242.839 49.6573 241.664 50.2381 240.596 49.8521L238.488 49.0909Z" fill="#33D199"/>
<path d="M248.29 65.0371L232.471 64.5974C231.093 64.5591 229.867 65.4642 229.498 66.7919L218.072 107.846C217.952 108.276 218.145 108.733 218.537 108.947C226.048 113.047 234.712 114.523 243.157 113.144L256.316 110.994C256.909 110.897 257.284 110.303 257.115 109.726L253.096 95.9879C251.535 90.6526 250.676 85.1366 250.541 79.5793L250.234 66.9876C250.208 65.9238 249.354 65.0666 248.29 65.0371Z" fill="#F2B133"/>
<path d="M31.8499 153.649V150.806C31.8499 150.428 32.0638 150.081 32.4024 149.912L33.5596 149.333C33.8807 149.172 34.2633 149.196 34.5619 149.395L40.4427 153.318C40.6447 153.453 40.766 153.68 40.766 153.923C40.766 154.324 40.4408 154.649 40.0395 154.649H32.8499C32.2976 154.649 31.8499 154.201 31.8499 153.649Z" fill="#495565"/>
<path d="M11.1668 153.591L11.6866 150.015C11.758 149.524 12.1795 149.159 12.6762 149.159H15.3545C15.6745 149.159 15.9752 149.312 16.1634 149.571L18.7625 153.147C19.2429 153.808 18.7707 154.735 17.9536 154.735H12.1564C11.5468 154.735 11.0791 154.194 11.1668 153.591Z" fill="#495565"/>
<path d="M21.7966 67.159C22.0095 66.8394 22.0207 66.4262 21.8255 66.0956L16.4077 56.9217C15.5124 55.4057 15.7135 53.482 16.9032 52.1836L25.3252 42.9917C26.2249 42.0097 26.5772 40.6444 26.265 39.3498L24.8794 33.6054C24.6798 32.7776 23.6032 32.5625 23.1006 33.2499L9.44634 51.9212C8.38765 53.3689 8.42128 55.3442 9.52863 56.7543L19.0631 68.8961C19.4834 69.4313 20.3039 69.3991 20.6814 68.8326L21.7966 67.159Z" fill="#F2B133"/>
<path d="M38.0489 31.5543L33.4925 28.6711C32.1258 27.8063 31.4385 26.1846 31.7678 24.6013L32.0913 23.0456C32.6761 20.2332 35.4299 18.4279 38.2422 19.0133C40.251 19.4315 41.5408 21.399 41.1231 23.4079L39.5625 30.913C39.4203 31.5967 38.639 31.9277 38.0489 31.5543Z" fill="#E7B19F"/>
<path d="M32.0029 34.766L30.9502 33.2267C30.5207 32.5986 30.4846 31.7812 30.857 31.1178L32.9917 27.3154L35.3215 28.9431L34.2695 32.7427L33.7917 34.4687C33.5647 35.2885 32.4831 35.4683 32.0029 34.766Z" fill="#E7B19F"/>
<path d="M40.1351 17.0239L36.214 15.7302C33.8394 14.9468 31.3367 16.5096 30.9985 18.9871L30.1971 24.8587C30.1499 25.2041 30.286 25.5491 30.5562 25.7693L33.2657 27.9779C33.8223 28.4316 34.6613 28.1683 34.8588 27.4779L36.2766 22.5205C36.5559 21.5439 37.5573 20.9631 38.5438 21.2055L39.373 21.4092C40.8147 21.7635 42.1237 20.4739 41.791 19.0269C41.6698 18.0965 41.026 17.3179 40.1351 17.0239Z" fill="#79531A"/>
<path d="M16.8038 114.503L20.0908 72.8437C20.1246 72.4154 20.4282 72.0565 20.845 71.9522L31.9767 69.1677C32.6918 68.9888 33.3481 69.6189 33.1985 70.3407L24.0482 114.503L16.9645 149.942C16.8711 150.41 16.4606 150.746 15.9839 150.746H12.3967C11.7839 150.746 11.3152 150.2 11.4083 149.594L16.8038 114.503Z" fill="#093272"/>
<path d="M32.9525 113.304L26.9635 70.8114C26.8906 70.2948 27.2273 69.8089 27.7366 69.6957L40.633 66.8282C41.2672 66.6872 41.8654 67.1789 41.8498 67.8284L40.766 112.83L36.9467 150.5C36.8991 150.969 36.5307 151.341 36.0623 151.393L32.9932 151.734C32.3893 151.801 31.8655 151.319 31.8831 150.711L32.9619 113.473C32.9635 113.416 32.9604 113.36 32.9525 113.304Z" fill="#00529E"/>
<path d="M20.5398 73.0935L40.333 76.7781C41.5845 77.0111 42.7323 76.0311 42.6984 74.7586L41.943 46.4143C41.7646 39.7195 37.6722 33.7533 31.4907 31.1762L29.3731 30.2934C25.5642 28.7054 21.3264 31.3474 21.0753 35.4664L18.9095 71.0056C18.8481 72.0133 19.5473 72.9088 20.5398 73.0935Z" fill="#EAA133"/>
<path d="M44.5582 30.4562L45.4509 34.9664C45.5435 35.4346 45.3893 35.9176 45.0425 36.2454C44.2951 36.952 43.0659 36.6286 42.7627 35.6456L42.1982 33.8158C42.1386 33.6225 42.0218 33.4518 41.8632 33.3263L39.4895 31.4476C39.1231 31.1577 39.0063 30.6525 39.2082 30.231L39.8252 28.9431C39.9237 28.7374 40.0896 28.5716 40.2953 28.4731L41.483 27.9047C41.8583 27.7251 42.3055 27.7967 42.606 28.0844L43.9794 29.3998C44.2763 29.6841 44.4784 30.0529 44.5582 30.4562Z" fill="#E7B19F"/>
<path d="M45.7263 51.7948L33.4227 45.2474C31.2635 44.0984 30.6326 41.2966 32.0906 39.3316L32.7961 38.3807C34.1729 36.5249 36.8302 36.218 38.5926 37.7112L44.4357 42.6616L42.4557 36.2228C42.312 35.7555 42.5271 35.2527 42.9643 35.034L44.6203 34.2055C45.7026 33.664 47.0136 34.2004 47.406 35.3452L51.3886 46.9641C52.5656 50.3977 48.9298 53.4995 45.7263 51.7948Z" fill="#F2B133"/>
<path d="M278.859 153.861H1.14139C0.511016 153.861 0 154.372 0 155.003C0 155.633 0.511016 156.144 1.14139 156.144H278.859C279.489 156.144 280 155.633 280 155.003C280 154.372 279.489 153.861 278.859 153.861Z" fill="#B4C0CC"/>
</svg>
