<svg width="286" height="154" viewBox="0 0 286 154" fill="none" xmlns="http://www.w3.org/2000/svg">
<rect x="1" width="263" height="153.717" fill="white"/>
<path d="M26.5804 145.763C26.5804 145.763 -6.01 111.225 21.0688 73.8339C45.0947 40.6577 73.1063 42.9258 93.6581 56.3889C102.411 62.1232 135.11 57.4241 163.703 29.2718C194.145 -0.699375 275.57 14.0226 261.444 76.0509C253.578 110.587 288.71 111.572 270.252 145.835L26.5795 145.763H26.5804Z" fill="#EFF4F6"/>
<rect width="284" height="7.8823" transform="translate(1 145.835)" fill="#3FE4A9"/>
<path d="M1 145.835V153.717" stroke="#33D199"/>
<path d="M2.77539 145.835V153.717" stroke="#33D199"/>
<path d="M4.5498 145.835V153.717" stroke="#33D199"/>
<path d="M6.3252 145.835V153.717" stroke="#33D199"/>
<path d="M8.09961 145.835V153.717" stroke="#33D199"/>
<path d="M9.875 145.835V153.717" stroke="#33D199"/>
<path d="M11.6504 145.835V153.717" stroke="#33D199"/>
<path d="M13.4248 145.835V153.717" stroke="#33D199"/>
<path d="M15.2002 145.835V153.717" stroke="#33D199"/>
<path d="M16.9746 145.835V153.717" stroke="#33D199"/>
<path d="M18.75 145.835V153.717" stroke="#33D199"/>
<path d="M20.5254 145.835V153.717" stroke="#33D199"/>
<path d="M22.2998 145.835V153.717" stroke="#33D199"/>
<path d="M24.0752 145.835V153.717" stroke="#33D199"/>
<path d="M25.8496 145.835V153.717" stroke="#33D199"/>
<path d="M27.625 145.835V153.717" stroke="#33D199"/>
<path d="M29.4004 145.835V153.717" stroke="#33D199"/>
<path d="M31.1748 145.835V153.717" stroke="#33D199"/>
<path d="M32.9502 145.835V153.717" stroke="#33D199"/>
<path d="M34.7246 145.835V153.717" stroke="#33D199"/>
<path d="M36.5 145.835V153.717" stroke="#33D199"/>
<path d="M38.2754 145.835V153.717" stroke="#33D199"/>
<path d="M40.0498 145.835V153.717" stroke="#33D199"/>
<path d="M41.8252 145.835V153.717" stroke="#33D199"/>
<path d="M43.5996 145.835V153.717" stroke="#33D199"/>
<path d="M45.375 145.835V153.717" stroke="#33D199"/>
<path d="M47.1504 145.835V153.717" stroke="#33D199"/>
<path d="M48.9248 145.835V153.717" stroke="#33D199"/>
<path d="M50.7002 145.835V153.717" stroke="#33D199"/>
<path d="M52.4746 145.835V153.717" stroke="#33D199"/>
<path d="M54.25 145.835V153.717" stroke="#33D199"/>
<path d="M56.0254 145.835V153.717" stroke="#33D199"/>
<path d="M57.7998 145.835V153.717" stroke="#33D199"/>
<path d="M59.5752 145.835V153.717" stroke="#33D199"/>
<path d="M61.3496 145.835V153.717" stroke="#33D199"/>
<path d="M63.125 145.835V153.717" stroke="#33D199"/>
<path d="M64.9004 145.835V153.717" stroke="#33D199"/>
<path d="M66.6748 145.835V153.717" stroke="#33D199"/>
<path d="M68.4502 145.835V153.717" stroke="#33D199"/>
<path d="M70.2246 145.835V153.717" stroke="#33D199"/>
<path d="M72 145.835V153.717" stroke="#33D199"/>
<path d="M73.7754 145.835V153.717" stroke="#33D199"/>
<path d="M75.5498 145.835V153.717" stroke="#33D199"/>
<path d="M77.3252 145.835V153.717" stroke="#33D199"/>
<path d="M79.0996 145.835V153.717" stroke="#33D199"/>
<path d="M80.875 145.835V153.717" stroke="#33D199"/>
<path d="M82.6504 145.835V153.717" stroke="#33D199"/>
<path d="M84.4248 145.835V153.717" stroke="#33D199"/>
<path d="M86.2002 145.835V153.717" stroke="#33D199"/>
<path d="M87.9746 145.835V153.717" stroke="#33D199"/>
<path d="M89.75 145.835V153.717" stroke="#33D199"/>
<path d="M91.5254 145.835V153.717" stroke="#33D199"/>
<path d="M93.2998 145.835V153.717" stroke="#33D199"/>
<path d="M95.0752 145.835V153.717" stroke="#33D199"/>
<path d="M96.8496 145.835V153.717" stroke="#33D199"/>
<path d="M98.625 145.835V153.717" stroke="#33D199"/>
<path d="M100.4 145.835V153.717" stroke="#33D199"/>
<path d="M102.175 145.835V153.717" stroke="#33D199"/>
<path d="M103.95 145.835V153.717" stroke="#33D199"/>
<path d="M105.725 145.835V153.717" stroke="#33D199"/>
<path d="M107.5 145.835V153.717" stroke="#33D199"/>
<path d="M109.275 145.835V153.717" stroke="#33D199"/>
<path d="M111.05 145.835V153.717" stroke="#33D199"/>
<path d="M112.825 145.835V153.717" stroke="#33D199"/>
<path d="M114.6 145.835V153.717" stroke="#33D199"/>
<path d="M116.375 145.835V153.717" stroke="#33D199"/>
<path d="M118.15 145.835V153.717" stroke="#33D199"/>
<path d="M119.925 145.835V153.717" stroke="#33D199"/>
<path d="M121.7 145.835V153.717" stroke="#33D199"/>
<path d="M123.475 145.835V153.717" stroke="#33D199"/>
<path d="M125.25 145.835V153.717" stroke="#33D199"/>
<path d="M127.025 145.835V153.717" stroke="#33D199"/>
<path d="M128.8 145.835V153.717" stroke="#33D199"/>
<path d="M130.575 145.835V153.717" stroke="#33D199"/>
<path d="M132.35 145.835V153.717" stroke="#33D199"/>
<path d="M134.125 145.835V153.717" stroke="#33D199"/>
<path d="M135.9 145.835V153.717" stroke="#33D199"/>
<path d="M137.675 145.835V153.717" stroke="#33D199"/>
<path d="M139.45 145.835V153.717" stroke="#33D199"/>
<path d="M141.225 145.835V153.717" stroke="#33D199"/>
<path d="M143 145.835V153.717" stroke="#33D199"/>
<path d="M144.775 145.835V153.717" stroke="#33D199"/>
<path d="M146.55 145.835V153.717" stroke="#33D199"/>
<path d="M148.325 145.835V153.717" stroke="#33D199"/>
<path d="M150.1 145.835V153.717" stroke="#33D199"/>
<path d="M151.875 145.835V153.717" stroke="#33D199"/>
<path d="M153.65 145.835V153.717" stroke="#33D199"/>
<path d="M155.425 145.835V153.717" stroke="#33D199"/>
<path d="M157.2 145.835V153.717" stroke="#33D199"/>
<path d="M158.975 145.835V153.717" stroke="#33D199"/>
<path d="M160.75 145.835V153.717" stroke="#33D199"/>
<path d="M162.525 145.835V153.717" stroke="#33D199"/>
<path d="M164.3 145.835V153.717" stroke="#33D199"/>
<path d="M166.075 145.835V153.717" stroke="#33D199"/>
<path d="M167.85 145.835V153.717" stroke="#33D199"/>
<path d="M169.625 145.835V153.717" stroke="#33D199"/>
<path d="M171.4 145.835V153.717" stroke="#33D199"/>
<path d="M173.175 145.835V153.717" stroke="#33D199"/>
<path d="M174.95 145.835V153.717" stroke="#33D199"/>
<path d="M176.725 145.835V153.717" stroke="#33D199"/>
<path d="M178.5 145.835V153.717" stroke="#33D199"/>
<path d="M180.275 145.835V153.717" stroke="#33D199"/>
<path d="M182.05 145.835V153.717" stroke="#33D199"/>
<path d="M183.825 145.835V153.717" stroke="#33D199"/>
<path d="M185.6 145.835V153.717" stroke="#33D199"/>
<path d="M187.375 145.835V153.717" stroke="#33D199"/>
<path d="M189.149 145.835V153.717" stroke="#33D199"/>
<path d="M190.925 145.835V153.717" stroke="#33D199"/>
<path d="M192.7 145.835V153.717" stroke="#33D199"/>
<path d="M194.475 145.835V153.717" stroke="#33D199"/>
<path d="M196.25 145.835V153.717" stroke="#33D199"/>
<path d="M198.024 145.835V153.717" stroke="#33D199"/>
<path d="M199.8 145.835V153.717" stroke="#33D199"/>
<path d="M201.575 145.835V153.717" stroke="#33D199"/>
<path d="M203.35 145.835V153.717" stroke="#33D199"/>
<path d="M205.125 145.835V153.717" stroke="#33D199"/>
<path d="M206.899 145.835V153.717" stroke="#33D199"/>
<path d="M208.675 145.835V153.717" stroke="#33D199"/>
<path d="M210.45 145.835V153.717" stroke="#33D199"/>
<path d="M212.225 145.835V153.717" stroke="#33D199"/>
<path d="M214 145.835V153.717" stroke="#33D199"/>
<path d="M215.774 145.835V153.717" stroke="#33D199"/>
<path d="M217.55 145.835V153.717" stroke="#33D199"/>
<path d="M219.325 145.835V153.717" stroke="#33D199"/>
<path d="M221.1 145.835V153.717" stroke="#33D199"/>
<path d="M222.875 145.835V153.717" stroke="#33D199"/>
<path d="M224.649 145.835V153.717" stroke="#33D199"/>
<path d="M226.425 145.835V153.717" stroke="#33D199"/>
<path d="M228.2 145.835V153.717" stroke="#33D199"/>
<path d="M229.975 145.835V153.717" stroke="#33D199"/>
<path d="M231.75 145.835V153.717" stroke="#33D199"/>
<path d="M233.524 145.835V153.717" stroke="#33D199"/>
<path d="M235.3 145.835V153.717" stroke="#33D199"/>
<path d="M237.074 145.835V153.717" stroke="#33D199"/>
<path d="M238.85 145.835V153.717" stroke="#33D199"/>
<path d="M240.625 145.835V153.717" stroke="#33D199"/>
<path d="M242.399 145.835V153.717" stroke="#33D199"/>
<path d="M244.175 145.835V153.717" stroke="#33D199"/>
<path d="M245.949 145.835V153.717" stroke="#33D199"/>
<path d="M247.725 145.835V153.717" stroke="#33D199"/>
<path d="M249.5 145.835V153.717" stroke="#33D199"/>
<path d="M251.274 145.835V153.717" stroke="#33D199"/>
<path d="M253.05 145.835V153.717" stroke="#33D199"/>
<path d="M254.824 145.835V153.717" stroke="#33D199"/>
<path d="M256.6 145.835V153.717" stroke="#33D199"/>
<path d="M258.375 145.835V153.717" stroke="#33D199"/>
<path d="M260.149 145.835V153.717" stroke="#33D199"/>
<path d="M261.925 145.835V153.717" stroke="#33D199"/>
<path d="M263.699 145.835V153.717" stroke="#33D199"/>
<path d="M265.475 145.835V153.717" stroke="#33D199"/>
<path d="M267.25 145.835V153.717" stroke="#33D199"/>
<path d="M269.024 145.835V153.717" stroke="#33D199"/>
<path d="M270.8 145.835V153.717" stroke="#33D199"/>
<path d="M272.574 145.835V153.717" stroke="#33D199"/>
<path d="M274.35 145.835V153.717" stroke="#33D199"/>
<path d="M276.125 145.835V153.717" stroke="#33D199"/>
<path d="M277.899 145.835V153.717" stroke="#33D199"/>
<path d="M279.675 145.835V153.717" stroke="#33D199"/>
<path d="M281.449 145.835V153.717" stroke="#33D199"/>
<path d="M283.225 145.835V153.717" stroke="#33D199"/>
<path d="M285 145.835V153.717" stroke="#33D199"/>
<rect x="156.447" y="57.3271" width="82.2609" height="48.6713" rx="2" fill="#BDD4DC"/>
<rect x="159.582" y="59.4897" width="76.6095" height="38.937" rx="2" fill="#F5F9FB"/>
<rect x="163.978" y="62.7354" width="67.8182" height="12.979" rx="2" fill="#E8EFF1"/>
<rect x="163.979" y="78.959" width="20.0943" height="15.683" rx="2" fill="#E8EFF1"/>
<rect x="187.844" y="78.959" width="20.0943" height="15.683" rx="2" fill="#E8EFF1"/>
<rect x="211.707" y="78.959" width="20.0943" height="15.683" rx="2" fill="#E8EFF1"/>
<rect x="191.257" y="83.5254" width="10.7305" height="10.7305" fill="#E7B19F"/>
<path d="M210.55 72.3067C211.331 70.7459 208.924 70.6809 207.624 70.8435H187.138C185.35 70.8435 182.553 71.3313 183.724 73.2824C184.895 75.2336 187.138 83.0374 192.016 86.4517H201.771C207.136 84.5007 209.575 74.2577 210.55 72.3067Z" fill="#E7B19F"/>
<path d="M201.945 84.5007H193.165C191.214 82.7123 186.825 77.1845 184.874 69.3805C182.435 59.6255 190.239 54.2603 197.555 54.2603C204.871 54.2603 211.7 60.1132 209.749 69.3805C208.188 76.7943 203.896 82.5497 201.945 84.5007Z" fill="#AF6033"/>
<rect x="189.297" y="91.3296" width="14.6325" height="3.902" rx="1.951" fill="#093272"/>
<path d="M166.122 111.378C172.424 100.198 184.263 93.2808 197.098 93.2808V93.2808C209.932 93.2808 221.771 100.198 228.073 111.378L241.046 134.396C241.652 135.471 241.971 136.684 241.971 137.918V137.918C241.971 143.546 235.784 146.981 231.006 144.005L221.118 137.845C220.067 137.19 218.932 136.681 217.743 136.333L211.727 134.569C202.175 131.769 192.02 131.769 182.469 134.569L176.452 136.333C175.264 136.681 174.128 137.19 173.077 137.845L163.189 144.005C158.412 146.981 152.225 143.546 152.225 137.918V137.918C152.225 136.684 152.543 135.471 153.149 134.396L166.122 111.378Z" fill="#093272"/>
<rect x="173.69" y="116.692" width="46.824" height="37.0241" fill="#093272"/>
<path d="M168.795 128.599C168.795 123.076 173.272 118.599 178.795 118.599H216.349C221.872 118.599 226.349 123.076 226.349 128.599V153.717H168.795V128.599Z" fill="#F2B133"/>
<rect x="192.216" y="136.661" width="10.7305" height="17.0562" fill="#333D4A"/>
<rect x="183.434" y="142.311" width="10.7305" height="28.2895" rx="5.36525" transform="rotate(-90 183.434 142.311)" fill="#495565"/>
<path d="M111.94 133.75C111.94 132.093 113.284 130.75 114.94 130.75H121.511C123.168 130.75 124.511 132.093 124.511 133.75V142.835C124.511 144.492 123.168 145.835 121.511 145.835H114.94C113.284 145.835 111.94 144.492 111.94 142.835V133.75Z" fill="#BDD4DC"/>
<path d="M118.392 137.062C118.392 135.132 119.956 133.567 121.887 133.567H125.233C127.163 133.567 128.728 135.132 128.728 137.062V137.062C128.728 138.993 127.163 140.557 125.233 140.557H121.887C119.956 140.557 118.392 138.993 118.392 137.062V137.062Z" stroke="#BDD4DC" stroke-width="2"/>
<path d="M115.296 117.835C113.779 123.321 117.916 126.064 120.175 126.749C116.381 121.949 118.007 117.835 120.175 114.635C122.344 111.435 127.764 107.549 121.801 99.3203C126.409 106.863 117.194 110.978 115.296 117.835Z" fill="#BDD4DC"/>
<path d="M40.5603 27.0786H79.2667C81.2094 27.0786 82.7879 28.6574 82.7879 30.6003V67.9453C82.7879 69.8882 81.2118 71.4669 79.2667 71.4669H40.5603C38.6176 71.4669 37.0391 69.8906 37.0391 67.9453V30.6003C37.0391 28.6574 38.6176 27.0786 40.5603 27.0786Z" fill="#CDDDE9"/>
<path d="M36.1013 22.6201H74.8077C76.7504 22.6201 78.3289 24.1989 78.3289 26.1418V63.4868C78.3289 65.4297 76.7528 67.0084 74.8077 67.0084H36.1013C34.1586 67.0084 32.5801 65.4321 32.5801 63.4868V26.1418C32.5801 24.1989 34.1586 22.6201 36.1013 22.6201Z" fill="#33D199"/>
<path d="M37.7773 24.543H73.1311C74.9052 24.543 76.3469 25.9849 76.3469 27.7591V61.8684C76.3469 63.6427 74.9052 65.0846 73.1311 65.0846H37.7773C36.0032 65.0846 34.5615 63.6427 34.5615 61.8684V27.7567C34.5615 25.9824 36.0032 24.5405 37.7773 24.5405V24.543Z" fill="#CEEFE5"/>
<path d="M54.5068 28.5932C54.5068 28.0703 54.932 27.645 55.4549 27.645C55.9779 27.645 56.4031 28.0703 56.4031 28.5932C56.4031 29.1162 55.9779 29.5415 55.4549 29.5415C54.932 29.5415 54.5068 29.1162 54.5068 28.5932Z" fill="#093272"/>
<path d="M62.1523 29.9349C62.4064 29.4779 62.9831 29.3117 63.4401 29.5659C63.897 29.8201 64.0632 30.3968 63.8091 30.8538C63.5549 31.3108 62.9782 31.477 62.5213 31.2228C62.0643 30.9687 61.8982 30.3919 62.1523 29.9349Z" fill="#093272"/>
<path d="M68.7041 35.1389C69.1439 34.8554 69.7304 34.9825 70.0138 35.4224C70.2973 35.8623 70.1702 36.4488 69.7304 36.7323C69.2905 37.0158 68.7041 36.8887 68.4206 36.4488C68.1372 36.0089 68.2642 35.4224 68.7041 35.1389Z" fill="#093272"/>
<path d="M71.9481 43.1958C72.471 43.1958 72.8962 43.621 72.8962 44.144C72.8962 44.667 72.471 45.0923 71.9481 45.0923C71.4252 45.0923 71 44.667 71 44.144C71 43.621 71.4252 43.1958 71.9481 43.1958Z" fill="#093272"/>
<path d="M70.2916 52.5458C70.6606 52.9148 70.6606 53.516 70.2916 53.8851C69.9226 54.2541 69.3215 54.2541 68.9525 53.8851C68.5835 53.516 68.5835 52.9148 68.9525 52.5458C69.3215 52.1768 69.9226 52.1768 70.2916 52.5458Z" fill="#093272"/>
<path d="M64.3423 58.5116C64.7112 58.8807 64.7112 59.4819 64.3423 59.8509C63.9733 60.2199 63.3722 60.2199 63.0032 59.8509C62.6318 59.4819 62.6318 58.8807 63.0032 58.5116C63.3722 58.1426 63.9733 58.1426 64.3423 58.5116Z" fill="#093272"/>
<path d="M54.5068 61.5889C54.5068 61.0659 54.932 60.6406 55.4549 60.6406C55.9779 60.6406 56.4031 61.0659 56.4031 61.5889C56.4031 62.1118 55.9779 62.5371 55.4549 62.5371C54.932 62.5371 54.5068 62.1118 54.5068 61.5889Z" fill="#093272"/>
<path d="M48.7253 29.9354C48.4711 29.4784 47.8945 29.3122 47.4375 29.5664C46.9806 29.8205 46.8144 30.3973 47.071 30.8543C47.3251 31.3113 47.9018 31.4775 48.3587 31.2233C48.8157 30.9692 48.9818 30.3924 48.7277 29.9354H48.7253Z" fill="#093272"/>
<path d="M42.1776 35.1379C41.7378 34.8544 41.1513 34.9815 40.8679 35.4214C40.5844 35.8613 40.7115 36.4478 41.1513 36.7313C41.5912 37.0148 42.1776 36.8877 42.4611 36.4478C42.7446 36.0079 42.6175 35.4214 42.1776 35.1379Z" fill="#093272"/>
<path d="M38.9315 43.1963C38.4086 43.1963 37.9834 43.6215 37.9834 44.1445C37.9834 44.6675 38.4086 45.0927 38.9315 45.0927C39.4544 45.0927 39.8796 44.6675 39.8796 44.1445C39.8796 43.6215 39.4544 43.1963 38.9315 43.1963Z" fill="#093272"/>
<path d="M40.5883 52.5458C40.2193 52.9148 40.2193 53.516 40.5883 53.8851C40.9597 54.2541 41.5584 54.2541 41.9298 53.8851C42.3012 53.516 42.2988 52.9148 41.9298 52.5458C41.5608 52.1768 40.9597 52.1768 40.5883 52.5458Z" fill="#093272"/>
<path d="M46.5375 58.5116C46.1685 58.8807 46.1685 59.4819 46.5375 59.8509C46.9065 60.2199 47.5076 60.2199 47.879 59.8509C48.248 59.4819 48.248 58.8807 47.879 58.5116C47.51 58.1426 46.9089 58.1426 46.5375 58.5116Z" fill="#093272"/>
<path d="M55.1992 44.1435C55.1992 43.6205 55.6244 43.1953 56.1473 43.1953C56.6703 43.1953 57.0954 43.6205 57.0954 44.1435C57.0954 44.6665 56.6703 45.0918 56.1473 45.0918C55.6244 45.0918 55.1992 44.6665 55.1992 44.1435Z" fill="#093272"/>
<path d="M56.2746 32.3022H56.0156V44.1429H56.2746V32.3022Z" fill="#093272"/>
<path d="M62.0638 38.8951L55.7871 43.8208L56.2668 44.4322L62.5435 39.5065L62.0638 38.8951Z" fill="#093272"/>
<circle cx="79.9514" cy="18.6204" r="13.3831" fill="#F2B133" stroke="#333D4A" stroke-width="2"/>
<path d="M81.4314 11.2656V16.9856C81.4314 17.599 81.3947 18.209 81.3214 18.8156C81.2481 19.4156 81.1514 20.029 81.0314 20.6556H78.9314C78.8114 20.029 78.7147 19.4156 78.6414 18.8156C78.5681 18.209 78.5314 17.599 78.5314 16.9856V11.2656H81.4314ZM78.1914 24.2656C78.1914 24.0256 78.2347 23.8023 78.3214 23.5956C78.4147 23.389 78.5381 23.209 78.6914 23.0556C78.8514 22.9023 79.0381 22.7823 79.2514 22.6956C79.4647 22.6023 79.6981 22.5556 79.9514 22.5556C80.1981 22.5556 80.4281 22.6023 80.6414 22.6956C80.8547 22.7823 81.0414 22.9023 81.2014 23.0556C81.3614 23.209 81.4847 23.389 81.5714 23.5956C81.6647 23.8023 81.7114 24.0256 81.7114 24.2656C81.7114 24.5056 81.6647 24.7323 81.5714 24.9456C81.4847 25.1523 81.3614 25.3323 81.2014 25.4856C81.0414 25.639 80.8547 25.759 80.6414 25.8456C80.4281 25.9323 80.1981 25.9756 79.9514 25.9756C79.6981 25.9756 79.4647 25.9323 79.2514 25.8456C79.0381 25.759 78.8514 25.639 78.6914 25.4856C78.5381 25.3323 78.4147 25.1523 78.3214 24.9456C78.2347 24.7323 78.1914 24.5056 78.1914 24.2656Z" fill="#333D4A"/>
</svg>
