<svg width="40" height="40" viewBox="0 0 40 40" fill="none" xmlns="http://www.w3.org/2000/svg">
<g id="Group">
<g id="Group 13012">
<g id="Group 10401">
<g id="Group 9154">
<path id="Vector 221" d="M18.0475 36.189C17.7961 36.1262 17.1047 35.6616 16.3505 34.3054C15.4077 32.6101 14.8421 30.3498 14.2764 29.7847C13.7107 29.2196 13.3336 27.9011 14.2764 27.336C15.2192 26.771 16.1619 27.336 16.539 27.9011C16.9161 28.4662 18.236 30.3498 18.6131 31.48C18.6131 29.0313 18.6131 23.9455 18.6131 22.0619C18.6131 20.1784 21.4414 20.3667 21.4414 22.062V26.3943C22.3842 25.4525 24.4583 26.3943 24.0812 27.9011C25.024 26.9594 26.9095 27.7129 26.721 28.843C27.6637 28.0896 29.1722 28.843 29.1722 30.3499V33.3637C29.1722 34.5692 28.2922 35.7495 27.8523 36.189" stroke="#242A32" stroke-linecap="round" stroke-linejoin="round"/>
</g>
<g id="Group 10391">
<circle id="Ellipse 46" cx="19.2039" cy="8.53055" r="4.76931" fill="#C9794A" stroke="#C9794A" stroke-width="2" stroke-linecap="round" stroke-linejoin="round"/>
<g id="Group 12297">
<path id="Vector 477" d="M19.9947 7.33378C20.1789 7.53957 20.495 7.55713 20.7008 7.373C20.9065 7.18887 20.9241 6.87278 20.74 6.66698L19.9947 7.33378ZM19.272 8.53064L19.0787 8.99178L19.272 8.53064ZM18.224 9.52469C18.0124 9.3473 17.697 9.37505 17.5196 9.58668C17.3423 9.79831 17.37 10.1137 17.5816 10.2911L18.224 9.52469ZM19.1351 10.4167L19.1483 9.9169L19.1351 10.4167ZM18.6351 11.1321C18.6351 11.4082 18.859 11.6321 19.1351 11.6321C19.4112 11.6321 19.6351 11.4082 19.6351 11.1321H18.6351ZM19.772 5.9292C19.772 5.65306 19.5482 5.4292 19.272 5.4292C18.9959 5.4292 18.772 5.65306 18.772 5.9292H19.772ZM20.0042 10.1182L19.6557 9.7596L20.0042 10.1182ZM19.753 8.78033L20.0326 8.36585L19.753 8.78033ZM20.74 6.66698C20.5337 6.43642 19.9961 6.0413 19.272 6.0413V7.0413C19.6432 7.0413 19.9272 7.25829 19.9947 7.33378L20.74 6.66698ZM19.272 6.0413C18.3543 6.0413 17.6767 6.68309 17.6767 7.45946H18.6767C18.6767 7.31768 18.8205 7.0413 19.272 7.0413V6.0413ZM17.6767 7.45946C17.6767 7.86086 17.8641 8.1819 18.1277 8.42627C18.3794 8.65961 18.7161 8.83978 19.0787 8.99178L19.4653 8.06951C19.1434 7.93458 18.9324 7.8087 18.8076 7.69295C18.6946 7.58823 18.6767 7.51714 18.6767 7.45946H17.6767ZM19.1483 9.9169C18.8905 9.91007 18.5613 9.80741 18.224 9.52469L17.5816 10.2911C18.0764 10.7058 18.6187 10.9032 19.1219 10.9165L19.1483 9.9169ZM18.6351 10.4167V11.1321H19.6351V10.4167H18.6351ZM19.772 6.5413V5.9292H18.772V6.5413H19.772ZM19.6557 9.7596C19.5719 9.84103 19.4001 9.92356 19.1483 9.9169L19.1219 10.9165C19.5913 10.929 20.0414 10.7792 20.3526 10.4767L19.6557 9.7596ZM19.0787 8.99178C19.2409 9.05973 19.3714 9.12604 19.4733 9.19481L20.0326 8.36585C19.8553 8.24622 19.6589 8.15067 19.4653 8.06951L19.0787 8.99178ZM19.4733 9.19481C19.6525 9.31569 19.7124 9.44782 19.7255 9.53765C19.7389 9.63026 19.7094 9.70741 19.6557 9.7596L20.3526 10.4767C20.9679 9.87881 20.8106 8.89075 20.0326 8.36585L19.4733 9.19481Z" fill="white"/>
</g>
</g>
<g id="Group 13365">
<g id="Group 10391_2">
<circle id="Ellipse 46_2" cx="32.2039" cy="17.5305" r="4.76931" fill="#C9794A" stroke="#C9794A" stroke-width="2" stroke-linecap="round" stroke-linejoin="round"/>
<g id="Group 12297_2">
<path id="Vector 477_2" d="M32.9947 16.3337C33.1789 16.5395 33.495 16.5571 33.7008 16.373C33.9065 16.1888 33.9241 15.8727 33.74 15.6669L32.9947 16.3337ZM32.272 17.5306L32.0787 17.9917L32.272 17.5306ZM31.224 18.5247C31.0124 18.3473 30.697 18.375 30.5196 18.5866C30.3423 18.7983 30.37 19.1136 30.5816 19.291L31.224 18.5247ZM32.1351 19.4167L32.1483 18.9169L32.1351 19.4167ZM31.6351 20.132C31.6351 20.4082 31.859 20.632 32.1351 20.632C32.4112 20.632 32.6351 20.4082 32.6351 20.132H31.6351ZM32.772 14.9292C32.772 14.653 32.5482 14.4292 32.272 14.4292C31.9959 14.4292 31.772 14.653 31.772 14.9292H32.772ZM33.0042 19.1181L32.6557 18.7596L33.0042 19.1181ZM32.753 17.7803L33.0326 17.3658L32.753 17.7803ZM33.74 15.6669C33.5337 15.4364 32.9961 15.0413 32.272 15.0413V16.0413C32.6432 16.0413 32.9272 16.2582 32.9947 16.3337L33.74 15.6669ZM32.272 15.0413C31.3543 15.0413 30.6767 15.683 30.6767 16.4594H31.6767C31.6767 16.3176 31.8205 16.0413 32.272 16.0413V15.0413ZM30.6767 16.4594C30.6767 16.8608 30.8641 17.1819 31.1277 17.4262C31.3794 17.6596 31.7161 17.8397 32.0787 17.9917L32.4653 17.0695C32.1434 16.9345 31.9324 16.8087 31.8076 16.6929C31.6946 16.5882 31.6767 16.5171 31.6767 16.4594H30.6767ZM32.1483 18.9169C31.8905 18.91 31.5613 18.8074 31.224 18.5247L30.5816 19.291C31.0764 19.7057 31.6187 19.9032 32.1219 19.9165L32.1483 18.9169ZM31.6351 19.4167V20.132H32.6351V19.4167H31.6351ZM32.772 15.5413V14.9292H31.772V15.5413H32.772ZM32.6557 18.7596C32.5719 18.841 32.4001 18.9235 32.1483 18.9169L32.1219 19.9165C32.5913 19.9289 33.0414 19.7791 33.3526 19.4767L32.6557 18.7596ZM32.0787 17.9917C32.2409 18.0597 32.3714 18.126 32.4733 18.1948L33.0326 17.3658C32.8553 17.2462 32.6589 17.1506 32.4653 17.0695L32.0787 17.9917ZM32.4733 18.1948C32.6525 18.3157 32.7124 18.4478 32.7255 18.5376C32.7389 18.6302 32.7094 18.7074 32.6557 18.7596L33.3526 19.4767C33.9679 18.8788 33.8106 17.8907 33.0326 17.3658L32.4733 18.1948Z" fill="white"/>
</g>
</g>
<g id="Group 10392">
<circle id="Ellipse 46_3" cx="7.20389" cy="17.5305" r="4.76931" fill="#C9794A" stroke="#C9794A" stroke-width="2" stroke-linecap="round" stroke-linejoin="round"/>
<g id="Group 12297_3">
<path id="Vector 477_3" d="M7.99474 16.3337C8.17887 16.5395 8.49496 16.5571 8.70076 16.373C8.90655 16.1888 8.92411 15.8727 8.73998 15.6669L7.99474 16.3337ZM7.27201 17.5306L7.07874 17.9917L7.27201 17.5306ZM6.22403 18.5247C6.0124 18.3473 5.69704 18.375 5.51965 18.5866C5.34225 18.7983 5.37001 19.1136 5.58163 19.291L6.22403 18.5247ZM7.1351 19.4167L7.14833 18.9169L7.1351 19.4167ZM6.6351 20.132C6.6351 20.4082 6.85895 20.632 7.1351 20.632C7.41124 20.632 7.6351 20.4082 7.6351 20.132H6.6351ZM7.77201 14.9292C7.77201 14.653 7.54816 14.4292 7.27201 14.4292C6.99587 14.4292 6.77201 14.653 6.77201 14.9292H7.77201ZM8.00416 19.1181L7.65568 18.7596L8.00416 19.1181ZM7.75298 17.7803L8.03263 17.3658L7.75298 17.7803ZM8.73998 15.6669C8.53369 15.4364 7.99613 15.0413 7.27201 15.0413V16.0413C7.64324 16.0413 7.92719 16.2582 7.99474 16.3337L8.73998 15.6669ZM7.27201 15.0413C6.35432 15.0413 5.67667 15.683 5.67667 16.4594H6.67667C6.67667 16.3176 6.82053 16.0413 7.27201 16.0413V15.0413ZM5.67667 16.4594C5.67667 16.8608 5.8641 17.1819 6.12768 17.4262C6.37935 17.6596 6.71608 17.8397 7.07874 17.9917L7.46528 17.0695C7.14336 16.9345 6.93241 16.8087 6.80756 16.6929C6.69462 16.5882 6.67667 16.5171 6.67667 16.4594H5.67667ZM7.14833 18.9169C6.8905 18.91 6.56131 18.8074 6.22403 18.5247L5.58163 19.291C6.07637 19.7057 6.61869 19.9032 7.12186 19.9165L7.14833 18.9169ZM6.6351 19.4167V20.132H7.6351V19.4167H6.6351ZM7.77201 15.5413V14.9292H6.77201V15.5413H7.77201ZM7.65568 18.7596C7.5719 18.841 7.40011 18.9235 7.14833 18.9169L7.12186 19.9165C7.59128 19.9289 8.04143 19.7791 8.35263 19.4767L7.65568 18.7596ZM7.07874 17.9917C7.24087 18.0597 7.3714 18.126 7.47333 18.1948L8.03263 17.3658C7.85532 17.2462 7.65895 17.1506 7.46528 17.0695L7.07874 17.9917ZM7.47333 18.1948C7.65248 18.3157 7.71242 18.4478 7.72546 18.5376C7.73892 18.6302 7.70939 18.7074 7.65568 18.7596L8.35263 19.4767C8.96786 18.8788 8.8106 17.8907 8.03263 17.3658L7.47333 18.1948Z" fill="white"/>
</g>
</g>
</g>
</g>
</g>
</g>
</svg>
