<svg width="77" height="76" viewBox="0 0 77 76" fill="none" xmlns="http://www.w3.org/2000/svg">
<circle cx="39.4223" cy="35.111" r="12.029" fill="#C9794A" stroke="#C9794A" stroke-width="2" stroke-linecap="round" stroke-linejoin="round"/>
<path d="M41.6988 32.0037C42.067 32.4153 42.6992 32.4504 43.1108 32.0822C43.5224 31.7139 43.5575 31.0817 43.1892 30.6701L41.6988 32.0037ZM39.7428 35.1107L39.3562 36.033L39.7428 35.1107ZM37.0086 37.7408C36.5854 37.386 35.9546 37.4415 35.5998 37.8647C35.2451 38.288 35.3006 38.9187 35.7238 39.2735L37.0086 37.7408ZM39.4051 39.762L39.4316 38.7624L39.4051 39.762ZM38.4051 41.5262C38.4051 42.0785 38.8528 42.5262 39.4051 42.5262C39.9574 42.5262 40.4051 42.0785 40.4051 41.5262H38.4051ZM40.7428 28.6953C40.7428 28.143 40.295 27.6953 39.7428 27.6953C39.1905 27.6953 38.7428 28.143 38.7428 28.6953H40.7428ZM41.5483 39.0257L40.8514 38.3086L41.5483 39.0257ZM40.9289 35.7265L41.4882 34.8975L40.9289 35.7265ZM43.1892 30.6701C42.7128 30.1377 41.4463 29.2048 39.7428 29.2048V31.2048C40.7405 31.2048 41.4999 31.7814 41.6988 32.0037L43.1892 30.6701ZM39.7428 29.2048C37.5883 29.2048 36.0415 30.7023 36.0415 32.4691H38.0415C38.0415 31.9715 38.5207 31.2048 39.7428 31.2048V29.2048ZM36.0415 32.4691C36.0415 33.3789 36.4642 34.1123 37.0792 34.6824C37.6703 35.2305 38.4713 35.6621 39.3562 36.033L40.1293 34.1885C39.3259 33.8517 38.7764 33.5287 38.4389 33.2158C38.1253 32.925 38.0415 32.6914 38.0415 32.4691H36.0415ZM39.4316 38.7624C38.7386 38.744 37.8771 38.4688 37.0086 37.7408L35.7238 39.2735C36.9072 40.2655 38.195 40.7303 39.3786 40.7617L39.4316 38.7624ZM38.4051 39.762V41.5262H40.4051V39.762H38.4051ZM40.7428 30.2048V28.6953H38.7428V30.2048H40.7428ZM40.8514 38.3086C40.5917 38.5609 40.1032 38.7801 39.4316 38.7624L39.3786 40.7617C40.4856 40.791 41.5308 40.4372 42.2453 39.7429L40.8514 38.3086ZM39.3562 36.033C39.7634 36.2037 40.1006 36.374 40.3696 36.5555L41.4882 34.8975C41.0685 34.6144 40.5996 34.3855 40.1293 34.1885L39.3562 36.033ZM40.3696 36.5555C41.3352 37.207 41.1689 38 40.8514 38.3086L42.2453 39.7429C43.6373 38.39 43.3073 36.1249 41.4882 34.8975L40.3696 36.5555Z" fill="white"/>
<path d="M38.4938 15.379C31.4498 15.567 17.3618 21.2462 17.3618 42.4586C17.3618 44.7152 17.3618 48.0566 17.3618 51.6296M61.4903 50.3136C61.4903 43.5437 63.9764 22.1489 45.9521 16.5073C47.8167 13.1223 54.032 1.27503 44.0875 4.65998C42.8445 2.40331 39.1153 0.710839 36.6292 2.40331C34.1431 4.09579 34.7646 7.48075 36.6292 10.3015" stroke="#C9794A" stroke-width="2" stroke-linecap="round" stroke-linejoin="round"/>
<path d="M34.7646 4.65997C30.2067 3.71971 23.4528 4.65998 32.9 15.9431" stroke="#C9794A" stroke-width="2" stroke-linecap="round" stroke-linejoin="round"/>
<path d="M9.85767 55.1447C15.9725 51.6297 16.6051 51.6297 20.7086 51.6297C27.8427 51.6297 27.9567 54.0233 32.0603 54.0233C36.1638 54.0233 36.1908 54.0233 41.3203 54.0233C47.4455 54.0233 47.4455 62.1747 41.3203 62.1747C39.0525 62.1747 34.139 62.1747 33.1131 62.1747" stroke="#242A32" stroke-width="2" stroke-linecap="round" stroke-linejoin="round"/>
<path d="M6.44067 74.2842L17.8309 68.9669L33.917 74.0131C34.4805 74.1899 35.0837 74.1964 35.651 74.0318L52.3387 69.1894C52.8413 69.0436 53.2969 68.7689 53.6605 68.3925L70.226 51.2424C69.2365 49.7654 65.8723 47.8748 60.3311 52.1287C54.79 56.3825 48.136 59.5951 45.1675 60.7767" stroke="#242A32" stroke-width="2" stroke-linecap="round" stroke-linejoin="round"/>
</svg>
