<svg width="19" height="19" viewBox="0 0 19 19" fill="none" xmlns="http://www.w3.org/2000/svg">
<path d="M3.00781 16.25C3.00781 16.6642 3.3436 17 3.75781 17C4.17203 17 4.50781 16.6642 4.50781 16.25H3.00781ZM4.50781 4.25C4.50781 3.83579 4.17203 3.5 3.75781 3.5C3.3436 3.5 3.00781 3.83579 3.00781 4.25H4.50781ZM5.25781 2C4.8436 2 4.50781 2.33579 4.50781 2.75C4.50781 3.16421 4.8436 3.5 5.25781 3.5V2ZM13.5078 11.75C13.5078 12.1642 13.8436 12.5 14.2578 12.5C14.672 12.5 15.0078 12.1642 15.0078 11.75H13.5078ZM15.0078 14.7575C15.0078 14.3433 14.672 14.0075 14.2578 14.0075C13.8436 14.0075 13.5078 14.3433 13.5078 14.7575H15.0078ZM14.2578 16.25L13.8418 16.874C14.0719 17.0275 14.3678 17.0418 14.6117 16.9113C14.8556 16.7807 15.0078 16.5266 15.0078 16.25H14.2578ZM12.0078 14.75L12.4238 14.126C12.1264 13.9277 11.7303 13.9669 11.4775 14.2197L12.0078 14.75ZM10.5078 16.25L9.97748 16.7803C10.2704 17.0732 10.7452 17.0732 11.0381 16.7803L10.5078 16.25ZM9.00781 14.75L9.53814 14.2197C9.24525 13.9268 8.77038 13.9268 8.47748 14.2197L9.00781 14.75ZM7.50781 16.25L6.97748 16.7803C7.27038 17.0732 7.74525 17.0732 8.03814 16.7803L7.50781 16.25ZM6.00781 14.75L6.53814 14.2197C6.28534 13.9669 5.88925 13.9277 5.59179 14.126L6.00781 14.75ZM3.34179 15.626C2.99714 15.8557 2.90401 16.3214 3.13377 16.666C3.36354 17.0107 3.82919 17.1038 4.17384 16.874L3.34179 15.626ZM4.50781 16.25V4.25H3.00781V16.25H4.50781ZM5.25781 3.5H12.7578V2H5.25781V3.5ZM12.7578 3.5C13.172 3.5 13.5078 3.83579 13.5078 4.25H15.0078C15.0078 3.00736 14.0005 2 12.7578 2V3.5ZM13.5078 4.25V11.75H15.0078V4.25H13.5078ZM13.5078 14.7575V16.25H15.0078V14.7575H13.5078ZM14.6738 15.626L12.4238 14.126L11.5918 15.374L13.8418 16.874L14.6738 15.626ZM11.4775 14.2197L9.97748 15.7197L11.0381 16.7803L12.5381 15.2803L11.4775 14.2197ZM11.0381 15.7197L9.53814 14.2197L8.47748 15.2803L9.97748 16.7803L11.0381 15.7197ZM8.47748 14.2197L6.97748 15.7197L8.03814 16.7803L9.53814 15.2803L8.47748 14.2197ZM8.03814 15.7197L6.53814 14.2197L5.47748 15.2803L6.97748 16.7803L8.03814 15.7197ZM5.59179 14.126L3.34179 15.626L4.17384 16.874L6.42384 15.374L5.59179 14.126Z" fill="white"/>
<path d="M8.25781 5.75H11.2578" stroke="white" stroke-width="1.5" stroke-linecap="round" stroke-linejoin="round"/>
<path d="M6.75781 8.75H8.25781" stroke="white" stroke-width="1.5" stroke-linecap="round" stroke-linejoin="round"/>
<path d="M9.75781 11.75H11.2578" stroke="white" stroke-width="1.5" stroke-linecap="round" stroke-linejoin="round"/>
<path d="M11.2578 8.75016V8.75766" stroke="white" stroke-width="1.5" stroke-linecap="round" stroke-linejoin="round"/>
<path d="M2.25781 2.75L15.7578 16.25" stroke="white" stroke-width="1.5" stroke-linecap="round" stroke-linejoin="round"/>
</svg>
