<svg width="57" height="56" viewBox="0 0 57 56" fill="none" xmlns="http://www.w3.org/2000/svg">
<mask id="mask0_852_18321" style="mask-type:alpha" maskUnits="userSpaceOnUse" x="3" y="2" width="52" height="52">
<path fill-rule="evenodd" clip-rule="evenodd" d="M28.7487 2.33301C14.5154 2.33301 3.08203 13.7663 3.08203 27.9997C3.08203 42.233 14.5154 53.6663 28.7487 53.6663C42.982 53.6663 54.4154 42.233 54.4154 27.9997C54.4154 13.7663 42.982 2.33301 28.7487 2.33301ZM28.7487 48.9997C17.082 48.9997 7.7487 39.6663 7.7487 27.9997C7.7487 16.333 17.082 6.99967 28.7487 6.99967C40.4154 6.99967 49.7487 16.333 49.7487 27.9997C49.7487 39.6663 40.4154 48.9997 28.7487 48.9997ZM37.382 36.633C38.3154 35.6997 38.3154 34.2997 37.382 33.3663L31.082 27.0663V13.9997C31.082 12.5997 30.1487 11.6663 28.7487 11.6663C27.3487 11.6663 26.4154 12.5997 26.4154 13.9997V27.9997C26.4154 28.6997 26.6487 29.1663 27.1154 29.633L34.1154 36.633C34.582 37.0997 35.0487 37.333 35.7487 37.333C36.4487 37.333 36.9154 37.0997 37.382 36.633Z" fill="white"/>
</mask>
<g mask="url(#mask0_852_18321)">
<rect x="0.75" width="56" height="56" fill="#F8C33D"/>
</g>
</svg>
