<svg width="50" height="50" viewBox="0 0 50 50" fill="none" xmlns="http://www.w3.org/2000/svg">
<g id="Group 13405" filter="url(#filter0_d_625_11233)">
<path id="Vector" d="M24.8455 3.68421C14.8361 3.68421 6.68772 11.8247 6.68408 21.8332C6.68227 25.0325 7.5203 28.1557 9.10916 30.9077L7.94342 38.7407L16.1571 37.7917C18.8095 39.2386 21.7953 39.9982 24.8349 40H24.842C34.8496 40 42.9944 31.8577 42.9999 21.851C43.0035 16.9994 41.1167 12.438 37.6881 9.00608C34.2595 5.576 29.703 3.68603 24.8455 3.68421Z" fill="#06C2A1" stroke="white" stroke-width="3"/>
<path id="Vector_2" d="M16.0654 12.8068C16.5452 12.283 17.111 12.152 17.4609 12.152H17.4842C17.8242 12.152 18.1624 12.152 18.4595 12.1643C18.8324 12.179 19.2463 12.1992 19.6381 13.0687C20.1033 14.1037 21.1206 16.686 21.2505 16.9479C21.3804 17.2098 21.4695 17.5168 21.2955 17.8646C21.1216 18.2124 21.0315 18.4303 20.7717 18.7362C20.5098 19.0421 20.2247 19.4181 19.99 19.6528C19.7281 19.9126 19.4529 20.1991 19.7568 20.7208C20.0627 21.2446 21.1118 22.9533 22.6665 24.3382C24.6655 26.1191 26.3497 26.6727 26.8736 26.9367C27.3974 27.1986 27.7013 27.1515 28.0072 26.8017C28.3131 26.4539 29.3127 25.2794 29.6606 24.7556C30.0084 24.2318 30.3594 24.3198 30.8392 24.4937C31.319 24.6676 33.8902 25.93 34.4119 26.1919C34.9358 26.4538 35.2847 26.5838 35.4146 26.8017C35.5445 27.0175 35.5435 28.0682 35.1076 29.2896C34.6718 30.5111 32.5355 31.6876 31.5758 31.7735C30.6162 31.8615 29.7191 32.2051 25.3021 30.4641C19.9862 28.3689 16.628 22.9223 16.3682 22.5745L16.3631 22.5677C16.083 22.1936 14.2319 19.7216 14.2319 17.1648C14.2319 14.592 15.5855 13.3285 16.0654 12.8068Z" fill="white"/>
</g>
<defs>
<filter id="filter0_d_625_11233" x="0.184082" y="0.184212" width="49.3159" height="49.3158" filterUnits="userSpaceOnUse" color-interpolation-filters="sRGB">
<feFlood flood-opacity="0" result="BackgroundImageFix"/>
<feColorMatrix in="SourceAlpha" type="matrix" values="0 0 0 0 0 0 0 0 0 0 0 0 0 0 0 0 0 0 127 0" result="hardAlpha"/>
<feOffset dy="3"/>
<feGaussianBlur stdDeviation="2.5"/>
<feComposite in2="hardAlpha" operator="out"/>
<feColorMatrix type="matrix" values="0 0 0 0 0 0 0 0 0 0 0 0 0 0 0 0 0 0 0.25 0"/>
<feBlend mode="normal" in2="BackgroundImageFix" result="effect1_dropShadow_625_11233"/>
<feBlend mode="normal" in="SourceGraphic" in2="effect1_dropShadow_625_11233" result="shape"/>
</filter>
</defs>
</svg>
