<svg width="57" height="57" viewBox="0 0 57 57" fill="none" xmlns="http://www.w3.org/2000/svg">
<path fill-rule="evenodd" clip-rule="evenodd" d="M18.932 54.1663H38.0654C38.7654 54.1663 39.4654 53.933 39.6987 53.6997L53.4654 39.933C53.932 39.4663 54.1654 38.9997 54.1654 38.2997V18.933C54.1654 18.233 53.932 17.533 53.6987 17.2997L39.932 3.53301C39.4654 3.06634 38.9987 2.83301 38.2987 2.83301H18.932C18.232 2.83301 17.532 3.06634 17.2987 3.53301L3.53203 17.2997C3.06536 17.7663 2.83203 18.233 2.83203 18.933V38.0663C2.83203 38.7663 3.06536 39.4663 3.53203 39.6997L17.2987 53.4663C17.7654 53.933 18.232 54.1663 18.932 54.1663ZM37.3654 49.4997H19.8654L7.4987 37.3663V19.8663L19.8654 7.49967H37.132L49.732 19.8663V37.133L37.3654 49.4997ZM30.832 28.4997V19.1663C30.832 17.7663 29.8987 16.833 28.4987 16.833C27.0987 16.833 26.1654 17.7663 26.1654 19.1663V28.4997C26.1654 29.8997 27.0987 30.833 28.4987 30.833C29.8987 30.833 30.832 29.8997 30.832 28.4997ZM30.5987 38.7663C30.5987 38.9997 30.3654 39.233 30.132 39.4663C29.6654 39.933 29.1987 40.1663 28.2654 40.1663C27.5654 40.1663 27.0987 39.933 26.632 39.4663C26.1654 38.9997 25.932 38.533 25.932 37.833C25.932 37.5596 26.0121 37.3663 26.0784 37.2062C26.1253 37.093 26.1654 36.9963 26.1654 36.8997C26.1654 36.6663 26.3987 36.433 26.632 36.1997C27.332 35.4997 28.2654 35.2663 29.1987 35.733C29.3154 35.733 29.3737 35.7913 29.432 35.8497C29.4904 35.908 29.5487 35.9663 29.6654 35.9663C29.8987 35.9663 30.132 36.1997 30.132 36.1997C30.2487 36.3163 30.307 36.433 30.3654 36.5497C30.4237 36.6663 30.482 36.783 30.5987 36.8997C30.832 37.133 30.832 37.5997 30.832 37.833C30.832 37.9497 30.7737 38.1247 30.7154 38.2997C30.657 38.4747 30.5987 38.6497 30.5987 38.7663Z" fill="#FC065E"/>
</svg>
