<svg width="60" height="61" viewBox="0 0 60 61" fill="none" xmlns="http://www.w3.org/2000/svg">
<path opacity="0.2" d="M29.7907 57.9992C44.7004 57.9992 56.7905 45.9241 56.7905 31.0245C56.7905 16.1249 44.7004 4.0498 29.7907 4.0498C14.8811 4.0498 2.79102 16.1249 2.79102 31.0245C2.79102 45.9241 14.8811 57.9992 29.7907 57.9992Z" stroke="#F8C33D" stroke-width="4"/>
<path d="M14.0503 52.9133C17.3213 55.2691 21.0788 56.8618 25.0464 57.5743C29.0139 58.2868 33.0908 58.101 36.9771 57.0307C40.8635 55.9603 44.4605 54.0325 47.5037 51.389C50.547 48.7455 52.9591 45.4536 54.5627 41.7553C56.1663 38.0569 56.9207 34.0462 56.7703 30.0179C56.6199 25.9897 55.5686 22.0463 53.6937 18.4779C51.8187 14.9094 49.1679 11.8065 45.936 9.3973C42.7041 6.98812 38.9733 5.3339 35.018 4.55628" stroke="#FFC633" stroke-width="4"/>
<path d="M19.3897 25.408C19.875 25.408 20.323 25.4773 20.7337 25.616C21.1444 25.7547 21.4964 25.952 21.7897 26.208C22.0884 26.464 22.3204 26.7733 22.4857 27.136C22.651 27.4987 22.7337 27.9013 22.7337 28.344C22.7337 28.7067 22.6857 29.032 22.5897 29.32C22.499 29.6027 22.3657 29.8533 22.1897 30.072C22.019 30.2853 21.811 30.4667 21.5657 30.616C21.3204 30.7653 21.0457 30.8853 20.7417 30.976C21.4884 31.1733 22.0484 31.504 22.4217 31.968C22.8004 32.432 22.9897 33.0133 22.9897 33.712C22.9897 34.24 22.8884 34.7147 22.6857 35.136C22.4884 35.5573 22.2164 35.9173 21.8697 36.216C21.523 36.5093 21.1177 36.736 20.6537 36.896C20.195 37.0507 19.7017 37.128 19.1737 37.128C18.5657 37.128 18.0457 37.0533 17.6137 36.904C17.1817 36.7493 16.8164 36.5387 16.5177 36.272C16.219 36.0053 15.9737 35.6907 15.7817 35.328C15.5897 34.96 15.427 34.5627 15.2937 34.136L15.9017 33.88C16.0137 33.832 16.1257 33.808 16.2377 33.808C16.3444 33.808 16.4377 33.832 16.5177 33.88C16.603 33.9227 16.667 33.992 16.7097 34.088C16.7204 34.1093 16.731 34.1333 16.7417 34.16C16.7524 34.1813 16.763 34.2053 16.7737 34.232C16.8484 34.3867 16.939 34.5627 17.0457 34.76C17.1524 34.952 17.2964 35.1333 17.4777 35.304C17.659 35.4747 17.883 35.6187 18.1497 35.736C18.4217 35.8533 18.7577 35.912 19.1577 35.912C19.5577 35.912 19.907 35.848 20.2057 35.72C20.5097 35.5867 20.7604 35.416 20.9577 35.208C21.1604 35 21.3124 34.768 21.4137 34.512C21.515 34.256 21.5657 34.0027 21.5657 33.752C21.5657 33.4427 21.523 33.16 21.4377 32.904C21.3577 32.648 21.2084 32.4267 20.9897 32.24C20.7764 32.0533 20.4777 31.9067 20.0937 31.8C19.715 31.6933 19.227 31.64 18.6297 31.64V30.608C19.115 30.6027 19.5284 30.5493 19.8697 30.448C20.2164 30.3467 20.499 30.208 20.7177 30.032C20.9364 29.856 21.0937 29.6453 21.1897 29.4C21.291 29.1547 21.3417 28.8827 21.3417 28.584C21.3417 28.2533 21.2884 27.9653 21.1817 27.72C21.0804 27.4747 20.939 27.272 20.7577 27.112C20.5764 26.952 20.3604 26.832 20.1097 26.752C19.8644 26.672 19.5977 26.632 19.3097 26.632C19.0217 26.632 18.755 26.6747 18.5097 26.76C18.2644 26.8453 18.0457 26.9653 17.8537 27.12C17.667 27.2693 17.5097 27.4507 17.3817 27.664C17.2537 27.872 17.1577 28.0987 17.0937 28.344C17.051 28.4987 16.987 28.6107 16.9017 28.68C16.8164 28.7493 16.707 28.784 16.5737 28.784C16.547 28.784 16.5177 28.784 16.4857 28.784C16.459 28.7787 16.427 28.7733 16.3897 28.768L15.6457 28.64C15.7204 28.1173 15.8644 27.656 16.0777 27.256C16.291 26.8507 16.5604 26.512 16.8857 26.24C17.2164 25.968 17.5924 25.7627 18.0137 25.624C18.4404 25.48 18.899 25.408 19.3897 25.408ZM28.3429 37.128C27.7723 37.128 27.2496 37.0533 26.7749 36.904C26.3003 36.7493 25.8923 36.5307 25.5509 36.248C25.2096 35.9653 24.9456 35.624 24.7589 35.224C24.5723 34.8187 24.4789 34.3653 24.4789 33.864C24.4789 33.128 24.6709 32.5227 25.0549 32.048C25.4389 31.568 25.9883 31.2267 26.7029 31.024C26.1003 30.8 25.6443 30.4667 25.3349 30.024C25.0309 29.576 24.8789 29.0427 24.8789 28.424C24.8789 28.0027 24.9616 27.608 25.1269 27.24C25.2923 26.872 25.5269 26.552 25.8309 26.28C26.1349 26.008 26.4976 25.7947 26.9189 25.64C27.3456 25.4853 27.8203 25.408 28.3429 25.408C28.8603 25.408 29.3323 25.4853 29.7589 25.64C30.1856 25.7947 30.5509 26.008 30.8549 26.28C31.1589 26.552 31.3936 26.872 31.5589 27.24C31.7243 27.608 31.8069 28.0027 31.8069 28.424C31.8069 29.0427 31.6523 29.576 31.3429 30.024C31.0336 30.4667 30.5803 30.8 29.9829 31.024C30.6976 31.2267 31.2469 31.568 31.6309 32.048C32.0149 32.5227 32.2069 33.128 32.2069 33.864C32.2069 34.3653 32.1109 34.8187 31.9189 35.224C31.7323 35.624 31.4683 35.9653 31.1269 36.248C30.7909 36.5307 30.3856 36.7493 29.9109 36.904C29.4363 37.0533 28.9136 37.128 28.3429 37.128ZM28.3429 35.992C28.7163 35.992 29.0496 35.9413 29.3429 35.84C29.6416 35.7333 29.8923 35.5867 30.0949 35.4C30.3029 35.208 30.4603 34.9813 30.5669 34.72C30.6789 34.4533 30.7349 34.16 30.7349 33.84C30.7349 33.4453 30.6683 33.1093 30.5349 32.832C30.4069 32.5493 30.2309 32.32 30.0069 32.144C29.7883 31.968 29.5349 31.84 29.2469 31.76C28.9589 31.6747 28.6576 31.632 28.3429 31.632C28.0283 31.632 27.7269 31.6747 27.4389 31.76C27.1509 31.84 26.8949 31.968 26.6709 32.144C26.4523 32.32 26.2763 32.5493 26.1429 32.832C26.0149 33.1093 25.9509 33.4453 25.9509 33.84C25.9509 34.16 26.0043 34.4533 26.1109 34.72C26.2229 34.9813 26.3803 35.208 26.5829 35.4C26.7909 35.5867 27.0416 35.7333 27.3349 35.84C27.6336 35.9413 27.9696 35.992 28.3429 35.992ZM28.3429 30.488C28.7163 30.488 29.0336 30.432 29.2949 30.32C29.5616 30.2027 29.7776 30.0507 29.9429 29.864C30.1083 29.672 30.2283 29.4533 30.3029 29.208C30.3776 28.9627 30.4149 28.7093 30.4149 28.448C30.4149 28.1813 30.3696 27.9307 30.2789 27.696C30.1936 27.4613 30.0629 27.256 29.8869 27.08C29.7163 26.904 29.5003 26.7653 29.2389 26.664C28.9829 26.5627 28.6843 26.512 28.3429 26.512C28.0016 26.512 27.7003 26.5627 27.4389 26.664C27.1829 26.7653 26.9669 26.904 26.7909 27.08C26.6203 27.256 26.4896 27.4613 26.3989 27.696C26.3136 27.9307 26.2709 28.1813 26.2709 28.448C26.2709 28.7093 26.3083 28.9627 26.3829 29.208C26.4576 29.4533 26.5776 29.672 26.7429 29.864C26.9083 30.0507 27.1216 30.2027 27.3829 30.32C27.6496 30.432 27.9696 30.488 28.3429 30.488ZM38.6482 28.304C38.6482 28.752 38.5789 29.1547 38.4402 29.512C38.3015 29.864 38.1149 30.1627 37.8802 30.408C37.6509 30.648 37.3815 30.832 37.0722 30.96C36.7629 31.088 36.4402 31.152 36.1042 31.152C35.7415 31.152 35.4055 31.088 35.0962 30.96C34.7922 30.832 34.5255 30.648 34.2962 30.408C34.0669 30.1627 33.8882 29.864 33.7602 29.512C33.6322 29.1547 33.5682 28.752 33.5682 28.304C33.5682 27.8453 33.6322 27.4373 33.7602 27.08C33.8882 26.7227 34.0669 26.4213 34.2962 26.176C34.5255 25.9307 34.7922 25.744 35.0962 25.616C35.4055 25.488 35.7415 25.424 36.1042 25.424C36.4615 25.424 36.7949 25.488 37.1042 25.616C37.4189 25.744 37.6882 25.9307 37.9122 26.176C38.1415 26.4213 38.3202 26.7227 38.4482 27.08C38.5815 27.4373 38.6482 27.8453 38.6482 28.304ZM37.5362 28.304C37.5362 27.952 37.4989 27.6533 37.4242 27.408C37.3495 27.1627 37.2455 26.9627 37.1122 26.808C36.9842 26.648 36.8322 26.5333 36.6562 26.464C36.4855 26.3947 36.3015 26.36 36.1042 26.36C35.9069 26.36 35.7202 26.3947 35.5442 26.464C35.3735 26.5333 35.2242 26.648 35.0962 26.808C34.9682 26.9627 34.8669 27.1627 34.7922 27.408C34.7229 27.6533 34.6882 27.952 34.6882 28.304C34.6882 28.6507 34.7229 28.9467 34.7922 29.192C34.8669 29.432 34.9682 29.6293 35.0962 29.784C35.2242 29.9333 35.3735 30.0427 35.5442 30.112C35.7202 30.176 35.9069 30.208 36.1042 30.208C36.3015 30.208 36.4855 30.176 36.6562 30.112C36.8322 30.0427 36.9842 29.9333 37.1122 29.784C37.2455 29.6293 37.3495 29.432 37.4242 29.192C37.4989 28.9467 37.5362 28.6507 37.5362 28.304ZM42.6562 25.824C42.7255 25.7333 42.7975 25.664 42.8722 25.616C42.9522 25.5627 43.0562 25.536 43.1842 25.536H44.2082L35.8322 36.768C35.7789 36.8373 35.7149 36.8933 35.6402 36.936C35.5655 36.9787 35.4775 37 35.3762 37H34.3202L42.6562 25.824ZM44.9842 34.296C44.9842 34.744 44.9149 35.144 44.7762 35.496C44.6375 35.848 44.4509 36.1467 44.2162 36.392C43.9869 36.632 43.7175 36.816 43.4082 36.944C43.1042 37.072 42.7842 37.136 42.4482 37.136C42.0855 37.136 41.7495 37.072 41.4402 36.944C41.1362 36.816 40.8695 36.632 40.6402 36.392C40.4109 36.1467 40.2322 35.848 40.1042 35.496C39.9762 35.144 39.9122 34.744 39.9122 34.296C39.9122 33.8373 39.9762 33.4293 40.1042 33.072C40.2322 32.7093 40.4109 32.4053 40.6402 32.16C40.8695 31.9147 41.1362 31.728 41.4402 31.6C41.7495 31.472 42.0855 31.408 42.4482 31.408C42.8055 31.408 43.1389 31.472 43.4482 31.6C43.7575 31.728 44.0269 31.9147 44.2562 32.16C44.4855 32.4053 44.6642 32.7093 44.7922 33.072C44.9202 33.4293 44.9842 33.8373 44.9842 34.296ZM43.8802 34.296C43.8802 33.944 43.8429 33.6453 43.7682 33.4C43.6935 33.1493 43.5895 32.9467 43.4562 32.792C43.3282 32.6373 43.1762 32.5253 43.0002 32.456C42.8295 32.3867 42.6455 32.352 42.4482 32.352C42.2509 32.352 42.0642 32.3867 41.8882 32.456C41.7175 32.5253 41.5682 32.6373 41.4402 32.792C41.3122 32.9467 41.2109 33.1493 41.1362 33.4C41.0669 33.6453 41.0322 33.944 41.0322 34.296C41.0322 34.6427 41.0669 34.936 41.1362 35.176C41.2109 35.416 41.3122 35.6133 41.4402 35.768C41.5682 35.9173 41.7175 36.0267 41.8882 36.096C42.0642 36.16 42.2509 36.192 42.4482 36.192C42.6455 36.192 42.8295 36.16 43.0002 36.096C43.1762 36.0267 43.3282 35.9173 43.4562 35.768C43.5895 35.6133 43.6935 35.416 43.7682 35.176C43.8429 34.936 43.8802 34.6427 43.8802 34.296Z" fill="#66788B"/>
</svg>
