<svg width="57" height="57" viewBox="0 0 57 57" fill="none" xmlns="http://www.w3.org/2000/svg">
<mask id="mask0_852_18310" style="mask-type:alpha" maskUnits="userSpaceOnUse" x="2" y="2" width="53" height="53">
<path fill-rule="evenodd" clip-rule="evenodd" d="M28.4987 2.83301C14.2654 2.83301 2.83203 14.2663 2.83203 28.4997C2.83203 42.733 14.2654 54.1663 28.4987 54.1663C42.732 54.1663 54.1654 42.733 54.1654 28.4997C54.1654 14.2663 42.732 2.83301 28.4987 2.83301ZM28.4987 49.4997C16.832 49.4997 7.4987 40.1663 7.4987 28.4997C7.4987 16.833 16.832 7.49967 28.4987 7.49967C40.1654 7.49967 49.4987 16.833 49.4987 28.4997C49.4987 40.1663 40.1654 49.4997 28.4987 49.4997ZM37.132 37.133C38.0654 36.1997 38.0654 34.7997 37.132 33.8663L30.832 27.5663V14.4997C30.832 13.0997 29.8987 12.1663 28.4987 12.1663C27.0987 12.1663 26.1654 13.0997 26.1654 14.4997V28.4997C26.1654 29.1997 26.3987 29.6663 26.8654 30.133L33.8654 37.133C34.332 37.5997 34.7987 37.833 35.4987 37.833C36.1987 37.833 36.6654 37.5997 37.132 37.133Z" fill="white"/>
</mask>
<g mask="url(#mask0_852_18310)">
<rect x="0.5" y="0.5" width="56" height="56" fill="#F8C33D"/>
</g>
</svg>
