<svg width="85" height="94" viewBox="0 0 85 94" fill="none" xmlns="http://www.w3.org/2000/svg">
<path fill-rule="evenodd" clip-rule="evenodd" d="M53.2025 68.6164C53.2025 76.6537 46.6869 83.1693 38.6496 83.1693C30.6122 83.1693 24.0966 76.6537 24.0966 68.6164C24.0966 60.579 30.6122 54.0634 38.6496 54.0634C39.0952 54.0634 39.536 54.0835 39.9714 54.1227L61.2914 54.1227C62.6851 54.1227 63.815 55.2525 63.815 56.6463C63.815 58.04 62.6851 59.1698 61.2914 59.1698H57.6078C58.2565 59.6265 58.6804 60.3812 58.6804 61.2348C58.6804 62.6285 57.5505 63.7584 56.1568 63.7584H52.3719C52.9098 65.2777 53.2025 66.9128 53.2025 68.6164Z" fill="#093272"/>
<path fill-rule="evenodd" clip-rule="evenodd" d="M39.0981 58.005C40.252 58.005 41.1874 58.9404 41.1874 60.0943L41.1874 60.3298C42.653 60.7861 43.7266 61.6327 44.2434 62.2103C45.0128 63.0702 44.9394 64.391 44.0795 65.1604C43.2196 65.9298 41.8988 65.8564 41.1294 64.9965C41.1298 64.997 41.1255 64.9922 41.1156 64.9823C41.1059 64.9726 41.0922 64.9595 41.0743 64.9433C41.0382 64.9105 40.9892 64.8693 40.9276 64.8226C40.8036 64.7287 40.6421 64.6235 40.4506 64.5261C40.0648 64.3302 39.603 64.1888 39.0981 64.1888C37.8295 64.1888 37.5991 64.9292 37.5991 65.1073C37.5991 65.1089 37.5991 65.1106 37.599 65.1126C37.5982 65.1527 37.5955 65.2743 37.8835 65.5412C38.2352 65.8674 38.8695 66.2552 39.9057 66.6895C40.5544 66.9614 41.2274 67.2876 41.8423 67.7024C44.5834 69.5519 45.2106 73.1209 42.9527 75.3153C42.335 75.9155 41.5725 76.3433 40.7389 76.5993L40.7389 77.1385C40.7389 78.2924 39.8035 79.2278 38.6496 79.2278C37.4957 79.2278 36.5603 78.2924 36.5603 77.1385L36.5603 76.5486C35.441 76.2093 34.3209 75.6097 33.2706 74.7293C32.3863 73.988 32.2704 72.6703 33.0116 71.786C33.7529 70.9017 35.0706 70.7857 35.9549 71.527C36.9888 72.3936 37.971 72.6871 38.7049 72.7065C39.4315 72.7257 39.8686 72.4857 40.0404 72.3187C40.1084 72.2527 40.1611 72.1462 40.1369 71.9801C40.1145 71.8257 39.999 71.4995 39.5052 71.1663C39.2053 70.964 38.8074 70.7599 38.2905 70.5433C37.0841 70.0376 35.9242 69.4229 35.0425 68.6054C34.1111 67.7419 33.4206 66.5774 33.4206 65.1073C33.4206 62.9319 34.8749 61.089 37.0088 60.3529L37.0088 60.0943C37.0088 58.9404 37.9442 58.005 39.0981 58.005Z" fill="white"/>
<path fill-rule="evenodd" clip-rule="evenodd" d="M23.8293 33.8976C23.8293 32.5039 24.9592 31.3741 26.3529 31.3741L41.4007 31.3741C42.7944 31.3741 43.9242 32.5039 43.9242 33.8976C43.9242 35.2914 42.7944 36.4212 41.4007 36.4212L26.3529 36.4212C24.9592 36.4212 23.8293 35.2914 23.8293 33.8976Z" fill="#33D199"/>
<path fill-rule="evenodd" clip-rule="evenodd" d="M38.7813 16.8094C38.1187 16.3546 37.684 15.5917 37.684 14.7272C37.684 13.3335 38.8139 12.2036 40.2076 12.2036L80.571 12.2036C81.9647 12.2036 83.0946 13.3335 83.0946 14.7272C83.0946 15.7527 82.4829 16.6353 81.6046 17.0301C82.483 17.4249 83.0946 18.3075 83.0946 19.333C83.0946 20.7267 81.9647 21.8566 80.571 21.8566H36.3133C34.9196 21.8566 33.7897 20.7267 33.7897 19.333C33.7897 17.9392 34.9196 16.8094 36.3133 16.8094H38.7813Z" fill="#093272"/>
<path fill-rule="evenodd" clip-rule="evenodd" d="M49.5641 33.8976C49.5641 32.5039 50.6939 31.3741 52.0877 31.3741L55.622 31.3741C57.0157 31.3741 58.1456 32.5039 58.1456 33.8976C58.1456 35.2914 57.0157 36.4212 55.622 36.4212L52.0877 36.4212C50.6939 36.4212 49.5641 35.2914 49.5641 33.8976Z" fill="#33D199"/>
<path fill-rule="evenodd" clip-rule="evenodd" d="M48.2296 5.93786H77.3915L77.3916 5.9379C77.3935 5.93838 77.4048 5.94144 77.4257 5.95255C77.4687 5.97544 77.5565 6.03532 77.6613 6.16692C77.8773 6.4384 78.0893 6.92682 78.0893 7.5764V39.5973C78.0893 42.5271 76.3008 43.697 75.434 43.697H7.12543C3.19016 43.697 0 46.8871 0 50.8224V86.0989C0 90.0342 3.19016 93.2243 7.12543 93.2243L36.0371 93.2243C37.6768 93.2243 39.006 91.8951 39.006 90.2554C39.006 88.6157 37.6768 87.2865 36.0371 87.2865H16.5809C15.4193 82.0231 11.2335 77.8969 5.93786 76.8223V60.0989C11.2335 59.0244 15.4193 54.8982 16.5809 49.6348H75.434C80.7743 49.6348 84.0272 44.4687 84.0272 39.5973V7.5764C84.0272 4.06087 81.6537 0 77.3922 0H48.2296C46.5899 0 45.2607 1.32923 45.2607 2.96893C45.2607 4.60862 46.5899 5.93786 48.2296 5.93786ZM11.3341 49.6348H7.12543C6.46955 49.6348 5.93786 50.1665 5.93786 50.8224V54.8832C8.43978 54.0493 10.4331 52.1053 11.3341 49.6348ZM5.93786 82.038V86.0989C5.93786 86.7548 6.46956 87.2865 7.12543 87.2865H11.3341C10.4332 84.816 8.43981 82.8719 5.93786 82.038Z" fill="#33D199"/>
</svg>
