<svg width="240" height="94" viewBox="0 0 240 94" fill="none" xmlns="http://www.w3.org/2000/svg">
<path d="M18.4097 21.5558L15.7573 13.7164C15.5608 13.2187 15.3512 12.6358 15.1285 11.9678C14.9059 11.2867 14.6832 10.5532 14.4605 9.7673C14.2641 10.5663 14.0545 11.3064 13.8318 11.9875C13.6091 12.6686 13.3996 13.258 13.2031 13.7557L10.5703 21.5558H18.4097ZM28.9604 32.4994H23.8127C23.2364 32.4994 22.7714 32.3684 22.4178 32.1065C22.0641 31.8314 21.7956 31.4843 21.6122 31.0652L19.9225 26.0747H9.03783L7.34815 31.0652C7.20407 31.4319 6.9421 31.7659 6.56225 32.0672C6.1955 32.3553 5.73706 32.4994 5.18693 32.4994H0L11.0812 3.87307H17.8792L28.9604 32.4994Z" fill="#093272"/>
<path d="M36.1292 14.3255C36.5222 13.9588 36.9282 13.6182 37.3474 13.3038C37.7665 12.9895 38.2119 12.7275 38.6834 12.5179C39.168 12.2953 39.6854 12.125 40.2355 12.0071C40.7988 11.8761 41.4078 11.8106 42.0628 11.8106C43.1761 11.8106 44.1585 12.0071 45.0099 12.4001C45.8744 12.7799 46.6013 13.3169 47.1908 14.0112C47.7802 14.6923 48.2255 15.5109 48.5268 16.4671C48.828 17.4102 48.9787 18.4384 48.9787 19.5517V32.4994H42.888V19.5517C42.888 18.5563 42.6587 17.7835 42.2003 17.2333C41.7419 16.6701 41.0673 16.3885 40.1766 16.3885C39.5086 16.3885 38.8799 16.5326 38.2905 16.8207C37.7141 17.0958 37.1509 17.4757 36.6008 17.9603V32.4994H30.5101V12.125H34.2824C35.0421 12.125 35.5398 12.4656 35.7756 13.1467L36.1292 14.3255Z" fill="#093272"/>
<path d="M59.941 32.8138C58.9718 32.8138 58.1138 32.6762 57.3672 32.4012C56.6337 32.113 56.0115 31.7135 55.5007 31.2027C55.003 30.6788 54.6231 30.05 54.3612 29.3165C54.0992 28.583 53.9682 27.7644 53.9682 26.8606V16.3296H52.2392C51.9249 16.3296 51.6564 16.2313 51.4337 16.0348C51.211 15.8253 51.0997 15.524 51.0997 15.1311V12.7537L54.3415 12.125L55.54 7.15419C55.6972 6.52547 56.1425 6.21111 56.876 6.21111H60.0589V12.1643H65.1083V16.3296H60.0589V26.448C60.0589 26.9195 60.1703 27.3125 60.3929 27.6268C60.6287 27.9281 60.9627 28.0787 61.3949 28.0787C61.6176 28.0787 61.801 28.0591 61.9451 28.0198C62.1023 27.9674 62.2332 27.915 62.338 27.8626C62.4559 27.7971 62.5607 27.7447 62.6524 27.7054C62.7572 27.653 62.8751 27.6268 63.006 27.6268C63.1894 27.6268 63.3335 27.6727 63.4383 27.7644C63.5562 27.843 63.674 27.974 63.7919 28.1573L65.6388 31.0455C64.8529 31.6349 63.9688 32.0803 62.9864 32.3815C62.004 32.6697 60.9889 32.8138 59.941 32.8138Z" fill="#093272"/>
<path d="M80.2135 19.8661C80.2135 19.3815 80.148 18.9099 80.0171 18.4515C79.8992 17.993 79.6962 17.587 79.408 17.2333C79.1329 16.8666 78.7662 16.5719 78.3077 16.3492C77.8493 16.1265 77.2926 16.0152 76.6377 16.0152C75.485 16.0152 74.5813 16.3492 73.9263 17.0172C73.2714 17.6721 72.8392 18.6218 72.6296 19.8661H80.2135ZM72.551 23.4026C72.7475 25.1054 73.2649 26.3432 74.1032 27.116C74.9415 27.8757 76.0221 28.2556 77.345 28.2556C78.0523 28.2556 78.6614 28.1704 79.1722 28.0002C79.6831 27.8299 80.1349 27.6399 80.5279 27.4304C80.9339 27.2208 81.3007 27.0309 81.6282 26.8606C81.9687 26.6903 82.3224 26.6052 82.6891 26.6052C83.1738 26.6052 83.5405 26.782 83.7894 27.1357L85.5576 29.3165C84.9289 30.0369 84.2478 30.6264 83.5143 31.0848C82.7939 31.5301 82.0473 31.8838 81.2745 32.1458C80.5148 32.3946 79.7485 32.5649 78.9757 32.6566C78.216 32.7614 77.4891 32.8138 76.7949 32.8138C75.3672 32.8138 74.0246 32.5846 72.7671 32.1261C71.5228 31.6546 70.4291 30.9604 69.486 30.0435C68.556 29.1266 67.816 27.987 67.2659 26.6248C66.7288 25.2626 66.4603 23.6777 66.4603 21.8701C66.4603 20.5079 66.6895 19.2177 67.148 17.9996C67.6195 16.7814 68.2875 15.7139 69.152 14.7971C70.0296 13.8802 71.084 13.1532 72.3153 12.6162C73.5596 12.0792 74.9611 11.8106 76.5198 11.8106C77.8689 11.8106 79.1002 12.0202 80.2135 12.4394C81.34 12.8585 82.3027 13.4676 83.1017 14.2666C83.9138 15.0656 84.5425 16.0479 84.9879 17.2137C85.4463 18.3663 85.6755 19.6762 85.6755 21.1432C85.6755 21.6016 85.6559 21.9749 85.6166 22.2631C85.5773 22.5513 85.5052 22.7805 85.4005 22.9508C85.2957 23.121 85.1516 23.2389 84.9682 23.3044C84.7979 23.3699 84.5753 23.4026 84.3002 23.4026H72.551Z" fill="#093272"/>
<path d="M103.695 16.9583C103.511 17.1809 103.335 17.3578 103.164 17.4888C102.994 17.6197 102.752 17.6852 102.437 17.6852C102.136 17.6852 101.861 17.6132 101.612 17.4691C101.376 17.325 101.108 17.1678 100.807 16.9976C100.505 16.8142 100.152 16.6505 99.7456 16.5064C99.3395 16.3623 98.8352 16.2903 98.2327 16.2903C97.4861 16.2903 96.8377 16.4278 96.2876 16.7029C95.7506 16.9779 95.3052 17.3709 94.9516 17.8817C94.5979 18.3925 94.336 19.0213 94.1657 19.7679C93.9954 20.5014 93.9103 21.3331 93.9103 22.2631C93.9103 24.2147 94.2836 25.7145 95.0302 26.7624C95.7899 27.8102 96.8312 28.3342 98.1541 28.3342C98.8614 28.3342 99.4181 28.249 99.8242 28.0787C100.243 27.8954 100.597 27.6989 100.885 27.4893C101.173 27.2666 101.435 27.0636 101.671 26.8802C101.92 26.6969 102.228 26.6052 102.594 26.6052C103.079 26.6052 103.446 26.782 103.695 27.1357L105.463 29.3165C104.834 30.0369 104.173 30.6264 103.479 31.0848C102.784 31.5301 102.071 31.8838 101.337 32.1458C100.617 32.3946 99.8896 32.5649 99.1561 32.6566C98.4226 32.7614 97.7088 32.8138 97.0146 32.8138C95.7702 32.8138 94.5783 32.578 93.4387 32.1065C92.3123 31.6349 91.3168 30.9538 90.4523 30.0631C89.6009 29.1593 88.9198 28.0525 88.409 26.7427C87.9112 25.4329 87.6624 23.9397 87.6624 22.2631C87.6624 20.7961 87.8785 19.4273 88.3107 18.1568C88.7561 16.8731 89.4044 15.7663 90.2558 14.8363C91.1203 13.8933 92.1813 13.1532 93.4387 12.6162C94.7093 12.0792 96.1763 11.8106 97.8398 11.8106C99.4378 11.8106 100.839 12.0661 102.044 12.5769C103.249 13.0877 104.337 13.8343 105.306 14.8167L103.695 16.9583Z" fill="#093272"/>
<path d="M113.428 12.125V32.4994H107.337V12.125H113.428ZM114.057 6.54512C114.057 7.02976 113.958 7.4882 113.762 7.92044C113.566 8.33959 113.297 8.71289 112.956 9.04035C112.616 9.35471 112.216 9.61013 111.758 9.8066C111.313 9.98998 110.835 10.0817 110.324 10.0817C109.826 10.0817 109.361 9.98998 108.929 9.8066C108.497 9.61013 108.11 9.35471 107.77 9.04035C107.442 8.71289 107.18 8.33959 106.984 7.92044C106.8 7.4882 106.709 7.02976 106.709 6.54512C106.709 6.04738 106.8 5.5824 106.984 5.15015C107.18 4.71791 107.442 4.33806 107.77 4.0106C108.11 3.68314 108.497 3.42772 108.929 3.24435C109.361 3.06097 109.826 2.96928 110.324 2.96928C110.835 2.96928 111.313 3.06097 111.758 3.24435C112.216 3.42772 112.616 3.68314 112.956 4.0106C113.297 4.33806 113.566 4.71791 113.762 5.15015C113.958 5.5824 114.057 6.04738 114.057 6.54512Z" fill="#093272"/>
<path d="M122.499 26.9588C122.957 27.4566 123.455 27.8102 123.992 28.0198C124.529 28.2294 125.092 28.3342 125.682 28.3342C126.245 28.3342 126.762 28.2228 127.234 28.0002C127.706 27.7775 128.112 27.4238 128.452 26.9392C128.806 26.4415 129.081 25.7996 129.277 25.0137C129.474 24.2278 129.572 23.2717 129.572 22.1452C129.572 21.0711 129.493 20.1674 129.336 19.4339C129.179 18.7004 128.956 18.1109 128.668 17.6656C128.393 17.2071 128.059 16.8797 127.666 16.6832C127.273 16.4867 126.835 16.3885 126.35 16.3885C125.459 16.3885 124.726 16.5522 124.149 16.8797C123.573 17.2071 123.023 17.6852 122.499 18.3139V26.9588ZM122.126 14.6399C122.925 13.7885 123.828 13.0943 124.837 12.5572C125.859 12.0071 127.07 11.7321 128.472 11.7321C129.533 11.7321 130.515 11.9678 131.419 12.4394C132.323 12.9109 133.102 13.592 133.757 14.4827C134.412 15.3734 134.923 16.4671 135.29 17.7638C135.669 19.0475 135.859 20.5079 135.859 22.1452C135.859 23.6777 135.643 25.0923 135.211 26.3891C134.792 27.6858 134.196 28.8122 133.423 29.7684C132.663 30.7246 131.746 31.4712 130.672 32.0082C129.611 32.5453 128.433 32.8138 127.136 32.8138C126.075 32.8138 125.184 32.6631 124.464 32.3619C123.743 32.0606 123.088 31.6546 122.499 31.1437L123.133 38.9634H117.042L116.408 12.125H120.181C120.94 12.125 121.438 12.4656 121.674 13.1467L122.126 14.6399Z" fill="#093272"/>
<path d="M149.522 24.2082C148.304 24.2606 147.302 24.3654 146.516 24.5225C145.73 24.6797 145.108 24.8762 144.649 25.112C144.191 25.3477 143.87 25.6163 143.687 25.9175C143.516 26.2188 143.431 26.5462 143.431 26.8999C143.431 27.5941 143.621 28.0853 144.001 28.3735C144.381 28.6485 144.938 28.786 145.671 28.786C146.457 28.786 147.145 28.6485 147.734 28.3735C148.323 28.0984 148.919 27.653 149.522 27.0374V24.2082ZM138.559 14.9542C139.79 13.8671 141.152 13.0615 142.645 12.5376C144.152 12.0006 145.763 11.7321 147.479 11.7321C148.71 11.7321 149.817 11.9351 150.799 12.3411C151.794 12.7341 152.633 13.2907 153.314 14.0112C154.008 14.7185 154.539 15.5633 154.905 16.5457C155.272 17.5281 155.455 18.6021 155.455 19.7679V32.4994H152.666C152.089 32.4994 151.65 32.4208 151.349 32.2636C151.061 32.1065 150.819 31.779 150.622 31.2813L150.19 30.1614C149.679 30.5936 149.188 30.9735 148.716 31.3009C148.245 31.6284 147.754 31.91 147.243 32.1458C146.745 32.3684 146.208 32.5322 145.632 32.6369C145.069 32.7548 144.44 32.8138 143.746 32.8138C142.816 32.8138 141.971 32.6959 141.211 32.4601C140.451 32.2113 139.803 31.8511 139.266 31.3795C138.742 30.908 138.336 30.3251 138.048 29.6309C137.76 28.9236 137.616 28.1115 137.616 27.1946C137.616 26.4611 137.799 25.721 138.166 24.9744C138.532 24.2147 139.168 23.5271 140.072 22.9115C140.975 22.2827 142.193 21.7588 143.726 21.3397C145.258 20.9205 147.19 20.6847 149.522 20.6323V19.7679C149.522 18.5759 149.273 17.718 148.775 17.194C148.291 16.657 147.596 16.3885 146.693 16.3885C145.972 16.3885 145.383 16.4671 144.924 16.6243C144.466 16.7814 144.053 16.9583 143.687 17.1547C143.333 17.3512 142.986 17.5281 142.645 17.6852C142.305 17.8424 141.899 17.921 141.427 17.921C141.008 17.921 140.654 17.8162 140.366 17.6066C140.078 17.3971 139.842 17.1482 139.659 16.86L138.559 14.9542Z" fill="#093272"/>
<path fill-rule="evenodd" clip-rule="evenodd" d="M25.9218 69.1015C25.7338 69.0232 25.5458 68.984 25.3578 68.984C25.1229 68.984 24.8958 69.0388 24.6765 69.1485C24.4572 69.2425 24.2535 69.3678 24.0655 69.5244C23.5956 69.9474 23.1335 70.2998 22.6793 70.5818C22.225 70.8481 21.7394 71.0674 21.2225 71.2397C20.7056 71.3963 20.1495 71.5138 19.5542 71.5921C18.959 71.6548 18.3011 71.6861 17.5806 71.6861C16.3274 71.6861 15.1526 71.4433 14.0561 70.9577C12.9596 70.4721 11.9963 69.7672 11.1661 68.843C10.3515 67.9032 9.70144 66.7519 9.21585 65.3891C8.74593 64.0263 8.51096 62.4677 8.51096 60.7133C8.51096 58.9746 8.72243 57.4316 9.14537 56.0845C9.58396 54.7217 10.1949 53.5782 10.9781 52.654C11.777 51.7142 12.7168 51.0015 13.7976 50.5159C14.8941 50.0303 16.1003 49.7875 17.4161 49.7875C18.2463 49.7875 18.9668 49.8501 19.5777 49.9755C20.2043 50.1008 20.7447 50.2574 21.199 50.4454C21.6689 50.6177 22.0684 50.8135 22.3973 51.0328C22.7419 51.2364 23.0552 51.4322 23.3372 51.6202C23.6191 51.7925 23.8854 51.9413 24.136 52.0666C24.3867 52.192 24.653 52.2546 24.9349 52.2546C25.3578 52.2546 25.6868 52.1685 25.9218 51.9962C26.1567 51.8082 26.3604 51.6045 26.5327 51.3852L29.2113 47.7903C28.569 47.1324 27.8328 46.5215 27.0026 45.9576C26.1724 45.3937 25.2639 44.9159 24.277 44.5243C23.2902 44.117 22.225 43.8038 21.0815 43.5845C19.9537 43.3495 18.7475 43.232 17.4631 43.232C14.9411 43.232 12.6307 43.6628 10.5316 44.5243C8.43264 45.3858 6.63126 46.592 5.12749 48.1427C3.62372 49.6935 2.45674 51.5419 1.62653 53.6879C0.796328 55.8182 0.381226 58.16 0.381226 60.7133C0.381226 63.2196 0.764999 65.5457 1.53255 67.6917C2.30009 69.822 3.39659 71.6704 4.82204 73.2369C6.26315 74.7876 8.00971 76.0094 10.0617 76.9023C12.1294 77.7795 14.4634 78.2181 17.0636 78.2181C19.8989 78.2181 22.3503 77.7638 24.418 76.8553C26.5013 75.9311 28.2322 74.5683 29.6107 72.7669L26.4622 69.4539C26.2899 69.2816 26.1097 69.1641 25.9218 69.1015ZM41.9652 68.3026C42.905 68.1146 44.1034 67.9893 45.5601 67.9267V71.3102C44.8396 72.0464 44.1268 72.579 43.422 72.9079C42.7171 73.2368 41.8947 73.4013 40.9548 73.4013C40.0776 73.4013 39.4119 73.2368 38.9576 72.9079C38.5034 72.5633 38.2763 71.9759 38.2763 71.1457C38.2763 70.7227 38.3781 70.3311 38.5817 69.9709C38.801 69.6106 39.1848 69.2895 39.733 69.0075C40.2813 68.7255 41.0253 68.4906 41.9652 68.3026ZM37.3364 53.9698C35.5507 54.5964 33.9216 55.5598 32.4492 56.8599L33.765 59.139C33.9843 59.4837 34.2662 59.7813 34.6108 60.0319C34.9554 60.2825 35.3784 60.4078 35.8796 60.4078C36.4435 60.4078 36.9291 60.3139 37.3364 60.1259C37.7437 59.9379 38.1588 59.7264 38.5817 59.4915C39.0203 59.2565 39.5137 59.0451 40.062 58.8571C40.6102 58.6691 41.3151 58.5751 42.1766 58.5751C43.2575 58.5751 44.0877 58.8962 44.6673 59.5385C45.2625 60.165 45.5601 61.1911 45.5601 62.6165V63.6503C42.7719 63.713 40.4614 63.995 38.6287 64.4962C36.796 64.9975 35.3392 65.624 34.2584 66.3759C33.1775 67.1121 32.4178 67.9345 31.9792 68.843C31.5406 69.7359 31.3213 70.6209 31.3213 71.4981C31.3213 72.5946 31.4936 73.5658 31.8383 74.4117C32.1829 75.2419 32.6685 75.9389 33.295 76.5028C33.9373 77.0668 34.7126 77.4975 35.6212 77.7951C36.5297 78.0771 37.54 78.2181 38.6522 78.2181C39.4824 78.2181 40.2343 78.1476 40.9078 78.0066C41.5971 77.8813 42.2393 77.6855 42.8345 77.4192C43.4455 77.1372 44.0329 76.8005 44.5968 76.4089C45.1607 76.0173 45.7481 75.563 46.359 75.0461L46.8759 76.3854C47.1109 76.9806 47.4007 77.3722 47.7453 77.5602C48.1056 77.7481 48.6303 77.8421 49.3195 77.8421H52.656V62.6165C52.656 61.2224 52.4367 59.9379 51.9981 58.7631C51.5595 57.5883 50.9251 56.5779 50.0949 55.7321C49.2804 54.8705 48.2779 54.2048 47.0874 53.7349C45.9126 53.2493 44.5889 53.0065 43.1165 53.0065C41.0645 53.0065 39.1378 53.3276 37.3364 53.9698ZM62.61 57.2358C63.3619 55.92 64.2234 54.8862 65.1946 54.1343C66.1815 53.3824 67.3093 53.0065 68.5781 53.0065C69.6746 53.0065 70.5675 53.265 71.2567 53.7819L70.7868 59.139C70.7084 59.4837 70.5753 59.7186 70.3873 59.8439C70.215 59.9692 69.9722 60.0319 69.6589 60.0319C69.5336 60.0319 69.3691 60.0241 69.1655 60.0084C68.9619 59.9927 68.7504 59.9771 68.5311 59.9614C68.3118 59.9301 68.0847 59.9066 67.8497 59.8909C67.6304 59.8596 67.4268 59.8439 67.2388 59.8439C66.1736 59.8439 65.3199 60.1259 64.6777 60.6898C64.0511 61.2537 63.5185 62.0369 63.0799 63.0394V77.8421H55.7961V53.4764H60.1194C60.4797 53.4764 60.7773 53.5077 61.0123 53.5704C61.2629 53.6331 61.4665 53.7349 61.6232 53.8759C61.7955 54.0012 61.9208 54.1735 61.9991 54.3928C62.0931 54.6121 62.1714 54.8784 62.2341 55.1917L62.61 57.2358ZM80.8946 77.7247C81.7875 78.0536 82.8135 78.2181 83.9726 78.2181C85.2258 78.2181 86.4397 78.0458 87.6146 77.7012C88.7894 77.3409 89.8467 76.8083 90.7866 76.1034L88.5779 72.6494C88.4369 72.4301 88.296 72.2735 88.155 72.1795C88.0297 72.0699 87.8574 72.015 87.6381 72.015C87.4814 72.015 87.3404 72.0464 87.2151 72.109C87.1055 72.156 86.9802 72.2187 86.8392 72.297C86.7139 72.3597 86.5572 72.4223 86.3692 72.485C86.1969 72.532 85.9776 72.5555 85.7113 72.5555C85.1944 72.5555 84.795 72.3753 84.513 72.015C84.2467 71.6391 84.1136 71.1692 84.1136 70.6053V58.5046H90.1522V53.5234H84.1136V46.404H80.3072C79.43 46.404 78.8974 46.78 78.7094 47.5318L77.2762 53.4764L73.3993 54.2283V57.0714C73.3993 57.5413 73.5324 57.9016 73.7987 58.1522C74.065 58.3872 74.3861 58.5046 74.7621 58.5046H76.8297V71.0987C76.8297 72.1795 76.9864 73.1585 77.2997 74.0357C77.6129 74.9129 78.0672 75.6648 78.6624 76.2914C79.2733 76.9023 80.0174 77.38 80.8946 77.7247ZM105.861 67.9267C104.405 67.9893 103.206 68.1146 102.266 68.3026C101.327 68.4906 100.582 68.7255 100.034 69.0075C99.486 69.2895 99.1022 69.6106 98.8829 69.9709C98.6793 70.3311 98.5774 70.7227 98.5774 71.1457C98.5774 71.9759 98.8046 72.5633 99.2588 72.9079C99.7131 73.2368 100.379 73.4013 101.256 73.4013C102.196 73.4013 103.018 73.2368 103.723 72.9079C104.428 72.579 105.141 72.0464 105.861 71.3102V67.9267ZM92.7503 56.8599C94.2228 55.5598 95.8519 54.5964 97.6376 53.9698C99.439 53.3276 101.366 53.0065 103.418 53.0065C104.89 53.0065 106.214 53.2493 107.389 53.7349C108.579 54.2048 109.582 54.8705 110.396 55.7321C111.226 56.5779 111.861 57.5883 112.299 58.7631C112.738 59.9379 112.957 61.2224 112.957 62.6165V77.8421H109.621C108.931 77.8421 108.407 77.7481 108.046 77.5602C107.702 77.3722 107.412 76.9806 107.177 76.3854L106.66 75.0461C106.049 75.563 105.462 76.0173 104.898 76.4089C104.334 76.8005 103.747 77.1372 103.136 77.4192C102.54 77.6855 101.898 77.8813 101.209 78.0066C100.535 78.1476 99.7836 78.2181 98.9534 78.2181C97.8412 78.2181 96.8309 78.0771 95.9223 77.7951C95.0138 77.4975 94.2384 77.0668 93.5962 76.5028C92.9696 75.9389 92.484 75.2419 92.1394 74.4117C91.7948 73.5658 91.6225 72.5946 91.6225 71.4981C91.6225 70.6209 91.8418 69.7359 92.2804 68.843C92.719 67.9345 93.4787 67.1121 94.5596 66.3759C95.6404 65.624 97.0972 64.9975 98.9299 64.4962C100.763 63.995 103.073 63.713 105.861 63.6503V62.6165C105.861 61.1911 105.564 60.165 104.968 59.5385C104.389 58.8962 103.559 58.5751 102.478 58.5751C101.616 58.5751 100.911 58.6691 100.363 58.8571C99.8149 59.0451 99.3215 59.2565 98.8829 59.4915C98.46 59.7264 98.0449 59.9379 97.6376 60.1259C97.2303 60.3139 96.7447 60.4078 96.1808 60.4078C95.6796 60.4078 95.2566 60.2825 94.912 60.0319C94.5674 59.7813 94.2854 59.4837 94.0661 59.139L92.7503 56.8599ZM133.138 53.9698C131.619 53.3903 129.935 53.1005 128.086 53.1005C126.222 53.1005 124.523 53.3903 122.988 53.9698C121.468 54.5494 120.153 55.3796 119.04 56.4605C117.944 57.5413 117.09 58.8571 116.479 60.4078C115.884 61.9429 115.586 63.6738 115.586 65.6005C115.586 67.5429 115.884 69.2973 116.479 70.8637C117.09 72.4145 117.944 73.7381 119.04 74.8346C120.153 75.9154 121.468 76.7535 122.988 77.3487C124.523 77.9283 126.222 78.2181 128.086 78.2181C129.935 78.2181 131.619 77.9283 133.138 77.3487C134.658 76.7535 135.958 75.9154 137.039 74.8346C138.135 73.7381 138.981 72.4145 139.576 70.8637C140.187 69.2973 140.493 67.5429 140.493 65.6005C140.493 63.6738 140.187 61.9429 139.576 60.4078C138.981 58.8571 138.135 57.5413 137.039 56.4605C135.958 55.3796 134.658 54.5494 133.138 53.9698ZM131.775 71.0517C130.992 72.2265 129.763 72.8139 128.086 72.8139C126.363 72.8139 125.102 72.2265 124.304 71.0517C123.505 69.8612 123.105 68.0598 123.105 65.6475C123.105 63.2352 123.505 61.4417 124.304 60.2669C125.102 59.092 126.363 58.5046 128.086 58.5046C129.763 58.5046 130.992 59.092 131.775 60.2669C132.574 61.4417 132.974 63.2352 132.974 65.6475C132.974 68.0598 132.574 69.8612 131.775 71.0517ZM101.818 45.4037C99.3068 45.4037 97.2708 47.4397 97.2708 49.9513H104.014C106.526 49.9513 108.562 47.9153 108.562 45.4037H101.818Z" fill="#33D199"/>
<path fill-rule="evenodd" clip-rule="evenodd" d="M208.973 68.6164C208.973 76.6537 202.457 83.1693 194.42 83.1693C186.383 83.1693 179.867 76.6537 179.867 68.6164C179.867 60.579 186.383 54.0634 194.42 54.0634C194.866 54.0634 195.306 54.0835 195.742 54.1227L217.062 54.1227C218.456 54.1227 219.585 55.2525 219.585 56.6463C219.585 58.04 218.456 59.1698 217.062 59.1698H213.378C214.027 59.6265 214.451 60.3812 214.451 61.2348C214.451 62.6285 213.321 63.7584 211.927 63.7584H208.142C208.68 65.2777 208.973 66.9128 208.973 68.6164Z" fill="#093272"/>
<path fill-rule="evenodd" clip-rule="evenodd" d="M194.869 58.005C196.022 58.005 196.958 58.9404 196.958 60.0943L196.958 60.3298C198.423 60.7861 199.497 61.6327 200.014 62.2103C200.783 63.0702 200.71 64.391 199.85 65.1604C198.99 65.9298 197.669 65.8564 196.9 64.9965C196.9 64.997 196.896 64.9922 196.886 64.9823C196.876 64.9726 196.863 64.9595 196.845 64.9433C196.809 64.9105 196.76 64.8693 196.698 64.8226C196.574 64.7287 196.413 64.6235 196.221 64.5261C195.835 64.3302 195.373 64.1888 194.869 64.1888C193.6 64.1888 193.37 64.9292 193.37 65.1073C193.37 65.1089 193.37 65.1106 193.369 65.1126C193.369 65.1527 193.366 65.2743 193.654 65.5412C194.006 65.8674 194.64 66.2552 195.676 66.6895C196.325 66.9614 196.998 67.2876 197.613 67.7024C200.354 69.5519 200.981 73.1209 198.723 75.3153C198.105 75.9155 197.343 76.3433 196.509 76.5993L196.509 77.1385C196.509 78.2924 195.574 79.2278 194.42 79.2278C193.266 79.2278 192.331 78.2924 192.331 77.1385L192.331 76.5486C191.211 76.2093 190.091 75.6097 189.041 74.7293C188.157 73.988 188.041 72.6703 188.782 71.786C189.523 70.9017 190.841 70.7857 191.725 71.527C192.759 72.3936 193.741 72.6871 194.475 72.7065C195.202 72.7257 195.639 72.4857 195.811 72.3187C195.879 72.2527 195.931 72.1462 195.907 71.9801C195.885 71.8257 195.769 71.4995 195.276 71.1663C194.976 70.964 194.578 70.7599 194.061 70.5433C192.854 70.0376 191.695 69.4229 190.813 68.6054C189.881 67.7419 189.191 66.5774 189.191 65.1073C189.191 62.9319 190.645 61.089 192.779 60.3529L192.779 60.0943C192.779 58.9404 193.715 58.005 194.869 58.005Z" fill="white"/>
<path fill-rule="evenodd" clip-rule="evenodd" d="M179.6 33.8976C179.6 32.5039 180.73 31.3741 182.123 31.3741L197.171 31.3741C198.565 31.3741 199.695 32.5039 199.695 33.8976C199.695 35.2914 198.565 36.4212 197.171 36.4212L182.123 36.4212C180.73 36.4212 179.6 35.2914 179.6 33.8976Z" fill="#33D199"/>
<path fill-rule="evenodd" clip-rule="evenodd" d="M194.552 16.8094C193.889 16.3546 193.454 15.5917 193.454 14.7272C193.454 13.3335 194.584 12.2036 195.978 12.2036L236.341 12.2036C237.735 12.2036 238.865 13.3335 238.865 14.7272C238.865 15.7527 238.253 16.6353 237.375 17.0301C238.253 17.4249 238.865 18.3075 238.865 19.333C238.865 20.7267 237.735 21.8566 236.341 21.8566H192.084C190.69 21.8566 189.56 20.7267 189.56 19.333C189.56 17.9392 190.69 16.8094 192.084 16.8094H194.552Z" fill="#093272"/>
<path fill-rule="evenodd" clip-rule="evenodd" d="M205.334 33.8976C205.334 32.5039 206.464 31.3741 207.858 31.3741L211.392 31.3741C212.786 31.3741 213.916 32.5039 213.916 33.8976C213.916 35.2914 212.786 36.4212 211.392 36.4212L207.858 36.4212C206.464 36.4212 205.334 35.2914 205.334 33.8976Z" fill="#33D199"/>
<path fill-rule="evenodd" clip-rule="evenodd" d="M204 5.93786H233.162L233.162 5.9379C233.164 5.93838 233.175 5.94144 233.196 5.95255C233.239 5.97544 233.327 6.03532 233.432 6.16692C233.648 6.4384 233.86 6.92682 233.86 7.5764V39.5973C233.86 42.5271 232.071 43.697 231.204 43.697H162.896C158.961 43.697 155.77 46.8871 155.77 50.8224V86.0989C155.77 90.0342 158.961 93.2243 162.896 93.2243L191.807 93.2243C193.447 93.2243 194.776 91.8951 194.776 90.2554C194.776 88.6157 193.447 87.2865 191.807 87.2865H172.351C171.19 82.0231 167.004 77.8969 161.708 76.8223V60.0989C167.004 59.0244 171.19 54.8982 172.351 49.6348H231.204C236.545 49.6348 239.798 44.4687 239.798 39.5973V7.5764C239.798 4.06087 237.424 0 233.163 0H204C202.36 0 201.031 1.32923 201.031 2.96893C201.031 4.60862 202.36 5.93786 204 5.93786ZM167.104 49.6348H162.896C162.24 49.6348 161.708 50.1665 161.708 50.8224V54.8832C164.21 54.0493 166.204 52.1053 167.104 49.6348ZM161.708 82.038V86.0989C161.708 86.7548 162.24 87.2865 162.896 87.2865H167.104C166.204 84.816 164.21 82.8719 161.708 82.038Z" fill="#33D199"/>
</svg>
