<svg width="214" height="84" viewBox="0 0 214 84" fill="none" xmlns="http://www.w3.org/2000/svg">
<path d="M16.3906 19.9412L14.0291 12.9617C13.8542 12.5185 13.6676 11.9996 13.4693 11.4048C13.2711 10.7984 13.0728 10.1453 12.8746 9.44564C12.6997 10.157 12.5131 10.8159 12.3148 11.4223C12.1166 12.0287 11.93 12.5535 11.755 12.9966L9.41104 19.9412H16.3906ZM25.7841 29.6846H21.2011C20.688 29.6846 20.274 29.568 19.9591 29.3348C19.6442 29.0899 19.4052 28.7808 19.2419 28.4077L17.7375 23.9645H8.04661L6.54225 28.4077C6.41397 28.7342 6.18073 29.0316 5.84254 29.2998C5.51601 29.5563 5.10785 29.6846 4.61806 29.6846H0L9.86585 4.19785H15.9183L25.7841 29.6846Z" fill="#093272"/>
<path d="M32.1668 13.5039C32.5166 13.1774 32.8781 12.8742 33.2513 12.5943C33.6245 12.3144 34.021 12.0812 34.4408 11.8946C34.8723 11.6964 35.3329 11.5448 35.8227 11.4398C36.3242 11.3232 36.8665 11.2649 37.4495 11.2649C38.4408 11.2649 39.3154 11.4398 40.0734 11.7897C40.8431 12.1278 41.4903 12.606 42.0151 13.224C42.5399 13.8305 42.9364 14.5593 43.2046 15.4106C43.4728 16.2503 43.6069 17.1657 43.6069 18.157V29.6846H38.1842V18.157C38.1842 17.2707 37.9802 16.5826 37.572 16.0928C37.1638 15.5914 36.5632 15.3407 35.7702 15.3407C35.1755 15.3407 34.6157 15.4689 34.091 15.7255C33.5778 15.9704 33.0764 16.3086 32.5866 16.7401V29.6846H27.1639V11.5448H30.5225C31.1988 11.5448 31.642 11.848 31.8519 12.4544L32.1668 13.5039Z" fill="#093272"/>
<path d="M53.367 29.9645C52.504 29.9645 51.7402 29.8421 51.0755 29.5972C50.4224 29.3406 49.8685 28.9849 49.4137 28.5301C48.9705 28.0636 48.6323 27.5039 48.3991 26.8508C48.1659 26.1978 48.0493 25.4689 48.0493 24.6642V15.2882H46.5099C46.23 15.2882 45.991 15.2007 45.7927 15.0258C45.5945 14.8392 45.4953 14.571 45.4953 14.2211V12.1045L48.3816 11.5448L49.4487 7.11912C49.5886 6.55936 49.9851 6.27947 50.6382 6.27947H53.472V11.5797H57.9676V15.2882H53.472V24.2969C53.472 24.7167 53.5711 25.0666 53.7693 25.3464C53.9793 25.6147 54.2766 25.7488 54.6615 25.7488C54.8597 25.7488 55.023 25.7313 55.1513 25.6963C55.2912 25.6497 55.4078 25.603 55.5011 25.5564C55.6061 25.4981 55.6994 25.4514 55.781 25.4164C55.8743 25.3698 55.9793 25.3464 56.0959 25.3464C56.2591 25.3464 56.3874 25.3873 56.4807 25.4689C56.5857 25.5389 56.6906 25.6555 56.7956 25.8187L58.4399 28.3902C57.7402 28.9149 56.953 29.3114 56.0784 29.5797C55.2037 29.8362 54.3 29.9645 53.367 29.9645Z" fill="#093272"/>
<path d="M71.4161 18.4369C71.4161 18.0054 71.3578 17.5855 71.2412 17.1774C71.1363 16.7692 70.9555 16.4077 70.6989 16.0928C70.454 15.7663 70.1275 15.5039 69.7194 15.3057C69.3112 15.1074 68.8156 15.0083 68.2325 15.0083C67.2062 15.0083 66.4016 15.3057 65.8185 15.9004C65.2354 16.4835 64.8506 17.329 64.664 18.4369H71.4161ZM64.594 21.5855C64.7689 23.1016 65.2296 24.2036 65.9759 24.8916C66.7223 25.568 67.6844 25.9062 68.8622 25.9062C69.4919 25.9062 70.0342 25.8304 70.489 25.6788C70.9438 25.5272 71.3462 25.3581 71.696 25.1715C72.0575 24.9849 72.3841 24.8158 72.6756 24.6642C72.9788 24.5126 73.2937 24.4368 73.6202 24.4368C74.0517 24.4368 74.3782 24.5943 74.5998 24.9091L76.1741 26.8508C75.6144 27.4922 75.008 28.017 74.3549 28.4252C73.7135 28.8217 73.0488 29.1365 72.3607 29.3698C71.6844 29.5913 71.0021 29.7429 70.3141 29.8246C69.6377 29.9179 68.9905 29.9645 68.3724 29.9645C67.1013 29.9645 65.906 29.7604 64.7864 29.3523C63.6786 28.9324 62.7048 28.3144 61.8652 27.498C61.0372 26.6817 60.3783 25.6671 59.8885 24.4543C59.4104 23.2415 59.1713 21.8304 59.1713 20.2211C59.1713 19.0083 59.3754 17.8596 59.7835 16.7751C60.2034 15.6905 60.7981 14.7401 61.5678 13.9238C62.3491 13.1074 63.2879 12.4602 64.3841 11.9821C65.492 11.5039 66.7398 11.2649 68.1275 11.2649C69.3287 11.2649 70.4249 11.4515 71.4161 11.8246C72.419 12.1978 73.2762 12.7401 73.9876 13.4515C74.7106 14.1628 75.2703 15.0375 75.6668 16.0754C76.075 17.1016 76.2791 18.2678 76.2791 19.5739C76.2791 19.982 76.2616 20.3144 76.2266 20.571C76.1916 20.8275 76.1275 21.0316 76.0342 21.1832C75.9409 21.3348 75.8126 21.4398 75.6494 21.4981C75.4977 21.5564 75.2995 21.5855 75.0546 21.5855H64.594Z" fill="#093272"/>
<path d="M92.322 15.8479C92.1588 16.0462 92.0013 16.2036 91.8497 16.3202C91.6981 16.4369 91.4824 16.4952 91.2025 16.4952C90.9343 16.4952 90.6894 16.431 90.4678 16.3028C90.2579 16.1745 90.0188 16.0345 89.7506 15.8829C89.4824 15.7197 89.1675 15.5739 88.806 15.4456C88.4445 15.3173 87.9955 15.2532 87.4591 15.2532C86.7943 15.2532 86.2171 15.3756 85.7273 15.6205C85.2492 15.8654 84.8527 16.2153 84.5378 16.6701C84.2229 17.1249 83.9897 17.6847 83.8381 18.3494C83.6865 19.0025 83.6107 19.743 83.6107 20.571C83.6107 22.3086 83.943 23.6438 84.6078 24.5768C85.2841 25.5097 86.2113 25.9762 87.3891 25.9762C88.0188 25.9762 88.5145 25.9004 88.876 25.7488C89.2491 25.5855 89.564 25.4106 89.8206 25.224C90.0771 25.0257 90.3104 24.845 90.5203 24.6817C90.7419 24.5185 91.0159 24.4368 91.3424 24.4368C91.7739 24.4368 92.1004 24.5943 92.322 24.9091L93.8964 26.8508C93.3366 27.4922 92.7477 28.017 92.1296 28.4252C91.5115 28.8217 90.876 29.1365 90.2229 29.3698C89.5815 29.5913 88.9343 29.7429 88.2812 29.8246C87.6282 29.9179 86.9926 29.9645 86.3745 29.9645C85.2667 29.9645 84.2054 29.7546 83.1909 29.3348C82.188 28.9149 81.3017 28.3085 80.532 27.5155C79.774 26.7109 79.1676 25.7255 78.7128 24.5593C78.2696 23.3931 78.048 22.0637 78.048 20.571C78.048 19.2648 78.2404 18.0462 78.6253 16.915C79.0218 15.7721 79.599 14.7867 80.3571 13.9587C81.1267 13.1191 82.0713 12.4602 83.1909 11.9821C84.3221 11.5039 85.6282 11.2649 87.1092 11.2649C88.532 11.2649 89.7798 11.4923 90.8526 11.9471C91.9255 12.4019 92.8934 13.0666 93.7564 13.9412L92.322 15.8479Z" fill="#093272"/>
<path d="M100.988 11.5448V29.6846H95.5651V11.5448H100.988ZM101.548 6.57685C101.548 7.00833 101.46 7.41649 101.285 7.80133C101.11 8.17451 100.871 8.50687 100.568 8.79841C100.265 9.07829 99.9091 9.3057 99.501 9.48063C99.1045 9.64389 98.6788 9.72552 98.224 9.72552C97.7809 9.72552 97.3669 9.64389 96.982 9.48063C96.5972 9.3057 96.2532 9.07829 95.95 8.79841C95.6584 8.50687 95.4252 8.17451 95.2503 7.80133C95.087 7.41649 95.0054 7.00833 95.0054 6.57685C95.0054 6.1337 95.087 5.71971 95.2503 5.33487C95.4252 4.95003 95.6584 4.61184 95.95 4.3203C96.2532 4.02875 96.5972 3.80135 96.982 3.63808C97.3669 3.47482 97.7809 3.39319 98.224 3.39319C98.6788 3.39319 99.1045 3.47482 99.501 3.63808C99.9091 3.80135 100.265 4.02875 100.568 4.3203C100.871 4.61184 101.11 4.95003 101.285 5.33487C101.46 5.71971 101.548 6.1337 101.548 6.57685Z" fill="#093272"/>
<path d="M109.064 24.7517C109.472 25.1948 109.915 25.5097 110.393 25.6963C110.872 25.8829 111.373 25.9762 111.898 25.9762C112.399 25.9762 112.86 25.8771 113.28 25.6788C113.7 25.4806 114.061 25.1657 114.364 24.7342C114.679 24.2911 114.924 23.7196 115.099 23.0199C115.274 22.3202 115.361 21.4689 115.361 20.466C115.361 19.5097 115.291 18.7051 115.151 18.052C115.011 17.399 114.813 16.8742 114.557 16.4777C114.312 16.0695 114.014 15.778 113.665 15.603C113.315 15.4281 112.924 15.3407 112.493 15.3407C111.7 15.3407 111.046 15.4864 110.533 15.778C110.02 16.0695 109.53 16.4952 109.064 17.0549V24.7517ZM108.732 13.7838C109.443 13.0258 110.248 12.4077 111.146 11.9296C112.055 11.4398 113.134 11.1949 114.382 11.1949C115.326 11.1949 116.201 11.4048 117.006 11.8246C117.81 12.2445 118.504 12.8509 119.087 13.6439C119.67 14.4369 120.125 15.4106 120.452 16.5651C120.79 17.708 120.959 19.0083 120.959 20.466C120.959 21.8304 120.767 23.0899 120.382 24.2444C120.009 25.3989 119.478 26.4018 118.79 27.2531C118.113 28.1045 117.297 28.7692 116.341 29.2473C115.396 29.7254 114.347 29.9645 113.192 29.9645C112.248 29.9645 111.455 29.8304 110.813 29.5622C110.172 29.294 109.589 28.9324 109.064 28.4776L109.628 35.4397H104.206L103.641 11.5448H107C107.676 11.5448 108.119 11.848 108.329 12.4544L108.732 13.7838Z" fill="#093272"/>
<path d="M133.123 22.3027C132.039 22.3494 131.146 22.4427 130.447 22.5826C129.747 22.7225 129.193 22.8975 128.785 23.1074C128.377 23.3173 128.091 23.5564 127.928 23.8246C127.776 24.0928 127.7 24.3844 127.7 24.6992C127.7 25.3173 127.87 25.7546 128.208 26.0112C128.546 26.2561 129.042 26.3785 129.695 26.3785C130.394 26.3785 131.007 26.2561 131.531 26.0112C132.056 25.7663 132.587 25.3698 133.123 24.8217V22.3027ZM123.362 14.0637C124.458 13.0958 125.671 12.3786 127.001 11.9121C128.342 11.434 129.776 11.1949 131.304 11.1949C132.4 11.1949 133.386 11.3757 134.26 11.7372C135.146 12.087 135.893 12.5827 136.499 13.224C137.117 13.8538 137.59 14.606 137.916 15.4806C138.243 16.3552 138.406 17.3115 138.406 18.3494V29.6846H135.922C135.409 29.6846 135.018 29.6147 134.75 29.4747C134.493 29.3348 134.278 29.0432 134.103 28.6001L133.718 27.603C133.263 27.9878 132.826 28.326 132.406 28.6176C131.986 28.9091 131.549 29.1598 131.094 29.3698C130.651 29.568 130.173 29.7138 129.66 29.8071C129.158 29.912 128.598 29.9645 127.98 29.9645C127.152 29.9645 126.4 29.8595 125.724 29.6496C125.047 29.4281 124.47 29.1074 123.992 28.6875C123.526 28.2677 123.164 27.7488 122.907 27.1307C122.651 26.501 122.523 25.7779 122.523 24.9616C122.523 24.3086 122.686 23.6497 123.012 22.9849C123.339 22.3086 123.905 21.6963 124.709 21.1482C125.514 20.5884 126.598 20.122 127.963 19.7488C129.327 19.3756 131.047 19.1657 133.123 19.1191V18.3494C133.123 17.2882 132.902 16.5243 132.458 16.0579C132.027 15.5797 131.409 15.3407 130.604 15.3407C129.963 15.3407 129.438 15.4106 129.03 15.5506C128.622 15.6905 128.254 15.8479 127.928 16.0229C127.613 16.1978 127.304 16.3552 127.001 16.4952C126.698 16.6351 126.336 16.7051 125.916 16.7051C125.543 16.7051 125.228 16.6118 124.972 16.4252C124.715 16.2386 124.505 16.017 124.342 15.7605L123.362 14.0637Z" fill="#093272"/>
<path fill-rule="evenodd" clip-rule="evenodd" d="M23.0803 62.2731C22.913 62.2034 22.7456 62.1685 22.5783 62.1685C22.3691 62.1685 22.1668 62.2173 21.9716 62.3149C21.7764 62.3986 21.5951 62.5102 21.4277 62.6496C21.0093 63.0262 20.5979 63.34 20.1935 63.591C19.789 63.8281 19.3567 64.0234 18.8964 64.1768C18.4362 64.3162 17.9411 64.4208 17.4112 64.4906C16.8812 64.5463 16.2955 64.5742 15.6539 64.5742C14.5382 64.5742 13.4923 64.3581 12.516 63.9257C11.5398 63.4934 10.6821 62.8658 9.94295 62.043C9.21774 61.2062 8.63897 60.1812 8.20664 58.9678C7.78825 57.7545 7.57905 56.3669 7.57905 54.8049C7.57905 53.2568 7.76733 51.8831 8.14388 50.6838C8.53437 49.4704 9.07828 48.4524 9.77559 47.6295C10.4869 46.7927 11.3236 46.1582 12.2859 45.7259C13.2622 45.2935 14.336 45.0774 15.5075 45.0774C16.2467 45.0774 16.8882 45.1331 17.4321 45.2447C17.9899 45.3563 18.4711 45.4957 18.8755 45.6631C19.2939 45.8165 19.6495 45.9908 19.9424 46.1861C20.2492 46.3674 20.5282 46.5417 20.7792 46.7091C21.0302 46.8625 21.2673 46.995 21.4905 47.1065C21.7136 47.2181 21.9507 47.2739 22.2017 47.2739C22.5783 47.2739 22.8711 47.1972 23.0803 47.0438C23.2895 46.8764 23.4708 46.6951 23.6242 46.4999L26.009 43.2992C25.4372 42.7135 24.7818 42.1696 24.0426 41.6675C23.3035 41.1654 22.4946 40.7401 21.616 40.3914C20.7374 40.0288 19.789 39.7499 18.7709 39.5546C17.7668 39.3454 16.6929 39.2408 15.5493 39.2408C13.304 39.2408 11.2469 39.6244 9.37812 40.3914C7.50932 41.1585 5.9055 42.2323 4.56666 43.613C3.22782 44.9937 2.18882 46.6393 1.44967 48.55C0.710519 50.4467 0.340942 52.5316 0.340942 54.8049C0.340942 57.0363 0.682626 59.1073 1.36599 61.0179C2.04936 62.9146 3.0256 64.5603 4.29471 65.9549C5.57777 67.3356 7.13277 68.4234 8.95973 69.2183C10.8006 69.9993 12.8786 70.3898 15.1937 70.3898C17.718 70.3898 19.9006 69.9854 21.7415 69.1765C23.5963 68.3537 25.1374 67.1403 26.3647 65.5365L23.5615 62.5869C23.4081 62.4335 23.2477 62.3289 23.0803 62.2731ZM37.3642 61.5618C38.201 61.3945 39.2679 61.2829 40.5649 61.2271V64.2395C39.9233 64.895 39.2888 65.3692 38.6612 65.662C38.0336 65.9549 37.3014 66.1013 36.4647 66.1013C35.6837 66.1013 35.091 65.9549 34.6865 65.662C34.2821 65.3552 34.0798 64.8322 34.0798 64.0931C34.0798 63.7165 34.1705 63.3679 34.3518 63.0471C34.5471 62.7264 34.8887 62.4405 35.3769 62.1894C35.865 61.9384 36.5274 61.7292 37.3642 61.5618ZM33.2431 48.801C31.6532 49.3589 30.2028 50.2166 28.8918 51.3741L30.0633 53.4033C30.2586 53.7101 30.5096 53.9751 30.8164 54.1982C31.1232 54.4214 31.4998 54.5329 31.9461 54.5329C32.4481 54.5329 32.8805 54.4492 33.2431 54.2819C33.6057 54.1145 33.9753 53.9263 34.3518 53.7171C34.7423 53.5079 35.1816 53.3196 35.6697 53.1522C36.1578 52.9849 36.7854 52.9012 37.5525 52.9012C38.5148 52.9012 39.2539 53.1871 39.7699 53.7589C40.2999 54.3168 40.5649 55.2302 40.5649 56.4993V57.4198C38.0824 57.4756 36.0254 57.7266 34.3936 58.1729C32.7619 58.6192 31.4649 59.177 30.5026 59.8464C29.5403 60.5019 28.8639 61.2341 28.4735 62.043C28.083 62.8379 27.8877 63.6259 27.8877 64.4069C27.8877 65.3831 28.0411 66.2478 28.3479 67.0009C28.6548 67.74 29.0871 68.3606 29.6449 68.8627C30.2167 69.3648 30.9071 69.7483 31.716 70.0133C32.5248 70.2643 33.4244 70.3898 34.4146 70.3898C35.1537 70.3898 35.8231 70.3271 36.4228 70.2015C37.0365 70.09 37.6083 69.9157 38.1382 69.6786C38.6821 69.4275 39.2051 69.1277 39.7072 68.779C40.2092 68.4304 40.7322 68.0259 41.2761 67.5657L41.7364 68.7581C41.9455 69.2881 42.2035 69.6367 42.5104 69.8041C42.8311 69.9714 43.2983 70.0551 43.912 70.0551H46.8825V56.4993C46.8825 55.2581 46.6873 54.1145 46.2968 53.0686C45.9063 52.0226 45.3415 51.1231 44.6023 50.37C43.8771 49.6029 42.9845 49.0102 41.9246 48.5918C40.8787 48.1595 39.7002 47.9433 38.3892 47.9433C36.5623 47.9433 34.8469 48.2292 33.2431 48.801ZM55.7448 51.7088C56.4142 50.5373 57.1813 49.6169 58.046 48.9474C58.9246 48.278 59.9287 47.9433 61.0583 47.9433C62.0346 47.9433 62.8295 48.1734 63.4432 48.6337L63.0248 53.4033C62.955 53.7101 62.8365 53.9193 62.6691 54.0309C62.5157 54.1424 62.2996 54.1982 62.0206 54.1982C61.9091 54.1982 61.7626 54.1912 61.5813 54.1773C61.4 54.1633 61.2118 54.1494 61.0165 54.1355C60.8213 54.1076 60.619 54.0866 60.4098 54.0727C60.2146 54.0448 60.0333 54.0309 59.8659 54.0309C58.9176 54.0309 58.1575 54.2819 57.5857 54.784C57.0279 55.286 56.5537 55.9833 56.1632 56.8759V70.0551H49.6782V48.3617H53.5274C53.8481 48.3617 54.1131 48.3896 54.3223 48.4454C54.5454 48.5012 54.7267 48.5918 54.8662 48.7173C55.0196 48.8289 55.1312 48.9823 55.2009 49.1776C55.2846 49.3728 55.3543 49.6099 55.4101 49.8888L55.7448 51.7088ZM72.024 69.9505C72.819 70.2434 73.7325 70.3898 74.7645 70.3898C75.8802 70.3898 76.961 70.2364 78.007 69.9296C79.053 69.6088 79.9943 69.1347 80.8311 68.5071L78.8647 65.4319C78.7392 65.2367 78.6137 65.0972 78.4881 65.0135C78.3766 64.9159 78.2232 64.8671 78.0279 64.8671C77.8885 64.8671 77.7629 64.895 77.6514 64.9508C77.5537 64.9926 77.4422 65.0484 77.3167 65.1181C77.2051 65.1739 77.0656 65.2297 76.8983 65.2855C76.7449 65.3273 76.5496 65.3483 76.3125 65.3483C75.8523 65.3483 75.4967 65.1879 75.2456 64.8671C75.0085 64.5324 74.89 64.114 74.89 63.6119V52.8385H80.2663V48.4035H74.89V42.065H71.5011C70.7201 42.065 70.2459 42.3997 70.0785 43.0691L68.8025 48.3617L65.3508 49.0311V51.5624C65.3508 51.9808 65.4693 52.3015 65.7064 52.5247C65.9435 52.7339 66.2294 52.8385 66.5641 52.8385H68.405V64.0512C68.405 65.0135 68.5444 65.8852 68.8234 66.6662C69.1023 67.4472 69.5067 68.1166 70.0367 68.6744C70.5806 69.2183 71.243 69.6437 72.024 69.9505ZM94.2525 61.2271C92.9555 61.2829 91.8886 61.3945 91.0519 61.5618C90.2151 61.7292 89.5527 61.9384 89.0645 62.1894C88.5764 62.4405 88.2347 62.7264 88.0395 63.0471C87.8582 63.3679 87.7675 63.7165 87.7675 64.0931C87.7675 64.8322 87.9697 65.3552 88.3742 65.662C88.7786 65.9549 89.3714 66.1013 90.1523 66.1013C90.9891 66.1013 91.7213 65.9549 92.3489 65.662C92.9765 65.3692 93.611 64.895 94.2525 64.2395V61.2271ZM82.5795 51.3741C83.8905 50.2166 85.3409 49.3589 86.9308 48.801C88.5346 48.2292 90.25 47.9433 92.0769 47.9433C93.3879 47.9433 94.5663 48.1595 95.6123 48.5918C96.6722 49.0102 97.5648 49.6029 98.29 50.37C99.0291 51.1231 99.594 52.0226 99.9845 53.0686C100.375 54.1145 100.57 55.2581 100.57 56.4993V70.0551H97.5996C96.986 70.0551 96.5188 69.9714 96.198 69.8041C95.8912 69.6367 95.6332 69.2881 95.424 68.7581L94.9638 67.5657C94.4199 68.0259 93.8969 68.4304 93.3948 68.779C92.8928 69.1277 92.3698 69.4275 91.8259 69.6786C91.2959 69.9157 90.7241 70.09 90.1105 70.2015C89.5108 70.3271 88.8414 70.3898 88.1022 70.3898C87.112 70.3898 86.2125 70.2643 85.4036 70.0133C84.5947 69.7483 83.9044 69.3648 83.3326 68.8627C82.7748 68.3606 82.3424 67.74 82.0356 67.0009C81.7288 66.2478 81.5754 65.3831 81.5754 64.4069C81.5754 63.6259 81.7706 62.8379 82.1611 62.043C82.5516 61.2341 83.228 60.5019 84.1903 59.8464C85.1526 59.177 86.4496 58.6192 88.0813 58.1729C89.713 57.7266 91.7701 57.4756 94.2525 57.4198V56.4993C94.2525 55.2302 93.9876 54.3168 93.4576 53.7589C92.9416 53.1871 92.2024 52.9012 91.2402 52.9012C90.4731 52.9012 89.8455 52.9849 89.3574 53.1522C88.8693 53.3196 88.43 53.5079 88.0395 53.7171C87.6629 53.9263 87.2934 54.1145 86.9308 54.2819C86.5681 54.4492 86.1358 54.5329 85.6337 54.5329C85.1875 54.5329 84.8109 54.4214 84.5041 54.1982C84.1973 53.9751 83.9463 53.7101 83.751 53.4033L82.5795 51.3741ZM118.538 48.801C117.185 48.285 115.686 48.027 114.04 48.027C112.381 48.027 110.867 48.285 109.501 48.801C108.148 49.317 106.976 50.0562 105.986 51.0185C105.01 51.9808 104.25 53.1522 103.706 54.5329C103.176 55.8997 102.911 57.4407 102.911 59.1561C102.911 60.8854 103.176 62.4474 103.706 63.8421C104.25 65.2227 105.01 66.4012 105.986 67.3774C106.976 68.3397 108.148 69.0858 109.501 69.6158C110.867 70.1318 112.381 70.3898 114.04 70.3898C115.686 70.3898 117.185 70.1318 118.538 69.6158C119.891 69.0858 121.048 68.3397 122.01 67.3774C122.987 66.4012 123.74 65.2227 124.27 63.8421C124.814 62.4474 125.086 60.8854 125.086 59.1561C125.086 57.4407 124.814 55.8997 124.27 54.5329C123.74 53.1522 122.987 51.9808 122.01 51.0185C121.048 50.0562 119.891 49.317 118.538 48.801ZM117.325 64.0094C116.627 65.0554 115.532 65.5784 114.04 65.5784C112.506 65.5784 111.383 65.0554 110.672 64.0094C109.961 62.9495 109.605 61.3457 109.605 59.1979C109.605 57.0502 109.961 55.4534 110.672 54.4074C111.383 53.3614 112.506 52.8385 114.04 52.8385C115.532 52.8385 116.627 53.3614 117.325 54.4074C118.036 55.4534 118.391 57.0502 118.391 59.1979C118.391 61.3457 118.036 62.9495 117.325 64.0094ZM90.6537 41.1737C88.4175 41.1737 86.6048 42.9865 86.6048 45.2226H92.6087C94.8448 45.2226 96.6576 43.4099 96.6576 41.1737H90.6537Z" fill="#33D199"/>
<path fill-rule="evenodd" clip-rule="evenodd" d="M186.053 61.841C186.053 68.9969 180.252 74.7978 173.096 74.7978C165.94 74.7978 160.139 68.9969 160.139 61.841C160.139 54.6851 165.94 48.8842 173.096 48.8842C173.493 48.8842 173.885 48.902 174.272 48.9368H193.255C194.496 48.9368 195.501 49.9427 195.501 51.1836C195.501 52.4245 194.496 53.4304 193.255 53.4304H189.976C190.553 53.837 190.931 54.509 190.931 55.2691C190.931 56.5099 189.925 57.5159 188.684 57.5159H185.314C185.792 58.8685 186.053 60.3243 186.053 61.841Z" fill="#093272"/>
<path fill-rule="evenodd" clip-rule="evenodd" d="M173.493 52.2449C174.602 52.2449 175.501 53.144 175.501 54.2532L175.501 54.3547C176.782 54.7771 177.722 55.522 178.184 56.0383C178.924 56.8649 178.853 58.1345 178.026 58.8741C177.2 59.6136 175.93 59.5431 175.191 58.7165C175.191 58.7166 175.191 58.7165 175.191 58.7164C175.187 58.713 175.137 58.6604 175.032 58.5811C174.928 58.5024 174.792 58.4135 174.63 58.3311C174.303 58.1649 173.914 58.0467 173.493 58.0467C172.432 58.0467 172.306 58.6519 172.306 58.7164C172.306 58.7379 172.308 58.7441 172.317 58.7617C172.33 58.7892 172.377 58.869 172.512 58.9941C172.806 59.267 173.352 59.6043 174.269 59.9884C174.851 60.2324 175.46 60.5272 176.019 60.9041C178.522 62.5934 179.118 65.88 177.028 67.911C176.485 68.4381 175.823 68.8191 175.102 69.0564L175.102 69.4281C175.102 70.5372 174.202 71.4364 173.093 71.4364C171.984 71.4364 171.085 70.5372 171.085 69.4281L171.085 69.0119C170.104 68.6986 169.126 68.1651 168.209 67.3966C167.359 66.6841 167.248 65.4174 167.96 64.5674C168.673 63.7174 169.939 63.6059 170.789 64.3184C171.686 65.0704 172.529 65.3177 173.146 65.334C173.761 65.3503 174.109 65.1466 174.228 65.0306C174.253 65.0063 174.286 64.9595 174.271 64.8567C174.258 64.7651 174.181 64.5097 173.772 64.2337C173.516 64.0611 173.172 63.8837 172.716 63.6928C171.636 63.2401 170.585 62.6847 169.781 61.9395C168.929 61.1499 168.29 60.0762 168.29 58.7164C168.29 56.7417 169.586 55.0757 171.484 54.3793L171.484 54.2532C171.484 53.144 172.383 52.2449 173.493 52.2449Z" fill="white"/>
<path fill-rule="evenodd" clip-rule="evenodd" d="M159.9 30.9299C159.9 29.689 160.906 28.6831 162.147 28.6831L175.545 28.6831C176.786 28.6831 177.792 29.689 177.792 30.9299C177.792 32.1708 176.786 33.1767 175.545 33.1767L162.147 33.1767C160.906 33.1767 159.9 32.1708 159.9 30.9299Z" fill="#33D199"/>
<path fill-rule="evenodd" clip-rule="evenodd" d="M173.214 15.7155C172.624 15.3106 172.238 14.6315 172.238 13.862C172.238 12.6212 173.244 11.6152 174.484 11.6152H210.421C211.662 11.6152 212.668 12.6212 212.668 13.862C212.668 14.7748 212.123 15.5605 211.342 15.9121C212.124 16.2637 212.668 17.0495 212.668 17.9623C212.668 19.2032 211.662 20.2092 210.421 20.2092L171.017 20.2092C169.777 20.2092 168.771 19.2032 168.771 17.9623C168.771 16.7215 169.777 15.7155 171.017 15.7155H173.214Z" fill="#093272"/>
<path fill-rule="evenodd" clip-rule="evenodd" d="M182.812 30.9299C182.812 29.689 183.818 28.6831 185.059 28.6831L188.205 28.6831C189.446 28.6831 190.452 29.689 190.452 30.9299C190.452 32.1708 189.446 33.1767 188.205 33.1767L185.059 33.1767C183.818 33.1767 182.812 32.1708 182.812 30.9299Z" fill="#33D199"/>
<path fill-rule="evenodd" clip-rule="evenodd" d="M181.626 6.03662L207.589 6.03662L207.589 6.03666C207.591 6.03709 207.601 6.03982 207.62 6.04971C207.658 6.07008 207.736 6.1234 207.829 6.24056C208.022 6.48227 208.211 6.91712 208.211 7.49546V36.0045C208.211 38.6129 206.618 39.6545 205.846 39.6545H145.03C141.526 39.6545 138.686 42.4948 138.686 45.9985V77.406C138.686 80.9097 141.526 83.75 145.03 83.75H170.77C172.23 83.75 173.414 82.5666 173.414 81.1067C173.414 79.6468 172.23 78.4634 170.77 78.4634H153.447C152.413 73.7773 148.687 70.1037 143.972 69.1466V54.2574C148.687 53.3004 152.413 49.627 153.447 44.9412H205.846C210.601 44.9412 213.497 40.3416 213.497 36.0045V7.49546C213.497 4.3655 211.384 0.75 207.59 0.75H181.626C180.166 0.75 178.982 1.93345 178.982 3.39331C178.982 4.85317 180.166 6.03662 181.626 6.03662ZM148.776 44.9412H145.03C144.446 44.9412 143.972 45.4145 143.972 45.9985V49.6136C146.199 48.871 147.974 47.1403 148.776 44.9412ZM143.972 73.7905V77.406C143.972 77.99 144.446 78.4634 145.03 78.4634H148.776C147.974 76.264 146.2 74.5331 143.972 73.7905Z" fill="#33D199"/>
</svg>
