<svg width="229" height="48" viewBox="0 0 229 48" fill="none" xmlns="http://www.w3.org/2000/svg">
<path d="M50.6016 24.117C50.6016 22.0419 50.8988 20.2079 51.4933 18.615C52.099 17.011 52.9235 15.6649 53.9667 14.5769C55.0211 13.4776 56.2381 12.6475 57.6179 12.0867C59.0088 11.5146 60.4838 11.2286 62.043 11.2286C63.3105 11.2286 64.3649 11.2959 65.2062 11.4305C66.0475 11.5539 66.7317 11.6941 67.2589 11.8511C67.7974 11.9969 68.2348 12.1035 68.5713 12.1708L68.1675 14.661C67.9207 14.5713 67.5674 14.4311 67.1075 14.2404C66.6588 14.0497 66.0363 13.8758 65.2399 13.7188C64.4547 13.5617 63.4339 13.4832 62.1776 13.4832C60.4502 13.4832 58.9246 13.8926 57.601 14.7115C56.2774 15.5191 55.2398 16.7025 54.4883 18.2617C53.7367 19.8097 53.361 21.6941 53.361 23.9151C53.361 25.9454 53.7031 27.7626 54.3873 29.3666C55.0716 30.9707 56.0587 32.2382 57.3486 33.1692C58.6498 34.089 60.2146 34.5489 62.043 34.5489C63.075 34.5489 64.0228 34.4704 64.8865 34.3133C65.7615 34.1451 66.5074 33.9488 67.1243 33.7245C67.7525 33.4889 68.2124 33.2702 68.504 33.0683L68.5377 35.4575C68.0441 35.6145 67.5113 35.7996 66.9393 36.0127C66.3784 36.2146 65.6942 36.3885 64.8865 36.5343C64.0901 36.6914 63.0974 36.7699 61.9084 36.7699C59.6201 36.7699 57.6291 36.2427 55.9353 35.1883C54.2415 34.1227 52.9291 32.642 51.9981 30.7463C51.0671 28.8506 50.6016 26.6409 50.6016 24.117Z" fill="#667687"/>
<path d="M76.5951 36.5007H73.8357V11.4978C73.8357 11.4978 73.959 11.4978 74.2058 11.4978C74.4526 11.4866 74.705 11.481 74.963 11.481C75.2322 11.4697 75.3948 11.4641 75.4509 11.4641C76.2473 11.4641 77.1615 11.4305 78.1935 11.3632C79.2367 11.2959 80.2967 11.2622 81.3735 11.2622C82.6411 11.2622 83.7964 11.3856 84.8396 11.6324C85.894 11.8792 86.8026 12.2718 87.5654 12.8102C88.3281 13.3486 88.917 14.0609 89.3321 14.947C89.7471 15.822 89.9546 16.8932 89.9546 18.1607C89.9546 19.5965 89.6798 20.8248 89.1302 21.8456C88.5917 22.8663 87.8402 23.6795 86.8755 24.2853C85.9109 24.8798 84.7948 25.2612 83.5272 25.4294C82.9888 25.5079 82.3943 25.564 81.7437 25.5977C81.0931 25.6201 80.3472 25.6313 79.5059 25.6313C78.6646 25.6201 77.6943 25.6089 76.5951 25.5977V36.5007ZM76.5951 23.6459C76.8643 23.6683 77.3073 23.6908 77.9243 23.7132C78.5524 23.7244 79.1862 23.7356 79.8256 23.7469C80.465 23.7469 80.9473 23.7469 81.2726 23.7469C83.0225 23.7244 84.4302 23.2645 85.4958 22.3671C86.5727 21.4698 87.1167 20.1125 87.1279 18.2953C87.1279 17.1063 86.9092 16.1473 86.4717 15.4182C86.0342 14.689 85.3556 14.1562 84.4358 13.8197C83.5272 13.4832 82.3606 13.315 80.9361 13.315C80.1957 13.315 79.4106 13.3374 78.5805 13.3823C77.7616 13.4159 77.0998 13.4832 76.5951 13.5842V23.6459ZM88.5413 36.5007C88.4067 36.3324 88.2833 36.1305 88.1711 35.895C88.0589 35.6594 87.8907 35.3005 87.6663 34.8181C87.2962 34.0554 86.898 33.1692 86.4717 32.1597C86.0567 31.1501 85.5968 30.163 85.092 29.1984C84.5985 28.2225 84.0488 27.3924 83.4431 26.7082C82.8374 26.0239 82.17 25.6313 81.4408 25.5304L82.585 24.6891L84.2676 24.891C84.963 25.1041 85.608 25.5865 86.2025 26.338C86.8082 27.0895 87.3691 27.9757 87.8851 28.9964C88.4123 30.006 88.9114 31.0324 89.3825 32.0755C89.8537 33.1075 90.3136 34.0217 90.7622 34.8181C90.9305 35.1322 91.0932 35.4351 91.2502 35.7267C91.4072 36.0071 91.5587 36.2651 91.7045 36.5007H88.5413Z" fill="#667687"/>
<path d="M95.9522 36.5007V11.4978H110.052V13.6515H98.7116V22.5018H106.99V24.6554H98.7116V34.3133H111.23V36.5007H95.9522Z" fill="#667687"/>
<path d="M115.473 36.5007V11.4978C115.529 11.4978 115.702 11.4978 115.994 11.4978C116.286 11.4978 116.577 11.4978 116.869 11.4978C117.172 11.4866 117.357 11.4754 117.424 11.4641C117.951 11.4641 118.518 11.4473 119.124 11.4137C119.741 11.38 120.374 11.3464 121.025 11.3127C121.676 11.2791 122.326 11.2622 122.977 11.2622C126.948 11.2622 129.915 12.3166 131.878 14.4254C133.841 16.5343 134.822 19.4844 134.822 23.2757C134.822 26.0127 134.345 28.4019 133.392 30.4435C132.438 32.4737 131.047 34.0441 129.219 35.1546C127.402 36.2651 125.198 36.8035 122.607 36.7699C121.9 36.7475 121.047 36.7026 120.049 36.6353C119.051 36.568 118.131 36.5343 117.29 36.5343C117.178 36.5231 116.981 36.5119 116.701 36.5007C116.42 36.5007 116.151 36.5007 115.893 36.5007C115.646 36.5007 115.506 36.5007 115.473 36.5007ZM118.232 34.3806C118.871 34.4816 119.645 34.5601 120.554 34.6162C121.474 34.6723 122.293 34.6947 123.01 34.6835C124.76 34.6611 126.303 34.2629 127.637 33.4889C128.972 32.7037 130.015 31.5035 130.767 29.8882C131.53 28.2729 131.917 26.2034 131.928 23.6795C131.939 21.2342 131.586 19.2488 130.868 17.7233C130.15 16.1865 129.079 15.0648 127.654 14.3581C126.23 13.6402 124.457 13.2813 122.337 13.2813C121.552 13.2813 120.812 13.3037 120.116 13.3486C119.432 13.3935 118.804 13.4496 118.232 13.5169V34.3806Z" fill="#667687"/>
<path d="M139.999 36.5007V11.4978H142.792V36.5007H139.999Z" fill="#667687"/>
<path d="M155.506 36.5007V13.6515H147.43V11.4978H166.51V13.6515H158.333V36.5007H155.506Z" fill="#667687"/>
<path d="M177.736 36.7699C176.547 36.7699 175.409 36.6802 174.321 36.5007C173.244 36.3325 172.307 36.1305 171.511 35.895C170.714 35.6482 170.153 35.4239 169.828 35.222L170.602 30.3425C171.017 30.5781 171.578 30.8193 172.285 31.066C172.991 31.3128 173.771 31.5259 174.623 31.7054C175.487 31.8737 176.357 31.9578 177.231 31.9578C178.409 31.9578 179.262 31.7895 179.789 31.453C180.327 31.1165 180.597 30.5781 180.597 29.8378C180.597 29.2993 180.434 28.845 180.109 28.4749C179.783 28.0935 179.245 27.7065 178.493 27.3139C177.753 26.9213 176.76 26.4278 175.515 25.8333C174.461 25.3285 173.491 24.734 172.604 24.0497C171.718 23.3543 171.006 22.5242 170.468 21.5595C169.929 20.5837 169.66 19.4283 169.66 18.0935C169.66 16.9493 169.873 15.951 170.299 15.0985C170.737 14.2348 171.348 13.5169 172.133 12.9448C172.93 12.3728 173.872 11.9465 174.96 11.6661C176.048 11.3744 177.254 11.2286 178.577 11.2286C180.462 11.2286 181.999 11.4025 183.188 11.7502C184.377 12.0979 185.196 12.4064 185.644 12.6756L184.668 17.3531C184.164 16.9605 183.384 16.6016 182.33 16.2763C181.286 15.9398 180.215 15.7715 179.116 15.7715C178.331 15.7715 177.686 15.8613 177.181 16.0407C176.676 16.209 176.3 16.4502 176.054 16.7642C175.807 17.0783 175.683 17.4429 175.683 17.8579C175.683 18.3627 175.829 18.8114 176.121 19.204C176.424 19.5853 176.889 19.9667 177.517 20.3481C178.157 20.7183 178.981 21.1333 179.991 21.5932C181.068 22.0755 182.027 22.5691 182.868 23.0739C183.721 23.5786 184.444 24.1283 185.039 24.7228C185.633 25.3173 186.082 25.9959 186.385 26.7587C186.699 27.5102 186.856 28.3795 186.856 29.3666C186.856 30.8585 186.502 32.1597 185.796 33.2702C185.1 34.3807 184.074 35.2444 182.717 35.8613C181.359 36.4671 179.699 36.7699 177.736 36.7699Z" fill="white"/>
<path d="M190.814 36.5007V11.4978H206.63V16.1753H197.04V21.4586H204.443V26.0015H197.04V31.7222H207.606V36.5007H190.814Z" fill="white"/>
<path d="M209.582 24.0497C209.582 21.9297 209.907 20.0733 210.557 18.4805C211.208 16.8764 212.117 15.536 213.283 14.4591C214.45 13.3823 215.807 12.5747 217.355 12.0362C218.903 11.4978 220.574 11.2286 222.369 11.2286C223.524 11.2286 224.489 11.2959 225.263 11.4305C226.048 11.5539 226.721 11.6941 227.282 11.8512C227.854 12.0082 228.393 12.1372 228.897 12.2381L228.09 17.6223C227.854 17.4653 227.518 17.2746 227.08 17.0503C226.654 16.8147 226.093 16.6128 225.398 16.4446C224.713 16.2651 223.872 16.1753 222.874 16.1753C221.595 16.1753 220.44 16.467 219.408 17.0503C218.376 17.6223 217.557 18.4692 216.951 19.5909C216.346 20.7014 216.043 22.0643 216.043 23.6796C216.043 25.3285 216.306 26.7699 216.833 28.0038C217.372 29.2376 218.168 30.2023 219.223 30.8978C220.277 31.582 221.584 31.9241 223.143 31.9241C223.85 31.9241 224.568 31.84 225.297 31.6718C226.026 31.4923 226.682 31.2792 227.265 31.0324C227.849 30.7856 228.28 30.5444 228.561 30.3089V35.4575C228.135 35.637 227.63 35.8277 227.047 36.0296C226.475 36.2315 225.807 36.4054 225.044 36.5512C224.282 36.697 223.412 36.7699 222.436 36.7699C219.677 36.7699 217.338 36.2483 215.42 35.2051C213.513 34.1619 212.061 32.6869 211.062 30.78C210.075 28.8731 209.582 26.6297 209.582 24.0497Z" fill="white"/>
<path fill-rule="evenodd" clip-rule="evenodd" d="M34.1261 7.82761C33.2562 7.29361 32.1591 7.29755 31.293 7.83777L14.0207 18.6116C12.7592 19.3984 12.3745 21.059 13.1613 22.3205C13.9482 23.582 15.6088 23.9668 16.8703 23.1799L32.7291 13.2877L35.5282 15.0059V32.8512L20.2707 42.151L18.6275 41.1399C17.3613 40.3606 15.7031 40.7555 14.9238 42.0217C14.1446 43.288 14.5394 44.9462 15.8057 45.7254L18.853 47.6007C19.7148 48.131 20.8011 48.1333 21.6651 47.6067L39.6214 36.6618C40.4231 36.1731 40.9124 35.302 40.9124 34.3631V13.4996C40.9124 12.5636 40.4262 11.6948 39.6286 11.2052L34.1261 7.82761Z" fill="#06C2A1"/>
<path fill-rule="evenodd" clip-rule="evenodd" d="M7.71973 40.7485C8.58977 41.283 9.68729 41.2792 10.5537 40.7388L27.8259 29.965C29.0874 29.1781 29.4722 27.5176 28.6853 26.2561C27.8984 24.9946 26.2379 24.6098 24.9764 25.3967L9.11807 35.2885L5.3842 32.9947L5.3842 15.1488L20.6417 5.84898L22.2848 6.86014C23.5511 7.63937 25.2093 7.24456 25.9885 5.97831C26.7677 4.71206 26.3729 3.05387 25.1067 2.27464L22.0593 0.399359C21.1976 -0.130945 20.1113 -0.133257 19.2473 0.39337L1.29096 11.3382C0.489208 11.8269 -2.48707e-06 12.698 -2.40498e-06 13.6369L-5.81041e-07 34.5004C-4.99248e-07 35.436 0.485759 36.3045 1.28295 36.7943L7.71973 40.7485Z" fill="white"/>
</svg>
