<svg width="28" height="31" viewBox="0 0 28 31" fill="none" xmlns="http://www.w3.org/2000/svg">
<path fill-rule="evenodd" clip-rule="evenodd" d="M17.7038 22.7131C17.7038 25.3736 15.5471 27.5304 12.8865 27.5304C10.226 27.5304 8.06927 25.3736 8.06927 22.7131C8.06927 20.0526 10.226 17.8959 12.8865 17.8959C13.0339 17.8959 13.1796 17.9025 13.3236 17.9154H20.3818C20.8432 17.9154 21.2172 18.2894 21.2172 18.7508C21.2172 19.2121 20.8432 19.5861 20.3818 19.5861H19.1626C19.3774 19.7373 19.5177 19.9871 19.5177 20.2697C19.5177 20.7311 19.1437 21.1051 18.6824 21.1051H17.4289C17.6069 21.608 17.7038 22.1492 17.7038 22.7131Z" fill="#093272"/>
<path fill-rule="evenodd" clip-rule="evenodd" d="M13.0339 19.1454C13.4463 19.1454 13.7806 19.4797 13.7806 19.8921L13.7806 19.9298C14.257 20.0868 14.6064 20.3638 14.7781 20.5558C15.0531 20.8631 15.0269 21.3351 14.7195 21.6101C14.4122 21.8851 13.9402 21.8588 13.6652 21.5515C13.6652 21.5515 13.6652 21.5515 13.6652 21.5514C13.664 21.5502 13.6452 21.5306 13.6063 21.5011C13.5676 21.4719 13.517 21.4388 13.4566 21.4082C13.335 21.3464 13.1907 21.3025 13.0339 21.3025C12.6396 21.3025 12.5928 21.5275 12.5928 21.5514C12.5928 21.5595 12.5934 21.5618 12.5967 21.5683C12.6017 21.5785 12.6191 21.6082 12.6693 21.6547C12.7787 21.7562 12.9818 21.8816 13.3225 22.0244C13.539 22.1151 13.7654 22.2247 13.9731 22.3648C14.9039 22.9929 15.1252 24.2148 14.3482 24.97C14.1466 25.1659 13.9005 25.3076 13.6321 25.3958L13.6321 25.534C13.6321 25.9464 13.2978 26.2807 12.8854 26.2807C12.4731 26.2807 12.1388 25.9464 12.1388 25.534L12.1388 25.3793C11.7739 25.2628 11.4104 25.0644 11.0695 24.7787C10.7535 24.5138 10.712 24.0428 10.977 23.7268C11.2419 23.4108 11.7128 23.3693 12.0288 23.6342C12.3624 23.9138 12.6758 24.0058 12.9052 24.0118C13.1337 24.0179 13.2631 23.9422 13.3074 23.8991C13.3168 23.89 13.3288 23.8726 13.3233 23.8344C13.3183 23.8003 13.2899 23.7054 13.1378 23.6027C13.0427 23.5386 12.9146 23.4726 12.7453 23.4017C12.3437 23.2333 11.9528 23.0269 11.654 22.7498C11.3374 22.4562 11.0995 22.057 11.0995 21.5514C11.0995 20.8173 11.5813 20.1979 12.2872 19.9389L12.2872 19.8921C12.2872 19.4797 12.6215 19.1454 13.0339 19.1454Z" fill="white"/>
<path fill-rule="evenodd" clip-rule="evenodd" d="M7.98035 11.2207C7.98035 10.7594 8.35435 10.3854 8.8157 10.3854L13.7968 10.3854C14.2581 10.3854 14.6321 10.7594 14.6321 11.2207C14.6321 11.6821 14.2581 12.0561 13.7968 12.0561L8.8157 12.0561C8.35435 12.0561 7.98035 11.6821 7.98035 11.2207Z" fill="#2CC08C"/>
<path fill-rule="evenodd" clip-rule="evenodd" d="M12.9299 5.56414C12.7107 5.41357 12.567 5.16112 12.567 4.8751C12.567 4.41375 12.941 4.03975 13.4023 4.03975L26.7633 4.03975C27.2247 4.03975 27.5987 4.41375 27.5987 4.8751C27.5987 5.21443 27.3963 5.5065 27.1058 5.63726C27.3964 5.76799 27.5988 6.0601 27.5988 6.39949C27.5988 6.86084 27.2248 7.23484 26.7635 7.23484L12.1134 7.23484C11.6521 7.23484 11.2781 6.86084 11.2781 6.39949C11.2781 5.93814 11.6521 5.56414 12.1134 5.56414H12.9299Z" fill="#093272"/>
<path fill-rule="evenodd" clip-rule="evenodd" d="M16.4985 11.2207C16.4985 10.7594 16.8725 10.3854 17.3339 10.3854L18.5038 10.3854C18.9652 10.3854 19.3392 10.7594 19.3392 11.2207C19.3392 11.6821 18.9652 12.0561 18.5038 12.0561L17.3339 12.0561C16.8725 12.0561 16.4985 11.6821 16.4985 11.2207Z" fill="#2CC08C"/>
<path fill-rule="evenodd" clip-rule="evenodd" d="M16.0576 1.96553H25.7107L25.7108 1.96555C25.7114 1.96571 25.7151 1.96672 25.722 1.9704C25.7363 1.97797 25.7653 1.9978 25.8 2.04136C25.8715 2.13122 25.9417 2.2929 25.9417 2.50792V13.1074C25.9417 14.0772 25.3497 14.4645 25.0627 14.4645H2.45141C1.14877 14.4645 0.0927734 15.5205 0.0927734 16.8231V28.5002C0.0927734 29.8029 1.14877 30.8589 2.45141 30.8589H12.0217C12.5644 30.8589 13.0044 30.4189 13.0044 29.8761C13.0044 29.3333 12.5644 28.8933 12.0217 28.8933H5.5811C5.19666 27.1511 3.81118 25.7852 2.05831 25.4294V19.8937C3.81111 19.5379 5.19655 18.1722 5.58106 16.43H25.0627C26.8305 16.43 27.9072 14.7199 27.9072 13.1074V2.50792C27.9072 1.34422 27.1216 0 25.711 0H16.0576C15.5148 0 15.0748 0.44 15.0748 0.982767C15.0748 1.52553 15.5148 1.96553 16.0576 1.96553ZM3.84425 16.43H2.45141C2.23431 16.43 2.05831 16.606 2.05831 16.8231V18.1672C2.88635 17.8911 3.54607 17.2477 3.84425 16.43ZM2.05831 27.1559V28.5002C2.05831 28.7173 2.23431 28.8933 2.45141 28.8933H3.84433C3.54618 28.0756 2.88642 27.432 2.05831 27.1559Z" fill="#2CC08C"/>
</svg>
