<svg width="240" height="50" viewBox="0 0 240 50" fill="none" xmlns="http://www.w3.org/2000/svg">
<path d="M53.4925 25.1224C53.4925 22.9608 53.8022 21.0504 54.4214 19.3912C55.0524 17.7203 55.9112 16.3182 56.9979 15.1848C58.0962 14.0397 59.364 13.175 60.8012 12.5908C62.25 11.9949 63.7865 11.6969 65.4107 11.6969C66.731 11.6969 67.8294 11.7671 68.7057 11.9073C69.582 12.0358 70.2948 12.1819 70.844 12.3454C71.4048 12.4973 71.8605 12.6083 72.211 12.6784L71.7904 15.2724C71.5333 15.1789 71.1653 15.0329 70.6862 14.8342C70.2188 14.6356 69.5703 14.4545 68.7408 14.2909C67.9228 14.1273 66.8596 14.0455 65.5509 14.0455C63.7515 14.0455 62.1624 14.472 60.7836 15.325C59.4049 16.1663 58.324 17.399 57.5412 19.0231C56.7583 20.6356 56.3669 22.5986 56.3669 24.9121C56.3669 27.027 56.7233 28.9199 57.436 30.5907C58.1488 32.2616 59.177 33.582 60.5207 34.5518C61.8761 35.5099 63.5061 35.989 65.4107 35.989C66.4857 35.989 67.473 35.9072 68.3727 35.7436C69.2841 35.5683 70.0611 35.3638 70.7037 35.1301C71.3581 34.8848 71.8371 34.6569 72.1409 34.4466L72.176 36.9354C71.6619 37.099 71.1069 37.2918 70.511 37.5138C69.9267 37.7241 69.214 37.9052 68.3727 38.0571C67.5431 38.2207 66.509 38.3025 65.2705 38.3025C62.8868 38.3025 60.8128 37.7533 59.0485 36.655C57.2841 35.5449 55.9171 34.0026 54.9472 32.0279C53.9774 30.0532 53.4925 27.7514 53.4925 25.1224Z" fill="#667687"/>
<path d="M80.5691 38.0221H77.6947V11.9774C77.6947 11.9774 77.8232 11.9774 78.0803 11.9774C78.3374 11.9657 78.6003 11.9598 78.869 11.9598C79.1494 11.9482 79.3188 11.9423 79.3773 11.9423C80.2069 11.9423 81.1591 11.9073 82.2341 11.8372C83.3208 11.7671 84.425 11.732 85.5467 11.732C86.867 11.732 88.0705 11.8605 89.1572 12.1176C90.2555 12.3746 91.202 12.7836 91.9965 13.3445C92.791 13.9053 93.4045 14.6473 93.8368 15.5703C94.2691 16.4817 94.4853 17.5976 94.4853 18.9179C94.4853 20.4136 94.199 21.693 93.6265 22.7563C93.0656 23.8196 92.2828 24.6667 91.2779 25.2977C90.273 25.9169 89.1104 26.3142 87.7901 26.4895C87.2292 26.5713 86.61 26.6297 85.9323 26.6647C85.2546 26.6881 84.4775 26.6998 83.6012 26.6998C82.7249 26.6881 81.7142 26.6764 80.5691 26.6647V38.0221ZM80.5691 24.6317C80.8495 24.655 81.311 24.6784 81.9537 24.7018C82.608 24.7134 83.2682 24.7251 83.9342 24.7368C84.6002 24.7368 85.1027 24.7368 85.4415 24.7368C87.2643 24.7134 88.7307 24.2344 89.8407 23.2996C90.9624 22.3649 91.5291 20.951 91.5408 19.0582C91.5408 17.8196 91.313 16.8206 90.8573 16.0611C90.4016 15.3016 89.6947 14.7466 88.7365 14.3961C87.7901 14.0455 86.5749 13.8703 85.091 13.8703C84.3198 13.8703 83.5019 13.8936 82.6372 13.9404C81.7843 13.9754 81.0949 14.0455 80.5691 14.1507V24.6317ZM93.013 38.0221C92.8728 37.8468 92.7443 37.6365 92.6275 37.3911C92.5106 37.1457 92.3353 36.7718 92.1017 36.2694C91.7161 35.4748 91.3013 34.5518 90.8573 33.5002C90.4249 32.4486 89.9459 31.4203 89.4201 30.4155C88.906 29.3989 88.3334 28.5343 87.7025 27.8215C87.0715 27.1088 86.3763 26.6998 85.6168 26.5946L86.8086 25.7183L88.5613 25.9286C89.2857 26.1506 89.9576 26.6531 90.5768 27.4359C91.2078 28.2188 91.792 29.1419 92.3295 30.2051C92.8787 31.2567 93.3986 32.3259 93.8894 33.4125C94.3801 34.4875 94.8592 35.4398 95.3266 36.2694C95.5018 36.5965 95.6713 36.912 95.8348 37.2158C95.9984 37.5079 96.1562 37.7767 96.3081 38.0221H93.013Z" fill="#667687"/>
<path d="M100.733 38.0221V11.9774H115.42V14.2208H103.607V23.4398H112.23V25.6833H103.607V35.7436H116.647V38.0221H100.733Z" fill="#667687"/>
<path d="M121.066 38.0221V11.9774C121.125 11.9774 121.306 11.9774 121.61 11.9774C121.914 11.9774 122.217 11.9774 122.521 11.9774C122.837 11.9657 123.029 11.954 123.1 11.9423C123.649 11.9423 124.239 11.9248 124.87 11.8897C125.512 11.8547 126.173 11.8196 126.85 11.7846C127.528 11.7495 128.206 11.732 128.883 11.732C133.02 11.732 136.11 12.8303 138.155 15.027C140.2 17.2237 141.222 20.2967 141.222 24.2461C141.222 27.0971 140.726 29.5859 139.732 31.7124C138.739 33.8273 137.29 35.4632 135.386 36.6199C133.493 37.7767 131.197 38.3375 128.498 38.3025C127.762 38.2791 126.874 38.2324 125.834 38.1623C124.794 38.0922 123.836 38.0571 122.959 38.0571C122.842 38.0454 122.638 38.0337 122.346 38.0221C122.054 38.0221 121.773 38.0221 121.505 38.0221C121.248 38.0221 121.101 38.0221 121.066 38.0221ZM123.941 35.8137C124.607 35.9188 125.413 36.0006 126.36 36.0591C127.318 36.1175 128.171 36.1409 128.918 36.1292C130.741 36.1058 132.348 35.691 133.738 34.8848C135.129 34.0669 136.215 32.8166 136.998 31.1341C137.793 29.4515 138.196 27.2957 138.208 24.6667C138.219 22.1195 137.851 20.0513 137.103 18.4623C136.356 16.8615 135.24 15.693 133.756 14.9569C132.272 14.2091 130.426 13.8352 128.217 13.8352C127.399 13.8352 126.628 13.8586 125.904 13.9053C125.191 13.952 124.537 14.0105 123.941 14.0806V35.8137Z" fill="#667687"/>
<path d="M146.615 38.0221V11.9774H149.524V38.0221H146.615Z" fill="#667687"/>
<path d="M162.768 38.0221V14.2208H154.356V11.9774H174.231V14.2208H165.713V38.0221H162.768Z" fill="#667687"/>
<path d="M185.924 38.3025C184.686 38.3025 183.5 38.209 182.367 38.0221C181.245 37.8468 180.269 37.6365 179.44 37.3911C178.61 37.134 178.026 36.9004 177.687 36.69L178.493 31.6073C178.925 31.8527 179.51 32.1039 180.246 32.3609C180.982 32.618 181.794 32.84 182.682 33.027C183.582 33.2022 184.487 33.2899 185.399 33.2899C186.625 33.2899 187.514 33.1146 188.063 32.7641C188.624 32.4135 188.904 31.8527 188.904 31.0815C188.904 30.5206 188.735 30.0474 188.396 29.6618C188.057 29.2646 187.496 28.8614 186.713 28.4525C185.942 28.0435 184.908 27.5294 183.611 26.9101C182.513 26.3843 181.502 25.7651 180.579 25.0523C179.656 24.3279 178.914 23.4632 178.353 22.4584C177.792 21.4418 177.512 20.2383 177.512 18.8479C177.512 17.656 177.734 16.6161 178.178 15.7281C178.633 14.8284 179.27 14.0806 180.088 13.4847C180.918 12.8888 181.899 12.4448 183.033 12.1527C184.166 11.8489 185.422 11.697 186.801 11.697C188.764 11.697 190.365 11.8781 191.603 12.2403C192.842 12.6025 193.695 12.9238 194.162 13.2043L193.145 18.0767C192.62 17.6677 191.808 17.2938 190.709 16.955C189.623 16.6044 188.507 16.4292 187.362 16.4292C186.544 16.4292 185.872 16.5226 185.346 16.7096C184.82 16.8849 184.429 17.1361 184.172 17.4632C183.915 17.7904 183.786 18.1702 183.786 18.6025C183.786 19.1283 183.938 19.5957 184.242 20.0046C184.557 20.4019 185.042 20.7992 185.697 21.1964C186.363 21.582 187.221 22.0143 188.273 22.4934C189.395 22.9958 190.394 23.51 191.27 24.0358C192.158 24.5616 192.912 25.1341 193.531 25.7534C194.15 26.3726 194.618 27.0796 194.933 27.8741C195.26 28.657 195.424 29.5625 195.424 30.5907C195.424 32.1448 195.056 33.5002 194.32 34.6569C193.595 35.8137 192.526 36.7134 191.112 37.356C189.699 37.987 187.969 38.3025 185.924 38.3025Z" fill="white"/>
<path d="M199.547 38.0221V11.9774H216.022V16.8498H206.032V22.3532H213.744V27.0854H206.032V33.0445H217.039V38.0221H199.547Z" fill="white"/>
<path d="M219.097 25.0523C219.097 22.8439 219.436 20.9102 220.113 19.251C220.791 17.5801 221.737 16.1838 222.953 15.0621C224.168 13.9404 225.582 13.0991 227.194 12.5382C228.807 11.9774 230.547 11.697 232.417 11.697C233.621 11.697 234.625 11.7671 235.432 11.9073C236.25 12.0358 236.951 12.1819 237.535 12.3454C238.131 12.509 238.692 12.6434 239.217 12.7486L238.376 18.3571C238.131 18.1935 237.78 17.9949 237.324 17.7612C236.88 17.5158 236.296 17.3055 235.572 17.1302C234.859 16.9433 233.983 16.8498 232.943 16.8498C231.611 16.8498 230.407 17.1536 229.332 17.7612C228.257 18.3571 227.404 19.2393 226.773 20.4077C226.142 21.5645 225.827 22.9842 225.827 24.6667C225.827 26.3843 226.102 27.8858 226.651 29.1711C227.212 30.4564 228.041 31.4612 229.14 32.1857C230.238 32.8984 231.599 33.2548 233.223 33.2548C233.959 33.2548 234.707 33.1672 235.467 32.9919C236.226 32.805 236.91 32.5829 237.517 32.3259C238.125 32.0688 238.575 31.8176 238.867 31.5722V36.9354C238.423 37.1224 237.897 37.321 237.289 37.5313C236.694 37.7416 235.998 37.9227 235.204 38.0746C234.409 38.2265 233.504 38.3025 232.487 38.3025C229.613 38.3025 227.177 37.7592 225.178 36.6725C223.192 35.5859 221.679 34.0493 220.639 32.063C219.611 30.0766 219.097 27.7397 219.097 25.0523Z" fill="white"/>
<path fill-rule="evenodd" clip-rule="evenodd" d="M36.3307 8.15427C35.4246 7.59802 34.2817 7.60213 33.3796 8.16486L15.3876 19.3876C14.0735 20.2072 13.6727 21.937 14.4924 23.251C15.3121 24.5651 17.0418 24.9659 18.3559 24.1462L34.8755 13.8419L37.7912 15.6316V34.2205L21.898 43.9078L20.1863 42.8545C18.8673 42.0429 17.1401 42.4541 16.3284 43.7731C15.5167 45.0921 15.9279 46.8194 17.2469 47.6311L20.4212 49.5845C21.3189 50.1369 22.4505 50.1393 23.3505 49.5908L42.055 38.1899C42.8901 37.6809 43.3997 36.7735 43.3997 35.7954V14.0625C43.3997 13.0876 42.8934 12.1826 42.0625 11.6726L36.3307 8.15427Z" fill="#06C2A1"/>
<path fill-rule="evenodd" clip-rule="evenodd" d="M8.82404 42.4468C9.73033 43.0036 10.8736 42.9997 11.7761 42.4368L29.768 31.2141C31.0821 30.3944 31.4829 28.6647 30.6632 27.3506C29.8435 26.0365 28.1138 25.6357 26.7997 26.4554L10.2806 36.7594L6.3912 34.37L6.3912 15.7805L22.2844 6.09318L23.996 7.14647C25.315 7.95817 27.0423 7.54691 27.854 6.2279C28.6657 4.90889 28.2545 3.1816 26.9354 2.36991L23.7611 0.416487C22.8635 -0.135912 21.7319 -0.138319 20.8319 0.41025L2.1274 11.8111C1.29225 12.3202 0.782651 13.2276 0.782651 14.2056L0.782653 35.9384C0.782653 36.913 1.28865 37.8177 2.11906 38.3278L8.82404 42.4468Z" fill="white"/>
</svg>
