<svg width="475" height="399" viewBox="0 0 475 399" fill="none" xmlns="http://www.w3.org/2000/svg">
<path opacity="0.66" d="M109.714 169.418L109.709 169.28C109.692 168.77 109.272 168.608 108.771 168.921L65.2934 195.994C64.7929 196.306 64.4009 196.974 64.418 197.484L64.4225 197.622C64.4396 198.132 64.8598 198.294 65.3606 197.981L108.838 170.908C109.339 170.595 109.731 169.929 109.714 169.418Z" fill="url(#paint0_linear_438_3769)"/>
<path opacity="0.66" d="M126.669 202.467L126.664 202.329C126.647 201.819 126.227 201.657 125.726 201.97L82.2488 229.043C81.7483 229.355 81.3562 230.023 81.3733 230.533L81.3779 230.671C81.395 231.181 81.8151 231.343 82.316 231.031L125.793 203.957C126.294 203.644 126.687 202.978 126.669 202.467Z" fill="url(#paint1_linear_438_3769)"/>
<path opacity="0.66" d="M167.822 268.808L167.814 268.55C167.782 267.595 166.996 267.293 166.06 267.878L84.7673 318.498C83.8315 319.082 83.0984 320.33 83.1304 321.285L83.1389 321.542C83.1709 322.497 83.9564 322.799 84.893 322.214L166.185 271.594C167.122 271.009 167.856 269.763 167.822 268.808Z" fill="url(#paint2_linear_438_3769)"/>
<path opacity="0.66" d="M279.064 275.792L279.055 275.535C279.024 274.585 278.242 274.284 277.309 274.866L196.377 325.263C195.445 325.844 194.715 327.087 194.747 328.037L194.756 328.293C194.788 329.243 195.57 329.545 196.502 328.962L277.434 278.566C278.367 277.984 279.097 276.743 279.064 275.792Z" fill="url(#paint3_linear_438_3769)"/>
<path opacity="0.66" d="M379.152 199.141L379.146 198.971C379.125 198.342 378.607 198.143 377.991 198.528L324.448 231.869C323.832 232.253 323.349 233.076 323.37 233.704L323.376 233.874C323.397 234.502 323.914 234.702 324.531 234.316L378.073 200.976C378.69 200.59 379.174 199.77 379.152 199.141Z" fill="url(#paint4_linear_438_3769)"/>
<path opacity="0.66" d="M159.343 236.736L159.337 236.567C159.316 235.938 158.798 235.739 158.182 236.124L104.639 269.465C104.023 269.849 103.54 270.671 103.561 271.3L103.567 271.47C103.588 272.098 104.105 272.297 104.722 271.912L158.264 238.571C158.881 238.186 159.365 237.365 159.343 236.736Z" fill="url(#paint5_linear_438_3769)"/>
<path opacity="0.66" d="M174.709 140.704L174.704 140.534C174.683 139.905 174.165 139.706 173.548 140.091L120.006 173.432C119.39 173.816 118.907 174.639 118.928 175.267L118.934 175.437C118.955 176.066 119.472 176.265 120.089 175.88L173.631 142.539C174.248 142.154 174.731 141.333 174.709 140.704Z" fill="url(#paint6_linear_438_3769)"/>
<path opacity="0.66" d="M323.766 277.764L323.76 277.595C323.739 276.966 323.222 276.767 322.605 277.152L269.063 310.493C268.446 310.877 267.963 311.699 267.984 312.328L267.99 312.498C268.011 313.126 268.529 313.326 269.145 312.94L322.688 279.6C323.305 279.214 323.788 278.393 323.766 277.764Z" fill="url(#paint7_linear_438_3769)"/>
<path opacity="0.66" d="M191.116 291.785L191.111 291.647C191.094 291.137 190.674 290.975 190.173 291.288L146.696 318.361C146.195 318.673 145.803 319.341 145.82 319.851L145.825 319.989C145.842 320.499 146.262 320.661 146.763 320.348L190.24 293.275C190.741 292.962 191.134 292.296 191.116 291.785Z" fill="url(#paint8_linear_438_3769)"/>
<path d="M226.541 114.878V137.57L214.32 144.617L197.639 142.04L193.169 132.605V111.549L204.81 120.803L226.541 114.878Z" fill="url(#paint9_linear_438_3769)" fill-opacity="0.5"/>
<path d="M193.169 48.0477L205.38 41.0005L222.071 43.5778L226.541 53.2119L214.32 60.2687L197.639 57.6818L193.169 48.0477Z" fill="url(#paint10_linear_438_3769)"/>
<path d="M197.639 57.6818V122.41L214.32 124.987V60.2687L197.639 57.6818Z" fill="#CBE1E8"/>
<path d="M193.169 48.0477V112.776L197.639 122.41V57.6818L193.169 48.0477Z" fill="url(#paint11_linear_438_3769)"/>
<path d="M226.541 53.2119V117.94L214.32 124.987V60.2686L226.541 53.2119Z" fill="url(#paint12_linear_438_3769)"/>
<path d="M255.955 113.628V143.028L243.743 150.086L227.052 147.505L222.582 138.057V116.97L236.258 125.714L255.955 113.628Z" fill="url(#paint13_linear_438_3769)" fill-opacity="0.5"/>
<path d="M222.582 66.7214L234.803 59.6641L251.485 62.2451L255.955 71.893L243.743 78.9504L227.052 76.3693L222.582 66.7214Z" fill="url(#paint14_linear_438_3769)"/>
<path d="M227.052 76.3693V127.847L243.743 130.428V78.9503L227.052 76.3693Z" fill="#CBE1E8"/>
<path d="M222.582 66.7215V118.199L227.052 127.847V76.3694L222.582 66.7215Z" fill="url(#paint15_linear_438_3769)"/>
<path d="M255.955 71.893V123.361L243.743 130.428V78.9503L255.955 71.893Z" fill="url(#paint16_linear_438_3769)"/>
<path d="M285.368 121.69V151.048L273.156 158.105L256.475 155.518L252.005 146.084V125.037L266.1 133.768L285.368 121.69Z" fill="url(#paint17_linear_438_3769)" fill-opacity="0.5"/>
<path d="M252.005 90.0864L264.217 83.0297L280.898 85.6165L285.368 95.2411L273.156 102.298L256.475 99.711L252.005 90.0864Z" fill="url(#paint18_linear_438_3769)"/>
<path d="M256.475 99.7111V135.889L273.156 138.476V102.298L256.475 99.7111Z" fill="#CBE1E8"/>
<path d="M252.005 90.0864V126.255L256.475 135.889V99.711L252.005 90.0864Z" fill="url(#paint19_linear_438_3769)"/>
<path d="M285.368 95.2411V131.419L273.156 138.476V102.298L285.368 95.2411Z" fill="url(#paint20_linear_438_3769)"/>
<path d="M314.781 137.343V159.084L302.57 166.131L285.888 163.554L281.419 154.119V133.063L298.1 140.32L314.781 137.343Z" fill="url(#paint21_linear_438_3769)" fill-opacity="0.5"/>
<path d="M281.419 111.314L293.63 104.257L310.311 106.835L314.781 116.469L302.57 123.526L285.888 120.939L281.419 111.314Z" fill="url(#paint22_linear_438_3769)"/>
<path d="M285.888 120.939V143.924L302.57 146.502V123.526L285.888 120.939Z" fill="#CBE1E8"/>
<path d="M281.419 111.314V134.29L285.888 143.924V120.939L281.419 111.314Z" fill="url(#paint23_linear_438_3769)"/>
<path d="M314.781 116.469V139.454L302.57 146.502V123.526L314.781 116.469Z" fill="url(#paint24_linear_438_3769)"/>
<path d="M344.204 137.534V166.893L331.983 173.94L315.302 171.363L310.832 161.928V140.872L330.081 149.184L344.204 137.534Z" fill="url(#paint25_linear_438_3769)" fill-opacity="0.5"/>
<path d="M310.832 129.707L323.043 122.66L339.734 125.237L344.204 134.871L331.983 141.928L315.302 139.341L310.832 129.707Z" fill="url(#paint26_linear_438_3769)"/>
<path d="M315.302 139.341V151.733L331.983 154.31V141.928L315.302 139.341Z" fill="#CBE1E8"/>
<path d="M310.832 129.707V142.099L315.302 151.733V139.341L310.832 129.707Z" fill="url(#paint27_linear_438_3769)"/>
<path d="M344.204 134.871V147.254L331.983 154.31V141.928L344.204 134.871Z" fill="url(#paint28_linear_438_3769)"/>
<path d="M281.419 92.424L293.63 85.3767L310.311 87.9541L314.781 97.5882L302.57 104.635L285.888 102.058L281.419 92.424Z" fill="url(#paint29_linear_438_3769)"/>
<path d="M285.888 102.058V109.685L302.57 112.263V104.635L285.888 102.058Z" fill="#CBE1E8"/>
<path d="M281.419 92.424V100.051L285.888 109.685V102.058L281.419 92.424Z" fill="url(#paint30_linear_438_3769)"/>
<path d="M314.781 97.5881V105.215L302.57 112.263V104.635L314.781 97.5881Z" fill="url(#paint31_linear_438_3769)"/>
<g filter="url(#filter0_d_438_3769)">
<path d="M246.292 183.652L246.374 183.226L246.327 183.238L246.234 183.676L246.292 183.652Z" fill="#855C43"/>
<path d="M250.852 197.764C250.852 197.764 249.528 197.917 248.268 197.851C247.008 197.786 243.553 198.058 243.553 199.149C243.553 200.239 245.211 201.929 247.396 202.355C249.592 202.78 252.488 202.496 253.931 202.66C255.373 202.823 256.493 201.668 256.062 200.414C255.621 199.16 250.852 197.764 250.852 197.764Z" fill="#242A32"/>
<path d="M258.732 195.496C258.732 195.496 259.141 196.205 258.861 196.586C258.581 196.968 257.839 197.927 255.89 196.772C253.941 195.616 250.109 193.86 250.109 193.86C250.109 193.86 247.924 192.606 248.15 191.374C248.376 190.142 250.475 190.513 250.475 190.513L258.732 195.496Z" fill="#242A32"/>
<path d="M246.761 176.076C246.761 176.076 246.998 184.712 248.634 188.026C250.281 191.341 250.292 197.022 250.583 198.113C250.873 199.203 251.939 200.817 253.812 201.308C255.685 201.798 256.105 200.73 256.084 200.065C256.062 199.4 255.642 198.276 255.707 197.557C255.772 196.837 256.008 196.51 256.073 196.183C256.073 196.183 258.215 196.935 258.721 195.496C258.721 195.496 258.592 195.049 258.581 194.831C258.581 194.613 259.41 189.204 259.539 188.55C259.669 187.885 259.669 184.199 259.238 182.324C258.807 180.448 259.443 176.523 259.443 176.523L252.908 175.105L246.75 176.086L246.761 176.076Z" fill="#3A495E"/>
<path d="M259.238 182.313C258.807 180.426 259.443 176.512 259.443 176.512L258.872 176.392C258.786 176.937 258.28 180.383 258.678 182.116C259.109 184.003 259.109 187.688 258.98 188.343C258.851 189.008 258.022 194.405 258.022 194.624C258.022 194.842 258.162 195.289 258.162 195.289C257.666 196.728 255.513 195.976 255.513 195.976C255.449 196.303 255.212 196.63 255.147 197.35C255.083 198.069 255.492 199.192 255.524 199.858C255.546 200.523 255.115 201.591 253.252 201.101C253.199 201.09 253.145 201.057 253.091 201.046C253.317 201.155 253.554 201.242 253.812 201.308C255.685 201.798 256.105 200.73 256.084 200.065C256.062 199.4 255.642 198.276 255.707 197.557C255.772 196.837 256.019 196.445 256.084 196.117C256.084 196.117 258.226 196.935 258.721 195.496C258.721 195.496 258.592 195.049 258.581 194.831C258.581 194.613 259.41 189.204 259.539 188.55C259.669 187.885 259.669 184.199 259.238 182.324V182.313Z" fill="#506273"/>
<path d="M257.429 176.97C257.429 176.97 257.257 178.322 256.514 179.401C256.514 179.401 256.062 183.927 255.309 186.14C255.309 186.14 255.685 190.665 256.062 192.094C256.439 193.522 256.084 196.183 256.084 196.183C256.084 196.183 256.331 196.281 256.687 196.325C257.042 196.368 257.645 191.058 257.193 190.066C256.73 189.062 256.762 184.744 257.106 183.436C257.462 182.127 257.795 178.289 258.151 177.624C258.506 176.959 257.903 176.544 257.903 176.544L257.429 176.981V176.97Z" fill="#242A32"/>
<path d="M254.964 142.295C254.964 142.295 252.757 143.57 252.65 146.089L254.211 145.904C254.211 145.904 253.995 143.08 254.964 142.295Z" fill="#242A32"/>
<path d="M252.445 178.431C256.784 178.932 259.324 177.417 259.324 177.417C259.389 176.871 259.453 176.512 259.453 176.512L252.919 175.094L246.761 176.075C246.761 176.075 246.804 177.809 247.008 180.023C248.063 180.219 249.302 177.973 249.302 177.973L252.273 178.409C252.273 178.409 248.107 177.94 252.445 178.442V178.431Z" fill="#303F52"/>
<path d="M247.59 176.283C247.59 176.283 256.74 180.579 262.059 174.385C262.209 174.211 262.295 173.982 262.317 173.742L262.435 172.161C262.446 171.954 262.511 171.757 262.597 171.583C262.791 171.19 262.877 170.754 262.844 170.318C262.683 168.497 262.263 163.459 262.177 162.042C262.08 160.297 263.856 153.384 265.891 150.429C267.926 147.474 264.427 139.939 264.427 139.939C264.427 139.939 263.544 138.14 261.38 138.543C261.38 138.543 263.232 140.092 261.983 141.444C260.734 142.785 257.365 143.647 257.365 143.647C257.365 143.647 251.099 146.133 248.774 149.578C248.774 149.578 247.934 151.378 247.697 153.7C247.461 156.023 247.31 161.54 247.159 162.282C246.998 163.023 246.319 168.061 246.33 168.301C246.341 168.541 247.59 176.304 247.59 176.304V176.283Z" fill="#323D4D"/>
<path d="M250.41 177.242C250.41 177.242 257.408 163.721 257.677 158.367C257.935 153.013 248.3 168.028 248.3 168.028L247.601 176.272C247.601 176.272 249.345 177.024 250.421 177.242H250.41Z" fill="#242A32"/>
<path d="M262.597 170.187C262.511 170.373 262.446 170.569 262.435 170.765L262.317 172.346C262.295 172.586 262.209 172.815 262.059 172.99C256.74 179.183 247.59 174.887 247.59 174.887C247.59 174.887 246.696 169.304 246.416 167.461C246.363 167.897 246.33 168.203 246.33 168.257C246.341 168.497 247.59 176.261 247.59 176.261C247.59 176.261 256.74 180.557 262.059 174.364C262.209 174.189 262.295 173.96 262.317 173.72L262.435 172.139C262.446 171.932 262.511 171.736 262.597 171.561C262.791 171.169 262.877 170.733 262.844 170.296C262.823 170.111 262.812 169.882 262.791 169.631C262.748 169.817 262.694 170.002 262.608 170.176L262.597 170.187Z" fill="#506273"/>
<path d="M251.043 185.355C250.979 185.148 250.882 184.962 250.742 184.842L240.751 175.966C240.482 175.726 240.202 175.868 240.116 176.272L238.329 185.366C238.254 185.78 238.404 186.303 238.674 186.543L246.888 193.838L246.392 196.292L249.041 195.507C249.159 195.452 249.256 195.31 249.299 195.103L251.086 186.009C251.129 185.802 251.108 185.562 251.043 185.355Z" fill="#506273"/>
<path d="M237.78 176.631L240.364 175.868L240.45 175.846C240.547 175.835 240.644 175.868 240.751 175.955L250.742 184.831C250.871 184.951 250.979 185.137 251.043 185.344L250.656 185.475L248.449 186.194L239.718 178.365L237.791 176.642L237.78 176.631Z" fill="#323D4D"/>
<path d="M236.058 187.307L246.048 196.183C246.317 196.422 246.597 196.281 246.683 195.877L248.47 186.783C248.546 186.369 248.395 185.845 248.126 185.606L238.135 176.73C237.866 176.49 237.586 176.631 237.5 177.035L235.713 186.129C235.638 186.543 235.788 187.067 236.058 187.307Z" fill="#3A495E"/>
<path d="M248.018 195.463L249.805 186.369C249.88 185.954 249.73 185.431 249.461 185.191L239.47 176.315C239.384 176.239 239.298 176.206 239.223 176.195C239.33 176.163 239.449 176.195 239.556 176.304L249.547 185.18C249.816 185.42 249.967 185.944 249.891 186.358L248.104 195.452C248.05 195.736 247.9 195.899 247.727 195.888C247.867 195.855 247.964 195.692 248.018 195.463Z" fill="#242A32"/>
<path d="M245.549 181.45L246.167 181.238C246.307 181.19 246.436 181.179 246.541 181.214H246.587C246.646 181.25 246.669 181.309 246.657 181.38L246.634 181.474L244.895 182.077L244.918 181.982C244.93 181.9 244.988 181.817 245.058 181.746L245.117 181.699C245.257 181.581 245.397 181.498 245.537 181.45H245.549Z" fill="#242A32"/>
<path d="M245.665 182.751L244.907 182.077L246.657 181.261L247.404 181.923L245.665 182.751Z" fill="#242A32"/>
<path d="M246.319 182.124L246.938 181.912C247.078 181.864 247.206 181.852 247.311 181.888H247.358C247.416 181.923 247.439 181.982 247.428 182.065L247.404 182.16L245.665 182.763L245.689 182.668C245.7 182.585 245.759 182.503 245.829 182.432L245.887 182.384C246.027 182.266 246.167 182.183 246.307 182.136L246.319 182.124Z" fill="#506273"/>
<path d="M246.739 181.982L245.957 181.309L245.91 181.32L246.692 181.994L246.739 181.982Z" fill="#855C43"/>
<path d="M242.094 178.377L242.713 178.164C242.853 178.117 242.981 178.105 243.086 178.141H243.133C243.191 178.176 243.214 178.235 243.203 178.306L243.179 178.401L241.44 179.003L241.464 178.909C241.475 178.826 241.534 178.743 241.616 178.672L241.674 178.625C241.814 178.507 241.954 178.424 242.094 178.377Z" fill="#242A32"/>
<path d="M242.211 179.689L241.452 179.003L243.191 178.2L243.95 178.862L242.211 179.689Z" fill="#242A32"/>
<path d="M242.864 179.063L243.483 178.85C243.623 178.803 243.751 178.791 243.856 178.826H243.903C243.961 178.862 243.985 178.921 243.973 178.992L243.95 179.086L242.211 179.689L242.234 179.595C242.246 179.512 242.304 179.429 242.386 179.358L242.444 179.311C242.584 179.193 242.724 179.11 242.864 179.063Z" fill="#506273"/>
<path d="M243.203 179.346L243.284 178.909L243.226 178.933L243.144 179.37L243.203 179.346Z" fill="#855C43"/>
<path d="M243.285 178.909L242.503 178.247L242.456 178.259L243.226 178.933L243.285 178.909Z" fill="#855C43"/>
<path d="M247.229 179.914L246.867 181.758L246.354 181.309L246.704 179.512C246.751 179.252 246.634 178.897 246.436 178.72L244.218 176.746C244.02 176.568 243.821 176.639 243.763 176.899L243.413 178.696L242.899 178.247L243.261 176.403C243.378 175.824 243.821 175.67 244.265 176.06L246.634 178.164C247.078 178.554 247.334 179.346 247.218 179.926L247.229 179.914Z" fill="#323D4D"/>
<path d="M243.401 176.545H244.382L247.007 179.134V180.576L246.867 181.758L246.226 181.982L246.319 180.493L246.366 179.465L245.84 178.673C245.84 178.673 244.848 177.821 244.837 177.798C244.825 177.774 243.401 176.533 243.401 176.533V176.545Z" fill="#323D4D"/>
<path d="M242.771 178.909L243.413 178.696L243.67 177.372L243.074 177.36L242.888 177.372L242.771 178.909Z" fill="#323D4D"/>
<path d="M242.981 176.084L243.681 175.847L243.471 176.166L243.249 176.214L242.981 176.084Z" fill="#323D4D"/>
<path d="M246.587 180.138L246.226 181.982L245.712 181.533L246.062 179.736C246.109 179.476 245.992 179.122 245.794 178.944L243.576 176.97C243.378 176.793 243.179 176.864 243.121 177.124L242.771 178.921L242.257 178.471L242.619 176.627C242.736 176.048 243.179 175.894 243.623 176.285L245.992 178.389C246.436 178.779 246.692 179.571 246.576 180.15L246.587 180.138Z" fill="#242A32"/>
<path d="M244.311 175.138C244.311 175.138 243.775 176.958 243.856 177.443C243.938 177.916 244.86 178.897 245.432 179.11C246.015 179.323 245.817 178.672 245.98 178.282C246.144 177.892 246.19 177.029 246.19 177.029L244.311 175.138Z" fill="#E2C2B8"/>
<path d="M246.191 177.029L244.312 175.138C244.312 175.138 244.206 175.516 244.09 175.965C244.09 175.965 244.732 177.408 246.05 178.081C246.156 177.656 246.191 177.029 246.191 177.029Z" fill="#E3C092"/>
<path d="M244.148 175.268C244.148 175.268 244.72 177.337 246.482 177.68L246.039 175.433C246.039 175.433 244.557 174.913 244.51 174.902C244.463 174.902 244.148 175.256 244.148 175.256V175.268Z" fill="#283240"/>
<path d="M265.891 149.033C263.856 151.988 262.08 158.912 262.177 160.646C262.177 160.81 262.199 161.017 262.22 161.257C262.489 158.782 264.083 153.046 265.891 150.418C266.462 149.589 266.591 148.412 266.494 147.136C266.429 147.867 266.246 148.521 265.891 149.033Z" fill="#506273"/>
<path d="M248.72 160.286C249.022 159.098 249.248 157.898 249.355 156.677C249.549 154.54 250.486 150.996 254.566 151.999C260.304 153.406 257.063 160.81 256.299 162.053C255.545 163.307 252.531 168.868 252.38 169.173C252.23 169.468 247.805 176.108 246.319 177.624C246.179 177.766 245.964 177.766 245.824 177.635C245.307 177.166 244.145 176.054 244.026 175.399C243.876 174.56 244.888 171.616 244.888 171.616C244.888 171.616 247.654 164.081 247.87 163.732C248.031 163.47 248.225 162.173 248.72 160.275V160.286Z" fill="#3A495D"/>
<path d="M255.05 142.48C255.05 142.48 254.673 141.379 253.586 141.171C252.499 140.964 251.896 140.615 251.821 140.201C251.745 139.787 251.778 139.307 251.562 138.685C251.347 138.064 251.239 136.57 251.25 136.537C251.25 136.504 250.432 136.177 250.421 135.807C250.41 135.436 250.949 134.16 250.916 134.051C250.873 133.942 250.486 133.091 250.593 132.459C250.701 131.827 250.862 130.911 251.261 130.158C251.659 129.406 254.469 124.782 260.487 127.836C266.516 130.889 261.197 135.687 261.466 139.056C261.466 139.056 261.94 139.797 260.821 140.877C259.701 141.956 256.783 141.956 255.05 142.469V142.48Z" fill="#E2C2B8"/>
<path d="M260.81 140.899C261.929 139.819 261.456 139.078 261.456 139.078C261.423 138.609 261.488 138.118 261.617 137.606L259.152 137.846C259.152 137.846 255.868 134.378 255.976 136.09C256.073 137.802 255.179 138.02 255.179 138.02L255.825 139.001C255.987 139.252 255.858 139.514 255.675 139.765C254.512 141.379 252.1 140.648 252.1 140.648C252.391 140.866 252.876 141.062 253.565 141.193C254.652 141.4 255.029 142.502 255.029 142.502C256.751 141.989 259.669 141.989 260.799 140.91L260.81 140.899Z" fill="#C2A69D"/>
<path d="M251.132 128.326C251.132 128.326 250.593 129.569 251.25 130.169C251.907 130.769 252.499 131.336 252.499 131.336L252.359 132.939C252.337 133.168 252.391 133.397 252.499 133.604L253.263 135.021C253.414 135.294 253.479 135.61 253.446 135.916L253.392 136.559C253.382 136.744 253.5 136.919 253.683 136.951L253.909 136.995C254.114 137.039 254.307 136.908 254.34 136.701L254.512 135.817C254.512 135.817 255.029 135.141 255.965 136.09L256.837 136.537C257.085 136.657 257.257 136.886 257.333 137.148C257.516 137.856 257.925 139.252 258.312 139.514C258.829 139.863 261.036 138.98 261.37 138.533C261.703 138.085 262.748 134.956 263.361 133.451C263.975 131.946 264.126 128.075 259.572 126.669C255.018 125.262 251.864 126.985 251.121 128.337L251.132 128.326Z" fill="#855C44"/>
<path d="M261.38 138.522C261.714 138.075 262.758 134.945 263.372 133.44C263.372 133.44 261.477 134.454 259.141 134.607C256.805 134.749 252.467 131.761 252.467 131.761L252.37 132.939C252.348 133.168 252.402 133.397 252.51 133.604L253.274 135.021C253.425 135.294 253.489 135.61 253.457 135.916L253.403 136.559C253.392 136.744 253.511 136.919 253.694 136.951L253.92 136.995C254.124 137.039 254.318 136.908 254.35 136.701L254.523 135.817C254.523 135.817 255.039 135.141 255.976 136.09L257.236 136.733C257.236 136.733 257.806 139.154 258.312 139.503C258.818 139.852 261.036 138.969 261.37 138.522H261.38Z" fill="#7A533B"/>
<path d="M261.456 138.685C261.456 138.685 263.103 139.906 262.069 141.335C261.036 142.763 254.458 144.846 254.114 145.217C254.114 145.217 254.06 142.981 254.964 142.294C254.964 142.294 259.906 141.804 260.788 140.648C261.671 139.503 261.456 138.685 261.456 138.685Z" fill="#F0F6FF"/>
<path d="M261.456 138.685C261.456 138.685 261.671 139.503 260.788 140.648C260.121 141.52 257.128 142.011 255.707 142.196C255.707 142.196 256.191 142.524 256.923 144.028C258.969 143.221 261.456 142.164 262.069 141.324C263.103 139.896 261.456 138.674 261.456 138.674V138.685Z" fill="#C4CCD6"/>
<path d="M257.01 153.449C258.151 158.215 253.511 164.866 252.768 166.818C252.025 168.77 245.426 177.275 245.426 177.275C245.394 177.329 245.361 177.362 245.361 177.362C245.48 177.46 245.62 177.558 245.727 177.624C245.878 177.689 245.813 177.678 245.986 177.733C246.104 177.766 246.233 177.733 246.33 177.635C247.816 176.119 252.24 169.478 252.391 169.184C252.553 168.868 255.556 163.307 256.31 162.064C256.913 161.06 259.12 156.099 257.01 153.449Z" fill="#506273"/>
<path d="M228.618 175.213L228.657 175.414L228.717 175.283C228.717 175.283 229.014 176.295 228.756 176.807C228.499 177.318 228.133 177.939 227.599 178.651C227.064 179.362 226.213 180.835 225.996 181.116C225.778 181.396 224.472 182.499 222.849 182.669C221.227 182.84 220.811 181.898 220.95 181.386C221.088 180.875 221.959 179.522 222.909 178.43C223.859 177.338 224.591 175.915 224.591 175.915L228.628 175.223L228.618 175.213Z" fill="#242A32"/>
<path d="M223.74 170.743C223.74 170.743 223.789 171.796 223.681 172.237C223.572 172.678 221.187 172.808 220.336 172.918C219.485 173.028 218.011 173.64 217.546 173.87C217.081 174.101 213.984 174.431 213.608 173.279C213.232 172.126 215.162 171.154 216.478 170.844C217.794 170.533 219.931 169.871 219.931 169.871L223.74 170.743Z" fill="#242A32"/>
<path d="M232.012 149.848C232.012 149.848 232.091 152.805 231.121 156.893C230.151 160.982 230.26 163.838 230.26 163.838C230.26 163.838 231.279 168.458 230.379 171.615C229.479 174.772 228.717 175.654 228.717 175.654C228.717 175.654 226.926 178.059 224.571 175.905C224.571 175.905 225.897 171.575 226.045 168.118C226.045 168.118 224.878 165.582 224.482 163.327C224.482 163.327 224.146 166.925 223.948 168.368C223.948 168.368 224.146 170.503 223.592 171.365C223.028 172.227 220.504 172.477 219.693 170.984C218.882 169.491 220.366 170.222 219.921 163.327C219.921 163.327 217.596 160.381 217.259 154.969C216.923 149.558 216.952 147.413 217.259 146.361C217.566 145.308 222.721 141.5 222.721 141.5L225.63 145.268L232.002 149.848H232.012Z" fill="#3A495E"/>
<path d="M220.524 155.881C219.683 154.859 219.208 151.662 219.208 151.662C219.208 151.662 220.524 154.348 221.464 155.13C222.404 155.911 223.216 157.475 223.384 158.497C223.552 159.519 224.502 163.307 224.502 163.307C224.502 163.307 224.165 166.905 223.967 168.348C223.967 168.348 224.165 170.483 223.611 171.345C223.502 171.515 223.305 171.665 223.057 171.786C223.057 171.746 223.196 167.025 223.057 165.031C222.919 163.027 221.365 156.893 220.524 155.871V155.881Z" fill="#303F52"/>
<path d="M223.127 117.699C223.127 117.699 219.683 118.991 218.506 118.55C217.328 118.11 214.439 117.729 212.461 116.606C210.482 115.484 201.824 113.219 200.538 113.139C200.538 113.139 200.518 113.189 200.726 113.279C200.944 113.369 201.834 113.449 202.072 114.472C202.309 115.494 201.785 116.717 201.636 116.807C201.488 116.897 201.409 116.526 200.578 116.145C199.746 115.764 199.242 115.785 199.242 115.785L198.925 116.185L198.737 116.476C198.737 116.476 199.143 117.709 200.251 117.799C201.359 117.889 208.483 120.896 208.928 121.036C209.374 121.176 215.36 123.782 216.478 124.193C217.596 124.604 218.466 125.125 218.466 125.125C218.466 125.125 221.959 122.77 222.078 122.77C222.196 122.77 223.127 117.709 223.127 117.709V117.699Z" fill="#3A495E"/>
<path d="M191.979 111.676C192.128 111.706 193.929 112.327 193.929 112.327C193.929 112.327 193.216 112.698 193.147 113.029C193.078 113.359 193.295 115.203 193.365 115.324C193.434 115.434 193.8 115.684 193.909 115.754C194.018 115.825 194.305 116.456 194.562 116.376C194.819 116.296 194.898 115.965 194.898 115.965C194.898 115.965 195.096 115.865 195.165 115.825C195.225 115.785 196.511 115.905 196.936 116.185C197.362 116.466 198.332 116.606 198.737 116.486C199.143 116.366 199.727 116.065 199.855 115.995C199.855 115.995 200.301 116.065 200.548 116.195C200.795 116.326 201.577 116.857 201.696 116.907C201.814 116.957 203.417 113.76 200.548 113.159C200.548 113.159 199.351 113.049 198.836 112.798C198.322 112.548 196.867 111.415 196.323 111.395C195.789 111.375 195.235 111.555 195.235 111.555C195.235 111.555 191.989 110.613 191.722 110.904C191.455 111.195 191.841 111.656 191.989 111.686L191.979 111.676ZM194.334 113.86C194.72 113.87 194.987 113.459 194.987 113.459C195.235 113.63 195.492 113.419 195.492 113.419C195.492 113.48 195.937 113.56 195.937 113.56C195.937 113.56 196.135 113.73 196.392 113.92C196.64 114.111 196.303 114.662 196.303 114.662C196.056 114.682 195.779 114.562 195.531 114.442C195.284 114.321 195.076 114.341 194.918 114.271C194.75 114.211 194.334 113.85 194.334 113.85V113.86Z" fill="#E2C2B8"/>
<path d="M233.238 120.445L234.149 122.8C234.149 122.8 238.522 126.628 239.779 128.011C239.779 128.011 237.622 132.21 237.216 136.63C237.216 136.63 235.217 138.283 234.614 139.045C234.01 139.806 232.477 143.324 231.992 144.477C231.507 145.629 232.862 149.127 232.862 149.127C232.862 149.127 231.002 152.604 228.014 152.494C225.026 152.384 222.988 150.53 222.602 147.243C222.216 143.955 222.335 143.474 222.335 143.474C222.335 143.474 220.989 147.513 218.951 147.513C216.913 147.513 213.678 144.006 213.678 144.006C213.678 144.006 211.491 142.001 211.699 141.089C211.897 140.177 216.844 132.33 217.111 131.037C217.378 129.745 218.486 125.115 218.486 125.115L223.136 117.699L225.976 117.839L233.248 120.445H233.238Z" fill="#323D4D"/>
<path d="M233.238 120.445C233.238 120.445 233.258 121.848 232.714 123.251C232.17 124.644 230.369 132.511 226.303 135.197L224.739 136.199V131.198C224.739 131.198 224.769 128.121 225.462 126.167C226.154 124.213 226.134 121.838 226.134 121.838C226.134 121.838 227.272 121.517 227.272 121.547C227.272 121.567 233.228 120.455 233.228 120.455L233.238 120.445Z" fill="#F0F6FF"/>
<path d="M228.222 124.092C228.222 124.092 227.5 124.393 227.193 123.912C226.886 123.431 226.56 122.479 226.649 122.028C226.649 122.028 224.729 122.128 224.344 121.106C223.968 120.084 224.373 119.823 224.442 119.503C224.502 119.182 224.561 118.35 224.818 117.749L224.848 117.488C224.848 117.488 224.452 117.147 224.63 116.787C224.809 116.426 225.857 115.314 225.966 115.133C226.075 114.943 225.936 113.57 226.352 112.878C226.758 112.197 227.549 111.235 227.549 111.235C227.549 111.235 231.645 107.998 234.871 111.235C238.097 114.472 233.238 120.435 233.238 120.435C233.238 120.435 232.853 122.359 231.913 123.13C230.973 123.892 228.232 124.092 228.232 124.092H228.222Z" fill="#E2C2B8"/>
<path d="M231.22 116.205C231.22 116.085 231.23 115.965 231.269 115.855C231.388 115.504 231.596 114.542 230.607 113.82C229.37 112.908 227.203 112.097 227.272 111.185C227.341 110.273 230.765 108.028 233.298 109.23C235.831 110.433 238.205 113.47 236.474 116.697C234.752 119.923 233.229 120.445 233.229 120.445C233.229 120.445 232.714 120.334 233.179 119.803C233.644 119.272 234.485 117.919 233.783 117.488C233.09 117.067 231.873 117.979 231.715 118.19C231.655 118.27 231.586 118.37 231.537 118.46C231.448 118.611 231.26 118.671 231.101 118.601L231.042 118.571C230.884 118.49 230.804 118.31 230.864 118.14L231.171 117.308C231.22 117.188 231.24 117.047 231.24 116.917V116.215L231.22 116.205Z" fill="#855C44"/>
<path d="M228.331 125.004C228.331 125.004 229.241 125.666 229.785 126.919C229.785 126.919 228.816 125.896 228.252 125.696C228.252 125.696 227.173 126.207 227.173 126.548C227.173 126.889 227.074 128.933 226.817 130.025C226.57 131.128 226.599 134.976 226.599 134.976L225.917 135.427L225.59 133.733L225.719 130.126L226.352 126.838C226.352 126.838 226.471 125.596 226.52 125.526C226.57 125.455 228.331 124.984 228.331 124.984V125.004Z" fill="#C4CCD6"/>
<path d="M228.331 125.004C228.331 125.004 227.292 123.882 226.768 123.862C226.243 123.842 225.956 124.123 225.946 124.193C225.936 124.263 225.442 126.017 225.442 126.017C225.442 126.017 224.462 129.083 224.561 132.661C224.66 136.239 224.749 136.209 224.749 136.209L226.045 135.377C226.045 135.377 225.699 132.821 226.401 129.855C227.104 126.889 226.481 126.448 226.817 126.147C227.153 125.846 228.499 125.375 228.341 125.014L228.331 125.004Z" fill="#3A495E"/>
<path d="M234.604 139.055C234 139.817 232.506 143.324 232.012 144.487C231.932 144.677 231.873 144.928 231.873 145.208C231.754 145.288 231.675 145.338 231.675 145.338L231.022 144.687C231.022 144.687 231.606 142.542 232.546 139.887C233.486 137.231 237.196 136.64 237.196 136.64C237.196 136.64 235.197 138.293 234.594 139.055H234.604Z" fill="#283240"/>
<path d="M233.595 145.609C233.595 145.609 232.526 144.046 232.19 143.835C232.19 143.835 232.269 144.276 231.665 144.547C231.062 144.817 227.896 146.06 227.787 146.21C227.678 146.351 227.787 146.531 227.994 146.581C227.994 146.581 227.341 146.812 227.074 146.802C226.807 146.802 226.451 147.142 226.629 147.433C226.807 147.724 226.956 147.704 226.956 147.704C226.956 147.704 226.876 148.034 227.074 148.104C227.272 148.175 227.737 148.185 227.737 148.185C227.737 148.185 227.638 148.515 227.905 148.646C228.173 148.776 229.449 148.916 229.449 148.916C229.449 148.916 230.448 148.806 230.735 148.806C231.022 148.806 232.328 149.127 232.882 149.046C233.436 148.966 235.267 148.305 235.455 148.195C235.643 148.084 233.595 145.599 233.595 145.599V145.609Z" fill="#E2C2B8"/>
<path d="M201.686 116.897C201.626 116.877 201.389 116.727 201.142 116.566C202.121 115.233 201.043 113.309 201.043 113.299C203.209 114.151 201.795 116.947 201.686 116.897Z" fill="#C2A69D"/>
<path d="M235.455 148.205C235.316 148.285 234.277 148.666 233.515 148.896C233.515 148.896 233.031 146.962 233.14 146.311C233.248 145.659 233.515 145.509 233.515 145.509C233.555 145.569 233.585 145.609 233.585 145.609C233.585 145.609 235.633 148.094 235.445 148.205H235.455Z" fill="#C2A69D"/>
<path d="M233.595 145.519C233.595 145.519 233.268 146.641 234.01 147.503C234.752 148.365 234.841 148.485 234.841 148.485H235.702C235.702 148.485 236.147 147.112 236.078 147.082C236.009 147.052 233.595 145.519 233.595 145.519Z" fill="#283240"/>
<path d="M225.6 125.445C225.6 125.445 224.779 130.366 224.957 132.17C225.145 133.974 225.076 135.928 225.076 135.928L224.818 136.159L224.739 136.209C224.739 136.209 224.66 136.239 224.551 132.661C224.442 129.083 225.432 126.017 225.432 126.017C225.432 126.017 225.501 125.766 225.59 125.445H225.6Z" fill="#3A495E"/>
<path d="M225.323 176.446C225.086 176.315 224.838 176.135 224.581 175.905C224.581 175.905 225.907 171.575 226.055 168.118C226.055 168.118 224.888 165.582 224.492 163.327C224.601 163.778 225.956 166.204 226.57 168.689C227.183 171.174 225.323 176.446 225.323 176.446Z" fill="#242A32"/>
<path d="M231.339 119.653C231.319 119.773 230.963 121.527 230.27 122.349C229.548 123.201 228.994 124.022 228.994 124.022C228.549 124.082 228.232 124.103 228.232 124.103C228.232 124.103 227.51 124.403 227.203 123.922C226.896 123.441 226.57 122.489 226.659 122.038C226.659 122.038 229.251 121.767 230.25 121.066C231.171 120.415 231.339 119.743 231.359 119.653H231.339Z" fill="#C2A69D"/>
<path d="M232.279 143.855C232.279 143.855 232.14 144.156 232.11 144.176C232.081 144.196 232.051 143.945 232.051 143.945L232.17 143.705L232.269 143.855H232.279Z" fill="#1B2B3A"/>
<path d="M222.988 138.283C222.889 138.624 223.057 138.985 223.374 139.075C223.69 139.175 224.027 138.975 224.126 138.634C224.225 138.293 224.057 137.932 223.74 137.842C223.423 137.742 223.087 137.942 222.988 138.283Z" fill="#3A495E"/>
<path d="M222.068 140.809C221.969 141.149 222.137 141.51 222.454 141.6C222.77 141.701 223.107 141.5 223.206 141.159C223.305 140.819 223.136 140.458 222.82 140.368C222.503 140.267 222.167 140.468 222.068 140.809Z" fill="#3A495E"/>
<path d="M231.17 117.298C231.22 117.178 231.24 117.037 231.24 116.907V116.205C231.22 116.085 231.24 115.965 231.279 115.855C231.319 115.754 231.358 115.604 231.368 115.424C231.368 115.424 234.188 117.498 235.979 117.588C234.475 120.024 233.238 120.445 233.238 120.445C233.238 120.445 232.724 120.334 233.189 119.803C233.654 119.272 234.495 117.919 233.792 117.488C233.1 117.067 231.883 117.979 231.725 118.19C231.665 118.27 231.596 118.37 231.546 118.46C231.457 118.611 231.269 118.671 231.111 118.601L231.052 118.571C230.893 118.49 230.814 118.31 230.874 118.14L231.18 117.308L231.17 117.298Z" fill="#7A533B"/>
<path d="M239.769 128.021C239.769 128.021 241.995 132.431 242.222 132.771C242.45 133.112 246.615 138.494 247.021 141.6C247.021 141.6 247.338 142.803 245.903 143.865C244.468 144.928 237.236 149.588 236.79 149.648C236.345 149.718 233.723 148.425 233.614 145.519C233.614 145.519 239.284 142.843 240.511 141.5C240.511 141.5 238.304 137.742 237.226 136.64C236.959 136.359 236.8 135.858 236.711 135.257C236.355 132.791 237.315 130.316 239.126 128.632L239.788 128.021H239.769Z" fill="#3A495D"/>
</g>
<g filter="url(#filter1_ddd_438_3769)">
<path d="M148.3 185.589L213.376 148.033L302.323 161.768L326.144 213.109L261.017 250.715L172.121 236.93L148.3 185.589Z" fill="url(#paint32_linear_438_3769)"/>
<path d="M172.462 236.477L148.946 185.793L213.474 148.554L301.982 162.221L325.498 212.905L260.92 250.194L172.462 236.477Z" stroke="url(#paint33_linear_438_3769)"/>
</g>
<g filter="url(#filter2_d_438_3769)">
<path d="M170.421 182.501L219.953 153.916L287.654 164.37L305.785 203.448L256.214 232.071L188.552 221.579L170.421 182.501Z" fill="url(#paint34_linear_438_3769)" fill-opacity="0.5" shape-rendering="crispEdges"/>
<path d="M188.893 221.126L171.067 182.706L220.05 154.437L287.313 164.824L305.139 203.244L256.117 231.55L188.893 221.126Z" stroke="url(#paint35_linear_438_3769)" shape-rendering="crispEdges"/>
</g>
<g filter="url(#filter3_d_438_3769)">
<path d="M186.354 179.901L224.225 158.045L275.989 166.038L289.852 195.917L251.951 217.802L200.216 209.779L186.354 179.901Z" fill="url(#paint36_linear_438_3769)"/>
<path d="M200.557 209.326L187 180.105L224.323 158.566L275.648 166.492L289.206 195.712L251.853 217.281L200.557 209.326Z" stroke="url(#paint37_linear_438_3769)"/>
</g>
<path d="M246.292 183.652L246.374 183.226L246.327 183.238L246.234 183.676L246.292 183.652Z" fill="#855C43"/>
<path d="M250.852 197.764C250.852 197.764 249.528 197.917 248.268 197.851C247.008 197.786 243.553 198.058 243.553 199.149C243.553 200.239 245.211 201.929 247.396 202.355C249.592 202.78 252.488 202.496 253.931 202.66C255.373 202.823 256.493 201.668 256.062 200.414C255.621 199.16 250.852 197.764 250.852 197.764Z" fill="#242A32"/>
<path d="M258.732 195.496C258.732 195.496 259.141 196.205 258.861 196.586C258.581 196.968 257.839 197.927 255.89 196.772C253.941 195.616 250.109 193.86 250.109 193.86C250.109 193.86 247.924 192.606 248.15 191.374C248.376 190.142 250.475 190.513 250.475 190.513L258.732 195.496Z" fill="#242A32"/>
<path d="M246.761 176.076C246.761 176.076 246.998 184.712 248.634 188.026C250.281 191.341 250.292 197.022 250.583 198.113C250.873 199.203 251.939 200.817 253.812 201.308C255.685 201.798 256.105 200.73 256.084 200.065C256.062 199.4 255.642 198.276 255.707 197.557C255.772 196.837 256.008 196.51 256.073 196.183C256.073 196.183 258.215 196.935 258.721 195.496C258.721 195.496 258.592 195.049 258.581 194.831C258.581 194.613 259.41 189.204 259.539 188.55C259.669 187.885 259.669 184.199 259.238 182.324C258.807 180.448 259.443 176.523 259.443 176.523L252.908 175.105L246.75 176.086L246.761 176.076Z" fill="#3A495E"/>
<path d="M259.238 182.313C258.807 180.426 259.443 176.512 259.443 176.512L258.872 176.392C258.786 176.937 258.28 180.383 258.678 182.116C259.109 184.003 259.109 187.688 258.98 188.343C258.851 189.008 258.022 194.405 258.022 194.624C258.022 194.842 258.162 195.289 258.162 195.289C257.666 196.728 255.513 195.976 255.513 195.976C255.449 196.303 255.212 196.63 255.147 197.35C255.083 198.069 255.492 199.192 255.524 199.858C255.546 200.523 255.115 201.591 253.252 201.101C253.199 201.09 253.145 201.057 253.091 201.046C253.317 201.155 253.554 201.242 253.812 201.308C255.685 201.798 256.105 200.73 256.084 200.065C256.062 199.4 255.642 198.276 255.707 197.557C255.772 196.837 256.019 196.445 256.084 196.117C256.084 196.117 258.226 196.935 258.721 195.496C258.721 195.496 258.592 195.049 258.581 194.831C258.581 194.613 259.41 189.204 259.539 188.55C259.669 187.885 259.669 184.199 259.238 182.324V182.313Z" fill="#506273"/>
<path d="M257.429 176.97C257.429 176.97 257.257 178.322 256.514 179.401C256.514 179.401 256.062 183.927 255.309 186.14C255.309 186.14 255.685 190.665 256.062 192.094C256.439 193.522 256.084 196.183 256.084 196.183C256.084 196.183 256.331 196.281 256.687 196.325C257.042 196.368 257.645 191.058 257.193 190.066C256.73 189.062 256.762 184.744 257.106 183.436C257.462 182.127 257.795 178.289 258.151 177.624C258.506 176.959 257.903 176.544 257.903 176.544L257.429 176.981V176.97Z" fill="#242A32"/>
<path d="M254.964 142.295C254.964 142.295 252.757 143.57 252.65 146.089L254.211 145.904C254.211 145.904 253.995 143.08 254.964 142.295Z" fill="#242A32"/>
<path d="M252.445 178.431C256.784 178.932 259.324 177.417 259.324 177.417C259.389 176.871 259.453 176.512 259.453 176.512L252.919 175.094L246.761 176.075C246.761 176.075 246.804 177.809 247.008 180.023C248.063 180.219 249.302 177.973 249.302 177.973L252.273 178.409C252.273 178.409 248.107 177.94 252.445 178.442V178.431Z" fill="#303F52"/>
<path d="M247.59 176.283C247.59 176.283 256.74 180.579 262.059 174.385C262.209 174.211 262.295 173.982 262.317 173.742L262.435 172.161C262.446 171.954 262.511 171.757 262.597 171.583C262.791 171.19 262.877 170.754 262.844 170.318C262.683 168.497 262.263 163.459 262.177 162.042C262.08 160.297 263.856 153.384 265.891 150.429C267.926 147.474 264.427 139.939 264.427 139.939C264.427 139.939 263.544 138.14 261.38 138.543C261.38 138.543 263.232 140.092 261.983 141.444C260.734 142.785 257.365 143.647 257.365 143.647C257.365 143.647 251.099 146.133 248.774 149.578C248.774 149.578 247.934 151.378 247.697 153.7C247.461 156.023 247.31 161.54 247.159 162.282C246.998 163.023 246.319 168.061 246.33 168.301C246.341 168.541 247.59 176.304 247.59 176.304V176.283Z" fill="#323D4D"/>
<path d="M250.41 177.242C250.41 177.242 257.408 163.721 257.677 158.367C257.935 153.013 248.3 168.028 248.3 168.028L247.601 176.272C247.601 176.272 249.345 177.024 250.421 177.242H250.41Z" fill="#242A32"/>
<path d="M262.597 170.187C262.511 170.373 262.446 170.569 262.435 170.765L262.317 172.346C262.295 172.586 262.209 172.815 262.059 172.99C256.74 179.183 247.59 174.887 247.59 174.887C247.59 174.887 246.696 169.304 246.416 167.461C246.363 167.897 246.33 168.203 246.33 168.257C246.341 168.497 247.59 176.261 247.59 176.261C247.59 176.261 256.74 180.557 262.059 174.364C262.209 174.189 262.295 173.96 262.317 173.72L262.435 172.139C262.446 171.932 262.511 171.736 262.597 171.561C262.791 171.169 262.877 170.733 262.844 170.296C262.823 170.111 262.812 169.882 262.791 169.631C262.748 169.817 262.694 170.002 262.608 170.176L262.597 170.187Z" fill="#506273"/>
<path d="M251.043 185.355C250.979 185.148 250.882 184.962 250.742 184.842L240.751 175.966C240.482 175.726 240.202 175.868 240.116 176.272L238.329 185.366C238.254 185.78 238.404 186.303 238.674 186.543L246.888 193.838L246.392 196.292L249.041 195.507C249.159 195.452 249.256 195.31 249.299 195.103L251.086 186.009C251.129 185.802 251.108 185.562 251.043 185.355Z" fill="#506273"/>
<path d="M237.78 176.631L240.364 175.868L240.45 175.846C240.547 175.835 240.644 175.868 240.751 175.955L250.742 184.831C250.871 184.951 250.979 185.137 251.043 185.344L250.656 185.475L248.449 186.194L239.718 178.365L237.791 176.642L237.78 176.631Z" fill="#323D4D"/>
<path d="M236.058 187.307L246.048 196.183C246.317 196.422 246.597 196.281 246.683 195.877L248.47 186.783C248.546 186.369 248.395 185.845 248.126 185.606L238.135 176.73C237.866 176.49 237.586 176.631 237.5 177.035L235.713 186.129C235.638 186.543 235.788 187.067 236.058 187.307Z" fill="#3A495E"/>
<path d="M248.018 195.463L249.805 186.369C249.88 185.954 249.73 185.431 249.461 185.191L239.47 176.315C239.384 176.239 239.298 176.206 239.223 176.195C239.33 176.163 239.449 176.195 239.556 176.304L249.547 185.18C249.816 185.42 249.967 185.944 249.891 186.358L248.104 195.452C248.05 195.736 247.9 195.899 247.727 195.888C247.867 195.855 247.964 195.692 248.018 195.463Z" fill="#242A32"/>
<path d="M245.549 181.45L246.167 181.238C246.307 181.19 246.436 181.179 246.541 181.214H246.587C246.646 181.25 246.669 181.309 246.657 181.38L246.634 181.474L244.895 182.077L244.918 181.982C244.93 181.9 244.988 181.817 245.058 181.746L245.117 181.699C245.257 181.581 245.397 181.498 245.537 181.45H245.549Z" fill="#242A32"/>
<path d="M245.665 182.751L244.907 182.077L246.657 181.261L247.404 181.923L245.665 182.751Z" fill="#242A32"/>
<path d="M246.319 182.124L246.938 181.912C247.078 181.864 247.206 181.852 247.311 181.888H247.358C247.416 181.923 247.439 181.982 247.428 182.065L247.404 182.16L245.665 182.763L245.689 182.668C245.7 182.585 245.759 182.503 245.829 182.432L245.887 182.384C246.027 182.266 246.167 182.183 246.307 182.136L246.319 182.124Z" fill="#506273"/>
<path d="M246.739 181.982L245.957 181.309L245.91 181.32L246.692 181.994L246.739 181.982Z" fill="#855C43"/>
<path d="M242.094 178.377L242.713 178.164C242.853 178.117 242.981 178.105 243.086 178.141H243.133C243.191 178.176 243.214 178.235 243.203 178.306L243.179 178.401L241.44 179.003L241.464 178.909C241.475 178.826 241.534 178.743 241.616 178.672L241.674 178.625C241.814 178.507 241.954 178.424 242.094 178.377Z" fill="#242A32"/>
<path d="M242.211 179.689L241.452 179.003L243.191 178.2L243.95 178.862L242.211 179.689Z" fill="#242A32"/>
<path d="M242.864 179.063L243.483 178.85C243.623 178.803 243.751 178.791 243.856 178.826H243.903C243.961 178.862 243.985 178.921 243.973 178.992L243.95 179.086L242.211 179.689L242.234 179.595C242.246 179.512 242.304 179.429 242.386 179.358L242.444 179.311C242.584 179.193 242.724 179.11 242.864 179.063Z" fill="#506273"/>
<path d="M243.203 179.346L243.284 178.909L243.226 178.933L243.144 179.37L243.203 179.346Z" fill="#855C43"/>
<path d="M243.285 178.909L242.503 178.247L242.456 178.259L243.226 178.933L243.285 178.909Z" fill="#855C43"/>
<path d="M247.229 179.914L246.867 181.758L246.354 181.309L246.704 179.512C246.751 179.252 246.634 178.897 246.436 178.72L244.218 176.746C244.02 176.568 243.821 176.639 243.763 176.899L243.413 178.696L242.899 178.247L243.261 176.403C243.378 175.824 243.821 175.67 244.265 176.06L246.634 178.164C247.078 178.554 247.334 179.346 247.218 179.926L247.229 179.914Z" fill="#323D4D"/>
<path d="M243.401 176.545H244.382L247.007 179.134V180.576L246.867 181.758L246.226 181.982L246.319 180.493L246.366 179.465L245.84 178.673C245.84 178.673 244.848 177.821 244.837 177.798C244.825 177.774 243.401 176.533 243.401 176.533V176.545Z" fill="#323D4D"/>
<path d="M242.771 178.909L243.413 178.696L243.67 177.372L243.074 177.36L242.888 177.372L242.771 178.909Z" fill="#323D4D"/>
<path d="M242.981 176.084L243.681 175.847L243.471 176.166L243.249 176.214L242.981 176.084Z" fill="#323D4D"/>
<path d="M246.587 180.138L246.226 181.982L245.712 181.533L246.062 179.736C246.109 179.476 245.992 179.122 245.794 178.944L243.576 176.97C243.378 176.793 243.179 176.864 243.121 177.124L242.771 178.921L242.257 178.471L242.619 176.627C242.736 176.048 243.179 175.894 243.623 176.285L245.992 178.389C246.436 178.779 246.692 179.571 246.576 180.15L246.587 180.138Z" fill="#242A32"/>
<path d="M244.311 175.138C244.311 175.138 243.775 176.958 243.856 177.443C243.938 177.916 244.86 178.897 245.432 179.11C246.015 179.323 245.817 178.672 245.98 178.282C246.144 177.892 246.19 177.029 246.19 177.029L244.311 175.138Z" fill="#E2C2B8"/>
<path d="M246.191 177.029L244.312 175.138C244.312 175.138 244.206 175.516 244.09 175.965C244.09 175.965 244.732 177.408 246.05 178.081C246.156 177.656 246.191 177.029 246.191 177.029Z" fill="#E3C092"/>
<path d="M244.148 175.268C244.148 175.268 244.72 177.337 246.482 177.68L246.039 175.433C246.039 175.433 244.557 174.913 244.51 174.902C244.463 174.902 244.148 175.256 244.148 175.256V175.268Z" fill="#283240"/>
<path d="M265.891 149.033C263.856 151.988 262.08 158.912 262.177 160.646C262.177 160.81 262.199 161.017 262.22 161.257C262.489 158.782 264.083 153.046 265.891 150.418C266.462 149.589 266.591 148.412 266.494 147.136C266.429 147.867 266.246 148.521 265.891 149.033Z" fill="#506273"/>
<path d="M248.72 160.286C249.022 159.098 249.248 157.898 249.355 156.677C249.549 154.54 250.486 150.996 254.566 151.999C260.304 153.406 257.063 160.81 256.299 162.053C255.545 163.307 252.531 168.868 252.38 169.173C252.23 169.468 247.805 176.108 246.319 177.624C246.179 177.766 245.964 177.766 245.824 177.635C245.307 177.166 244.145 176.054 244.026 175.399C243.876 174.56 244.888 171.616 244.888 171.616C244.888 171.616 247.654 164.081 247.87 163.732C248.031 163.47 248.225 162.173 248.72 160.275V160.286Z" fill="#3A495D"/>
<path d="M255.05 142.48C255.05 142.48 254.673 141.379 253.586 141.171C252.499 140.964 251.896 140.615 251.821 140.201C251.745 139.787 251.778 139.307 251.562 138.685C251.347 138.064 251.239 136.57 251.25 136.537C251.25 136.504 250.432 136.177 250.421 135.807C250.41 135.436 250.949 134.16 250.916 134.051C250.873 133.942 250.486 133.091 250.593 132.459C250.701 131.827 250.862 130.911 251.261 130.158C251.659 129.406 254.469 124.782 260.487 127.836C266.516 130.889 261.197 135.687 261.466 139.056C261.466 139.056 261.94 139.797 260.821 140.877C259.701 141.956 256.783 141.956 255.05 142.469V142.48Z" fill="#E2C2B8"/>
<path d="M260.81 140.899C261.929 139.819 261.456 139.078 261.456 139.078C261.423 138.609 261.488 138.118 261.617 137.606L259.152 137.846C259.152 137.846 255.868 134.378 255.976 136.09C256.073 137.802 255.179 138.02 255.179 138.02L255.825 139.001C255.987 139.252 255.858 139.514 255.675 139.765C254.512 141.379 252.1 140.648 252.1 140.648C252.391 140.866 252.876 141.062 253.565 141.193C254.652 141.4 255.029 142.502 255.029 142.502C256.751 141.989 259.669 141.989 260.799 140.91L260.81 140.899Z" fill="#C2A69D"/>
<path d="M251.132 128.326C251.132 128.326 250.593 129.569 251.25 130.169C251.907 130.769 252.499 131.336 252.499 131.336L252.359 132.939C252.337 133.168 252.391 133.397 252.499 133.604L253.263 135.021C253.414 135.294 253.479 135.61 253.446 135.916L253.392 136.559C253.382 136.744 253.5 136.919 253.683 136.951L253.909 136.995C254.114 137.039 254.307 136.908 254.34 136.701L254.512 135.817C254.512 135.817 255.029 135.141 255.965 136.09L256.837 136.537C257.085 136.657 257.257 136.886 257.333 137.148C257.516 137.856 257.925 139.252 258.312 139.514C258.829 139.863 261.036 138.98 261.37 138.533C261.703 138.085 262.748 134.956 263.361 133.451C263.975 131.946 264.126 128.075 259.572 126.669C255.018 125.262 251.864 126.985 251.121 128.337L251.132 128.326Z" fill="#855C44"/>
<path d="M261.38 138.522C261.714 138.075 262.758 134.945 263.372 133.44C263.372 133.44 261.477 134.454 259.141 134.607C256.805 134.749 252.467 131.761 252.467 131.761L252.37 132.939C252.348 133.168 252.402 133.397 252.51 133.604L253.274 135.021C253.425 135.294 253.489 135.61 253.457 135.916L253.403 136.559C253.392 136.744 253.511 136.919 253.694 136.951L253.92 136.995C254.124 137.039 254.318 136.908 254.35 136.701L254.523 135.817C254.523 135.817 255.039 135.141 255.976 136.09L257.236 136.733C257.236 136.733 257.806 139.154 258.312 139.503C258.818 139.852 261.036 138.969 261.37 138.522H261.38Z" fill="#7A533B"/>
<path d="M261.456 138.685C261.456 138.685 263.103 139.906 262.069 141.335C261.036 142.763 254.458 144.846 254.114 145.217C254.114 145.217 254.06 142.981 254.964 142.294C254.964 142.294 259.906 141.804 260.788 140.648C261.671 139.503 261.456 138.685 261.456 138.685Z" fill="#F0F6FF"/>
<path d="M261.456 138.685C261.456 138.685 261.671 139.503 260.788 140.648C260.121 141.52 257.128 142.011 255.707 142.196C255.707 142.196 256.191 142.524 256.923 144.028C258.969 143.221 261.456 142.164 262.069 141.324C263.103 139.896 261.456 138.674 261.456 138.674V138.685Z" fill="#C4CCD6"/>
<path d="M257.01 153.449C258.151 158.215 253.511 164.866 252.768 166.818C252.025 168.77 245.426 177.275 245.426 177.275C245.394 177.329 245.361 177.362 245.361 177.362C245.48 177.46 245.62 177.558 245.727 177.624C245.878 177.689 245.813 177.678 245.986 177.733C246.104 177.766 246.233 177.733 246.33 177.635C247.816 176.119 252.24 169.478 252.391 169.184C252.553 168.868 255.556 163.307 256.31 162.064C256.913 161.06 259.12 156.099 257.01 153.449Z" fill="#506273"/>
<path d="M228.618 175.213L228.657 175.414L228.717 175.283C228.717 175.283 229.014 176.295 228.756 176.807C228.499 177.318 228.133 177.939 227.599 178.651C227.064 179.362 226.213 180.835 225.996 181.116C225.778 181.396 224.472 182.499 222.849 182.669C221.227 182.84 220.811 181.898 220.95 181.386C221.088 180.875 221.959 179.522 222.909 178.43C223.859 177.338 224.591 175.915 224.591 175.915L228.628 175.223L228.618 175.213Z" fill="#242A32"/>
<path d="M223.74 170.743C223.74 170.743 223.789 171.796 223.681 172.237C223.572 172.678 221.187 172.808 220.336 172.918C219.485 173.028 218.011 173.64 217.546 173.87C217.081 174.101 213.984 174.431 213.608 173.279C213.232 172.126 215.162 171.154 216.478 170.844C217.794 170.533 219.931 169.871 219.931 169.871L223.74 170.743Z" fill="#242A32"/>
<path d="M232.012 149.848C232.012 149.848 232.091 152.805 231.121 156.893C230.151 160.982 230.26 163.838 230.26 163.838C230.26 163.838 231.279 168.458 230.379 171.615C229.479 174.772 228.717 175.654 228.717 175.654C228.717 175.654 226.926 178.059 224.571 175.905C224.571 175.905 225.897 171.575 226.045 168.118C226.045 168.118 224.878 165.582 224.482 163.327C224.482 163.327 224.146 166.925 223.948 168.368C223.948 168.368 224.146 170.503 223.592 171.365C223.028 172.227 220.504 172.477 219.693 170.984C218.882 169.491 220.366 170.222 219.921 163.327C219.921 163.327 217.596 160.381 217.259 154.969C216.923 149.558 216.952 147.413 217.259 146.361C217.566 145.308 222.721 141.5 222.721 141.5L225.63 145.268L232.002 149.848H232.012Z" fill="#3A495E"/>
<path d="M220.524 155.881C219.683 154.859 219.208 151.662 219.208 151.662C219.208 151.662 220.524 154.348 221.464 155.13C222.404 155.911 223.216 157.475 223.384 158.497C223.552 159.519 224.502 163.307 224.502 163.307C224.502 163.307 224.165 166.905 223.967 168.348C223.967 168.348 224.165 170.483 223.611 171.345C223.502 171.515 223.305 171.665 223.057 171.786C223.057 171.746 223.196 167.025 223.057 165.031C222.919 163.027 221.365 156.893 220.524 155.871V155.881Z" fill="#303F52"/>
<path d="M223.127 117.699C223.127 117.699 219.683 118.991 218.506 118.55C217.328 118.11 214.439 117.729 212.461 116.606C210.482 115.484 201.824 113.219 200.538 113.139C200.538 113.139 200.518 113.189 200.726 113.279C200.944 113.369 201.834 113.449 202.072 114.472C202.309 115.494 201.785 116.717 201.636 116.807C201.488 116.897 201.409 116.526 200.578 116.145C199.746 115.764 199.242 115.785 199.242 115.785L198.925 116.185L198.737 116.476C198.737 116.476 199.143 117.709 200.251 117.799C201.359 117.889 208.483 120.896 208.928 121.036C209.374 121.176 215.36 123.782 216.478 124.193C217.596 124.604 218.466 125.125 218.466 125.125C218.466 125.125 221.959 122.77 222.078 122.77C222.196 122.77 223.127 117.709 223.127 117.709V117.699Z" fill="#3A495E"/>
<path d="M191.979 111.676C192.128 111.706 193.929 112.327 193.929 112.327C193.929 112.327 193.216 112.698 193.147 113.029C193.078 113.359 193.295 115.203 193.365 115.324C193.434 115.434 193.8 115.684 193.909 115.754C194.018 115.825 194.305 116.456 194.562 116.376C194.819 116.296 194.898 115.965 194.898 115.965C194.898 115.965 195.096 115.865 195.165 115.825C195.225 115.785 196.511 115.905 196.936 116.185C197.362 116.466 198.332 116.606 198.737 116.486C199.143 116.366 199.727 116.065 199.855 115.995C199.855 115.995 200.301 116.065 200.548 116.195C200.795 116.326 201.577 116.857 201.696 116.907C201.814 116.957 203.417 113.76 200.548 113.159C200.548 113.159 199.351 113.049 198.836 112.798C198.322 112.548 196.867 111.415 196.323 111.395C195.789 111.375 195.235 111.555 195.235 111.555C195.235 111.555 191.989 110.613 191.722 110.904C191.455 111.195 191.841 111.656 191.989 111.686L191.979 111.676ZM194.334 113.86C194.72 113.87 194.987 113.459 194.987 113.459C195.235 113.63 195.492 113.419 195.492 113.419C195.492 113.48 195.937 113.56 195.937 113.56C195.937 113.56 196.135 113.73 196.392 113.92C196.64 114.111 196.303 114.662 196.303 114.662C196.056 114.682 195.779 114.562 195.531 114.442C195.284 114.321 195.076 114.341 194.918 114.271C194.75 114.211 194.334 113.85 194.334 113.85V113.86Z" fill="#E2C2B8"/>
<path d="M233.238 120.445L234.149 122.8C234.149 122.8 238.522 126.628 239.779 128.011C239.779 128.011 237.622 132.21 237.216 136.63C237.216 136.63 235.217 138.283 234.614 139.045C234.01 139.806 232.477 143.324 231.992 144.477C231.507 145.629 232.862 149.127 232.862 149.127C232.862 149.127 231.002 152.604 228.014 152.494C225.026 152.384 222.988 150.53 222.602 147.243C222.216 143.955 222.335 143.474 222.335 143.474C222.335 143.474 220.989 147.513 218.951 147.513C216.913 147.513 213.678 144.006 213.678 144.006C213.678 144.006 211.491 142.001 211.699 141.089C211.897 140.177 216.844 132.33 217.111 131.037C217.378 129.745 218.486 125.115 218.486 125.115L223.136 117.699L225.976 117.839L233.248 120.445H233.238Z" fill="#323D4D"/>
<path d="M233.238 120.445C233.238 120.445 233.258 121.848 232.714 123.251C232.17 124.644 230.369 132.511 226.303 135.197L224.739 136.199V131.198C224.739 131.198 224.769 128.121 225.462 126.167C226.154 124.213 226.134 121.838 226.134 121.838C226.134 121.838 227.272 121.517 227.272 121.547C227.272 121.567 233.228 120.455 233.228 120.455L233.238 120.445Z" fill="#F0F6FF"/>
<path d="M228.222 124.092C228.222 124.092 227.5 124.393 227.193 123.912C226.886 123.431 226.56 122.479 226.649 122.028C226.649 122.028 224.729 122.128 224.344 121.106C223.968 120.084 224.373 119.823 224.442 119.503C224.502 119.182 224.561 118.35 224.818 117.749L224.848 117.488C224.848 117.488 224.452 117.147 224.63 116.787C224.809 116.426 225.857 115.314 225.966 115.133C226.075 114.943 225.936 113.57 226.352 112.878C226.758 112.197 227.549 111.235 227.549 111.235C227.549 111.235 231.645 107.998 234.871 111.235C238.097 114.472 233.238 120.435 233.238 120.435C233.238 120.435 232.853 122.359 231.913 123.13C230.973 123.892 228.232 124.092 228.232 124.092H228.222Z" fill="#E2C2B8"/>
<path d="M231.22 116.205C231.22 116.085 231.23 115.965 231.269 115.855C231.388 115.504 231.596 114.542 230.607 113.82C229.37 112.908 227.203 112.097 227.272 111.185C227.341 110.273 230.765 108.028 233.298 109.23C235.831 110.433 238.205 113.47 236.474 116.697C234.752 119.923 233.229 120.445 233.229 120.445C233.229 120.445 232.714 120.334 233.179 119.803C233.644 119.272 234.485 117.919 233.783 117.488C233.09 117.067 231.873 117.979 231.715 118.19C231.655 118.27 231.586 118.37 231.537 118.46C231.448 118.611 231.26 118.671 231.101 118.601L231.042 118.571C230.884 118.49 230.804 118.31 230.864 118.14L231.171 117.308C231.22 117.188 231.24 117.047 231.24 116.917V116.215L231.22 116.205Z" fill="#855C44"/>
<path d="M228.331 125.004C228.331 125.004 229.241 125.666 229.785 126.919C229.785 126.919 228.816 125.896 228.252 125.696C228.252 125.696 227.173 126.207 227.173 126.548C227.173 126.889 227.074 128.933 226.817 130.025C226.57 131.128 226.599 134.976 226.599 134.976L225.917 135.427L225.59 133.733L225.719 130.126L226.352 126.838C226.352 126.838 226.471 125.596 226.52 125.526C226.57 125.455 228.331 124.984 228.331 124.984V125.004Z" fill="#C4CCD6"/>
<path d="M228.331 125.004C228.331 125.004 227.292 123.882 226.768 123.862C226.243 123.842 225.956 124.123 225.946 124.193C225.936 124.263 225.442 126.017 225.442 126.017C225.442 126.017 224.462 129.083 224.561 132.661C224.66 136.239 224.749 136.209 224.749 136.209L226.045 135.377C226.045 135.377 225.699 132.821 226.401 129.855C227.104 126.889 226.481 126.448 226.817 126.147C227.153 125.846 228.499 125.375 228.341 125.014L228.331 125.004Z" fill="#3A495E"/>
<path d="M234.604 139.055C234 139.817 232.506 143.324 232.012 144.487C231.932 144.677 231.873 144.928 231.873 145.208C231.754 145.288 231.675 145.338 231.675 145.338L231.022 144.687C231.022 144.687 231.606 142.542 232.546 139.887C233.486 137.231 237.196 136.64 237.196 136.64C237.196 136.64 235.197 138.293 234.594 139.055H234.604Z" fill="#283240"/>
<path d="M233.595 145.609C233.595 145.609 232.526 144.046 232.19 143.835C232.19 143.835 232.269 144.276 231.665 144.547C231.062 144.817 227.896 146.06 227.787 146.21C227.678 146.351 227.787 146.531 227.994 146.581C227.994 146.581 227.341 146.812 227.074 146.802C226.807 146.802 226.451 147.142 226.629 147.433C226.807 147.724 226.956 147.704 226.956 147.704C226.956 147.704 226.876 148.034 227.074 148.104C227.272 148.175 227.737 148.185 227.737 148.185C227.737 148.185 227.638 148.515 227.905 148.646C228.173 148.776 229.449 148.916 229.449 148.916C229.449 148.916 230.448 148.806 230.735 148.806C231.022 148.806 232.328 149.127 232.882 149.046C233.436 148.966 235.267 148.305 235.455 148.195C235.643 148.084 233.595 145.599 233.595 145.599V145.609Z" fill="#E2C2B8"/>
<path d="M201.686 116.897C201.626 116.877 201.389 116.727 201.142 116.566C202.121 115.233 201.043 113.309 201.043 113.299C203.209 114.151 201.795 116.947 201.686 116.897Z" fill="#C2A69D"/>
<path d="M235.455 148.205C235.316 148.285 234.277 148.666 233.515 148.896C233.515 148.896 233.031 146.962 233.14 146.311C233.248 145.659 233.515 145.509 233.515 145.509C233.555 145.569 233.585 145.609 233.585 145.609C233.585 145.609 235.633 148.094 235.445 148.205H235.455Z" fill="#C2A69D"/>
<path d="M233.595 145.519C233.595 145.519 233.268 146.641 234.01 147.503C234.752 148.365 234.841 148.485 234.841 148.485H235.702C235.702 148.485 236.147 147.112 236.078 147.082C236.009 147.052 233.595 145.519 233.595 145.519Z" fill="#283240"/>
<path d="M225.6 125.445C225.6 125.445 224.779 130.366 224.957 132.17C225.145 133.974 225.076 135.928 225.076 135.928L224.818 136.159L224.739 136.209C224.739 136.209 224.66 136.239 224.551 132.661C224.442 129.083 225.432 126.017 225.432 126.017C225.432 126.017 225.501 125.766 225.59 125.445H225.6Z" fill="#3A495E"/>
<path d="M225.323 176.446C225.086 176.315 224.838 176.135 224.581 175.905C224.581 175.905 225.907 171.575 226.055 168.118C226.055 168.118 224.888 165.582 224.492 163.327C224.601 163.778 225.956 166.204 226.57 168.689C227.183 171.174 225.323 176.446 225.323 176.446Z" fill="#242A32"/>
<path d="M231.339 119.653C231.319 119.773 230.963 121.527 230.27 122.349C229.548 123.201 228.994 124.022 228.994 124.022C228.549 124.082 228.232 124.103 228.232 124.103C228.232 124.103 227.51 124.403 227.203 123.922C226.896 123.441 226.57 122.489 226.659 122.038C226.659 122.038 229.251 121.767 230.25 121.066C231.171 120.415 231.339 119.743 231.359 119.653H231.339Z" fill="#C2A69D"/>
<path d="M232.279 143.855C232.279 143.855 232.14 144.156 232.11 144.176C232.081 144.196 232.051 143.945 232.051 143.945L232.17 143.705L232.269 143.855H232.279Z" fill="#1B2B3A"/>
<path d="M222.988 138.283C222.889 138.624 223.057 138.985 223.374 139.075C223.69 139.175 224.027 138.975 224.126 138.634C224.225 138.293 224.057 137.932 223.74 137.842C223.423 137.742 223.087 137.942 222.988 138.283Z" fill="#3A495E"/>
<path d="M222.068 140.809C221.969 141.149 222.137 141.51 222.454 141.6C222.77 141.701 223.107 141.5 223.206 141.159C223.305 140.819 223.136 140.458 222.82 140.368C222.503 140.267 222.167 140.468 222.068 140.809Z" fill="#3A495E"/>
<path d="M231.17 117.298C231.22 117.178 231.24 117.037 231.24 116.907V116.205C231.22 116.085 231.24 115.965 231.279 115.855C231.319 115.754 231.358 115.604 231.368 115.424C231.368 115.424 234.188 117.498 235.979 117.588C234.475 120.024 233.238 120.445 233.238 120.445C233.238 120.445 232.724 120.334 233.189 119.803C233.654 119.272 234.495 117.919 233.792 117.488C233.1 117.067 231.883 117.979 231.725 118.19C231.665 118.27 231.596 118.37 231.546 118.46C231.457 118.611 231.269 118.671 231.111 118.601L231.052 118.571C230.893 118.49 230.814 118.31 230.874 118.14L231.18 117.308L231.17 117.298Z" fill="#7A533B"/>
<path d="M239.769 128.021C239.769 128.021 241.995 132.431 242.222 132.771C242.45 133.112 246.615 138.494 247.021 141.6C247.021 141.6 247.338 142.803 245.903 143.865C244.468 144.928 237.236 149.588 236.79 149.648C236.345 149.718 233.723 148.425 233.614 145.519C233.614 145.519 239.284 142.843 240.511 141.5C240.511 141.5 238.304 137.742 237.226 136.64C236.959 136.359 236.8 135.858 236.711 135.257C236.355 132.791 237.315 130.316 239.126 128.632L239.788 128.021H239.769Z" fill="#3A495D"/>
<path d="M140.083 130.983V145.738L127.385 153.478L115.145 145.738V130.983L127.385 123.437L140.083 130.983Z" fill="#242A32" stroke="#06C2A1" stroke-width="0.7" stroke-linejoin="round"/>
<path d="M115.07 131.403C114.906 131.3 114.857 131.084 114.961 130.92C115.064 130.757 115.28 130.708 115.444 130.812L115.07 131.403ZM127.314 138.549L140.013 130.809L140.377 131.406L127.678 139.147L127.314 138.549ZM115.444 130.812L127.683 138.552L127.309 139.144L115.07 131.403L115.444 130.812ZM127.846 138.848V153.199H127.146V138.848H127.846Z" fill="#06C2A1"/>
<path d="M120.173 142.901L64.0729 177.095" stroke="url(#paint38_linear_438_3769)" stroke-opacity="0.6" stroke-linecap="round" stroke-linejoin="round"/>
<path d="M152.712 94.4409V101.912L146.282 105.831L140.085 101.912V94.4409L146.282 90.6202L152.712 94.4409Z" fill="#242A32" stroke="white" stroke-width="0.7" stroke-linejoin="round"/>
<path d="M139.954 94.7998C139.791 94.6965 139.742 94.4803 139.845 94.3169C139.949 94.1536 140.165 94.1049 140.328 94.2082L139.954 94.7998ZM146.156 98.1245L152.587 94.2051L152.951 94.8029L146.521 98.7222L146.156 98.1245ZM140.328 94.2082L146.526 98.1275L146.151 98.7191L139.954 94.7998L140.328 94.2082ZM146.689 98.4233V105.69H145.989V98.4233H146.689Z" fill="white"/>
<path d="M142.852 100.097L110.921 119.56" stroke="url(#paint39_linear_438_3769)" stroke-opacity="0.5" stroke-linecap="round" stroke-linejoin="round"/>
<path d="M391.868 165.728V173.564L385.123 177.676L378.622 173.564V165.728L385.123 161.72L391.868 165.728Z" fill="#242A32" stroke="white" stroke-width="0.7" stroke-linejoin="round"/>
<path d="M378.495 166.09C378.331 165.986 378.283 165.77 378.386 165.607C378.489 165.443 378.705 165.395 378.869 165.498L378.495 166.09ZM385 169.606L391.745 165.495L392.109 166.093L385.364 170.204L385 169.606ZM378.869 165.498L385.369 169.609L384.995 170.201L378.495 166.09L378.869 165.498ZM385.532 169.905V177.527H384.832V169.905H385.532Z" fill="white"/>
<path d="M381.723 171.586L341.136 196.325" stroke="url(#paint40_linear_438_3769)" stroke-opacity="0.5" stroke-linecap="round" stroke-linejoin="round"/>
<path d="M327.21 243.238V252.195L319.501 256.894L312.071 252.195V243.238L319.501 238.657L327.21 243.238Z" fill="#242A32" stroke="#06C2A1" stroke-width="0.7" stroke-linejoin="round"/>
<path d="M311.952 243.609C311.788 243.506 311.74 243.29 311.843 243.127C311.946 242.963 312.163 242.914 312.326 243.018L311.952 243.609ZM319.387 247.714L327.096 243.015L327.46 243.612L319.751 248.311L319.387 247.714ZM312.326 243.018L319.756 247.717L319.382 248.308L311.952 243.609L312.326 243.018ZM319.919 248.012V256.724H319.219V248.012H319.919Z" fill="#06C2A1"/>
<path d="M315.89 250.458L277.609 273.792" stroke="url(#paint41_linear_438_3769)" stroke-opacity="0.6" stroke-linecap="round" stroke-linejoin="round"/>
<path d="M242.399 266.006V273.477L235.969 277.396L229.772 273.477V266.006L235.969 262.185L242.399 266.006Z" fill="#242A32" stroke="white" stroke-width="0.7" stroke-linejoin="round"/>
<path d="M229.641 266.365C229.478 266.261 229.429 266.045 229.533 265.882C229.636 265.718 229.852 265.67 230.015 265.773L229.641 266.365ZM235.844 269.689L242.274 265.77L242.638 266.368L236.208 270.287L235.844 269.689ZM230.015 265.773L236.213 269.692L235.839 270.284L229.641 266.365L230.015 265.773ZM236.376 269.988V277.255H235.676V269.988H236.376Z" fill="white"/>
<path d="M232.957 272.028L201.026 291.491" stroke="url(#paint42_linear_438_3769)" stroke-opacity="0.5" stroke-linecap="round" stroke-linejoin="round"/>
<path d="M119.73 231.47V240.805L111.695 245.702L103.952 240.805V231.47L111.695 226.696L119.73 231.47Z" fill="#242A32" stroke="#06C2A1" stroke-width="0.7" stroke-linejoin="round"/>
<path d="M103.835 231.845C103.672 231.741 103.623 231.525 103.727 231.362C103.83 231.198 104.046 231.15 104.209 231.253L103.835 231.845ZM111.584 236.147L119.618 231.25L119.982 231.848L111.948 236.745L111.584 236.147ZM104.209 231.253L111.953 236.15L111.579 236.742L103.835 231.845L104.209 231.253ZM112.116 236.446V245.526H111.416V236.446H112.116Z" fill="#06C2A1"/>
<path d="M107.932 238.995L68.0349 263.314" stroke="url(#paint43_linear_438_3769)" stroke-opacity="0.6" stroke-linecap="round" stroke-linejoin="round"/>
<path d="M384.232 233.311V247.829L371.737 255.446L359.693 247.829V233.311L371.737 225.886L384.232 233.311Z" fill="#242A32" stroke="white" stroke-width="0.7" stroke-linejoin="round"/>
<path d="M359.616 233.729C359.453 233.626 359.404 233.41 359.507 233.246C359.61 233.083 359.827 233.034 359.99 233.137L359.616 233.729ZM371.664 240.751L384.16 233.134L384.524 233.732L372.028 241.349L371.664 240.751ZM359.99 233.137L372.033 240.754L371.659 241.345L359.616 233.729L359.99 233.137ZM372.196 241.05V255.171H371.496V241.05H372.196Z" fill="white"/>
<path d="M365.652 244.302L309.552 278.497" stroke="url(#paint44_linear_438_3769)" stroke-opacity="0.5" stroke-linecap="round" stroke-linejoin="round"/>
<defs>
<filter id="filter0_d_438_3769" x="171.63" y="88.8842" width="114.897" height="133.791" filterUnits="userSpaceOnUse" color-interpolation-filters="sRGB">
<feFlood flood-opacity="0" result="BackgroundImageFix"/>
<feColorMatrix in="SourceAlpha" type="matrix" values="0 0 0 0 0 0 0 0 0 0 0 0 0 0 0 0 0 0 127 0" result="hardAlpha"/>
<feOffset/>
<feGaussianBlur stdDeviation="10"/>
<feComposite in2="hardAlpha" operator="out"/>
<feColorMatrix type="matrix" values="0 0 0 0 0.0392157 0 0 0 0 0.729412 0 0 0 0 0.607843 0 0 0 1 0"/>
<feBlend mode="normal" in2="BackgroundImageFix" result="effect1_dropShadow_438_3769"/>
<feBlend mode="normal" in="SourceGraphic" in2="effect1_dropShadow_438_3769" result="shape"/>
</filter>
<filter id="filter1_ddd_438_3769" x="0.300171" y="0.0332031" width="473.844" height="398.682" filterUnits="userSpaceOnUse" color-interpolation-filters="sRGB">
<feFlood flood-opacity="0" result="BackgroundImageFix"/>
<feColorMatrix in="SourceAlpha" type="matrix" values="0 0 0 0 0 0 0 0 0 0 0 0 0 0 0 0 0 0 127 0" result="hardAlpha"/>
<feOffset/>
<feGaussianBlur stdDeviation="74"/>
<feComposite in2="hardAlpha" operator="out"/>
<feColorMatrix type="matrix" values="0 0 0 0 0.0254167 0 0 0 0 0.7625 0 0 0 0 0.629825 0 0 0 1 0"/>
<feBlend mode="normal" in2="BackgroundImageFix" result="effect1_dropShadow_438_3769"/>
<feColorMatrix in="SourceAlpha" type="matrix" values="0 0 0 0 0 0 0 0 0 0 0 0 0 0 0 0 0 0 127 0" result="hardAlpha"/>
<feOffset/>
<feGaussianBlur stdDeviation="30"/>
<feComposite in2="hardAlpha" operator="out"/>
<feColorMatrix type="matrix" values="0 0 0 0 0.0254167 0 0 0 0 0.7625 0 0 0 0 0.629825 0 0 0 0.5 0"/>
<feBlend mode="normal" in2="effect1_dropShadow_438_3769" result="effect2_dropShadow_438_3769"/>
<feColorMatrix in="SourceAlpha" type="matrix" values="0 0 0 0 0 0 0 0 0 0 0 0 0 0 0 0 0 0 127 0" result="hardAlpha"/>
<feOffset dy="10"/>
<feGaussianBlur stdDeviation="8"/>
<feComposite in2="hardAlpha" operator="out"/>
<feColorMatrix type="matrix" values="0 0 0 0 0.0606944 0 0 0 0 0.316667 0 0 0 0 0.282986 0 0 0 1 0"/>
<feBlend mode="normal" in2="effect2_dropShadow_438_3769" result="effect3_dropShadow_438_3769"/>
<feBlend mode="normal" in="SourceGraphic" in2="effect3_dropShadow_438_3769" result="shape"/>
</filter>
<filter id="filter2_d_438_3769" x="158.421" y="148.916" width="159.364" height="102.155" filterUnits="userSpaceOnUse" color-interpolation-filters="sRGB">
<feFlood flood-opacity="0" result="BackgroundImageFix"/>
<feColorMatrix in="SourceAlpha" type="matrix" values="0 0 0 0 0 0 0 0 0 0 0 0 0 0 0 0 0 0 127 0" result="hardAlpha"/>
<feOffset dy="7"/>
<feGaussianBlur stdDeviation="6"/>
<feComposite in2="hardAlpha" operator="out"/>
<feColorMatrix type="matrix" values="0 0 0 0 0 0 0 0 0 0 0 0 0 0 0 0 0 0 0.25 0"/>
<feBlend mode="normal" in2="BackgroundImageFix" result="effect1_dropShadow_438_3769"/>
<feBlend mode="normal" in="SourceGraphic" in2="effect1_dropShadow_438_3769" result="shape"/>
</filter>
<filter id="filter3_d_438_3769" x="174.354" y="153.045" width="127.498" height="83.757" filterUnits="userSpaceOnUse" color-interpolation-filters="sRGB">
<feFlood flood-opacity="0" result="BackgroundImageFix"/>
<feColorMatrix in="SourceAlpha" type="matrix" values="0 0 0 0 0 0 0 0 0 0 0 0 0 0 0 0 0 0 127 0" result="hardAlpha"/>
<feOffset dy="7"/>
<feGaussianBlur stdDeviation="6"/>
<feComposite in2="hardAlpha" operator="out"/>
<feColorMatrix type="matrix" values="0 0 0 0 0 0 0 0 0 0 0 0 0 0 0 0 0 0 0.25 0"/>
<feBlend mode="normal" in2="BackgroundImageFix" result="effect1_dropShadow_438_3769"/>
<feBlend mode="normal" in="SourceGraphic" in2="effect1_dropShadow_438_3769" result="shape"/>
</filter>
<linearGradient id="paint0_linear_438_3769" x1="99.164" y1="189.82" x2="74.968" y2="177.082" gradientUnits="userSpaceOnUse">
<stop stop-color="#3C454F"/>
<stop offset="1" stop-color="#333B45" stop-opacity="0"/>
</linearGradient>
<linearGradient id="paint1_linear_438_3769" x1="116.119" y1="222.869" x2="91.9233" y2="210.131" gradientUnits="userSpaceOnUse">
<stop stop-color="#3C454F"/>
<stop offset="1" stop-color="#333B45" stop-opacity="0"/>
</linearGradient>
<linearGradient id="paint2_linear_438_3769" x1="148.097" y1="306.954" x2="102.856" y2="283.138" gradientUnits="userSpaceOnUse">
<stop stop-color="#3C454F"/>
<stop offset="1" stop-color="#333B45" stop-opacity="0"/>
</linearGradient>
<linearGradient id="paint3_linear_438_3769" x1="259.426" y1="313.77" x2="214.386" y2="290.059" gradientUnits="userSpaceOnUse">
<stop stop-color="#3C454F"/>
<stop offset="1" stop-color="#333B45" stop-opacity="0"/>
</linearGradient>
<linearGradient id="paint4_linear_438_3769" x1="366.16" y1="224.266" x2="336.362" y2="208.579" gradientUnits="userSpaceOnUse">
<stop stop-color="#3C454F"/>
<stop offset="1" stop-color="#333B45" stop-opacity="0"/>
</linearGradient>
<linearGradient id="paint5_linear_438_3769" x1="146.351" y1="261.861" x2="116.553" y2="246.175" gradientUnits="userSpaceOnUse">
<stop stop-color="#3C454F"/>
<stop offset="1" stop-color="#333B45" stop-opacity="0"/>
</linearGradient>
<linearGradient id="paint6_linear_438_3769" x1="161.717" y1="165.829" x2="131.92" y2="150.142" gradientUnits="userSpaceOnUse">
<stop stop-color="#3C454F"/>
<stop offset="1" stop-color="#333B45" stop-opacity="0"/>
</linearGradient>
<linearGradient id="paint7_linear_438_3769" x1="310.774" y1="302.889" x2="280.977" y2="287.203" gradientUnits="userSpaceOnUse">
<stop stop-color="#3C454F"/>
<stop offset="1" stop-color="#333B45" stop-opacity="0"/>
</linearGradient>
<linearGradient id="paint8_linear_438_3769" x1="180.566" y1="312.187" x2="156.37" y2="299.449" gradientUnits="userSpaceOnUse">
<stop stop-color="#3C454F"/>
<stop offset="1" stop-color="#333B45" stop-opacity="0"/>
</linearGradient>
<linearGradient id="paint9_linear_438_3769" x1="209.855" y1="111.549" x2="209.855" y2="144.617" gradientUnits="userSpaceOnUse">
<stop stop-color="#222C38"/>
<stop offset="1" stop-opacity="0"/>
</linearGradient>
<linearGradient id="paint10_linear_438_3769" x1="209.855" y1="41.0005" x2="209.855" y2="60.2687" gradientUnits="userSpaceOnUse">
<stop stop-color="#248876"/>
<stop offset="1" stop-color="#06C2A1"/>
</linearGradient>
<linearGradient id="paint11_linear_438_3769" x1="180.694" y1="114.179" x2="215.575" y2="117.305" gradientUnits="userSpaceOnUse">
<stop stop-color="#CBE1E8"/>
<stop offset="1" stop-color="#7A8897"/>
</linearGradient>
<linearGradient id="paint12_linear_438_3769" x1="209.552" y1="111.778" x2="226.553" y2="112.417" gradientUnits="userSpaceOnUse">
<stop stop-color="#CBE1E8"/>
<stop offset="1" stop-color="#7A8897"/>
</linearGradient>
<linearGradient id="paint13_linear_438_3769" x1="239.268" y1="113.628" x2="239.268" y2="150.086" gradientUnits="userSpaceOnUse">
<stop stop-color="#222C38"/>
<stop offset="1" stop-opacity="0"/>
</linearGradient>
<linearGradient id="paint14_linear_438_3769" x1="239.268" y1="59.6641" x2="239.268" y2="78.9504" gradientUnits="userSpaceOnUse">
<stop stop-color="#248876"/>
<stop offset="1" stop-color="#06C2A1"/>
</linearGradient>
<linearGradient id="paint15_linear_438_3769" x1="210.108" y1="121.081" x2="244.855" y2="124.87" gradientUnits="userSpaceOnUse">
<stop stop-color="#CBE1E8"/>
<stop offset="1" stop-color="#7A8897"/>
</linearGradient>
<linearGradient id="paint16_linear_438_3769" x1="238.979" y1="119.655" x2="255.955" y2="120.438" gradientUnits="userSpaceOnUse">
<stop stop-color="#CBE1E8"/>
<stop offset="1" stop-color="#7A8897"/>
</linearGradient>
<linearGradient id="paint17_linear_438_3769" x1="268.687" y1="121.69" x2="268.687" y2="158.105" gradientUnits="userSpaceOnUse">
<stop stop-color="#222C38"/>
<stop offset="1" stop-opacity="0"/>
</linearGradient>
<linearGradient id="paint18_linear_438_3769" x1="268.687" y1="83.0297" x2="268.687" y2="102.298" gradientUnits="userSpaceOnUse">
<stop stop-color="#248876"/>
<stop offset="1" stop-color="#06C2A1"/>
</linearGradient>
<linearGradient id="paint19_linear_438_3769" x1="239.53" y1="130.819" x2="273.962" y2="135.829" gradientUnits="userSpaceOnUse">
<stop stop-color="#CBE1E8"/>
<stop offset="1" stop-color="#7A8897"/>
</linearGradient>
<linearGradient id="paint20_linear_438_3769" x1="268.392" y1="130.519" x2="285.338" y2="131.576" gradientUnits="userSpaceOnUse">
<stop stop-color="#CBE1E8"/>
<stop offset="1" stop-color="#7A8897"/>
</linearGradient>
<linearGradient id="paint21_linear_438_3769" x1="298.1" y1="133.063" x2="298.1" y2="166.131" gradientUnits="userSpaceOnUse">
<stop stop-color="#222C38"/>
<stop offset="1" stop-opacity="0"/>
</linearGradient>
<linearGradient id="paint22_linear_438_3769" x1="298.1" y1="113.892" x2="298.1" y2="123.526" gradientUnits="userSpaceOnUse">
<stop stop-color="#248876"/>
<stop offset="1" stop-color="#06C2A1"/>
</linearGradient>
<linearGradient id="paint23_linear_438_3769" x1="268.944" y1="139.275" x2="303.241" y2="144.718" gradientUnits="userSpaceOnUse">
<stop stop-color="#CBE1E8"/>
<stop offset="1" stop-color="#7A8897"/>
</linearGradient>
<linearGradient id="paint24_linear_438_3769" x1="297.806" y1="139.247" x2="314.738" y2="140.405" gradientUnits="userSpaceOnUse">
<stop stop-color="#CBE1E8"/>
<stop offset="1" stop-color="#7A8897"/>
</linearGradient>
<linearGradient id="paint25_linear_438_3769" x1="327.518" y1="137.534" x2="327.518" y2="173.94" gradientUnits="userSpaceOnUse">
<stop stop-color="#222C38"/>
<stop offset="1" stop-opacity="0"/>
</linearGradient>
<linearGradient id="paint26_linear_438_3769" x1="327.518" y1="122.66" x2="327.518" y2="141.928" gradientUnits="userSpaceOnUse">
<stop stop-color="#248876"/>
<stop offset="1" stop-color="#06C2A1"/>
</linearGradient>
<linearGradient id="paint27_linear_438_3769" x1="298.357" y1="149.295" x2="330.569" y2="159.041" gradientUnits="userSpaceOnUse">
<stop stop-color="#CBE1E8"/>
<stop offset="1" stop-color="#7A8897"/>
</linearGradient>
<linearGradient id="paint28_linear_438_3769" x1="327.215" y1="150.733" x2="343.918" y2="153.052" gradientUnits="userSpaceOnUse">
<stop stop-color="#CBE1E8"/>
<stop offset="1" stop-color="#7A8897"/>
</linearGradient>
<linearGradient id="paint29_linear_438_3769" x1="298.1" y1="85.3767" x2="298.1" y2="104.635" gradientUnits="userSpaceOnUse">
<stop stop-color="#248876"/>
<stop offset="1" stop-color="#06C2A1"/>
</linearGradient>
<linearGradient id="paint30_linear_438_3769" x1="268.944" y1="107.775" x2="299.543" y2="119.589" gradientUnits="userSpaceOnUse">
<stop stop-color="#CBE1E8"/>
<stop offset="1" stop-color="#7A8897"/>
</linearGradient>
<linearGradient id="paint31_linear_438_3769" x1="297.806" y1="109.562" x2="314.261" y2="112.587" gradientUnits="userSpaceOnUse">
<stop stop-color="#CBE1E8"/>
<stop offset="1" stop-color="#7A8897"/>
</linearGradient>
<linearGradient id="paint32_linear_438_3769" x1="237.222" y1="148.033" x2="237.222" y2="250.715" gradientUnits="userSpaceOnUse">
<stop stop-color="#18675F"/>
<stop offset="1" stop-color="#16776A"/>
</linearGradient>
<linearGradient id="paint33_linear_438_3769" x1="207.733" y1="242.861" x2="227.519" y2="157.949" gradientUnits="userSpaceOnUse">
<stop stop-color="#06C2A1"/>
<stop offset="1" stop-color="#06C2A1" stop-opacity="0"/>
</linearGradient>
<linearGradient id="paint34_linear_438_3769" x1="238.103" y1="153.916" x2="238.103" y2="232.071" gradientUnits="userSpaceOnUse">
<stop stop-color="#1C8F7C"/>
<stop offset="1" stop-color="#5AE6CC"/>
</linearGradient>
<linearGradient id="paint35_linear_438_3769" x1="226.694" y1="210.71" x2="226.694" y2="162.895" gradientUnits="userSpaceOnUse">
<stop stop-color="#60E6CD"/>
<stop offset="1" stop-color="#06C2A1" stop-opacity="0"/>
</linearGradient>
<linearGradient id="paint36_linear_438_3769" x1="238.103" y1="158.045" x2="238.103" y2="217.802" gradientUnits="userSpaceOnUse">
<stop stop-color="#1C8F7C"/>
<stop offset="1" stop-color="#5AE6CC"/>
</linearGradient>
<linearGradient id="paint37_linear_438_3769" x1="265.441" y1="196.695" x2="267.914" y2="167.842" gradientUnits="userSpaceOnUse">
<stop stop-color="#9BFFED"/>
<stop offset="1" stop-color="#06C2A1" stop-opacity="0"/>
</linearGradient>
<linearGradient id="paint38_linear_438_3769" x1="120.173" y1="147.632" x2="78.3718" y2="171.884" gradientUnits="userSpaceOnUse">
<stop stop-color="#0CBA9C"/>
<stop offset="1" stop-color="#0CBA9C" stop-opacity="0"/>
</linearGradient>
<linearGradient id="paint39_linear_438_3769" x1="142.852" y1="101.454" x2="116.165" y2="117.93" gradientUnits="userSpaceOnUse">
<stop stop-color="white"/>
<stop offset="1" stop-color="white" stop-opacity="0"/>
</linearGradient>
<linearGradient id="paint40_linear_438_3769" x1="381.723" y1="173.311" x2="347.802" y2="194.253" gradientUnits="userSpaceOnUse">
<stop stop-color="white"/>
<stop offset="1" stop-color="white" stop-opacity="0"/>
</linearGradient>
<linearGradient id="paint41_linear_438_3769" x1="315.89" y1="253.687" x2="287.366" y2="270.236" gradientUnits="userSpaceOnUse">
<stop stop-color="#0CBA9C"/>
<stop offset="1" stop-color="#0CBA9C" stop-opacity="0"/>
</linearGradient>
<linearGradient id="paint42_linear_438_3769" x1="232.957" y1="273.385" x2="206.271" y2="289.861" gradientUnits="userSpaceOnUse">
<stop stop-color="white"/>
<stop offset="1" stop-color="white" stop-opacity="0"/>
</linearGradient>
<linearGradient id="paint43_linear_438_3769" x1="107.932" y1="242.36" x2="78.204" y2="259.608" gradientUnits="userSpaceOnUse">
<stop stop-color="#0CBA9C"/>
<stop offset="1" stop-color="#0CBA9C" stop-opacity="0"/>
</linearGradient>
<linearGradient id="paint44_linear_438_3769" x1="365.652" y1="246.686" x2="318.766" y2="275.633" gradientUnits="userSpaceOnUse">
<stop stop-color="white"/>
<stop offset="1" stop-color="white" stop-opacity="0"/>
</linearGradient>
</defs>
</svg>
