<svg width="56" height="57" viewBox="0 0 56 57" fill="none" xmlns="http://www.w3.org/2000/svg">
<path d="M25.2689 50.7943C24.917 50.7064 23.9491 50.056 22.8932 48.1573C21.5733 45.7839 20.7814 42.6195 19.9894 41.8284C19.1975 41.0373 18.6695 39.1913 19.9894 38.4002C21.3093 37.6091 22.6292 38.4002 23.1571 39.1913C23.6851 39.9824 25.5329 42.6195 26.0608 44.2017C26.0608 40.7736 26.0608 33.6535 26.0608 31.0165C26.0608 28.3795 30.0205 28.6432 30.0205 31.0165V37.0818C31.3404 35.7633 34.2441 37.0818 33.7161 39.1913C35.036 37.8729 37.6758 38.9278 37.4118 40.51C38.7317 39.4552 40.8435 40.51 40.8435 42.6196V46.8389C40.8435 48.5266 39.6116 50.1791 38.9957 50.7943" stroke="#242A32" stroke-width="2" stroke-linecap="round" stroke-linejoin="round"/>
<circle cx="27.5493" cy="12.207" r="6.74153" fill="#C9794A" stroke="#C9794A" stroke-width="2" stroke-linecap="round" stroke-linejoin="round"/>
<path d="M28.4492 10.7107C28.8175 11.1223 29.4497 11.1574 29.8613 10.7892C30.2729 10.4209 30.308 9.7887 29.9397 9.37712L28.4492 10.7107ZM27.6462 12.207L27.2596 13.1292L27.6462 12.207ZM26.3532 13.3874C25.93 13.0326 25.2992 13.0881 24.9444 13.5113C24.5897 13.9346 24.6452 14.5653 25.0684 14.9201L26.3532 13.3874ZM27.4526 14.873L27.4791 13.8733L27.4526 14.873ZM26.4526 15.8842C26.4526 16.4365 26.9004 16.8842 27.4526 16.8842C28.0049 16.8842 28.4526 16.4365 28.4526 15.8842H26.4526ZM28.6462 8.52977C28.6462 7.97749 28.1985 7.52977 27.6462 7.52977C27.0939 7.52977 26.6462 7.97749 26.6462 8.52977H28.6462ZM28.6811 14.451L27.9841 13.7338L28.6811 14.451ZM28.326 12.5599L28.8853 11.731L28.326 12.5599ZM29.9397 9.37712C29.6074 9.00574 28.7732 8.39499 27.6462 8.39499V10.395C27.8455 10.395 28.0296 10.4509 28.1851 10.5299C28.2623 10.5691 28.327 10.6113 28.3761 10.6485C28.428 10.6878 28.4509 10.7126 28.4492 10.7107L29.9397 9.37712ZM27.6462 8.39499C26.2123 8.39499 25.0979 9.40932 25.0979 10.6928H27.0979C27.0979 10.669 27.1099 10.6063 27.184 10.5385C27.2515 10.4768 27.3921 10.395 27.6462 10.395V8.39499ZM25.0979 10.6928C25.0979 11.361 25.4125 11.8881 25.8293 12.2745C26.2222 12.6388 26.7351 12.9094 27.2596 13.1292L28.0327 11.2847C27.5896 11.099 27.3283 10.937 27.189 10.8078C27.1255 10.7489 27.105 10.7128 27.1002 10.703C27.0977 10.6981 27.0979 10.6991 27.0979 10.6928H25.0979ZM27.4791 13.8733C27.1866 13.8656 26.7838 13.7483 26.3532 13.3874L25.0684 14.9201C25.8139 15.545 26.643 15.8519 27.4262 15.8726L27.4791 13.8733ZM26.4526 14.873V15.8842H28.4526V14.873H26.4526ZM28.6462 9.39499V8.52977H26.6462V9.39499H28.6462ZM27.9841 13.7338C27.9324 13.7841 27.7712 13.8811 27.4791 13.8733L27.4262 15.8726C28.1535 15.8919 28.8714 15.6604 29.378 15.1681L27.9841 13.7338ZM27.2596 13.1292C27.4796 13.2214 27.6448 13.3066 27.7667 13.3889L28.8853 11.731C28.6126 11.5469 28.3157 11.4033 28.0327 11.2847L27.2596 13.1292ZM27.7667 13.3889C27.9595 13.5189 27.9917 13.6364 27.997 13.6725C28.003 13.7142 27.9899 13.7282 27.9841 13.7338L29.378 15.1681C30.4052 14.1698 30.1102 12.5573 28.8853 11.731L27.7667 13.3889Z" fill="white"/>
<circle cx="45.58" cy="24.8285" r="6.74153" fill="#C9794A" stroke="#C9794A" stroke-width="2" stroke-linecap="round" stroke-linejoin="round"/>
<path d="M46.4799 23.3322C46.8481 23.7438 47.4803 23.7789 47.8919 23.4107C48.3035 23.0424 48.3386 22.4102 47.9704 21.9986L46.4799 23.3322ZM45.6768 24.8285L45.2903 25.7507L45.6768 24.8285ZM44.3839 26.0089C43.9606 25.6541 43.3299 25.7096 42.9751 26.1328C42.6203 26.5561 42.6758 27.1868 43.0991 27.5416L44.3839 26.0089ZM45.4833 27.4945L45.5098 26.4948L45.4833 27.4945ZM44.4833 28.5057C44.4833 29.058 44.931 29.5057 45.4833 29.5057C46.0356 29.5057 46.4833 29.058 46.4833 28.5057H44.4833ZM46.6768 21.1513C46.6768 20.599 46.2291 20.1513 45.6768 20.1513C45.1245 20.1513 44.6768 20.599 44.6768 21.1513H46.6768ZM46.7117 27.0725L46.0148 26.3554L46.7117 27.0725ZM46.3567 25.1814L46.916 24.3525L46.3567 25.1814ZM47.9704 21.9986C47.6381 21.6272 46.8039 21.0165 45.6768 21.0165V23.0165C45.8762 23.0165 46.0602 23.0724 46.2158 23.1514C46.2929 23.1906 46.3576 23.2328 46.4068 23.27C46.4586 23.3093 46.4816 23.3341 46.4799 23.3322L47.9704 21.9986ZM45.6768 21.0165C44.2429 21.0165 43.1285 22.0308 43.1285 23.3143H45.1285C45.1285 23.2905 45.1405 23.2278 45.2146 23.16C45.2822 23.0983 45.4227 23.0165 45.6768 23.0165V21.0165ZM43.1285 23.3143C43.1285 23.9825 43.4432 24.5096 43.8599 24.896C44.2529 25.2603 44.7657 25.5309 45.2903 25.7507L46.0634 23.9062C45.6203 23.7205 45.359 23.5585 45.2197 23.4293C45.1561 23.3704 45.1357 23.3343 45.1308 23.3245C45.1284 23.3196 45.1285 23.3206 45.1285 23.3143H43.1285ZM45.5098 26.4948C45.2172 26.4871 44.8144 26.3698 44.3839 26.0089L43.0991 27.5416C43.8445 28.1665 44.6736 28.4734 45.4568 28.4941L45.5098 26.4948ZM44.4833 27.4945V28.5057H46.4833V27.4945H44.4833ZM46.6768 22.0165V21.1513H44.6768V22.0165H46.6768ZM46.0148 26.3554C45.963 26.4056 45.8018 26.5026 45.5098 26.4948L45.4568 28.4941C46.1842 28.5134 46.9021 28.2819 47.4087 27.7896L46.0148 26.3554ZM45.2903 25.7507C45.5102 25.8429 45.6754 25.9281 45.7974 26.0104L46.916 24.3525C46.6432 24.1684 46.3464 24.0248 46.0634 23.9062L45.2903 25.7507ZM45.7974 26.0104C45.9901 26.1404 46.0223 26.2579 46.0276 26.294C46.0336 26.3357 46.0205 26.3497 46.0148 26.3554L47.4087 27.7896C48.4358 26.7913 48.1408 25.1788 46.916 24.3525L45.7974 26.0104Z" fill="white"/>
<circle cx="10.4201" cy="24.8285" r="6.74153" fill="#C9794A" stroke="#C9794A" stroke-width="2" stroke-linecap="round" stroke-linejoin="round"/>
<path d="M11.32 23.3322C11.6882 23.7438 12.3204 23.7789 12.732 23.4107C13.1436 23.0424 13.1787 22.4102 12.8104 21.9986L11.32 23.3322ZM10.5169 24.8285L10.1304 25.7507L10.5169 24.8285ZM9.22394 26.0089C8.80069 25.6541 8.16996 25.7096 7.81517 26.1328C7.46039 26.5561 7.51589 27.1868 7.93914 27.5416L9.22394 26.0089ZM10.3234 27.4945L10.3498 26.4948L10.3234 27.4945ZM9.32337 28.5057C9.32337 29.058 9.77109 29.5057 10.3234 29.5057C10.8757 29.5057 11.3234 29.058 11.3234 28.5057H9.32337ZM11.5169 21.1513C11.5169 20.599 11.0692 20.1513 10.5169 20.1513C9.96463 20.1513 9.51691 20.599 9.51691 21.1513H11.5169ZM11.5518 27.0725L10.8549 26.3554L11.5518 27.0725ZM11.1968 25.1814L11.7561 24.3525L11.1968 25.1814ZM12.8104 21.9986C12.4782 21.6272 11.644 21.0165 10.5169 21.0165V23.0165C10.7163 23.0165 10.9003 23.0724 11.0559 23.1514C11.133 23.1906 11.1977 23.2328 11.2469 23.27C11.2987 23.3093 11.3217 23.3341 11.32 23.3322L12.8104 21.9986ZM10.5169 21.0165C9.08301 21.0165 7.96862 22.0308 7.96862 23.3143H9.96862C9.96862 23.2905 9.9806 23.2278 10.0547 23.16C10.1222 23.0983 10.2628 23.0165 10.5169 23.0165V21.0165ZM7.96862 23.3143C7.96862 23.9825 8.28325 24.5096 8.7 24.896C9.09294 25.2603 9.60579 25.5309 10.1304 25.7507L10.9035 23.9062C10.4603 23.7205 10.199 23.5585 10.0598 23.4293C9.99623 23.3704 9.97576 23.3343 9.97089 23.3245C9.96847 23.3196 9.96862 23.3206 9.96862 23.3143H7.96862ZM10.3498 26.4948C10.0573 26.4871 9.65453 26.3698 9.22394 26.0089L7.93914 27.5416C8.68463 28.1665 9.51373 28.4734 10.2969 28.4941L10.3498 26.4948ZM9.32337 27.4945V28.5057H11.3234V27.4945H9.32337ZM11.5169 22.0165V21.1513H9.51691V22.0165H11.5169ZM10.8549 26.3554C10.8031 26.4056 10.6419 26.5026 10.3498 26.4948L10.2969 28.4941C11.0243 28.5134 11.7422 28.2819 12.2488 27.7896L10.8549 26.3554ZM10.1304 25.7507C10.3503 25.8429 10.5155 25.9281 10.6375 26.0104L11.7561 24.3525C11.4833 24.1684 11.1864 24.0248 10.9035 23.9062L10.1304 25.7507ZM10.6375 26.0104C10.8302 26.1404 10.8624 26.2579 10.8677 26.294C10.8737 26.3357 10.8606 26.3497 10.8549 26.3554L12.2488 27.7896C13.2759 26.7913 12.9809 25.1788 11.7561 24.3525L10.6375 26.0104Z" fill="white"/>
</svg>
